%TF.GenerationSoftware,KiCad,Pcbnew,(6.0.1)*%
%TF.CreationDate,2022-11-16T17:15:53-05:00*%
%TF.ProjectId,Projet_Final_GI_Equipe2,50726f6a-6574-45f4-9669-6e616c5f4749,rev?*%
%TF.SameCoordinates,Original*%
%TF.FileFunction,Copper,L1,Top*%
%TF.FilePolarity,Positive*%
%FSLAX46Y46*%
G04 Gerber Fmt 4.6, Leading zero omitted, Abs format (unit mm)*
G04 Created by KiCad (PCBNEW (6.0.1)) date 2022-11-16 17:15:53*
%MOMM*%
%LPD*%
G01*
G04 APERTURE LIST*
G04 Aperture macros list*
%AMRoundRect*
0 Rectangle with rounded corners*
0 $1 Rounding radius*
0 $2 $3 $4 $5 $6 $7 $8 $9 X,Y pos of 4 corners*
0 Add a 4 corners polygon primitive as box body*
4,1,4,$2,$3,$4,$5,$6,$7,$8,$9,$2,$3,0*
0 Add four circle primitives for the rounded corners*
1,1,$1+$1,$2,$3*
1,1,$1+$1,$4,$5*
1,1,$1+$1,$6,$7*
1,1,$1+$1,$8,$9*
0 Add four rect primitives between the rounded corners*
20,1,$1+$1,$2,$3,$4,$5,0*
20,1,$1+$1,$4,$5,$6,$7,0*
20,1,$1+$1,$6,$7,$8,$9,0*
20,1,$1+$1,$8,$9,$2,$3,0*%
%AMFreePoly0*
4,1,22,0.500000,-0.750000,0.000000,-0.750000,0.000000,-0.745033,-0.079941,-0.743568,-0.215256,-0.701293,-0.333266,-0.622738,-0.424486,-0.514219,-0.481581,-0.384460,-0.499164,-0.250000,-0.500000,-0.250000,-0.500000,0.250000,-0.499164,0.250000,-0.499963,0.256109,-0.478152,0.396186,-0.417904,0.524511,-0.324060,0.630769,-0.204165,0.706417,-0.067858,0.745374,0.000000,0.744959,0.000000,0.750000,
0.500000,0.750000,0.500000,-0.750000,0.500000,-0.750000,$1*%
%AMFreePoly1*
4,1,20,0.000000,0.744959,0.073905,0.744508,0.209726,0.703889,0.328688,0.626782,0.421226,0.519385,0.479903,0.390333,0.500000,0.250000,0.500000,-0.250000,0.499851,-0.262216,0.476331,-0.402017,0.414519,-0.529596,0.319384,-0.634700,0.198574,-0.708877,0.061801,-0.746166,0.000000,-0.745033,0.000000,-0.750000,-0.500000,-0.750000,-0.500000,0.750000,0.000000,0.750000,0.000000,0.744959,
0.000000,0.744959,$1*%
G04 Aperture macros list end*
%TA.AperFunction,ComponentPad*%
%ADD10R,1.700000X1.700000*%
%TD*%
%TA.AperFunction,ComponentPad*%
%ADD11O,1.700000X1.700000*%
%TD*%
%TA.AperFunction,SMDPad,CuDef*%
%ADD12FreePoly0,0.000000*%
%TD*%
%TA.AperFunction,SMDPad,CuDef*%
%ADD13FreePoly1,0.000000*%
%TD*%
%TA.AperFunction,SMDPad,CuDef*%
%ADD14FreePoly0,180.000000*%
%TD*%
%TA.AperFunction,SMDPad,CuDef*%
%ADD15FreePoly1,180.000000*%
%TD*%
%TA.AperFunction,ComponentPad*%
%ADD16C,1.778000*%
%TD*%
%TA.AperFunction,ComponentPad*%
%ADD17C,2.286000*%
%TD*%
%TA.AperFunction,SMDPad,CuDef*%
%ADD18R,1.000000X1.500000*%
%TD*%
%TA.AperFunction,SMDPad,CuDef*%
%ADD19RoundRect,0.250000X0.337500X0.475000X-0.337500X0.475000X-0.337500X-0.475000X0.337500X-0.475000X0*%
%TD*%
%TA.AperFunction,SMDPad,CuDef*%
%ADD20RoundRect,0.250000X0.475000X-0.337500X0.475000X0.337500X-0.475000X0.337500X-0.475000X-0.337500X0*%
%TD*%
%TA.AperFunction,SMDPad,CuDef*%
%ADD21RoundRect,0.250000X-0.337500X-0.475000X0.337500X-0.475000X0.337500X0.475000X-0.337500X0.475000X0*%
%TD*%
%TA.AperFunction,ComponentPad*%
%ADD22O,3.048000X1.850000*%
%TD*%
%TA.AperFunction,SMDPad,CuDef*%
%ADD23RoundRect,0.250000X-0.475000X0.337500X-0.475000X-0.337500X0.475000X-0.337500X0.475000X0.337500X0*%
%TD*%
%TA.AperFunction,ViaPad*%
%ADD24C,0.800000*%
%TD*%
%TA.AperFunction,Conductor*%
%ADD25C,0.250000*%
%TD*%
G04 APERTURE END LIST*
D10*
%TO.P,J1,1,Pin_1*%
%TO.N,/A0*%
X130275000Y-85215000D03*
D11*
%TO.P,J1,2,Pin_2*%
%TO.N,/G*%
X132815000Y-85215000D03*
%TO.P,J1,3,Pin_3*%
%TO.N,/VV*%
X135355000Y-85215000D03*
%TO.P,J1,4,Pin_4*%
%TO.N,/S3{slash}R3*%
X137895000Y-85215000D03*
%TO.P,J1,5,Pin_5*%
%TO.N,/S2{slash}L3*%
X140435000Y-85215000D03*
%TO.P,J1,6,Pin_6*%
%TO.N,/S1*%
X142975000Y-85215000D03*
%TO.P,J1,7,Pin_7*%
%TO.N,/SC*%
X145515000Y-85215000D03*
%TO.P,J1,8,Pin_8*%
%TO.N,/SO*%
X148055000Y-85215000D03*
%TO.P,J1,9,Pin_9*%
%TO.N,/SK*%
X150595000Y-85215000D03*
%TO.P,J1,10,Pin_10*%
%TO.N,/G*%
X153135000Y-85215000D03*
%TO.P,J1,11,Pin_11*%
%TO.N,/3V3*%
X155675000Y-85215000D03*
%TO.P,J1,12,Pin_12*%
%TO.N,/EN*%
X158215000Y-85215000D03*
%TO.P,J1,13,Pin_13*%
%TO.N,/RST*%
X160755000Y-85215000D03*
%TO.P,J1,14,Pin_14*%
%TO.N,/G*%
X163295000Y-85215000D03*
%TO.P,J1,15,Pin_15*%
%TO.N,/VIN*%
X165835000Y-85215000D03*
%TD*%
D12*
%TO.P,JP2,1,A*%
%TO.N,/S3{slash}R3*%
X170292000Y-82296000D03*
D13*
%TO.P,JP2,2,B*%
%TO.N,Net-(R7-Pad2)*%
X171592000Y-82296000D03*
%TD*%
D14*
%TO.P,JP1,1,A*%
%TO.N,/S2{slash}L3*%
X126634000Y-82296000D03*
D15*
%TO.P,JP1,2,B*%
%TO.N,Net-(R6-Pad2)*%
X125334000Y-82296000D03*
%TD*%
D10*
%TO.P,J8,1,Pin_1*%
%TO.N,/G*%
X146045000Y-119380000D03*
D11*
%TO.P,J8,2,Pin_2*%
%TO.N,/PLUS*%
X148585000Y-119380000D03*
%TD*%
D10*
%TO.P,J7,1,Pin_1*%
%TO.N,/PLUS*%
X144033000Y-93980000D03*
D11*
%TO.P,J7,2,Pin_2*%
%TO.N,/VIN*%
X146573000Y-93980000D03*
%TO.P,J7,3,Pin_3*%
%TO.N,Net-(C4-Pad2)*%
X149113000Y-93980000D03*
%TD*%
D16*
%TO.P,U2,V3,V-*%
%TO.N,GND*%
X158840000Y-106540000D03*
%TO.P,U2,V2,V*%
%TO.N,/RIGHTV*%
X158840000Y-104000000D03*
%TO.P,U2,V1,V+*%
%TO.N,/3V3*%
X158840000Y-101460000D03*
D17*
%TO.P,U2,S4,SHIELD*%
%TO.N,GND*%
X176620000Y-97332500D03*
%TO.P,U2,S3,SHIELD*%
X176620000Y-110667500D03*
%TO.P,U2,S2,SHIELD*%
X161380000Y-110667500D03*
%TO.P,U2,S1,SHIELD*%
X161380000Y-97332500D03*
D16*
%TO.P,U2,H3,H-*%
X171540000Y-114160000D03*
%TO.P,U2,H2,H*%
%TO.N,/RIGHTH*%
X169000000Y-114160000D03*
%TO.P,U2,H1,H+*%
%TO.N,/3V3*%
X166460000Y-114160000D03*
%TO.P,U2,B2B*%
%TO.N,N/C*%
X172175000Y-96380000D03*
%TO.P,U2,B2A,SEL-*%
%TO.N,GND*%
X165825000Y-96380000D03*
%TO.P,U2,B1B*%
%TO.N,N/C*%
X172175000Y-91300000D03*
%TO.P,U2,B1A,SEL+*%
%TO.N,Net-(R7-Pad2)*%
X165825000Y-91300000D03*
%TD*%
%TO.P,U1,B1A,SEL+*%
%TO.N,Net-(R6-Pad2)*%
X122225000Y-91300000D03*
%TO.P,U1,B1B*%
%TO.N,N/C*%
X128575000Y-91300000D03*
%TO.P,U1,B2A,SEL-*%
%TO.N,GND*%
X122225000Y-96380000D03*
%TO.P,U1,B2B*%
%TO.N,N/C*%
X128575000Y-96380000D03*
%TO.P,U1,H1,H+*%
%TO.N,/3V3*%
X122860000Y-114160000D03*
%TO.P,U1,H2,H*%
%TO.N,/LEFTH*%
X125400000Y-114160000D03*
%TO.P,U1,H3,H-*%
%TO.N,GND*%
X127940000Y-114160000D03*
D17*
%TO.P,U1,S1,SHIELD*%
X117780000Y-97332500D03*
%TO.P,U1,S2,SHIELD*%
X117780000Y-110667500D03*
%TO.P,U1,S3,SHIELD*%
X133020000Y-110667500D03*
%TO.P,U1,S4,SHIELD*%
X133020000Y-97332500D03*
D16*
%TO.P,U1,V1,V+*%
%TO.N,/3V3*%
X115240000Y-101460000D03*
%TO.P,U1,V2,V*%
%TO.N,/LEFTV*%
X115240000Y-104000000D03*
%TO.P,U1,V3,V-*%
%TO.N,GND*%
X115240000Y-106540000D03*
%TD*%
D18*
%TO.P,D7,4,DIN*%
%TO.N,Net-(D5-Pad2)*%
X190286000Y-66732000D03*
%TO.P,D7,3,VSS*%
%TO.N,GND*%
X193486000Y-66732000D03*
%TO.P,D7,2,DOUT*%
%TO.N,unconnected-(D7-Pad2)*%
X193486000Y-71632000D03*
%TO.P,D7,1,VDD*%
%TO.N,/5V*%
X190286000Y-71632000D03*
%TD*%
D19*
%TO.P,R3,1*%
%TO.N,/D2{slash}SPECIAL*%
X197104000Y-97282000D03*
%TO.P,R3,2*%
%TO.N,GND*%
X195029000Y-97282000D03*
%TD*%
D20*
%TO.P,C1,1*%
%TO.N,GND*%
X98044000Y-70125500D03*
%TO.P,C1,2*%
%TO.N,/5V*%
X98044000Y-68050500D03*
%TD*%
%TO.P,C3,1*%
%TO.N,GND*%
X98044000Y-60727500D03*
%TO.P,C3,2*%
%TO.N,/5V*%
X98044000Y-58652500D03*
%TD*%
D19*
%TO.P,R1,1*%
%TO.N,/D0{slash}RGB*%
X114829500Y-68326000D03*
%TO.P,R1,2*%
%TO.N,Net-(D1-Pad4)*%
X112754500Y-68326000D03*
%TD*%
D21*
%TO.P,R6,1*%
%TO.N,/3V3*%
X122406500Y-85090000D03*
%TO.P,R6,2*%
%TO.N,Net-(R6-Pad2)*%
X124481500Y-85090000D03*
%TD*%
D11*
%TO.P,J2,15,Pin_15*%
%TO.N,/3V3*%
X165835000Y-57275000D03*
%TO.P,J2,14,Pin_14*%
%TO.N,/G*%
X163295000Y-57275000D03*
%TO.P,J2,13,Pin_13*%
%TO.N,/TX*%
X160755000Y-57275000D03*
%TO.P,J2,12,Pin_12*%
%TO.N,/RX*%
X158215000Y-57275000D03*
%TO.P,J2,11,Pin_11*%
%TO.N,/D8{slash}CSR*%
X155675000Y-57275000D03*
%TO.P,J2,10,Pin_10*%
%TO.N,/D7{slash}DIN*%
X153135000Y-57275000D03*
%TO.P,J2,9,Pin_9*%
%TO.N,/D6{slash}DOUT*%
X150595000Y-57275000D03*
%TO.P,J2,8,Pin_8*%
%TO.N,/D5{slash}CLK*%
X148055000Y-57275000D03*
%TO.P,J2,7,Pin_7*%
%TO.N,/G*%
X145515000Y-57275000D03*
%TO.P,J2,6,Pin_6*%
%TO.N,/3V3*%
X142975000Y-57275000D03*
%TO.P,J2,5,Pin_5*%
%TO.N,/D4{slash}CSL*%
X140435000Y-57275000D03*
%TO.P,J2,4,Pin_4*%
%TO.N,/D3*%
X137895000Y-57275000D03*
%TO.P,J2,3,Pin_3*%
%TO.N,/D2{slash}SPECIAL*%
X135355000Y-57275000D03*
%TO.P,J2,2,Pin_2*%
%TO.N,/D1{slash}ATTACK*%
X132815000Y-57275000D03*
D10*
%TO.P,J2,1,Pin_1*%
%TO.N,/D0{slash}RGB*%
X130275000Y-57275000D03*
%TD*%
D18*
%TO.P,D5,4,DIN*%
%TO.N,Net-(D3-Pad2)*%
X190286000Y-56732000D03*
%TO.P,D5,3,VSS*%
%TO.N,GND*%
X193486000Y-56732000D03*
%TO.P,D5,2,DOUT*%
%TO.N,Net-(D5-Pad2)*%
X193486000Y-61632000D03*
%TO.P,D5,1,VDD*%
%TO.N,/5V*%
X190286000Y-61632000D03*
%TD*%
D10*
%TO.P,J3,1,Pin_1*%
%TO.N,/D8{slash}CSR*%
X171150000Y-77475000D03*
D11*
%TO.P,J3,2,Pin_2*%
%TO.N,/RIGHTV*%
X173690000Y-77475000D03*
%TO.P,J3,3,Pin_3*%
%TO.N,/RIGHTH*%
X176230000Y-77475000D03*
%TO.P,J3,4,Pin_4*%
%TO.N,GND*%
X178770000Y-77475000D03*
%TD*%
D22*
%TO.P,SW2,1,1*%
%TO.N,/3.3V*%
X197235000Y-85350000D03*
X184735000Y-85350000D03*
%TO.P,SW2,2,2*%
%TO.N,/D2{slash}SPECIAL*%
X197235000Y-90350000D03*
X184735000Y-90350000D03*
%TD*%
D23*
%TO.P,C7,2*%
%TO.N,/5V*%
X186436000Y-70125500D03*
%TO.P,C7,1*%
%TO.N,GND*%
X186436000Y-68050500D03*
%TD*%
D21*
%TO.P,R2,1*%
%TO.N,/D1{slash}ATTACK*%
X98806000Y-97282000D03*
%TO.P,R2,2*%
%TO.N,GND*%
X100881000Y-97282000D03*
%TD*%
D18*
%TO.P,D3,1,VDD*%
%TO.N,/5V*%
X105486000Y-56732000D03*
%TO.P,D3,2,DOUT*%
%TO.N,Net-(D3-Pad2)*%
X102286000Y-56732000D03*
%TO.P,D3,3,VSS*%
%TO.N,GND*%
X102286000Y-61632000D03*
%TO.P,D3,4,DIN*%
%TO.N,Net-(D1-Pad2)*%
X105486000Y-61632000D03*
%TD*%
D23*
%TO.P,C5,2*%
%TO.N,/5V*%
X186182000Y-60981500D03*
%TO.P,C5,1*%
%TO.N,GND*%
X186182000Y-58906500D03*
%TD*%
D10*
%TO.P,J4,1,Pin_1*%
%TO.N,/D4{slash}CSL*%
X116150000Y-77475000D03*
D11*
%TO.P,J4,2,Pin_2*%
%TO.N,/LEFTV*%
X118690000Y-77475000D03*
%TO.P,J4,3,Pin_3*%
%TO.N,/LEFTH*%
X121230000Y-77475000D03*
%TO.P,J4,4,Pin_4*%
%TO.N,GND*%
X123770000Y-77475000D03*
%TD*%
D10*
%TO.P,J6,1,Pin_1*%
%TO.N,/3.3V*%
X171150000Y-62235000D03*
D11*
%TO.P,J6,2,Pin_2*%
%TO.N,/D5{slash}CLK*%
X173690000Y-62235000D03*
%TO.P,J6,3,Pin_3*%
%TO.N,/D6{slash}DOUT*%
X176230000Y-62235000D03*
%TO.P,J6,4,Pin_4*%
%TO.N,/D7{slash}DIN*%
X178770000Y-62235000D03*
%TD*%
D10*
%TO.P,J5,1,Pin_1*%
%TO.N,/3.3V*%
X116150000Y-62235000D03*
D11*
%TO.P,J5,2,Pin_2*%
%TO.N,/D5{slash}CLK*%
X118690000Y-62235000D03*
%TO.P,J5,3,Pin_3*%
%TO.N,/D6{slash}DOUT*%
X121230000Y-62235000D03*
%TO.P,J5,4,Pin_4*%
%TO.N,/D7{slash}DIN*%
X123770000Y-62235000D03*
%TD*%
D22*
%TO.P,SW1,1,1*%
%TO.N,/3.3V*%
X111410000Y-85375000D03*
X98910000Y-85375000D03*
%TO.P,SW1,2,2*%
%TO.N,/D1{slash}ATTACK*%
X111410000Y-90375000D03*
X98910000Y-90375000D03*
%TD*%
D21*
%TO.P,R7,2*%
%TO.N,Net-(R7-Pad2)*%
X171979500Y-85344000D03*
%TO.P,R7,1*%
%TO.N,/3V3*%
X169904500Y-85344000D03*
%TD*%
D18*
%TO.P,D1,1,VDD*%
%TO.N,/5V*%
X105486000Y-66732000D03*
%TO.P,D1,2,DOUT*%
%TO.N,Net-(D1-Pad2)*%
X102286000Y-66732000D03*
%TO.P,D1,3,VSS*%
%TO.N,GND*%
X102286000Y-71632000D03*
%TO.P,D1,4,DIN*%
%TO.N,Net-(D1-Pad4)*%
X105486000Y-71632000D03*
%TD*%
D24*
%TO.N,/S3{slash}R3*%
X153924000Y-82296000D03*
%TO.N,/VIN*%
X156972000Y-88138000D03*
%TD*%
D25*
%TO.N,/S3{slash}R3*%
X170292000Y-82296000D02*
X153924000Y-82296000D01*
%TO.N,Net-(R7-Pad2)*%
X171592000Y-84956500D02*
X171979500Y-85344000D01*
X171592000Y-82296000D02*
X171592000Y-84956500D01*
%TO.N,Net-(R6-Pad2)*%
X124481500Y-89043500D02*
X122225000Y-91300000D01*
X124481500Y-85090000D02*
X124481500Y-89043500D01*
%TO.N,/S2{slash}L3*%
X137516000Y-82296000D02*
X140435000Y-85215000D01*
X126634000Y-82296000D02*
X137516000Y-82296000D01*
%TO.N,Net-(R6-Pad2)*%
X124481500Y-83148500D02*
X125334000Y-82296000D01*
X124481500Y-85090000D02*
X124481500Y-83148500D01*
%TO.N,/VIN*%
X156972000Y-88138000D02*
X162912000Y-88138000D01*
X162912000Y-88138000D02*
X165835000Y-85215000D01*
%TO.N,/3V3*%
X155675000Y-88365000D02*
X155675000Y-85215000D01*
X156718000Y-89408000D02*
X155675000Y-88365000D01*
X169904500Y-85344000D02*
X165840500Y-89408000D01*
X165840500Y-89408000D02*
X156718000Y-89408000D01*
%TO.N,Net-(R7-Pad2)*%
X167801500Y-91300000D02*
X171979500Y-87122000D01*
X165825000Y-91300000D02*
X167801500Y-91300000D01*
X171979500Y-87122000D02*
X171979500Y-85344000D01*
%TO.N,GND*%
X102286000Y-71632000D02*
X113258520Y-82604520D01*
X131877000Y-98475500D02*
X133020000Y-97332500D01*
X176620000Y-110667500D02*
X173127500Y-114160000D01*
X176620000Y-97332500D02*
X176620000Y-110667500D01*
X117780000Y-110667500D02*
X117780000Y-112283946D01*
X158840000Y-106540000D02*
X158840000Y-108127500D01*
X102286000Y-71632000D02*
X101461489Y-70807489D01*
X178770000Y-75716500D02*
X186436000Y-68050500D01*
X98044000Y-60727500D02*
X96994480Y-61777020D01*
X110947500Y-97332500D02*
X117780000Y-97332500D01*
X165825000Y-96380000D02*
X162332500Y-96380000D01*
X178770000Y-77475000D02*
X178770000Y-95182500D01*
X126276969Y-115823031D02*
X127940000Y-114160000D01*
X157626489Y-99469565D02*
X157626489Y-105326489D01*
X113258520Y-92811020D02*
X117780000Y-97332500D01*
X117780000Y-112283946D02*
X121319085Y-115823031D01*
X194310511Y-57556511D02*
X194310511Y-65907489D01*
X170130000Y-115570000D02*
X171540000Y-114160000D01*
X194310511Y-65907489D02*
X193486000Y-66732000D01*
X100881000Y-97282000D02*
X100931500Y-97332500D01*
X96994480Y-69075980D02*
X98044000Y-70125500D01*
X157626489Y-105326489D02*
X158840000Y-106540000D01*
X161380000Y-110667500D02*
X161380000Y-112283946D01*
X98044000Y-70125500D02*
X99550500Y-71632000D01*
X115240000Y-106540000D02*
X115240000Y-108127500D01*
X159763554Y-97332500D02*
X157626489Y-99469565D01*
X122225000Y-96380000D02*
X124320500Y-98475500D01*
X122225000Y-96380000D02*
X120845520Y-95000520D01*
X195029000Y-97282000D02*
X194978500Y-97332500D01*
X110947500Y-102247500D02*
X110947500Y-97332500D01*
X115240000Y-108127500D02*
X117780000Y-110667500D01*
X178770000Y-95182500D02*
X176620000Y-97332500D01*
X127940000Y-114160000D02*
X129527500Y-114160000D01*
X101461489Y-62456511D02*
X102286000Y-61632000D01*
X173127500Y-114160000D02*
X171540000Y-114160000D01*
X120845520Y-90008000D02*
X123569480Y-87284040D01*
X186436000Y-68050500D02*
X192167500Y-68050500D01*
X96994480Y-61777020D02*
X96994480Y-69075980D01*
X115240000Y-106540000D02*
X110947500Y-102247500D01*
X194978500Y-97332500D02*
X176620000Y-97332500D01*
X113258520Y-82604520D02*
X113258520Y-92811020D01*
X161380000Y-97332500D02*
X159763554Y-97332500D01*
X101461489Y-70807489D02*
X101461489Y-62456511D01*
X99550500Y-71632000D02*
X102286000Y-71632000D01*
X133020000Y-97332500D02*
X161380000Y-97332500D01*
X121319085Y-115823031D02*
X126276969Y-115823031D01*
X100931500Y-97332500D02*
X110947500Y-97332500D01*
X129527500Y-114160000D02*
X133020000Y-110667500D01*
X123569480Y-87284040D02*
X123569480Y-77675520D01*
X178770000Y-77475000D02*
X178770000Y-75716500D01*
X193486000Y-56732000D02*
X194310511Y-57556511D01*
X123569480Y-77675520D02*
X123770000Y-77475000D01*
X192167500Y-68050500D02*
X193486000Y-66732000D01*
X158840000Y-108127500D02*
X161380000Y-110667500D01*
X120845520Y-95000520D02*
X120845520Y-90008000D01*
X164666054Y-115570000D02*
X170130000Y-115570000D01*
X186182000Y-58906500D02*
X191311500Y-58906500D01*
X191311500Y-58906500D02*
X193486000Y-56732000D01*
X161380000Y-112283946D02*
X164666054Y-115570000D01*
X162332500Y-96380000D02*
X161380000Y-97332500D01*
X124320500Y-98475500D02*
X131877000Y-98475500D01*
%TO.N,/5V*%
X194818000Y-67564000D02*
X190750000Y-71632000D01*
X148018021Y-55650969D02*
X180851469Y-55650969D01*
X146880489Y-57761499D02*
X146880489Y-56788501D01*
X101566978Y-60452000D02*
X103632000Y-60452000D01*
X184139250Y-58938750D02*
X185166000Y-57912000D01*
X106426000Y-60672978D02*
X106426000Y-65792000D01*
X141609511Y-56788501D02*
X141609511Y-57761499D01*
X191770000Y-57147022D02*
X191770000Y-55118000D01*
X187942500Y-71632000D02*
X190286000Y-71632000D01*
X186182000Y-60981500D02*
X186832500Y-61632000D01*
X111448009Y-55650969D02*
X140471979Y-55650969D01*
X103632000Y-58719000D02*
X103632000Y-60452000D01*
X103632000Y-60452000D02*
X106205022Y-60452000D01*
X106205022Y-60452000D02*
X106426000Y-60672978D01*
X194818000Y-55626000D02*
X194818000Y-67564000D01*
X142798492Y-58950480D02*
X145691508Y-58950480D01*
X141609511Y-57761499D02*
X142798492Y-58950480D01*
X106426000Y-65792000D02*
X105486000Y-66732000D01*
X98044000Y-63974978D02*
X101566978Y-60452000D01*
X146880489Y-56788501D02*
X148018021Y-55650969D01*
X186436000Y-70125500D02*
X187942500Y-71632000D01*
X191005022Y-57912000D02*
X191770000Y-57147022D01*
X185166000Y-57912000D02*
X191005022Y-57912000D01*
X190750000Y-71632000D02*
X190286000Y-71632000D01*
X186832500Y-61632000D02*
X190286000Y-61632000D01*
X103565500Y-58652500D02*
X103632000Y-58719000D01*
X103565500Y-58652500D02*
X105486000Y-56732000D01*
X106426000Y-60672978D02*
X111448009Y-55650969D01*
X180851469Y-55650969D02*
X184139250Y-58938750D01*
X140471979Y-55650969D02*
X141609511Y-56788501D01*
X191770000Y-55118000D02*
X194310000Y-55118000D01*
X194310000Y-55118000D02*
X194818000Y-55626000D01*
X184139250Y-58938750D02*
X186182000Y-60981500D01*
X98044000Y-58652500D02*
X103565500Y-58652500D01*
X98044000Y-68050500D02*
X98044000Y-63974978D01*
X145691508Y-58950480D02*
X146880489Y-57761499D01*
%TO.N,Net-(D1-Pad2)*%
X105486000Y-61632000D02*
X105486000Y-63532000D01*
X105486000Y-63532000D02*
X102286000Y-66732000D01*
%TO.N,Net-(D1-Pad4)*%
X105486000Y-71632000D02*
X109448500Y-71632000D01*
X109448500Y-71632000D02*
X112754500Y-68326000D01*
%TO.N,Net-(D3-Pad2)*%
X102286000Y-56718000D02*
X102286000Y-56732000D01*
X104648000Y-54356000D02*
X102286000Y-56718000D01*
X188468000Y-54356000D02*
X183388000Y-54356000D01*
X183388000Y-54356000D02*
X104648000Y-54356000D01*
X190286000Y-56732000D02*
X190286000Y-56174000D01*
X190286000Y-56174000D02*
X188468000Y-54356000D01*
%TO.N,Net-(D5-Pad2)*%
X193486000Y-61632000D02*
X193486000Y-63532000D01*
X193486000Y-63532000D02*
X190286000Y-66732000D01*
%TO.N,/3V3*%
X126726489Y-112235632D02*
X126726489Y-114573511D01*
X120396000Y-87100500D02*
X120396000Y-105905143D01*
X122406500Y-85090000D02*
X122428000Y-85068500D01*
X122428000Y-76708000D02*
X122835511Y-76300489D01*
X126726489Y-114573511D02*
X125926489Y-115373511D01*
X122406500Y-85090000D02*
X120396000Y-87100500D01*
X120396000Y-105905143D02*
X126726489Y-112235632D01*
X122835511Y-76300489D02*
X146760489Y-76300489D01*
X146760489Y-76300489D02*
X155675000Y-85215000D01*
X122428000Y-85068500D02*
X122428000Y-76708000D01*
X125926489Y-115373511D02*
X124073511Y-115373511D01*
X124073511Y-115373511D02*
X122860000Y-114160000D01*
%TO.N,/D0{slash}RGB*%
X118760978Y-57275000D02*
X130275000Y-57275000D01*
X114300000Y-67796500D02*
X114300000Y-61735978D01*
X114829500Y-68326000D02*
X114300000Y-67796500D01*
X114300000Y-61735978D02*
X118760978Y-57275000D01*
%TO.N,/D1{slash}ATTACK*%
X98910000Y-90375000D02*
X98910000Y-97178000D01*
X98910000Y-97178000D02*
X98806000Y-97282000D01*
X98910000Y-90375000D02*
X111410000Y-90375000D01*
%TO.N,/D2{slash}SPECIAL*%
X184735000Y-90350000D02*
X197235000Y-90350000D01*
X197235000Y-97151000D02*
X197104000Y-97282000D01*
X197235000Y-90350000D02*
X197235000Y-97151000D01*
%TO.N,/D4{slash}CSL*%
X116873511Y-56100489D02*
X113792000Y-59182000D01*
X140435000Y-57275000D02*
X139260489Y-56100489D01*
X113792000Y-59182000D02*
X113792000Y-75117000D01*
X139260489Y-56100489D02*
X116873511Y-56100489D01*
X113792000Y-75117000D02*
X116150000Y-77475000D01*
%TO.N,/D5{slash}CLK*%
X145930000Y-59400000D02*
X148055000Y-57275000D01*
X151840489Y-61060489D02*
X148055000Y-57275000D01*
X118690000Y-62235000D02*
X121525000Y-59400000D01*
X173690000Y-62235000D02*
X172515489Y-61060489D01*
X121525000Y-59400000D02*
X145930000Y-59400000D01*
X172515489Y-61060489D02*
X151840489Y-61060489D01*
%TO.N,/D6{slash}DOUT*%
X122790000Y-60675000D02*
X124258990Y-60675000D01*
X128208990Y-64625000D02*
X173840000Y-64625000D01*
X173840000Y-64625000D02*
X176230000Y-62235000D01*
X176230000Y-62235000D02*
X174605969Y-60610969D01*
X153930969Y-60610969D02*
X150595000Y-57275000D01*
X124258990Y-60675000D02*
X128208990Y-64625000D01*
X121230000Y-62235000D02*
X122790000Y-60675000D01*
X174605969Y-60610969D02*
X153930969Y-60610969D01*
%TO.N,/D7{slash}DIN*%
X176460000Y-59925000D02*
X155785000Y-59925000D01*
X123770000Y-62235000D02*
X127085000Y-65550000D01*
X178770000Y-62235000D02*
X176460000Y-59925000D01*
X127085000Y-65550000D02*
X175455000Y-65550000D01*
X155785000Y-59925000D02*
X153135000Y-57275000D01*
X175455000Y-65550000D02*
X178770000Y-62235000D01*
%TO.N,/D8{slash}CSR*%
X155675000Y-57275000D02*
X156849511Y-56100489D01*
X179944511Y-68680489D02*
X171150000Y-77475000D01*
X179944511Y-61748501D02*
X179944511Y-68680489D01*
X174296499Y-56100489D02*
X179944511Y-61748501D01*
X156849511Y-56100489D02*
X174296499Y-56100489D01*
%TO.N,/RIGHTV*%
X173736000Y-77521000D02*
X173736000Y-91455165D01*
X161191165Y-104000000D02*
X158840000Y-104000000D01*
X173736000Y-91455165D02*
X161191165Y-104000000D01*
X173690000Y-77475000D02*
X173736000Y-77521000D01*
%TO.N,/RIGHTH*%
X176230000Y-77475000D02*
X176230000Y-94041165D01*
X176230000Y-94041165D02*
X169000000Y-101271165D01*
X169000000Y-101271165D02*
X169000000Y-114160000D01*
%TO.N,/LEFTV*%
X117348000Y-93980000D02*
X117348000Y-80518000D01*
X118690000Y-79176000D02*
X118690000Y-77475000D01*
X119380000Y-96012000D02*
X117348000Y-93980000D01*
X117348000Y-80518000D02*
X118690000Y-79176000D01*
X115240000Y-104000000D02*
X119380000Y-99860000D01*
X119380000Y-99860000D02*
X119380000Y-96012000D01*
%TO.N,/LEFTH*%
X119829520Y-95825802D02*
X117856000Y-93852282D01*
X125400000Y-114160000D02*
X117856000Y-106616000D01*
X117856000Y-93852282D02*
X117856000Y-80849000D01*
X117856000Y-80849000D02*
X121230000Y-77475000D01*
X117856000Y-106616000D02*
X117856000Y-102019718D01*
X117856000Y-102019718D02*
X119829520Y-100046197D01*
X119829520Y-100046197D02*
X119829520Y-95825802D01*
%TO.N,/3.3V*%
X117490000Y-63575000D02*
X116150000Y-62235000D01*
X119950000Y-61853990D02*
X119950000Y-63075000D01*
X98910000Y-85375000D02*
X111410000Y-85375000D01*
X124600000Y-60225000D02*
X121578990Y-60225000D01*
X184735000Y-85350000D02*
X197235000Y-85350000D01*
X126610000Y-62235000D02*
X124600000Y-60225000D01*
X121578990Y-60225000D02*
X119950000Y-61853990D01*
X119450000Y-63575000D02*
X117490000Y-63575000D01*
X171150000Y-62235000D02*
X126610000Y-62235000D01*
X119950000Y-63075000D02*
X119450000Y-63575000D01*
%TD*%
%TA.AperFunction,Conductor*%
%TO.N,/G*%
G36*
X194969983Y-53384617D02*
G01*
X194981340Y-53386414D01*
X194983554Y-53386765D01*
X194983555Y-53386765D01*
X194992417Y-53388168D01*
X195013344Y-53385486D01*
X195034882Y-53384585D01*
X195406196Y-53400869D01*
X195416546Y-53401753D01*
X195816006Y-53452502D01*
X195826249Y-53454234D01*
X196220186Y-53537748D01*
X196230257Y-53540322D01*
X196615952Y-53656026D01*
X196625778Y-53659421D01*
X197000622Y-53806529D01*
X197010135Y-53810724D01*
X197371565Y-53988231D01*
X197380701Y-53993195D01*
X197726285Y-54199907D01*
X197734967Y-54205599D01*
X198062333Y-54440100D01*
X198070521Y-54446494D01*
X198377426Y-54707175D01*
X198385066Y-54714227D01*
X198669428Y-54999318D01*
X198676461Y-55006975D01*
X198738429Y-55080310D01*
X198877355Y-55244720D01*
X198936369Y-55314560D01*
X198942741Y-55322765D01*
X199153109Y-55618033D01*
X199176399Y-55650722D01*
X199182077Y-55659431D01*
X199387897Y-56005531D01*
X199392838Y-56014679D01*
X199569423Y-56376568D01*
X199573593Y-56386092D01*
X199584144Y-56413180D01*
X199713361Y-56744926D01*
X199719741Y-56761307D01*
X199723109Y-56771133D01*
X199808223Y-57057522D01*
X199837828Y-57157134D01*
X199840375Y-57167211D01*
X199921865Y-57556500D01*
X199922878Y-57561341D01*
X199924587Y-57571594D01*
X199972091Y-57953323D01*
X199974315Y-57971197D01*
X199975172Y-57981553D01*
X199988839Y-58312529D01*
X199990198Y-58345449D01*
X199988805Y-58370026D01*
X199986814Y-58382817D01*
X199988735Y-58397506D01*
X199990818Y-58413434D01*
X199991881Y-58430133D01*
X199736936Y-147694920D01*
X199735437Y-147713943D01*
X199735022Y-147716612D01*
X199731610Y-147738526D01*
X199734070Y-147757335D01*
X199734137Y-147757846D01*
X199735049Y-147780366D01*
X199719081Y-148105393D01*
X199719081Y-148105394D01*
X199717869Y-148117699D01*
X199665804Y-148468697D01*
X199663392Y-148480825D01*
X199577171Y-148825035D01*
X199573582Y-148836867D01*
X199454038Y-149170970D01*
X199449306Y-149182394D01*
X199297592Y-149503169D01*
X199291763Y-149514074D01*
X199109336Y-149818434D01*
X199102466Y-149828715D01*
X198891088Y-150113724D01*
X198883244Y-150123282D01*
X198644947Y-150386203D01*
X198636203Y-150394947D01*
X198373282Y-150633244D01*
X198363724Y-150641088D01*
X198078715Y-150852466D01*
X198068434Y-150859336D01*
X197764074Y-151041763D01*
X197753173Y-151047590D01*
X197616109Y-151112416D01*
X197432394Y-151199306D01*
X197420970Y-151204038D01*
X197086867Y-151323582D01*
X197075035Y-151327171D01*
X196831306Y-151388222D01*
X196730822Y-151413393D01*
X196718700Y-151415803D01*
X196367694Y-151467869D01*
X196355398Y-151469081D01*
X196259320Y-151473801D01*
X196037734Y-151484686D01*
X196012172Y-151483339D01*
X196009939Y-151482991D01*
X196009935Y-151482991D01*
X196001066Y-151481610D01*
X195992164Y-151482774D01*
X195992161Y-151482774D01*
X195972879Y-151485296D01*
X195970524Y-151485604D01*
X195969545Y-151485732D01*
X195953207Y-151486796D01*
X179554532Y-151486796D01*
X179535147Y-151485296D01*
X179520346Y-151482991D01*
X179520343Y-151482991D01*
X179511474Y-151481610D01*
X179492150Y-151484137D01*
X179469634Y-151485049D01*
X179144600Y-151469080D01*
X179132306Y-151467869D01*
X178781300Y-151415803D01*
X178769178Y-151413393D01*
X178668694Y-151388222D01*
X178424965Y-151327171D01*
X178413133Y-151323582D01*
X178079030Y-151204038D01*
X178067606Y-151199306D01*
X177883891Y-151112416D01*
X177746827Y-151047590D01*
X177735926Y-151041763D01*
X177431566Y-150859336D01*
X177421285Y-150852466D01*
X177136276Y-150641088D01*
X177126718Y-150633244D01*
X176863797Y-150394947D01*
X176855053Y-150386203D01*
X176616756Y-150123282D01*
X176608912Y-150113724D01*
X176397534Y-149828715D01*
X176390664Y-149818434D01*
X176208237Y-149514074D01*
X176202408Y-149503169D01*
X176050694Y-149182394D01*
X176045962Y-149170970D01*
X175926418Y-148836867D01*
X175922829Y-148825035D01*
X175836608Y-148480825D01*
X175834196Y-148468697D01*
X175782131Y-148117699D01*
X175780919Y-148105393D01*
X175765314Y-147787734D01*
X175766661Y-147762172D01*
X175767009Y-147759939D01*
X175767009Y-147759935D01*
X175768390Y-147751066D01*
X175767226Y-147742165D01*
X175767226Y-147742161D01*
X175759912Y-147686233D01*
X175759505Y-147682747D01*
X173513582Y-125778460D01*
X173513479Y-125762544D01*
X173513071Y-125762539D01*
X173513165Y-125754864D01*
X173513165Y-125754859D01*
X173513224Y-125750000D01*
X173512535Y-125745187D01*
X173512218Y-125740324D01*
X173512282Y-125740320D01*
X173511959Y-125736842D01*
X173494531Y-125337678D01*
X173494530Y-125337667D01*
X173494410Y-125334918D01*
X173440180Y-124922995D01*
X173350254Y-124517366D01*
X173289034Y-124323202D01*
X173226146Y-124123746D01*
X173226143Y-124123738D01*
X173225317Y-124121118D01*
X173087981Y-123789558D01*
X173067374Y-123739808D01*
X173067373Y-123739807D01*
X173066321Y-123737266D01*
X172874475Y-123368733D01*
X172651239Y-123018323D01*
X172649575Y-123016155D01*
X172649567Y-123016143D01*
X172399994Y-122690895D01*
X172398312Y-122688703D01*
X172396454Y-122686675D01*
X172396447Y-122686667D01*
X172119471Y-122384400D01*
X172117620Y-122382380D01*
X172019907Y-122292843D01*
X171813333Y-122103553D01*
X171813325Y-122103546D01*
X171811297Y-122101688D01*
X171782904Y-122079901D01*
X171483857Y-121850433D01*
X171483845Y-121850425D01*
X171481677Y-121848761D01*
X171131267Y-121625525D01*
X170762734Y-121433679D01*
X170378882Y-121274683D01*
X170376262Y-121273857D01*
X170376254Y-121273854D01*
X169985264Y-121150575D01*
X169985259Y-121150574D01*
X169982634Y-121149746D01*
X169577005Y-121059820D01*
X169574286Y-121059462D01*
X169574280Y-121059461D01*
X169419365Y-121039067D01*
X169165082Y-121005590D01*
X169162333Y-121005470D01*
X169162322Y-121005469D01*
X168779004Y-120988733D01*
X168772198Y-120988016D01*
X168772184Y-120988172D01*
X168767349Y-120987738D01*
X168762539Y-120986929D01*
X168756158Y-120986851D01*
X168754865Y-120986835D01*
X168754860Y-120986835D01*
X168750000Y-120986776D01*
X168729309Y-120989739D01*
X168722367Y-120990733D01*
X168704522Y-120992005D01*
X157486764Y-120993395D01*
X126808386Y-120997198D01*
X126787474Y-120995452D01*
X126767743Y-120992133D01*
X126761553Y-120992057D01*
X126760068Y-120992039D01*
X126760063Y-120992039D01*
X126755204Y-120991980D01*
X126750391Y-120992669D01*
X126745528Y-120992986D01*
X126745524Y-120992922D01*
X126742046Y-120993245D01*
X126342882Y-121010673D01*
X126342871Y-121010674D01*
X126340122Y-121010794D01*
X126085839Y-121044271D01*
X125930924Y-121064665D01*
X125930918Y-121064666D01*
X125928199Y-121065024D01*
X125522570Y-121154950D01*
X125519945Y-121155778D01*
X125519940Y-121155779D01*
X125128950Y-121279058D01*
X125128942Y-121279061D01*
X125126322Y-121279887D01*
X124794762Y-121417223D01*
X124755034Y-121433679D01*
X124742470Y-121438883D01*
X124373937Y-121630729D01*
X124125432Y-121789044D01*
X124031696Y-121848761D01*
X124023527Y-121853965D01*
X124021359Y-121855629D01*
X124021347Y-121855637D01*
X123799302Y-122026019D01*
X123693907Y-122106892D01*
X123691879Y-122108750D01*
X123691871Y-122108757D01*
X123490976Y-122292843D01*
X123387584Y-122387584D01*
X123385733Y-122389604D01*
X123108757Y-122691871D01*
X123108750Y-122691879D01*
X123106892Y-122693907D01*
X123105210Y-122696099D01*
X122855637Y-123021347D01*
X122855629Y-123021359D01*
X122853965Y-123023527D01*
X122630729Y-123373937D01*
X122438883Y-123742470D01*
X122279887Y-124126322D01*
X122279061Y-124128942D01*
X122279058Y-124128950D01*
X122157420Y-124514736D01*
X122154950Y-124522570D01*
X122065024Y-124928199D01*
X122010794Y-125340122D01*
X122010674Y-125342871D01*
X122010673Y-125342882D01*
X121993937Y-125726200D01*
X121993220Y-125733006D01*
X121993376Y-125733020D01*
X121992942Y-125737855D01*
X121992133Y-125742665D01*
X121991980Y-125755204D01*
X121992669Y-125760017D01*
X121992670Y-125760027D01*
X121992812Y-125761019D01*
X121992913Y-125763754D01*
X121992986Y-125764878D01*
X121992954Y-125764880D01*
X121993788Y-125787508D01*
X120489890Y-147682329D01*
X120488686Y-147693079D01*
X120482992Y-147729651D01*
X120481610Y-147738526D01*
X120484070Y-147757335D01*
X120484137Y-147757846D01*
X120485049Y-147780366D01*
X120469081Y-148105393D01*
X120469081Y-148105394D01*
X120467869Y-148117699D01*
X120415804Y-148468697D01*
X120413392Y-148480825D01*
X120327171Y-148825035D01*
X120323582Y-148836867D01*
X120204038Y-149170970D01*
X120199306Y-149182394D01*
X120047592Y-149503169D01*
X120041763Y-149514074D01*
X119859336Y-149818434D01*
X119852466Y-149828715D01*
X119641088Y-150113724D01*
X119633244Y-150123282D01*
X119394947Y-150386203D01*
X119386203Y-150394947D01*
X119123282Y-150633244D01*
X119113724Y-150641088D01*
X118828715Y-150852466D01*
X118818434Y-150859336D01*
X118514074Y-151041763D01*
X118503173Y-151047590D01*
X118366109Y-151112416D01*
X118182394Y-151199306D01*
X118170970Y-151204038D01*
X117836867Y-151323582D01*
X117825035Y-151327171D01*
X117581306Y-151388222D01*
X117480822Y-151413393D01*
X117468700Y-151415803D01*
X117117694Y-151467869D01*
X117105398Y-151469081D01*
X117009320Y-151473801D01*
X116787734Y-151484686D01*
X116762172Y-151483339D01*
X116759939Y-151482991D01*
X116759935Y-151482991D01*
X116751066Y-151481610D01*
X116719436Y-151485747D01*
X116703150Y-151486810D01*
X100049265Y-151491984D01*
X100029842Y-151490484D01*
X100015143Y-151488195D01*
X100015140Y-151488195D01*
X100006270Y-151486814D01*
X99986946Y-151489341D01*
X99964430Y-151490253D01*
X99639396Y-151474284D01*
X99627102Y-151473073D01*
X99276096Y-151421007D01*
X99263974Y-151418597D01*
X99162218Y-151393108D01*
X98919761Y-151332375D01*
X98907929Y-151328786D01*
X98573826Y-151209242D01*
X98562402Y-151204510D01*
X98367684Y-151112416D01*
X98241623Y-151052794D01*
X98230722Y-151046967D01*
X98227351Y-151044946D01*
X97926362Y-150864540D01*
X97916081Y-150857670D01*
X97631072Y-150646292D01*
X97621514Y-150638448D01*
X97358593Y-150400151D01*
X97349849Y-150391407D01*
X97111552Y-150128486D01*
X97103708Y-150118928D01*
X96892330Y-149833919D01*
X96885460Y-149823638D01*
X96703033Y-149519278D01*
X96697204Y-149508373D01*
X96545490Y-149187598D01*
X96540758Y-149176174D01*
X96421214Y-148842071D01*
X96417625Y-148830239D01*
X96331404Y-148486029D01*
X96328992Y-148473901D01*
X96276927Y-148122903D01*
X96275715Y-148110597D01*
X96275460Y-148105394D01*
X96270995Y-148014524D01*
X96260110Y-147792938D01*
X96261457Y-147767376D01*
X96261805Y-147765143D01*
X96261805Y-147765139D01*
X96263186Y-147756270D01*
X96260727Y-147737461D01*
X96259064Y-147724749D01*
X96258000Y-147708411D01*
X96258000Y-120274669D01*
X144687001Y-120274669D01*
X144687371Y-120281490D01*
X144692895Y-120332352D01*
X144696521Y-120347604D01*
X144741676Y-120468054D01*
X144750214Y-120483649D01*
X144826715Y-120585724D01*
X144839276Y-120598285D01*
X144941351Y-120674786D01*
X144956946Y-120683324D01*
X145077394Y-120728478D01*
X145092649Y-120732105D01*
X145143514Y-120737631D01*
X145150328Y-120738000D01*
X145772885Y-120738000D01*
X145788124Y-120733525D01*
X145789329Y-120732135D01*
X145791000Y-120724452D01*
X145791000Y-120719884D01*
X146299000Y-120719884D01*
X146303475Y-120735123D01*
X146304865Y-120736328D01*
X146312548Y-120737999D01*
X146939669Y-120737999D01*
X146946490Y-120737629D01*
X146997352Y-120732105D01*
X147012604Y-120728479D01*
X147133054Y-120683324D01*
X147148649Y-120674786D01*
X147250724Y-120598285D01*
X147263285Y-120585724D01*
X147339786Y-120483649D01*
X147348324Y-120468054D01*
X147389225Y-120358952D01*
X147431867Y-120302188D01*
X147498428Y-120277488D01*
X147567777Y-120292696D01*
X147602444Y-120320684D01*
X147627865Y-120350031D01*
X147627869Y-120350035D01*
X147631250Y-120353938D01*
X147803126Y-120496632D01*
X147996000Y-120609338D01*
X148204692Y-120689030D01*
X148209760Y-120690061D01*
X148209763Y-120690062D01*
X148317017Y-120711883D01*
X148423597Y-120733567D01*
X148428772Y-120733757D01*
X148428774Y-120733757D01*
X148641673Y-120741564D01*
X148641677Y-120741564D01*
X148646837Y-120741753D01*
X148651957Y-120741097D01*
X148651959Y-120741097D01*
X148863288Y-120714025D01*
X148863289Y-120714025D01*
X148868416Y-120713368D01*
X148873366Y-120711883D01*
X149077429Y-120650661D01*
X149077434Y-120650659D01*
X149082384Y-120649174D01*
X149282994Y-120550896D01*
X149464860Y-120421173D01*
X149623096Y-120263489D01*
X149753453Y-120082077D01*
X149852430Y-119881811D01*
X149917370Y-119668069D01*
X149946529Y-119446590D01*
X149948156Y-119380000D01*
X149929852Y-119157361D01*
X149875431Y-118940702D01*
X149786354Y-118735840D01*
X149665014Y-118548277D01*
X149514670Y-118383051D01*
X149510619Y-118379852D01*
X149510615Y-118379848D01*
X149343414Y-118247800D01*
X149343410Y-118247798D01*
X149339359Y-118244598D01*
X149143789Y-118136638D01*
X149138920Y-118134914D01*
X149138916Y-118134912D01*
X148938087Y-118063795D01*
X148938083Y-118063794D01*
X148933212Y-118062069D01*
X148928119Y-118061162D01*
X148928116Y-118061161D01*
X148718373Y-118023800D01*
X148718367Y-118023799D01*
X148713284Y-118022894D01*
X148639452Y-118021992D01*
X148495081Y-118020228D01*
X148495079Y-118020228D01*
X148489911Y-118020165D01*
X148269091Y-118053955D01*
X148056756Y-118123357D01*
X147858607Y-118226507D01*
X147854474Y-118229610D01*
X147854471Y-118229612D01*
X147771450Y-118291946D01*
X147679965Y-118360635D01*
X147676393Y-118364373D01*
X147598898Y-118445466D01*
X147537374Y-118480895D01*
X147466462Y-118477438D01*
X147408676Y-118436192D01*
X147389823Y-118402644D01*
X147348324Y-118291946D01*
X147339786Y-118276351D01*
X147263285Y-118174276D01*
X147250724Y-118161715D01*
X147148649Y-118085214D01*
X147133054Y-118076676D01*
X147012606Y-118031522D01*
X146997351Y-118027895D01*
X146946486Y-118022369D01*
X146939672Y-118022000D01*
X146317115Y-118022000D01*
X146301876Y-118026475D01*
X146300671Y-118027865D01*
X146299000Y-118035548D01*
X146299000Y-120719884D01*
X145791000Y-120719884D01*
X145791000Y-119652115D01*
X145786525Y-119636876D01*
X145785135Y-119635671D01*
X145777452Y-119634000D01*
X144705116Y-119634000D01*
X144689877Y-119638475D01*
X144688672Y-119639865D01*
X144687001Y-119647548D01*
X144687001Y-120274669D01*
X96258000Y-120274669D01*
X96258000Y-119107885D01*
X144687000Y-119107885D01*
X144691475Y-119123124D01*
X144692865Y-119124329D01*
X144700548Y-119126000D01*
X145772885Y-119126000D01*
X145788124Y-119121525D01*
X145789329Y-119120135D01*
X145791000Y-119112452D01*
X145791000Y-118040116D01*
X145786525Y-118024877D01*
X145785135Y-118023672D01*
X145777452Y-118022001D01*
X145150331Y-118022001D01*
X145143510Y-118022371D01*
X145092648Y-118027895D01*
X145077396Y-118031521D01*
X144956946Y-118076676D01*
X144941351Y-118085214D01*
X144839276Y-118161715D01*
X144826715Y-118174276D01*
X144750214Y-118276351D01*
X144741676Y-118291946D01*
X144696522Y-118412394D01*
X144692895Y-118427649D01*
X144687369Y-118478514D01*
X144687000Y-118485328D01*
X144687000Y-119107885D01*
X96258000Y-119107885D01*
X96258000Y-69534724D01*
X96278002Y-69466603D01*
X96331658Y-69420110D01*
X96401932Y-69410006D01*
X96466512Y-69439500D01*
X96483558Y-69457496D01*
X96485902Y-69460518D01*
X96489938Y-69467342D01*
X96504259Y-69481663D01*
X96517099Y-69496696D01*
X96529008Y-69513087D01*
X96535114Y-69518138D01*
X96563085Y-69541278D01*
X96571864Y-69549268D01*
X96773595Y-69750999D01*
X96807621Y-69813311D01*
X96810500Y-69840094D01*
X96810500Y-70513400D01*
X96821474Y-70619166D01*
X96823655Y-70625702D01*
X96823655Y-70625704D01*
X96826855Y-70635295D01*
X96877450Y-70786946D01*
X96970522Y-70937348D01*
X97095697Y-71062305D01*
X97246262Y-71155115D01*
X97326005Y-71181564D01*
X97407611Y-71208632D01*
X97407613Y-71208632D01*
X97414139Y-71210797D01*
X97420975Y-71211497D01*
X97420978Y-71211498D01*
X97464031Y-71215909D01*
X97518600Y-71221500D01*
X98191905Y-71221500D01*
X98260026Y-71241502D01*
X98281001Y-71258405D01*
X99046853Y-72024258D01*
X99054387Y-72032537D01*
X99058500Y-72039018D01*
X99079595Y-72058827D01*
X99108151Y-72085643D01*
X99110993Y-72088398D01*
X99130730Y-72108135D01*
X99133927Y-72110615D01*
X99142947Y-72118318D01*
X99175179Y-72148586D01*
X99182125Y-72152405D01*
X99182128Y-72152407D01*
X99192934Y-72158348D01*
X99209453Y-72169199D01*
X99225459Y-72181614D01*
X99232728Y-72184759D01*
X99232732Y-72184762D01*
X99266037Y-72199174D01*
X99276687Y-72204391D01*
X99315440Y-72225695D01*
X99323115Y-72227666D01*
X99323116Y-72227666D01*
X99335062Y-72230733D01*
X99353767Y-72237137D01*
X99372355Y-72245181D01*
X99380178Y-72246420D01*
X99380188Y-72246423D01*
X99416024Y-72252099D01*
X99427644Y-72254505D01*
X99459459Y-72262673D01*
X99470470Y-72265500D01*
X99490724Y-72265500D01*
X99510434Y-72267051D01*
X99530443Y-72270220D01*
X99538335Y-72269474D01*
X99557080Y-72267702D01*
X99574462Y-72266059D01*
X99586319Y-72265500D01*
X101151500Y-72265500D01*
X101219621Y-72285502D01*
X101266114Y-72339158D01*
X101277500Y-72391500D01*
X101277500Y-72430134D01*
X101284255Y-72492316D01*
X101335385Y-72628705D01*
X101422739Y-72745261D01*
X101539295Y-72832615D01*
X101675684Y-72883745D01*
X101737866Y-72890500D01*
X102596406Y-72890500D01*
X102664527Y-72910502D01*
X102685501Y-72927405D01*
X112588115Y-82830019D01*
X112622141Y-82892331D01*
X112625020Y-82919114D01*
X112625020Y-83892457D01*
X112605018Y-83960578D01*
X112551362Y-84007071D01*
X112481088Y-84017175D01*
X112465353Y-84013875D01*
X112278532Y-83962065D01*
X112243836Y-83958357D01*
X112089437Y-83941856D01*
X112089429Y-83941856D01*
X112086102Y-83941500D01*
X110751243Y-83941500D01*
X110748670Y-83941712D01*
X110748659Y-83941712D01*
X110581221Y-83955478D01*
X110581215Y-83955479D01*
X110576070Y-83955902D01*
X110347449Y-84013327D01*
X110131277Y-84107322D01*
X109933359Y-84235360D01*
X109929536Y-84238839D01*
X109929533Y-84238841D01*
X109762844Y-84390517D01*
X109759011Y-84394005D01*
X109755812Y-84398056D01*
X109755808Y-84398060D01*
X109643685Y-84540032D01*
X109612915Y-84578994D01*
X109610422Y-84583509D01*
X109610414Y-84583522D01*
X109559146Y-84676394D01*
X109508714Y-84726364D01*
X109448838Y-84741500D01*
X100871866Y-84741500D01*
X100803745Y-84721498D01*
X100760105Y-84673683D01*
X100726175Y-84608504D01*
X100710843Y-84588083D01*
X100587747Y-84424135D01*
X100587745Y-84424132D01*
X100584642Y-84420000D01*
X100506843Y-84345653D01*
X100417960Y-84260714D01*
X100417959Y-84260713D01*
X100414223Y-84257143D01*
X100219492Y-84124307D01*
X100214808Y-84122133D01*
X100214805Y-84122131D01*
X100010372Y-84027236D01*
X100010367Y-84027234D01*
X100005681Y-84025059D01*
X99778532Y-83962065D01*
X99743836Y-83958357D01*
X99589437Y-83941856D01*
X99589429Y-83941856D01*
X99586102Y-83941500D01*
X98251243Y-83941500D01*
X98248670Y-83941712D01*
X98248659Y-83941712D01*
X98081221Y-83955478D01*
X98081215Y-83955479D01*
X98076070Y-83955902D01*
X97847449Y-84013327D01*
X97631277Y-84107322D01*
X97433359Y-84235360D01*
X97429536Y-84238839D01*
X97429533Y-84238841D01*
X97262844Y-84390517D01*
X97259011Y-84394005D01*
X97255812Y-84398056D01*
X97255808Y-84398060D01*
X97116117Y-84574939D01*
X97112915Y-84578994D01*
X97110419Y-84583515D01*
X97110418Y-84583517D01*
X97107892Y-84588093D01*
X96998995Y-84785361D01*
X96997271Y-84790230D01*
X96997269Y-84790234D01*
X96923865Y-84997522D01*
X96920309Y-85007564D01*
X96919402Y-85012657D01*
X96919401Y-85012660D01*
X96883359Y-85215000D01*
X96878971Y-85239633D01*
X96877861Y-85330477D01*
X96876460Y-85445170D01*
X96876091Y-85475339D01*
X96911747Y-85708349D01*
X96984980Y-85932407D01*
X97093825Y-86141496D01*
X97096928Y-86145629D01*
X97096930Y-86145632D01*
X97230823Y-86323960D01*
X97235358Y-86330000D01*
X97250056Y-86344046D01*
X97393823Y-86481433D01*
X97405777Y-86492857D01*
X97600508Y-86625693D01*
X97605192Y-86627867D01*
X97605195Y-86627869D01*
X97809628Y-86722764D01*
X97809633Y-86722766D01*
X97814319Y-86724941D01*
X98041468Y-86787935D01*
X98046605Y-86788484D01*
X98230563Y-86808144D01*
X98230571Y-86808144D01*
X98233898Y-86808500D01*
X99568757Y-86808500D01*
X99571330Y-86808288D01*
X99571341Y-86808288D01*
X99738779Y-86794522D01*
X99738785Y-86794521D01*
X99743930Y-86794098D01*
X99972551Y-86736673D01*
X100188723Y-86642678D01*
X100386641Y-86514640D01*
X100410581Y-86492857D01*
X100557167Y-86359473D01*
X100557168Y-86359471D01*
X100560989Y-86355995D01*
X100564188Y-86351944D01*
X100564192Y-86351940D01*
X100703884Y-86175059D01*
X100707085Y-86171006D01*
X100709578Y-86166491D01*
X100709586Y-86166478D01*
X100760854Y-86073606D01*
X100811286Y-86023636D01*
X100871162Y-86008500D01*
X109448134Y-86008500D01*
X109516255Y-86028502D01*
X109559895Y-86076317D01*
X109593825Y-86141496D01*
X109596928Y-86145629D01*
X109596930Y-86145632D01*
X109730823Y-86323960D01*
X109735358Y-86330000D01*
X109750056Y-86344046D01*
X109893823Y-86481433D01*
X109905777Y-86492857D01*
X110100508Y-86625693D01*
X110105192Y-86627867D01*
X110105195Y-86627869D01*
X110309628Y-86722764D01*
X110309633Y-86722766D01*
X110314319Y-86724941D01*
X110541468Y-86787935D01*
X110546605Y-86788484D01*
X110730563Y-86808144D01*
X110730571Y-86808144D01*
X110733898Y-86808500D01*
X112068757Y-86808500D01*
X112071330Y-86808288D01*
X112071341Y-86808288D01*
X112238779Y-86794522D01*
X112238785Y-86794521D01*
X112243930Y-86794098D01*
X112468327Y-86737734D01*
X112539266Y-86740538D01*
X112597429Y-86781251D01*
X112624348Y-86846946D01*
X112625020Y-86859938D01*
X112625020Y-88892457D01*
X112605018Y-88960578D01*
X112551362Y-89007071D01*
X112481088Y-89017175D01*
X112465353Y-89013875D01*
X112278532Y-88962065D01*
X112264618Y-88960578D01*
X112089437Y-88941856D01*
X112089429Y-88941856D01*
X112086102Y-88941500D01*
X110751243Y-88941500D01*
X110748670Y-88941712D01*
X110748659Y-88941712D01*
X110581221Y-88955478D01*
X110581215Y-88955479D01*
X110576070Y-88955902D01*
X110347449Y-89013327D01*
X110131277Y-89107322D01*
X109933359Y-89235360D01*
X109929536Y-89238839D01*
X109929533Y-89238841D01*
X109782029Y-89373060D01*
X109759011Y-89394005D01*
X109755812Y-89398056D01*
X109755808Y-89398060D01*
X109686477Y-89485849D01*
X109612915Y-89578994D01*
X109610422Y-89583509D01*
X109610414Y-89583522D01*
X109559146Y-89676394D01*
X109508714Y-89726364D01*
X109448838Y-89741500D01*
X100871866Y-89741500D01*
X100803745Y-89721498D01*
X100760105Y-89673683D01*
X100726175Y-89608504D01*
X100710843Y-89588083D01*
X100587747Y-89424135D01*
X100587745Y-89424132D01*
X100584642Y-89420000D01*
X100443898Y-89285501D01*
X100417960Y-89260714D01*
X100417959Y-89260713D01*
X100414223Y-89257143D01*
X100219492Y-89124307D01*
X100214808Y-89122133D01*
X100214805Y-89122131D01*
X100010372Y-89027236D01*
X100010367Y-89027234D01*
X100005681Y-89025059D01*
X99778532Y-88962065D01*
X99764618Y-88960578D01*
X99589437Y-88941856D01*
X99589429Y-88941856D01*
X99586102Y-88941500D01*
X98251243Y-88941500D01*
X98248670Y-88941712D01*
X98248659Y-88941712D01*
X98081221Y-88955478D01*
X98081215Y-88955479D01*
X98076070Y-88955902D01*
X97847449Y-89013327D01*
X97631277Y-89107322D01*
X97433359Y-89235360D01*
X97429536Y-89238839D01*
X97429533Y-89238841D01*
X97282029Y-89373060D01*
X97259011Y-89394005D01*
X97255812Y-89398056D01*
X97255808Y-89398060D01*
X97116117Y-89574939D01*
X97112915Y-89578994D01*
X97110419Y-89583515D01*
X97110418Y-89583517D01*
X97107892Y-89588093D01*
X96998995Y-89785361D01*
X96997271Y-89790230D01*
X96997269Y-89790234D01*
X96922387Y-90001695D01*
X96920309Y-90007564D01*
X96919402Y-90012657D01*
X96919401Y-90012660D01*
X96884331Y-90209544D01*
X96878971Y-90239633D01*
X96878828Y-90251370D01*
X96876460Y-90445170D01*
X96876091Y-90475339D01*
X96911747Y-90708349D01*
X96984980Y-90932407D01*
X97093825Y-91141496D01*
X97096928Y-91145629D01*
X97096930Y-91145632D01*
X97216587Y-91305000D01*
X97235358Y-91330000D01*
X97405777Y-91492857D01*
X97600508Y-91625693D01*
X97605192Y-91627867D01*
X97605195Y-91627869D01*
X97809628Y-91722764D01*
X97809633Y-91722766D01*
X97814319Y-91724941D01*
X98041468Y-91787935D01*
X98163889Y-91801018D01*
X98229499Y-91828146D01*
X98270027Y-91886438D01*
X98276500Y-91926305D01*
X98276500Y-95980639D01*
X98256498Y-96048760D01*
X98202842Y-96095253D01*
X98190382Y-96100161D01*
X98144554Y-96115450D01*
X97994152Y-96208522D01*
X97869195Y-96333697D01*
X97776385Y-96484262D01*
X97768442Y-96508209D01*
X97730959Y-96621219D01*
X97720703Y-96652139D01*
X97720003Y-96658975D01*
X97720002Y-96658978D01*
X97717716Y-96681290D01*
X97710000Y-96756600D01*
X97710000Y-97807400D01*
X97710337Y-97810646D01*
X97710337Y-97810650D01*
X97714316Y-97848993D01*
X97720974Y-97913166D01*
X97723155Y-97919702D01*
X97723155Y-97919704D01*
X97745274Y-97986002D01*
X97776950Y-98080946D01*
X97870022Y-98231348D01*
X97995197Y-98356305D01*
X98001427Y-98360145D01*
X98001428Y-98360146D01*
X98138590Y-98444694D01*
X98145762Y-98449115D01*
X98225505Y-98475564D01*
X98307111Y-98502632D01*
X98307113Y-98502632D01*
X98313639Y-98504797D01*
X98320475Y-98505497D01*
X98320478Y-98505498D01*
X98363531Y-98509909D01*
X98418100Y-98515500D01*
X99193900Y-98515500D01*
X99197146Y-98515163D01*
X99197150Y-98515163D01*
X99292808Y-98505238D01*
X99292812Y-98505237D01*
X99299666Y-98504526D01*
X99306202Y-98502345D01*
X99306204Y-98502345D01*
X99438306Y-98458272D01*
X99467446Y-98448550D01*
X99617848Y-98355478D01*
X99742805Y-98230303D01*
X99745406Y-98226084D01*
X99802530Y-98185583D01*
X99873453Y-98182351D01*
X99934865Y-98217976D01*
X99941422Y-98225530D01*
X99945022Y-98231348D01*
X100070197Y-98356305D01*
X100076427Y-98360145D01*
X100076428Y-98360146D01*
X100213590Y-98444694D01*
X100220762Y-98449115D01*
X100300505Y-98475564D01*
X100382111Y-98502632D01*
X100382113Y-98502632D01*
X100388639Y-98504797D01*
X100395475Y-98505497D01*
X100395478Y-98505498D01*
X100438531Y-98509909D01*
X100493100Y-98515500D01*
X101268900Y-98515500D01*
X101272146Y-98515163D01*
X101272150Y-98515163D01*
X101367808Y-98505238D01*
X101367812Y-98505237D01*
X101374666Y-98504526D01*
X101381202Y-98502345D01*
X101381204Y-98502345D01*
X101513306Y-98458272D01*
X101542446Y-98448550D01*
X101692848Y-98355478D01*
X101817805Y-98230303D01*
X101828281Y-98213308D01*
X101906775Y-98085968D01*
X101906776Y-98085966D01*
X101910615Y-98079738D01*
X101919705Y-98052332D01*
X101960136Y-97993972D01*
X102025701Y-97966736D01*
X102039298Y-97966000D01*
X110188000Y-97966000D01*
X110256121Y-97986002D01*
X110302614Y-98039658D01*
X110314000Y-98092000D01*
X110314000Y-102168733D01*
X110313473Y-102179916D01*
X110311798Y-102187409D01*
X110312047Y-102195335D01*
X110312047Y-102195336D01*
X110313938Y-102255486D01*
X110314000Y-102259445D01*
X110314000Y-102287356D01*
X110314497Y-102291290D01*
X110314497Y-102291291D01*
X110314505Y-102291356D01*
X110315438Y-102303193D01*
X110316827Y-102347389D01*
X110322478Y-102366839D01*
X110326487Y-102386200D01*
X110329026Y-102406297D01*
X110331945Y-102413668D01*
X110331945Y-102413670D01*
X110345304Y-102447412D01*
X110349149Y-102458642D01*
X110361482Y-102501093D01*
X110365515Y-102507912D01*
X110365517Y-102507917D01*
X110371793Y-102518528D01*
X110380488Y-102536276D01*
X110387948Y-102555117D01*
X110392610Y-102561533D01*
X110392610Y-102561534D01*
X110413936Y-102590887D01*
X110420452Y-102600807D01*
X110432604Y-102621354D01*
X110442958Y-102638862D01*
X110457279Y-102653183D01*
X110470119Y-102668216D01*
X110482028Y-102684607D01*
X110488134Y-102689658D01*
X110516105Y-102712798D01*
X110524884Y-102720788D01*
X113858091Y-106053995D01*
X113892117Y-106116307D01*
X113890413Y-106176761D01*
X113862548Y-106277237D01*
X113862000Y-106282367D01*
X113861999Y-106282371D01*
X113854388Y-106353595D01*
X113838129Y-106505739D01*
X113851357Y-106735161D01*
X113852492Y-106740198D01*
X113852493Y-106740204D01*
X113892166Y-106916246D01*
X113901878Y-106959342D01*
X113988336Y-107172261D01*
X114108408Y-107368200D01*
X114258869Y-107541898D01*
X114435679Y-107688689D01*
X114440136Y-107691293D01*
X114440141Y-107691297D01*
X114544070Y-107752028D01*
X114592794Y-107803667D01*
X114606500Y-107860816D01*
X114606500Y-108048733D01*
X114605973Y-108059916D01*
X114604298Y-108067409D01*
X114604547Y-108075335D01*
X114604547Y-108075336D01*
X114606438Y-108135486D01*
X114606500Y-108139445D01*
X114606500Y-108167356D01*
X114606997Y-108171290D01*
X114606997Y-108171291D01*
X114607005Y-108171356D01*
X114607938Y-108183193D01*
X114609327Y-108227389D01*
X114614978Y-108246839D01*
X114618987Y-108266200D01*
X114621526Y-108286297D01*
X114624445Y-108293668D01*
X114624445Y-108293670D01*
X114637804Y-108327412D01*
X114641649Y-108338642D01*
X114653982Y-108381093D01*
X114658015Y-108387912D01*
X114658017Y-108387917D01*
X114664293Y-108398528D01*
X114672988Y-108416276D01*
X114680448Y-108435117D01*
X114685110Y-108441533D01*
X114685110Y-108441534D01*
X114706436Y-108470887D01*
X114712952Y-108480807D01*
X114735458Y-108518862D01*
X114749779Y-108533183D01*
X114762619Y-108548216D01*
X114774528Y-108564607D01*
X114780634Y-108569658D01*
X114808605Y-108592798D01*
X114817384Y-108600788D01*
X116194060Y-109977464D01*
X116228086Y-110039776D01*
X116221374Y-110114777D01*
X116204473Y-110155580D01*
X116143789Y-110408350D01*
X116123393Y-110667500D01*
X116143789Y-110926650D01*
X116204473Y-111179420D01*
X116303952Y-111419584D01*
X116439777Y-111641229D01*
X116608602Y-111838898D01*
X116806271Y-112007723D01*
X117027916Y-112143548D01*
X117032484Y-112145440D01*
X117068113Y-112160198D01*
X117123393Y-112204747D01*
X117145832Y-112272649D01*
X117146438Y-112291933D01*
X117146500Y-112295891D01*
X117146500Y-112323802D01*
X117146997Y-112327736D01*
X117146997Y-112327737D01*
X117147005Y-112327802D01*
X117147938Y-112339639D01*
X117149327Y-112383835D01*
X117154978Y-112403285D01*
X117158987Y-112422646D01*
X117161526Y-112442743D01*
X117164445Y-112450114D01*
X117164445Y-112450116D01*
X117177804Y-112483858D01*
X117181649Y-112495088D01*
X117189887Y-112523443D01*
X117193982Y-112537539D01*
X117198015Y-112544358D01*
X117198017Y-112544363D01*
X117204293Y-112554974D01*
X117212988Y-112572722D01*
X117220448Y-112591563D01*
X117225110Y-112597979D01*
X117225110Y-112597980D01*
X117246436Y-112627333D01*
X117252952Y-112637253D01*
X117275458Y-112675308D01*
X117289779Y-112689629D01*
X117302619Y-112704662D01*
X117314528Y-112721053D01*
X117333158Y-112736465D01*
X117348605Y-112749244D01*
X117357384Y-112757234D01*
X120815433Y-116215284D01*
X120822973Y-116223570D01*
X120827085Y-116230049D01*
X120832862Y-116235474D01*
X120876736Y-116276674D01*
X120879578Y-116279429D01*
X120899315Y-116299166D01*
X120902512Y-116301646D01*
X120911532Y-116309349D01*
X120943764Y-116339617D01*
X120950710Y-116343436D01*
X120950713Y-116343438D01*
X120961519Y-116349379D01*
X120978038Y-116360230D01*
X120994044Y-116372645D01*
X121001313Y-116375790D01*
X121001317Y-116375793D01*
X121034622Y-116390205D01*
X121045272Y-116395422D01*
X121084025Y-116416726D01*
X121091700Y-116418697D01*
X121091701Y-116418697D01*
X121103647Y-116421764D01*
X121122352Y-116428168D01*
X121140940Y-116436212D01*
X121148763Y-116437451D01*
X121148773Y-116437454D01*
X121184609Y-116443130D01*
X121196229Y-116445536D01*
X121228044Y-116453704D01*
X121239055Y-116456531D01*
X121259309Y-116456531D01*
X121279019Y-116458082D01*
X121299028Y-116461251D01*
X121306920Y-116460505D01*
X121325665Y-116458733D01*
X121343047Y-116457090D01*
X121354904Y-116456531D01*
X126198202Y-116456531D01*
X126209385Y-116457058D01*
X126216878Y-116458733D01*
X126224804Y-116458484D01*
X126224805Y-116458484D01*
X126284955Y-116456593D01*
X126288914Y-116456531D01*
X126316825Y-116456531D01*
X126320760Y-116456034D01*
X126320825Y-116456026D01*
X126332662Y-116455093D01*
X126364920Y-116454079D01*
X126368939Y-116453953D01*
X126376858Y-116453704D01*
X126396312Y-116448052D01*
X126415669Y-116444044D01*
X126427899Y-116442499D01*
X126427900Y-116442499D01*
X126435766Y-116441505D01*
X126443137Y-116438586D01*
X126443139Y-116438586D01*
X126476881Y-116425227D01*
X126488111Y-116421382D01*
X126522952Y-116411260D01*
X126522953Y-116411260D01*
X126530562Y-116409049D01*
X126537381Y-116405016D01*
X126537386Y-116405014D01*
X126547997Y-116398738D01*
X126565745Y-116390043D01*
X126584586Y-116382583D01*
X126620356Y-116356595D01*
X126630276Y-116350079D01*
X126661504Y-116331611D01*
X126661507Y-116331609D01*
X126668331Y-116327573D01*
X126682652Y-116313252D01*
X126697686Y-116300411D01*
X126707663Y-116293162D01*
X126714076Y-116288503D01*
X126719126Y-116282399D01*
X126719131Y-116282394D01*
X126742262Y-116254433D01*
X126750252Y-116245652D01*
X127451478Y-115544427D01*
X127513790Y-115510402D01*
X127565693Y-115510053D01*
X127768884Y-115551393D01*
X127768888Y-115551393D01*
X127773963Y-115552426D01*
X127779136Y-115552616D01*
X127779139Y-115552616D01*
X127998448Y-115560657D01*
X127998452Y-115560657D01*
X128003612Y-115560846D01*
X128008732Y-115560190D01*
X128008734Y-115560190D01*
X128226425Y-115532304D01*
X128226428Y-115532303D01*
X128231552Y-115531647D01*
X128451663Y-115465610D01*
X128658033Y-115364511D01*
X128845119Y-115231064D01*
X129007898Y-115068852D01*
X129141997Y-114882233D01*
X129151169Y-114863675D01*
X129199282Y-114811467D01*
X129264127Y-114793500D01*
X129448733Y-114793500D01*
X129459916Y-114794027D01*
X129467409Y-114795702D01*
X129475335Y-114795453D01*
X129475336Y-114795453D01*
X129535486Y-114793562D01*
X129539445Y-114793500D01*
X129567356Y-114793500D01*
X129571291Y-114793003D01*
X129571356Y-114792995D01*
X129583193Y-114792062D01*
X129615451Y-114791048D01*
X129619470Y-114790922D01*
X129627389Y-114790673D01*
X129646843Y-114785021D01*
X129666200Y-114781013D01*
X129678430Y-114779468D01*
X129678431Y-114779468D01*
X129686297Y-114778474D01*
X129693668Y-114775555D01*
X129693670Y-114775555D01*
X129727412Y-114762196D01*
X129738642Y-114758351D01*
X129773483Y-114748229D01*
X129773484Y-114748229D01*
X129781093Y-114746018D01*
X129787912Y-114741985D01*
X129787917Y-114741983D01*
X129798528Y-114735707D01*
X129816276Y-114727012D01*
X129835117Y-114719552D01*
X129870887Y-114693564D01*
X129880807Y-114687048D01*
X129912035Y-114668580D01*
X129912038Y-114668578D01*
X129918862Y-114664542D01*
X129933183Y-114650221D01*
X129948217Y-114637380D01*
X129958194Y-114630131D01*
X129964607Y-114625472D01*
X129992798Y-114591395D01*
X130000788Y-114582616D01*
X132329964Y-112253440D01*
X132392276Y-112219414D01*
X132467277Y-112226126D01*
X132470993Y-112227665D01*
X132508080Y-112243027D01*
X132594543Y-112263785D01*
X132756037Y-112302556D01*
X132756043Y-112302557D01*
X132760850Y-112303711D01*
X133020000Y-112324107D01*
X133279150Y-112303711D01*
X133283957Y-112302557D01*
X133283963Y-112302556D01*
X133445457Y-112263785D01*
X133531920Y-112243027D01*
X133536493Y-112241133D01*
X133767512Y-112145442D01*
X133767516Y-112145440D01*
X133772084Y-112143548D01*
X133993729Y-112007723D01*
X134191398Y-111838898D01*
X134360223Y-111641229D01*
X134496048Y-111419584D01*
X134595527Y-111179420D01*
X134656211Y-110926650D01*
X134676607Y-110667500D01*
X134656211Y-110408350D01*
X134595527Y-110155580D01*
X134496048Y-109915416D01*
X134360223Y-109693771D01*
X134191398Y-109496102D01*
X133993729Y-109327277D01*
X133772084Y-109191452D01*
X133767514Y-109189559D01*
X133767512Y-109189558D01*
X133536493Y-109093867D01*
X133536491Y-109093866D01*
X133531920Y-109091973D01*
X133445457Y-109071215D01*
X133283963Y-109032444D01*
X133283957Y-109032443D01*
X133279150Y-109031289D01*
X133020000Y-109010893D01*
X132760850Y-109031289D01*
X132756043Y-109032443D01*
X132756037Y-109032444D01*
X132594543Y-109071215D01*
X132508080Y-109091973D01*
X132503509Y-109093866D01*
X132503507Y-109093867D01*
X132272488Y-109189558D01*
X132272486Y-109189559D01*
X132267916Y-109191452D01*
X132046271Y-109327277D01*
X131848602Y-109496102D01*
X131679777Y-109693771D01*
X131543952Y-109915416D01*
X131444473Y-110155580D01*
X131383789Y-110408350D01*
X131363393Y-110667500D01*
X131383789Y-110926650D01*
X131444473Y-111179420D01*
X131446366Y-111183991D01*
X131446367Y-111183993D01*
X131461374Y-111220223D01*
X131468963Y-111290813D01*
X131434060Y-111357536D01*
X129332574Y-113459021D01*
X129270262Y-113493047D01*
X129199446Y-113487982D01*
X129142611Y-113445435D01*
X129137687Y-113438366D01*
X129053830Y-113308743D01*
X129053828Y-113308740D01*
X129051020Y-113304400D01*
X128896359Y-113134430D01*
X128892308Y-113131231D01*
X128892304Y-113131227D01*
X128720073Y-112995208D01*
X128716015Y-112992003D01*
X128514831Y-112880943D01*
X128374274Y-112831169D01*
X128303084Y-112805959D01*
X128303080Y-112805958D01*
X128298209Y-112804233D01*
X128293116Y-112803326D01*
X128293113Y-112803325D01*
X128077056Y-112764839D01*
X128077050Y-112764838D01*
X128071967Y-112763933D01*
X127998784Y-112763039D01*
X127847351Y-112761189D01*
X127847349Y-112761189D01*
X127842181Y-112761126D01*
X127690610Y-112784319D01*
X127620131Y-112795104D01*
X127620128Y-112795105D01*
X127615022Y-112795886D01*
X127563825Y-112812620D01*
X127525135Y-112825266D01*
X127454171Y-112827417D01*
X127393309Y-112790861D01*
X127361872Y-112727204D01*
X127359989Y-112705501D01*
X127359989Y-112314395D01*
X127360516Y-112303211D01*
X127362190Y-112295723D01*
X127360051Y-112227664D01*
X127359989Y-112223707D01*
X127359989Y-112195776D01*
X127359483Y-112191770D01*
X127358550Y-112179924D01*
X127357411Y-112143669D01*
X127357162Y-112135742D01*
X127351511Y-112116290D01*
X127347503Y-112096938D01*
X127345957Y-112084700D01*
X127345956Y-112084698D01*
X127344963Y-112076835D01*
X127328683Y-112035718D01*
X127324848Y-112024517D01*
X127312507Y-111982038D01*
X127308474Y-111975219D01*
X127308472Y-111975214D01*
X127302196Y-111964603D01*
X127293499Y-111946853D01*
X127286041Y-111928015D01*
X127260060Y-111892255D01*
X127253542Y-111882333D01*
X127235067Y-111851092D01*
X127235063Y-111851087D01*
X127231031Y-111844269D01*
X127216707Y-111829945D01*
X127203865Y-111814910D01*
X127191961Y-111798525D01*
X127157895Y-111770343D01*
X127149116Y-111762354D01*
X121066405Y-105679643D01*
X121032379Y-105617331D01*
X121029500Y-105590548D01*
X121029500Y-97471122D01*
X121049502Y-97403001D01*
X121103158Y-97356508D01*
X121173432Y-97346404D01*
X121238012Y-97375898D01*
X121241276Y-97378905D01*
X121243869Y-97381898D01*
X121247845Y-97385199D01*
X121247846Y-97385200D01*
X121286930Y-97417648D01*
X121420679Y-97528689D01*
X121619090Y-97644631D01*
X121623910Y-97646471D01*
X121623915Y-97646474D01*
X121728960Y-97686586D01*
X121833774Y-97726610D01*
X121838842Y-97727641D01*
X121838845Y-97727642D01*
X121915482Y-97743234D01*
X122058963Y-97772426D01*
X122064136Y-97772616D01*
X122064139Y-97772616D01*
X122283448Y-97780657D01*
X122283452Y-97780657D01*
X122288612Y-97780846D01*
X122293732Y-97780190D01*
X122293734Y-97780190D01*
X122362406Y-97771393D01*
X122516552Y-97751647D01*
X122521506Y-97750161D01*
X122521514Y-97750159D01*
X122586150Y-97730767D01*
X122657145Y-97730349D01*
X122711453Y-97762357D01*
X123816843Y-98867747D01*
X123824387Y-98876037D01*
X123828500Y-98882518D01*
X123834277Y-98887943D01*
X123878167Y-98929158D01*
X123881009Y-98931913D01*
X123900731Y-98951635D01*
X123903855Y-98954058D01*
X123903859Y-98954062D01*
X123903924Y-98954112D01*
X123912945Y-98961817D01*
X123945179Y-98992086D01*
X123952127Y-98995905D01*
X123952129Y-98995907D01*
X123962932Y-99001846D01*
X123979459Y-99012702D01*
X123989198Y-99020257D01*
X123989200Y-99020258D01*
X123995460Y-99025114D01*
X124036040Y-99042674D01*
X124046688Y-99047891D01*
X124072378Y-99062014D01*
X124085440Y-99069195D01*
X124093116Y-99071166D01*
X124093119Y-99071167D01*
X124105062Y-99074233D01*
X124123767Y-99080637D01*
X124142355Y-99088681D01*
X124150178Y-99089920D01*
X124150188Y-99089923D01*
X124186024Y-99095599D01*
X124197644Y-99098005D01*
X124229459Y-99106173D01*
X124240470Y-99109000D01*
X124260724Y-99109000D01*
X124280434Y-99110551D01*
X124300443Y-99113720D01*
X124308335Y-99112974D01*
X124327080Y-99111202D01*
X124344462Y-99109559D01*
X124356319Y-99109000D01*
X131798233Y-99109000D01*
X131809416Y-99109527D01*
X131816909Y-99111202D01*
X131824835Y-99110953D01*
X131824836Y-99110953D01*
X131884986Y-99109062D01*
X131888945Y-99109000D01*
X131916856Y-99109000D01*
X131920791Y-99108503D01*
X131920856Y-99108495D01*
X131932693Y-99107562D01*
X131964951Y-99106548D01*
X131968970Y-99106422D01*
X131976889Y-99106173D01*
X131996343Y-99100521D01*
X132015700Y-99096513D01*
X132027930Y-99094968D01*
X132027931Y-99094968D01*
X132035797Y-99093974D01*
X132043168Y-99091055D01*
X132043170Y-99091055D01*
X132076912Y-99077696D01*
X132088142Y-99073851D01*
X132122983Y-99063729D01*
X132122984Y-99063729D01*
X132130593Y-99061518D01*
X132137412Y-99057485D01*
X132137417Y-99057483D01*
X132148028Y-99051207D01*
X132165776Y-99042512D01*
X132184617Y-99035052D01*
X132195403Y-99027216D01*
X132220387Y-99009064D01*
X132230307Y-99002548D01*
X132261535Y-98984080D01*
X132261538Y-98984078D01*
X132268362Y-98980042D01*
X132282683Y-98965721D01*
X132297717Y-98952880D01*
X132299431Y-98951635D01*
X132314107Y-98940972D01*
X132319156Y-98934868D01*
X132319161Y-98934864D01*
X132324591Y-98928300D01*
X132383426Y-98888564D01*
X132454404Y-98886943D01*
X132469892Y-98892209D01*
X132493875Y-98902143D01*
X132508080Y-98908027D01*
X132592524Y-98928300D01*
X132756037Y-98967556D01*
X132756043Y-98967557D01*
X132760850Y-98968711D01*
X133020000Y-98989107D01*
X133279150Y-98968711D01*
X133283957Y-98967557D01*
X133283963Y-98967556D01*
X133447476Y-98928300D01*
X133531920Y-98908027D01*
X133536493Y-98906133D01*
X133767512Y-98810442D01*
X133767516Y-98810440D01*
X133772084Y-98808548D01*
X133993729Y-98672723D01*
X134191398Y-98503898D01*
X134317454Y-98356305D01*
X134357005Y-98309997D01*
X134357006Y-98309996D01*
X134360223Y-98306229D01*
X134496048Y-98084584D01*
X134512949Y-98043781D01*
X134557498Y-97988501D01*
X134629358Y-97966000D01*
X157929959Y-97966000D01*
X157998080Y-97986002D01*
X158044573Y-98039658D01*
X158054677Y-98109932D01*
X158025183Y-98174512D01*
X158019054Y-98181095D01*
X157234236Y-98965913D01*
X157225950Y-98973453D01*
X157219471Y-98977565D01*
X157214046Y-98983342D01*
X157172846Y-99027216D01*
X157170091Y-99030058D01*
X157150354Y-99049795D01*
X157147874Y-99052992D01*
X157140171Y-99062012D01*
X157109903Y-99094244D01*
X157106084Y-99101190D01*
X157106082Y-99101193D01*
X157100141Y-99111999D01*
X157089290Y-99128518D01*
X157076875Y-99144524D01*
X157073730Y-99151793D01*
X157073727Y-99151797D01*
X157059315Y-99185102D01*
X157054098Y-99195752D01*
X157032794Y-99234505D01*
X157030823Y-99242180D01*
X157030823Y-99242181D01*
X157027756Y-99254127D01*
X157021352Y-99272831D01*
X157013308Y-99291420D01*
X157012069Y-99299243D01*
X157012066Y-99299253D01*
X157006390Y-99335089D01*
X157003984Y-99346709D01*
X156992989Y-99389535D01*
X156992989Y-99409789D01*
X156991438Y-99429499D01*
X156988269Y-99449508D01*
X156989015Y-99457400D01*
X156992430Y-99493526D01*
X156992989Y-99505384D01*
X156992989Y-105247722D01*
X156992462Y-105258905D01*
X156990787Y-105266398D01*
X156991036Y-105274324D01*
X156991036Y-105274325D01*
X156992927Y-105334475D01*
X156992989Y-105338434D01*
X156992989Y-105366345D01*
X156993486Y-105370279D01*
X156993486Y-105370280D01*
X156993494Y-105370345D01*
X156994427Y-105382182D01*
X156995816Y-105426378D01*
X157001467Y-105445828D01*
X157005476Y-105465189D01*
X157008015Y-105485286D01*
X157010934Y-105492657D01*
X157010934Y-105492659D01*
X157024293Y-105526401D01*
X157028138Y-105537631D01*
X157040471Y-105580082D01*
X157044504Y-105586901D01*
X157044506Y-105586906D01*
X157050782Y-105597517D01*
X157059477Y-105615265D01*
X157066937Y-105634106D01*
X157071599Y-105640522D01*
X157071599Y-105640523D01*
X157092925Y-105669876D01*
X157099441Y-105679796D01*
X157121947Y-105717851D01*
X157136268Y-105732172D01*
X157149108Y-105747205D01*
X157161017Y-105763596D01*
X157167123Y-105768647D01*
X157195094Y-105791787D01*
X157203873Y-105799777D01*
X157458091Y-106053995D01*
X157492117Y-106116307D01*
X157490413Y-106176761D01*
X157462548Y-106277237D01*
X157462000Y-106282367D01*
X157461999Y-106282371D01*
X157454388Y-106353595D01*
X157438129Y-106505739D01*
X157451357Y-106735161D01*
X157452492Y-106740198D01*
X157452493Y-106740204D01*
X157492166Y-106916246D01*
X157501878Y-106959342D01*
X157588336Y-107172261D01*
X157708408Y-107368200D01*
X157858869Y-107541898D01*
X158035679Y-107688689D01*
X158040136Y-107691293D01*
X158040141Y-107691297D01*
X158144070Y-107752028D01*
X158192794Y-107803667D01*
X158206500Y-107860816D01*
X158206500Y-108048733D01*
X158205973Y-108059916D01*
X158204298Y-108067409D01*
X158204547Y-108075335D01*
X158204547Y-108075336D01*
X158206438Y-108135486D01*
X158206500Y-108139445D01*
X158206500Y-108167356D01*
X158206997Y-108171290D01*
X158206997Y-108171291D01*
X158207005Y-108171356D01*
X158207938Y-108183193D01*
X158209327Y-108227389D01*
X158214978Y-108246839D01*
X158218987Y-108266200D01*
X158221526Y-108286297D01*
X158224445Y-108293668D01*
X158224445Y-108293670D01*
X158237804Y-108327412D01*
X158241649Y-108338642D01*
X158253982Y-108381093D01*
X158258015Y-108387912D01*
X158258017Y-108387917D01*
X158264293Y-108398528D01*
X158272988Y-108416276D01*
X158280448Y-108435117D01*
X158285110Y-108441533D01*
X158285110Y-108441534D01*
X158306436Y-108470887D01*
X158312952Y-108480807D01*
X158335458Y-108518862D01*
X158349779Y-108533183D01*
X158362619Y-108548216D01*
X158374528Y-108564607D01*
X158380634Y-108569658D01*
X158408605Y-108592798D01*
X158417384Y-108600788D01*
X159794060Y-109977464D01*
X159828086Y-110039776D01*
X159821374Y-110114777D01*
X159804473Y-110155580D01*
X159743789Y-110408350D01*
X159723393Y-110667500D01*
X159743789Y-110926650D01*
X159804473Y-111179420D01*
X159903952Y-111419584D01*
X160039777Y-111641229D01*
X160208602Y-111838898D01*
X160406271Y-112007723D01*
X160627916Y-112143548D01*
X160632484Y-112145440D01*
X160668113Y-112160198D01*
X160723393Y-112204747D01*
X160745832Y-112272649D01*
X160746438Y-112291933D01*
X160746500Y-112295891D01*
X160746500Y-112323802D01*
X160746997Y-112327736D01*
X160746997Y-112327737D01*
X160747005Y-112327802D01*
X160747938Y-112339639D01*
X160749327Y-112383835D01*
X160754978Y-112403285D01*
X160758987Y-112422646D01*
X160761526Y-112442743D01*
X160764445Y-112450114D01*
X160764445Y-112450116D01*
X160777804Y-112483858D01*
X160781649Y-112495088D01*
X160789887Y-112523443D01*
X160793982Y-112537539D01*
X160798015Y-112544358D01*
X160798017Y-112544363D01*
X160804293Y-112554974D01*
X160812988Y-112572722D01*
X160820448Y-112591563D01*
X160825110Y-112597979D01*
X160825110Y-112597980D01*
X160846436Y-112627333D01*
X160852952Y-112637253D01*
X160875458Y-112675308D01*
X160889779Y-112689629D01*
X160902619Y-112704662D01*
X160914528Y-112721053D01*
X160933158Y-112736465D01*
X160948605Y-112749244D01*
X160957384Y-112757234D01*
X164162397Y-115962247D01*
X164169941Y-115970537D01*
X164174054Y-115977018D01*
X164179831Y-115982443D01*
X164223721Y-116023658D01*
X164226563Y-116026413D01*
X164246284Y-116046134D01*
X164249408Y-116048557D01*
X164249412Y-116048561D01*
X164249477Y-116048611D01*
X164258497Y-116056316D01*
X164290733Y-116086586D01*
X164308485Y-116096345D01*
X164325007Y-116107198D01*
X164341013Y-116119614D01*
X164348291Y-116122764D01*
X164348292Y-116122764D01*
X164381591Y-116137174D01*
X164392241Y-116142391D01*
X164430994Y-116163695D01*
X164438669Y-116165666D01*
X164438670Y-116165666D01*
X164450616Y-116168733D01*
X164469321Y-116175137D01*
X164487909Y-116183181D01*
X164495732Y-116184420D01*
X164495742Y-116184423D01*
X164531578Y-116190099D01*
X164543198Y-116192505D01*
X164575013Y-116200673D01*
X164586024Y-116203500D01*
X164606278Y-116203500D01*
X164625988Y-116205051D01*
X164645997Y-116208220D01*
X164653889Y-116207474D01*
X164672634Y-116205702D01*
X164690016Y-116204059D01*
X164701873Y-116203500D01*
X170051233Y-116203500D01*
X170062416Y-116204027D01*
X170069909Y-116205702D01*
X170077835Y-116205453D01*
X170077836Y-116205453D01*
X170137986Y-116203562D01*
X170141945Y-116203500D01*
X170169856Y-116203500D01*
X170173791Y-116203003D01*
X170173856Y-116202995D01*
X170185693Y-116202062D01*
X170217951Y-116201048D01*
X170221970Y-116200922D01*
X170229889Y-116200673D01*
X170249343Y-116195021D01*
X170268700Y-116191013D01*
X170280930Y-116189468D01*
X170280931Y-116189468D01*
X170288797Y-116188474D01*
X170296168Y-116185555D01*
X170296170Y-116185555D01*
X170329912Y-116172196D01*
X170341142Y-116168351D01*
X170375983Y-116158229D01*
X170375984Y-116158229D01*
X170383593Y-116156018D01*
X170390412Y-116151985D01*
X170390417Y-116151983D01*
X170401028Y-116145707D01*
X170418776Y-116137012D01*
X170437617Y-116129552D01*
X170473387Y-116103564D01*
X170483307Y-116097048D01*
X170514535Y-116078580D01*
X170514538Y-116078578D01*
X170521362Y-116074542D01*
X170535683Y-116060221D01*
X170550717Y-116047380D01*
X170560694Y-116040131D01*
X170567107Y-116035472D01*
X170572157Y-116029368D01*
X170572162Y-116029363D01*
X170595293Y-116001402D01*
X170603283Y-115992621D01*
X171051478Y-115544427D01*
X171113790Y-115510402D01*
X171165693Y-115510053D01*
X171368884Y-115551393D01*
X171368888Y-115551393D01*
X171373963Y-115552426D01*
X171379136Y-115552616D01*
X171379139Y-115552616D01*
X171598448Y-115560657D01*
X171598452Y-115560657D01*
X171603612Y-115560846D01*
X171608732Y-115560190D01*
X171608734Y-115560190D01*
X171826425Y-115532304D01*
X171826428Y-115532303D01*
X171831552Y-115531647D01*
X172051663Y-115465610D01*
X172258033Y-115364511D01*
X172445119Y-115231064D01*
X172607898Y-115068852D01*
X172741997Y-114882233D01*
X172751169Y-114863675D01*
X172799282Y-114811467D01*
X172864127Y-114793500D01*
X173048733Y-114793500D01*
X173059916Y-114794027D01*
X173067409Y-114795702D01*
X173075335Y-114795453D01*
X173075336Y-114795453D01*
X173135486Y-114793562D01*
X173139445Y-114793500D01*
X173167356Y-114793500D01*
X173171291Y-114793003D01*
X173171356Y-114792995D01*
X173183193Y-114792062D01*
X173215451Y-114791048D01*
X173219470Y-114790922D01*
X173227389Y-114790673D01*
X173246843Y-114785021D01*
X173266200Y-114781013D01*
X173278430Y-114779468D01*
X173278431Y-114779468D01*
X173286297Y-114778474D01*
X173293668Y-114775555D01*
X173293670Y-114775555D01*
X173327412Y-114762196D01*
X173338642Y-114758351D01*
X173373483Y-114748229D01*
X173373484Y-114748229D01*
X173381093Y-114746018D01*
X173387912Y-114741985D01*
X173387917Y-114741983D01*
X173398528Y-114735707D01*
X173416276Y-114727012D01*
X173435117Y-114719552D01*
X173470887Y-114693564D01*
X173480807Y-114687048D01*
X173512035Y-114668580D01*
X173512038Y-114668578D01*
X173518862Y-114664542D01*
X173533183Y-114650221D01*
X173548217Y-114637380D01*
X173558194Y-114630131D01*
X173564607Y-114625472D01*
X173592798Y-114591395D01*
X173600788Y-114582616D01*
X175929964Y-112253440D01*
X175992276Y-112219414D01*
X176067277Y-112226126D01*
X176070993Y-112227665D01*
X176108080Y-112243027D01*
X176194543Y-112263785D01*
X176356037Y-112302556D01*
X176356043Y-112302557D01*
X176360850Y-112303711D01*
X176620000Y-112324107D01*
X176879150Y-112303711D01*
X176883957Y-112302557D01*
X176883963Y-112302556D01*
X177045457Y-112263785D01*
X177131920Y-112243027D01*
X177136493Y-112241133D01*
X177367512Y-112145442D01*
X177367516Y-112145440D01*
X177372084Y-112143548D01*
X177593729Y-112007723D01*
X177791398Y-111838898D01*
X177960223Y-111641229D01*
X178096048Y-111419584D01*
X178195527Y-111179420D01*
X178256211Y-110926650D01*
X178276607Y-110667500D01*
X178256211Y-110408350D01*
X178195527Y-110155580D01*
X178096048Y-109915416D01*
X177960223Y-109693771D01*
X177791398Y-109496102D01*
X177593729Y-109327277D01*
X177372084Y-109191452D01*
X177331281Y-109174551D01*
X177276001Y-109130002D01*
X177253500Y-109058142D01*
X177253500Y-98941858D01*
X177273502Y-98873737D01*
X177331281Y-98825449D01*
X177367516Y-98810440D01*
X177372084Y-98808548D01*
X177593729Y-98672723D01*
X177791398Y-98503898D01*
X177917454Y-98356305D01*
X177957005Y-98309997D01*
X177957006Y-98309996D01*
X177960223Y-98306229D01*
X178096048Y-98084584D01*
X178112949Y-98043781D01*
X178157498Y-97988501D01*
X178229358Y-97966000D01*
X193870810Y-97966000D01*
X193938931Y-97986002D01*
X193985424Y-98039658D01*
X193990333Y-98052123D01*
X193997629Y-98073993D01*
X193997634Y-98074003D01*
X193999950Y-98080946D01*
X194093022Y-98231348D01*
X194218197Y-98356305D01*
X194224427Y-98360145D01*
X194224428Y-98360146D01*
X194361590Y-98444694D01*
X194368762Y-98449115D01*
X194448505Y-98475564D01*
X194530111Y-98502632D01*
X194530113Y-98502632D01*
X194536639Y-98504797D01*
X194543475Y-98505497D01*
X194543478Y-98505498D01*
X194586531Y-98509909D01*
X194641100Y-98515500D01*
X195416900Y-98515500D01*
X195420146Y-98515163D01*
X195420150Y-98515163D01*
X195515808Y-98505238D01*
X195515812Y-98505237D01*
X195522666Y-98504526D01*
X195529202Y-98502345D01*
X195529204Y-98502345D01*
X195661306Y-98458272D01*
X195690446Y-98448550D01*
X195840848Y-98355478D01*
X195965805Y-98230303D01*
X195968406Y-98226084D01*
X196025530Y-98185583D01*
X196096453Y-98182351D01*
X196157865Y-98217976D01*
X196164422Y-98225530D01*
X196168022Y-98231348D01*
X196293197Y-98356305D01*
X196299427Y-98360145D01*
X196299428Y-98360146D01*
X196436590Y-98444694D01*
X196443762Y-98449115D01*
X196523505Y-98475564D01*
X196605111Y-98502632D01*
X196605113Y-98502632D01*
X196611639Y-98504797D01*
X196618475Y-98505497D01*
X196618478Y-98505498D01*
X196661531Y-98509909D01*
X196716100Y-98515500D01*
X197491900Y-98515500D01*
X197495146Y-98515163D01*
X197495150Y-98515163D01*
X197590808Y-98505238D01*
X197590812Y-98505237D01*
X197597666Y-98504526D01*
X197604202Y-98502345D01*
X197604204Y-98502345D01*
X197736306Y-98458272D01*
X197765446Y-98448550D01*
X197915848Y-98355478D01*
X198040805Y-98230303D01*
X198051281Y-98213308D01*
X198129775Y-98085968D01*
X198129776Y-98085966D01*
X198133615Y-98079738D01*
X198164706Y-97986002D01*
X198187132Y-97918389D01*
X198187132Y-97918387D01*
X198189297Y-97911861D01*
X198200000Y-97807400D01*
X198200000Y-96756600D01*
X198193998Y-96698751D01*
X198189738Y-96657692D01*
X198189737Y-96657688D01*
X198189026Y-96650834D01*
X198178944Y-96620613D01*
X198135368Y-96490002D01*
X198133050Y-96483054D01*
X198039978Y-96332652D01*
X197914803Y-96207695D01*
X197914699Y-96207631D01*
X197875346Y-96152128D01*
X197868500Y-96111161D01*
X197868500Y-91901642D01*
X197888502Y-91833521D01*
X197942158Y-91787028D01*
X197984175Y-91776066D01*
X197999797Y-91774782D01*
X198063779Y-91769522D01*
X198063785Y-91769521D01*
X198068930Y-91769098D01*
X198297551Y-91711673D01*
X198513723Y-91617678D01*
X198711641Y-91489640D01*
X198718883Y-91483051D01*
X198882167Y-91334473D01*
X198882168Y-91334471D01*
X198885989Y-91330995D01*
X198889188Y-91326944D01*
X198889192Y-91326940D01*
X199028883Y-91150061D01*
X199028885Y-91150057D01*
X199032085Y-91146006D01*
X199037103Y-91136917D01*
X199062829Y-91090312D01*
X199146005Y-90939639D01*
X199155794Y-90911998D01*
X199222965Y-90722311D01*
X199222966Y-90722307D01*
X199224691Y-90717436D01*
X199226310Y-90708349D01*
X199265123Y-90490456D01*
X199265124Y-90490450D01*
X199266029Y-90485367D01*
X199268606Y-90274430D01*
X199268846Y-90254830D01*
X199268846Y-90254828D01*
X199268909Y-90249661D01*
X199233253Y-90016651D01*
X199160020Y-89792593D01*
X199051175Y-89583504D01*
X199044745Y-89574939D01*
X198912747Y-89399135D01*
X198912745Y-89399132D01*
X198909642Y-89395000D01*
X198739223Y-89232143D01*
X198544492Y-89099307D01*
X198539808Y-89097133D01*
X198539805Y-89097131D01*
X198335372Y-89002236D01*
X198335367Y-89002234D01*
X198330681Y-89000059D01*
X198103532Y-88937065D01*
X198098395Y-88936516D01*
X197914437Y-88916856D01*
X197914429Y-88916856D01*
X197911102Y-88916500D01*
X196576243Y-88916500D01*
X196573670Y-88916712D01*
X196573659Y-88916712D01*
X196406221Y-88930478D01*
X196406215Y-88930479D01*
X196401070Y-88930902D01*
X196172449Y-88988327D01*
X195956277Y-89082322D01*
X195758359Y-89210360D01*
X195754536Y-89213839D01*
X195754533Y-89213841D01*
X195635107Y-89322511D01*
X195584011Y-89369005D01*
X195580812Y-89373056D01*
X195580808Y-89373060D01*
X195509565Y-89463270D01*
X195437915Y-89553994D01*
X195435422Y-89558509D01*
X195435414Y-89558522D01*
X195384146Y-89651394D01*
X195333714Y-89701364D01*
X195273838Y-89716500D01*
X186696866Y-89716500D01*
X186628745Y-89696498D01*
X186585105Y-89648683D01*
X186551175Y-89583504D01*
X186544745Y-89574939D01*
X186412747Y-89399135D01*
X186412745Y-89399132D01*
X186409642Y-89395000D01*
X186239223Y-89232143D01*
X186044492Y-89099307D01*
X186039808Y-89097133D01*
X186039805Y-89097131D01*
X185835372Y-89002236D01*
X185835367Y-89002234D01*
X185830681Y-89000059D01*
X185603532Y-88937065D01*
X185598395Y-88936516D01*
X185414437Y-88916856D01*
X185414429Y-88916856D01*
X185411102Y-88916500D01*
X184076243Y-88916500D01*
X184073670Y-88916712D01*
X184073659Y-88916712D01*
X183906221Y-88930478D01*
X183906215Y-88930479D01*
X183901070Y-88930902D01*
X183672449Y-88988327D01*
X183456277Y-89082322D01*
X183258359Y-89210360D01*
X183254536Y-89213839D01*
X183254533Y-89213841D01*
X183135107Y-89322511D01*
X183084011Y-89369005D01*
X183080812Y-89373056D01*
X183080808Y-89373060D01*
X182941117Y-89549939D01*
X182937915Y-89553994D01*
X182935419Y-89558515D01*
X182935418Y-89558517D01*
X182921615Y-89583522D01*
X182823995Y-89760361D01*
X182822271Y-89765230D01*
X182822269Y-89765234D01*
X182747035Y-89977689D01*
X182745309Y-89982564D01*
X182744402Y-89987657D01*
X182744401Y-89987660D01*
X182709173Y-90185432D01*
X182703971Y-90214633D01*
X182703240Y-90274430D01*
X182701164Y-90444400D01*
X182701091Y-90450339D01*
X182736747Y-90683349D01*
X182809980Y-90907407D01*
X182918825Y-91116496D01*
X182921928Y-91120629D01*
X182921930Y-91120632D01*
X183056604Y-91300000D01*
X183060358Y-91305000D01*
X183230777Y-91467857D01*
X183425508Y-91600693D01*
X183430192Y-91602867D01*
X183430195Y-91602869D01*
X183634628Y-91697764D01*
X183634633Y-91697766D01*
X183639319Y-91699941D01*
X183866468Y-91762935D01*
X183871605Y-91763484D01*
X184055563Y-91783144D01*
X184055571Y-91783144D01*
X184058898Y-91783500D01*
X185393757Y-91783500D01*
X185396330Y-91783288D01*
X185396341Y-91783288D01*
X185563779Y-91769522D01*
X185563785Y-91769521D01*
X185568930Y-91769098D01*
X185797551Y-91711673D01*
X186013723Y-91617678D01*
X186211641Y-91489640D01*
X186218883Y-91483051D01*
X186382167Y-91334473D01*
X186382168Y-91334471D01*
X186385989Y-91330995D01*
X186389188Y-91326944D01*
X186389192Y-91326940D01*
X186515917Y-91166478D01*
X186532085Y-91146006D01*
X186534578Y-91141491D01*
X186534586Y-91141478D01*
X186585854Y-91048606D01*
X186636286Y-90998636D01*
X186696162Y-90983500D01*
X195273134Y-90983500D01*
X195341255Y-91003502D01*
X195384895Y-91051317D01*
X195418825Y-91116496D01*
X195421928Y-91120629D01*
X195421930Y-91120632D01*
X195556604Y-91300000D01*
X195560358Y-91305000D01*
X195730777Y-91467857D01*
X195925508Y-91600693D01*
X195930192Y-91602867D01*
X195930195Y-91602869D01*
X196134628Y-91697764D01*
X196134633Y-91697766D01*
X196139319Y-91699941D01*
X196366468Y-91762935D01*
X196488889Y-91776018D01*
X196554499Y-91803146D01*
X196595027Y-91861438D01*
X196601500Y-91901305D01*
X196601500Y-95971631D01*
X196581498Y-96039752D01*
X196527842Y-96086245D01*
X196515377Y-96091154D01*
X196449498Y-96113133D01*
X196449496Y-96113134D01*
X196442554Y-96115450D01*
X196436330Y-96119301D01*
X196436329Y-96119302D01*
X196366506Y-96162510D01*
X196292152Y-96208522D01*
X196167195Y-96333697D01*
X196164594Y-96337916D01*
X196107470Y-96378417D01*
X196036547Y-96381649D01*
X195975135Y-96346024D01*
X195968578Y-96338470D01*
X195964978Y-96332652D01*
X195839803Y-96207695D01*
X195833572Y-96203854D01*
X195695468Y-96118725D01*
X195695466Y-96118724D01*
X195689238Y-96114885D01*
X195602891Y-96086245D01*
X195527889Y-96061368D01*
X195527887Y-96061368D01*
X195521361Y-96059203D01*
X195514525Y-96058503D01*
X195514522Y-96058502D01*
X195471469Y-96054091D01*
X195416900Y-96048500D01*
X194641100Y-96048500D01*
X194637854Y-96048837D01*
X194637850Y-96048837D01*
X194542192Y-96058762D01*
X194542188Y-96058763D01*
X194535334Y-96059474D01*
X194528798Y-96061655D01*
X194528796Y-96061655D01*
X194396694Y-96105728D01*
X194367554Y-96115450D01*
X194217152Y-96208522D01*
X194092195Y-96333697D01*
X193999385Y-96484262D01*
X193969235Y-96575161D01*
X193956795Y-96612667D01*
X193916364Y-96671027D01*
X193850800Y-96698264D01*
X193837202Y-96699000D01*
X178453594Y-96699000D01*
X178385473Y-96678998D01*
X178338980Y-96625342D01*
X178328876Y-96555068D01*
X178358370Y-96490488D01*
X178364499Y-96483905D01*
X179162247Y-95686157D01*
X179170537Y-95678613D01*
X179177018Y-95674500D01*
X179223659Y-95624832D01*
X179226413Y-95621991D01*
X179246134Y-95602270D01*
X179248612Y-95599075D01*
X179256318Y-95590053D01*
X179281158Y-95563601D01*
X179286586Y-95557821D01*
X179296346Y-95540068D01*
X179307199Y-95523545D01*
X179314753Y-95513806D01*
X179319613Y-95507541D01*
X179337176Y-95466957D01*
X179342383Y-95456327D01*
X179363695Y-95417560D01*
X179365666Y-95409883D01*
X179365668Y-95409878D01*
X179368732Y-95397942D01*
X179375138Y-95379230D01*
X179380033Y-95367919D01*
X179383181Y-95360645D01*
X179384421Y-95352817D01*
X179384423Y-95352810D01*
X179390099Y-95316976D01*
X179392505Y-95305356D01*
X179401528Y-95270211D01*
X179401528Y-95270210D01*
X179403500Y-95262530D01*
X179403500Y-95242276D01*
X179405051Y-95222565D01*
X179406980Y-95210386D01*
X179408220Y-95202557D01*
X179404059Y-95158538D01*
X179403500Y-95146681D01*
X179403500Y-85450339D01*
X182701091Y-85450339D01*
X182736747Y-85683349D01*
X182809980Y-85907407D01*
X182918825Y-86116496D01*
X182921928Y-86120629D01*
X182921930Y-86120632D01*
X183051609Y-86293348D01*
X183060358Y-86305000D01*
X183074894Y-86318891D01*
X183208095Y-86446181D01*
X183230777Y-86467857D01*
X183425508Y-86600693D01*
X183430192Y-86602867D01*
X183430195Y-86602869D01*
X183634628Y-86697764D01*
X183634633Y-86697766D01*
X183639319Y-86699941D01*
X183866468Y-86762935D01*
X183871605Y-86763484D01*
X184055563Y-86783144D01*
X184055571Y-86783144D01*
X184058898Y-86783500D01*
X185393757Y-86783500D01*
X185396330Y-86783288D01*
X185396341Y-86783288D01*
X185563779Y-86769522D01*
X185563785Y-86769521D01*
X185568930Y-86769098D01*
X185797551Y-86711673D01*
X186013723Y-86617678D01*
X186211641Y-86489640D01*
X186216531Y-86485191D01*
X186382167Y-86334473D01*
X186382168Y-86334471D01*
X186385989Y-86330995D01*
X186389188Y-86326944D01*
X186389192Y-86326940D01*
X186524524Y-86155580D01*
X186532085Y-86146006D01*
X186534578Y-86141491D01*
X186534586Y-86141478D01*
X186585854Y-86048606D01*
X186636286Y-85998636D01*
X186696162Y-85983500D01*
X195273134Y-85983500D01*
X195341255Y-86003502D01*
X195384895Y-86051317D01*
X195418825Y-86116496D01*
X195421928Y-86120629D01*
X195421930Y-86120632D01*
X195551609Y-86293348D01*
X195560358Y-86305000D01*
X195574894Y-86318891D01*
X195708095Y-86446181D01*
X195730777Y-86467857D01*
X195925508Y-86600693D01*
X195930192Y-86602867D01*
X195930195Y-86602869D01*
X196134628Y-86697764D01*
X196134633Y-86697766D01*
X196139319Y-86699941D01*
X196366468Y-86762935D01*
X196371605Y-86763484D01*
X196555563Y-86783144D01*
X196555571Y-86783144D01*
X196558898Y-86783500D01*
X197893757Y-86783500D01*
X197896330Y-86783288D01*
X197896341Y-86783288D01*
X198063779Y-86769522D01*
X198063785Y-86769521D01*
X198068930Y-86769098D01*
X198297551Y-86711673D01*
X198513723Y-86617678D01*
X198711641Y-86489640D01*
X198716531Y-86485191D01*
X198882167Y-86334473D01*
X198882168Y-86334471D01*
X198885989Y-86330995D01*
X198889188Y-86326944D01*
X198889192Y-86326940D01*
X199028883Y-86150061D01*
X199028885Y-86150057D01*
X199032085Y-86146006D01*
X199037103Y-86136917D01*
X199062829Y-86090312D01*
X199146005Y-85939639D01*
X199152254Y-85921994D01*
X199222965Y-85722311D01*
X199222966Y-85722307D01*
X199224691Y-85717436D01*
X199226310Y-85708349D01*
X199265123Y-85490456D01*
X199265124Y-85490450D01*
X199266029Y-85485367D01*
X199268909Y-85249661D01*
X199233253Y-85016651D01*
X199160020Y-84792593D01*
X199051175Y-84583504D01*
X199044745Y-84574939D01*
X198912747Y-84399135D01*
X198912745Y-84399132D01*
X198909642Y-84395000D01*
X198802134Y-84292262D01*
X198742960Y-84235714D01*
X198742959Y-84235713D01*
X198739223Y-84232143D01*
X198544492Y-84099307D01*
X198539808Y-84097133D01*
X198539805Y-84097131D01*
X198335372Y-84002236D01*
X198335367Y-84002234D01*
X198330681Y-84000059D01*
X198103532Y-83937065D01*
X198098395Y-83936516D01*
X197914437Y-83916856D01*
X197914429Y-83916856D01*
X197911102Y-83916500D01*
X196576243Y-83916500D01*
X196573670Y-83916712D01*
X196573659Y-83916712D01*
X196406221Y-83930478D01*
X196406215Y-83930479D01*
X196401070Y-83930902D01*
X196172449Y-83988327D01*
X195956277Y-84082322D01*
X195758359Y-84210360D01*
X195754536Y-84213839D01*
X195754533Y-84213841D01*
X195592015Y-84361722D01*
X195584011Y-84369005D01*
X195580812Y-84373056D01*
X195580808Y-84373060D01*
X195470678Y-84512509D01*
X195437915Y-84553994D01*
X195435422Y-84558509D01*
X195435414Y-84558522D01*
X195384146Y-84651394D01*
X195333714Y-84701364D01*
X195273838Y-84716500D01*
X186696866Y-84716500D01*
X186628745Y-84696498D01*
X186585105Y-84648683D01*
X186551175Y-84583504D01*
X186544745Y-84574939D01*
X186412747Y-84399135D01*
X186412745Y-84399132D01*
X186409642Y-84395000D01*
X186302134Y-84292262D01*
X186242960Y-84235714D01*
X186242959Y-84235713D01*
X186239223Y-84232143D01*
X186044492Y-84099307D01*
X186039808Y-84097133D01*
X186039805Y-84097131D01*
X185835372Y-84002236D01*
X185835367Y-84002234D01*
X185830681Y-84000059D01*
X185603532Y-83937065D01*
X185598395Y-83936516D01*
X185414437Y-83916856D01*
X185414429Y-83916856D01*
X185411102Y-83916500D01*
X184076243Y-83916500D01*
X184073670Y-83916712D01*
X184073659Y-83916712D01*
X183906221Y-83930478D01*
X183906215Y-83930479D01*
X183901070Y-83930902D01*
X183672449Y-83988327D01*
X183456277Y-84082322D01*
X183258359Y-84210360D01*
X183254536Y-84213839D01*
X183254533Y-84213841D01*
X183092015Y-84361722D01*
X183084011Y-84369005D01*
X183080812Y-84373056D01*
X183080808Y-84373060D01*
X182947640Y-84541680D01*
X182937915Y-84553994D01*
X182935419Y-84558515D01*
X182935418Y-84558517D01*
X182921615Y-84583522D01*
X182823995Y-84760361D01*
X182822271Y-84765230D01*
X182822269Y-84765234D01*
X182747035Y-84977689D01*
X182745309Y-84982564D01*
X182744402Y-84987657D01*
X182744401Y-84987660D01*
X182740113Y-85011736D01*
X182703971Y-85214633D01*
X182701091Y-85450339D01*
X179403500Y-85450339D01*
X179403500Y-78755427D01*
X179423502Y-78687306D01*
X179464618Y-78647550D01*
X179467994Y-78645896D01*
X179649860Y-78516173D01*
X179808096Y-78358489D01*
X179938453Y-78177077D01*
X179959320Y-78134857D01*
X180035136Y-77981453D01*
X180035137Y-77981451D01*
X180037430Y-77976811D01*
X180102370Y-77763069D01*
X180131529Y-77541590D01*
X180133156Y-77475000D01*
X180114852Y-77252361D01*
X180060431Y-77035702D01*
X179971354Y-76830840D01*
X179850014Y-76643277D01*
X179699670Y-76478051D01*
X179695619Y-76474852D01*
X179695615Y-76474848D01*
X179528414Y-76342800D01*
X179528410Y-76342798D01*
X179524359Y-76339598D01*
X179519835Y-76337101D01*
X179519831Y-76337098D01*
X179468608Y-76308822D01*
X179418636Y-76258390D01*
X179403500Y-76198513D01*
X179403500Y-76031094D01*
X179423502Y-75962973D01*
X179440405Y-75941999D01*
X184987405Y-70394999D01*
X185049717Y-70360973D01*
X185120532Y-70366038D01*
X185177368Y-70408585D01*
X185202179Y-70475105D01*
X185202500Y-70484094D01*
X185202500Y-70513400D01*
X185213474Y-70619166D01*
X185215655Y-70625702D01*
X185215655Y-70625704D01*
X185218855Y-70635295D01*
X185269450Y-70786946D01*
X185362522Y-70937348D01*
X185487697Y-71062305D01*
X185638262Y-71155115D01*
X185718005Y-71181564D01*
X185799611Y-71208632D01*
X185799613Y-71208632D01*
X185806139Y-71210797D01*
X185812975Y-71211497D01*
X185812978Y-71211498D01*
X185856031Y-71215909D01*
X185910600Y-71221500D01*
X186583905Y-71221500D01*
X186652026Y-71241502D01*
X186673001Y-71258405D01*
X187438853Y-72024258D01*
X187446387Y-72032537D01*
X187450500Y-72039018D01*
X187471595Y-72058827D01*
X187500151Y-72085643D01*
X187502993Y-72088398D01*
X187522730Y-72108135D01*
X187525927Y-72110615D01*
X187534947Y-72118318D01*
X187567179Y-72148586D01*
X187574125Y-72152405D01*
X187574128Y-72152407D01*
X187584934Y-72158348D01*
X187601453Y-72169199D01*
X187617459Y-72181614D01*
X187624728Y-72184759D01*
X187624732Y-72184762D01*
X187658037Y-72199174D01*
X187668687Y-72204391D01*
X187707440Y-72225695D01*
X187715115Y-72227666D01*
X187715116Y-72227666D01*
X187727062Y-72230733D01*
X187745767Y-72237137D01*
X187764355Y-72245181D01*
X187772178Y-72246420D01*
X187772188Y-72246423D01*
X187808024Y-72252099D01*
X187819644Y-72254505D01*
X187851459Y-72262673D01*
X187862470Y-72265500D01*
X187882724Y-72265500D01*
X187902434Y-72267051D01*
X187922443Y-72270220D01*
X187930335Y-72269474D01*
X187949080Y-72267702D01*
X187966462Y-72266059D01*
X187978319Y-72265500D01*
X189151500Y-72265500D01*
X189219621Y-72285502D01*
X189266114Y-72339158D01*
X189277500Y-72391500D01*
X189277500Y-72430134D01*
X189284255Y-72492316D01*
X189335385Y-72628705D01*
X189422739Y-72745261D01*
X189539295Y-72832615D01*
X189675684Y-72883745D01*
X189737866Y-72890500D01*
X190834134Y-72890500D01*
X190896316Y-72883745D01*
X191032705Y-72832615D01*
X191149261Y-72745261D01*
X191236615Y-72628705D01*
X191287745Y-72492316D01*
X191294500Y-72430134D01*
X191294500Y-72035594D01*
X191314502Y-71967473D01*
X191331405Y-71946499D01*
X192262405Y-71015499D01*
X192324717Y-70981473D01*
X192395532Y-70986538D01*
X192452368Y-71029085D01*
X192477179Y-71095605D01*
X192477500Y-71104594D01*
X192477500Y-72430134D01*
X192484255Y-72492316D01*
X192535385Y-72628705D01*
X192622739Y-72745261D01*
X192739295Y-72832615D01*
X192875684Y-72883745D01*
X192937866Y-72890500D01*
X194034134Y-72890500D01*
X194096316Y-72883745D01*
X194232705Y-72832615D01*
X194349261Y-72745261D01*
X194436615Y-72628705D01*
X194487745Y-72492316D01*
X194494500Y-72430134D01*
X194494500Y-70833866D01*
X194487745Y-70771684D01*
X194436615Y-70635295D01*
X194349261Y-70518739D01*
X194232705Y-70431385D01*
X194096316Y-70380255D01*
X194034134Y-70373500D01*
X193208594Y-70373500D01*
X193140473Y-70353498D01*
X193093980Y-70299842D01*
X193083876Y-70229568D01*
X193113370Y-70164988D01*
X193119499Y-70158405D01*
X194073064Y-69204841D01*
X195210253Y-68067652D01*
X195218539Y-68060112D01*
X195225018Y-68056000D01*
X195271644Y-68006348D01*
X195274398Y-68003507D01*
X195294135Y-67983770D01*
X195296615Y-67980573D01*
X195304320Y-67971551D01*
X195329159Y-67945100D01*
X195334586Y-67939321D01*
X195338405Y-67932375D01*
X195338407Y-67932372D01*
X195344348Y-67921566D01*
X195355199Y-67905047D01*
X195362758Y-67895301D01*
X195367614Y-67889041D01*
X195370759Y-67881772D01*
X195370762Y-67881768D01*
X195385174Y-67848463D01*
X195390391Y-67837813D01*
X195411695Y-67799060D01*
X195416733Y-67779437D01*
X195423137Y-67760734D01*
X195428033Y-67749420D01*
X195428033Y-67749419D01*
X195431181Y-67742145D01*
X195432420Y-67734322D01*
X195432423Y-67734312D01*
X195438099Y-67698476D01*
X195440505Y-67686856D01*
X195449528Y-67651711D01*
X195449528Y-67651710D01*
X195451500Y-67644030D01*
X195451500Y-67623776D01*
X195453051Y-67604065D01*
X195454980Y-67591886D01*
X195456220Y-67584057D01*
X195452059Y-67540038D01*
X195451500Y-67528181D01*
X195451500Y-55704763D01*
X195452027Y-55693579D01*
X195453701Y-55686091D01*
X195451562Y-55618032D01*
X195451500Y-55614075D01*
X195451500Y-55586144D01*
X195450994Y-55582138D01*
X195450061Y-55570292D01*
X195448922Y-55534037D01*
X195448673Y-55526110D01*
X195443022Y-55506658D01*
X195439014Y-55487306D01*
X195437468Y-55475068D01*
X195437467Y-55475066D01*
X195436474Y-55467203D01*
X195420194Y-55426086D01*
X195416359Y-55414885D01*
X195404018Y-55372406D01*
X195399985Y-55365587D01*
X195399983Y-55365582D01*
X195393707Y-55354971D01*
X195385010Y-55337221D01*
X195377552Y-55318383D01*
X195351571Y-55282623D01*
X195345053Y-55272701D01*
X195326578Y-55241460D01*
X195326574Y-55241455D01*
X195322542Y-55234637D01*
X195308218Y-55220313D01*
X195295376Y-55205278D01*
X195283472Y-55188893D01*
X195249406Y-55160711D01*
X195240627Y-55152722D01*
X194813652Y-54725747D01*
X194806112Y-54717461D01*
X194802000Y-54710982D01*
X194752348Y-54664356D01*
X194749507Y-54661602D01*
X194729770Y-54641865D01*
X194726573Y-54639385D01*
X194717551Y-54631680D01*
X194685321Y-54601414D01*
X194678375Y-54597595D01*
X194678372Y-54597593D01*
X194667566Y-54591652D01*
X194651047Y-54580801D01*
X194650583Y-54580441D01*
X194635041Y-54568386D01*
X194627772Y-54565241D01*
X194627768Y-54565238D01*
X194594463Y-54550826D01*
X194583813Y-54545609D01*
X194545060Y-54524305D01*
X194525437Y-54519267D01*
X194506734Y-54512863D01*
X194495420Y-54507967D01*
X194495419Y-54507967D01*
X194488145Y-54504819D01*
X194480322Y-54503580D01*
X194480312Y-54503577D01*
X194444476Y-54497901D01*
X194432856Y-54495495D01*
X194397711Y-54486472D01*
X194397710Y-54486472D01*
X194390030Y-54484500D01*
X194369776Y-54484500D01*
X194350065Y-54482949D01*
X194345766Y-54482268D01*
X194330057Y-54479780D01*
X194304351Y-54482210D01*
X194286039Y-54483941D01*
X194274181Y-54484500D01*
X191841793Y-54484500D01*
X191818184Y-54482268D01*
X191817881Y-54482210D01*
X191817877Y-54482210D01*
X191810094Y-54480725D01*
X191754049Y-54484251D01*
X191746138Y-54484500D01*
X191730144Y-54484500D01*
X191714270Y-54486506D01*
X191706410Y-54487248D01*
X191678951Y-54488976D01*
X191658263Y-54490277D01*
X191658262Y-54490277D01*
X191650350Y-54490775D01*
X191642809Y-54493225D01*
X191642513Y-54493321D01*
X191619369Y-54498494D01*
X191619065Y-54498532D01*
X191619060Y-54498533D01*
X191611203Y-54499526D01*
X191603838Y-54502442D01*
X191603834Y-54502443D01*
X191558989Y-54520199D01*
X191551570Y-54522871D01*
X191498125Y-54540236D01*
X191491429Y-54544486D01*
X191491428Y-54544486D01*
X191491169Y-54544650D01*
X191470042Y-54555415D01*
X191469754Y-54555529D01*
X191469749Y-54555532D01*
X191462383Y-54558448D01*
X191455975Y-54563104D01*
X191455969Y-54563107D01*
X191416948Y-54591458D01*
X191410411Y-54595901D01*
X191362982Y-54626000D01*
X191357556Y-54631778D01*
X191357555Y-54631779D01*
X191357341Y-54632007D01*
X191339554Y-54647688D01*
X191339309Y-54647866D01*
X191339307Y-54647868D01*
X191332893Y-54652528D01*
X191327839Y-54658637D01*
X191327838Y-54658638D01*
X191297097Y-54695796D01*
X191291866Y-54701730D01*
X191258842Y-54736898D01*
X191258840Y-54736901D01*
X191253414Y-54742679D01*
X191249445Y-54749899D01*
X191236119Y-54769506D01*
X191235920Y-54769746D01*
X191235916Y-54769753D01*
X191230867Y-54775856D01*
X191227493Y-54783027D01*
X191206953Y-54826676D01*
X191203371Y-54833708D01*
X191176305Y-54882940D01*
X191174335Y-54890615D01*
X191174332Y-54890621D01*
X191174256Y-54890919D01*
X191166224Y-54913228D01*
X191166094Y-54913503D01*
X191166091Y-54913511D01*
X191162717Y-54920682D01*
X191161231Y-54928474D01*
X191152195Y-54975843D01*
X191150471Y-54983558D01*
X191136500Y-55037970D01*
X191136500Y-55046207D01*
X191134268Y-55069816D01*
X191132725Y-55077906D01*
X191133223Y-55085817D01*
X191136251Y-55133951D01*
X191136500Y-55141862D01*
X191136500Y-55388498D01*
X191116498Y-55456619D01*
X191062842Y-55503112D01*
X190992568Y-55513216D01*
X190966273Y-55506481D01*
X190896316Y-55480255D01*
X190834134Y-55473500D01*
X190533595Y-55473500D01*
X190465474Y-55453498D01*
X190444500Y-55436595D01*
X188971652Y-53963747D01*
X188964112Y-53955461D01*
X188960000Y-53948982D01*
X188910348Y-53902356D01*
X188907507Y-53899602D01*
X188887770Y-53879865D01*
X188884573Y-53877385D01*
X188875551Y-53869680D01*
X188862116Y-53857064D01*
X188843321Y-53839414D01*
X188836375Y-53835595D01*
X188836372Y-53835593D01*
X188825566Y-53829652D01*
X188809047Y-53818801D01*
X188800048Y-53811821D01*
X188793041Y-53806386D01*
X188785772Y-53803241D01*
X188785768Y-53803238D01*
X188752463Y-53788826D01*
X188741813Y-53783609D01*
X188703060Y-53762305D01*
X188683437Y-53757267D01*
X188664734Y-53750863D01*
X188653420Y-53745967D01*
X188653419Y-53745967D01*
X188646145Y-53742819D01*
X188638322Y-53741580D01*
X188638312Y-53741577D01*
X188602476Y-53735901D01*
X188590856Y-53733495D01*
X188555711Y-53724472D01*
X188555710Y-53724472D01*
X188548030Y-53722500D01*
X188527776Y-53722500D01*
X188508065Y-53720949D01*
X188495886Y-53719020D01*
X188488057Y-53717780D01*
X188480165Y-53718526D01*
X188444039Y-53721941D01*
X188432181Y-53722500D01*
X129375339Y-53722500D01*
X129307218Y-53702498D01*
X129260725Y-53648842D01*
X129250621Y-53578568D01*
X129280115Y-53513988D01*
X129339841Y-53475604D01*
X129375171Y-53470500D01*
X129502738Y-53470330D01*
X194950122Y-53383067D01*
X194969983Y-53384617D01*
G37*
%TD.AperFunction*%
%TA.AperFunction,Conductor*%
G36*
X146514016Y-76953991D02*
G01*
X146534990Y-76970894D01*
X153352975Y-83788879D01*
X153387001Y-83851191D01*
X153385694Y-83880795D01*
X153389000Y-83880795D01*
X153389000Y-86533517D01*
X153393064Y-86547359D01*
X153406478Y-86549393D01*
X153413184Y-86548534D01*
X153423262Y-86546392D01*
X153627255Y-86485191D01*
X153636842Y-86481433D01*
X153828095Y-86387739D01*
X153836945Y-86382464D01*
X154010328Y-86258792D01*
X154018200Y-86252139D01*
X154169052Y-86101812D01*
X154175730Y-86093965D01*
X154303022Y-85916819D01*
X154304279Y-85917722D01*
X154351373Y-85874362D01*
X154421311Y-85862145D01*
X154486751Y-85889678D01*
X154514579Y-85921511D01*
X154525688Y-85939639D01*
X154574987Y-86020088D01*
X154721250Y-86188938D01*
X154893126Y-86331632D01*
X154934819Y-86355995D01*
X154979070Y-86381853D01*
X155027794Y-86433491D01*
X155041500Y-86490641D01*
X155041500Y-88286233D01*
X155040973Y-88297416D01*
X155039298Y-88304909D01*
X155039547Y-88312835D01*
X155039547Y-88312836D01*
X155041438Y-88372986D01*
X155041500Y-88376945D01*
X155041500Y-88404856D01*
X155041997Y-88408790D01*
X155041997Y-88408791D01*
X155042005Y-88408856D01*
X155042938Y-88420693D01*
X155044327Y-88464889D01*
X155049978Y-88484339D01*
X155053987Y-88503700D01*
X155056526Y-88523797D01*
X155059445Y-88531168D01*
X155059445Y-88531170D01*
X155072804Y-88564912D01*
X155076649Y-88576142D01*
X155088982Y-88618593D01*
X155093015Y-88625412D01*
X155093017Y-88625417D01*
X155099293Y-88636028D01*
X155107988Y-88653776D01*
X155115448Y-88672617D01*
X155120110Y-88679033D01*
X155120110Y-88679034D01*
X155141436Y-88708387D01*
X155147952Y-88718307D01*
X155159605Y-88738010D01*
X155170458Y-88756362D01*
X155184779Y-88770683D01*
X155197619Y-88785716D01*
X155209528Y-88802107D01*
X155215632Y-88807157D01*
X155215637Y-88807162D01*
X155243598Y-88830293D01*
X155252379Y-88838283D01*
X156214353Y-89800258D01*
X156221887Y-89808537D01*
X156226000Y-89815018D01*
X156247095Y-89834827D01*
X156275651Y-89861643D01*
X156278493Y-89864398D01*
X156298230Y-89884135D01*
X156301427Y-89886615D01*
X156310447Y-89894318D01*
X156342679Y-89924586D01*
X156349625Y-89928405D01*
X156349628Y-89928407D01*
X156360434Y-89934348D01*
X156376953Y-89945199D01*
X156392959Y-89957614D01*
X156400228Y-89960759D01*
X156400232Y-89960762D01*
X156433537Y-89975174D01*
X156444187Y-89980391D01*
X156482940Y-90001695D01*
X156490615Y-90003666D01*
X156490616Y-90003666D01*
X156502562Y-90006733D01*
X156521266Y-90013137D01*
X156529387Y-90016651D01*
X156539855Y-90021181D01*
X156547678Y-90022420D01*
X156547688Y-90022423D01*
X156583524Y-90028099D01*
X156595144Y-90030505D01*
X156630289Y-90039528D01*
X156637970Y-90041500D01*
X156658224Y-90041500D01*
X156677934Y-90043051D01*
X156697943Y-90046220D01*
X156705835Y-90045474D01*
X156741961Y-90042059D01*
X156753819Y-90041500D01*
X164799849Y-90041500D01*
X164867970Y-90061502D01*
X164914463Y-90115158D01*
X164924567Y-90185432D01*
X164890943Y-90254551D01*
X164890411Y-90255108D01*
X164735216Y-90417510D01*
X164732302Y-90421782D01*
X164732301Y-90421783D01*
X164709333Y-90455453D01*
X164605716Y-90607350D01*
X164508961Y-90815792D01*
X164447548Y-91037237D01*
X164423129Y-91265739D01*
X164423426Y-91270892D01*
X164423426Y-91270895D01*
X164427040Y-91333572D01*
X164436357Y-91495161D01*
X164437492Y-91500198D01*
X164437493Y-91500204D01*
X164471679Y-91651899D01*
X164486878Y-91719342D01*
X164573336Y-91932261D01*
X164576033Y-91936662D01*
X164576034Y-91936664D01*
X164617099Y-92003675D01*
X164693408Y-92128200D01*
X164843869Y-92301898D01*
X165020679Y-92448689D01*
X165219090Y-92564631D01*
X165223910Y-92566471D01*
X165223915Y-92566474D01*
X165330296Y-92607096D01*
X165433774Y-92646610D01*
X165438842Y-92647641D01*
X165438845Y-92647642D01*
X165549534Y-92670162D01*
X165658963Y-92692426D01*
X165664136Y-92692616D01*
X165664139Y-92692616D01*
X165883448Y-92700657D01*
X165883452Y-92700657D01*
X165888612Y-92700846D01*
X165893732Y-92700190D01*
X165893734Y-92700190D01*
X166111425Y-92672304D01*
X166111428Y-92672303D01*
X166116552Y-92671647D01*
X166151504Y-92661161D01*
X166331710Y-92607096D01*
X166336663Y-92605610D01*
X166543033Y-92504511D01*
X166573498Y-92482781D01*
X166725916Y-92374062D01*
X166730119Y-92371064D01*
X166892898Y-92208852D01*
X167026997Y-92022233D01*
X167036169Y-92003675D01*
X167084282Y-91951467D01*
X167149127Y-91933500D01*
X167722733Y-91933500D01*
X167733916Y-91934027D01*
X167741409Y-91935702D01*
X167749335Y-91935453D01*
X167749336Y-91935453D01*
X167809486Y-91933562D01*
X167813445Y-91933500D01*
X167841356Y-91933500D01*
X167845291Y-91933003D01*
X167845356Y-91932995D01*
X167857193Y-91932062D01*
X167889451Y-91931048D01*
X167893470Y-91930922D01*
X167901389Y-91930673D01*
X167920843Y-91925021D01*
X167940200Y-91921013D01*
X167952430Y-91919468D01*
X167952431Y-91919468D01*
X167960297Y-91918474D01*
X167967668Y-91915555D01*
X167967670Y-91915555D01*
X168001412Y-91902196D01*
X168012642Y-91898351D01*
X168047483Y-91888229D01*
X168047484Y-91888229D01*
X168055093Y-91886018D01*
X168061912Y-91881985D01*
X168061917Y-91881983D01*
X168072528Y-91875707D01*
X168090276Y-91867012D01*
X168109117Y-91859552D01*
X168144887Y-91833564D01*
X168154807Y-91827048D01*
X168186035Y-91808580D01*
X168186038Y-91808578D01*
X168192862Y-91804542D01*
X168207183Y-91790221D01*
X168222217Y-91777380D01*
X168238607Y-91765472D01*
X168266798Y-91731395D01*
X168274788Y-91722616D01*
X172371747Y-87625657D01*
X172380037Y-87618113D01*
X172386518Y-87614000D01*
X172433159Y-87564332D01*
X172435913Y-87561491D01*
X172455634Y-87541770D01*
X172458112Y-87538575D01*
X172465818Y-87529553D01*
X172490658Y-87503101D01*
X172496086Y-87497321D01*
X172502232Y-87486142D01*
X172505846Y-87479568D01*
X172516699Y-87463045D01*
X172519733Y-87459134D01*
X172529113Y-87447041D01*
X172546676Y-87406457D01*
X172551883Y-87395827D01*
X172573195Y-87357060D01*
X172575166Y-87349383D01*
X172575168Y-87349378D01*
X172578232Y-87337442D01*
X172584638Y-87318730D01*
X172589533Y-87307419D01*
X172592681Y-87300145D01*
X172593921Y-87292317D01*
X172593923Y-87292310D01*
X172599599Y-87256476D01*
X172602005Y-87244856D01*
X172611028Y-87209711D01*
X172611028Y-87209710D01*
X172613000Y-87202030D01*
X172613000Y-87181776D01*
X172614551Y-87162065D01*
X172616480Y-87149886D01*
X172617720Y-87142057D01*
X172613559Y-87098038D01*
X172613000Y-87086181D01*
X172613000Y-86598046D01*
X172633002Y-86529925D01*
X172672697Y-86490902D01*
X172785120Y-86421332D01*
X172791348Y-86417478D01*
X172864652Y-86344046D01*
X172887327Y-86321332D01*
X172949610Y-86287253D01*
X173020430Y-86292256D01*
X173077303Y-86334753D01*
X173102171Y-86401252D01*
X173102500Y-86410350D01*
X173102500Y-90002148D01*
X173082498Y-90070269D01*
X173028842Y-90116762D01*
X172958568Y-90126866D01*
X172915606Y-90112456D01*
X172787070Y-90041500D01*
X172749831Y-90020943D01*
X172608280Y-89970817D01*
X172538084Y-89945959D01*
X172538080Y-89945958D01*
X172533209Y-89944233D01*
X172528116Y-89943326D01*
X172528113Y-89943325D01*
X172312056Y-89904839D01*
X172312050Y-89904838D01*
X172306967Y-89903933D01*
X172233784Y-89903039D01*
X172082351Y-89901189D01*
X172082349Y-89901189D01*
X172077181Y-89901126D01*
X171925610Y-89924319D01*
X171855131Y-89935104D01*
X171855128Y-89935105D01*
X171850022Y-89935886D01*
X171798403Y-89952758D01*
X171636504Y-90005675D01*
X171636502Y-90005676D01*
X171631591Y-90007281D01*
X171427753Y-90113392D01*
X171423620Y-90116495D01*
X171423617Y-90116497D01*
X171331804Y-90185432D01*
X171243983Y-90251370D01*
X171085216Y-90417510D01*
X171082302Y-90421782D01*
X171082301Y-90421783D01*
X171059333Y-90455453D01*
X170955716Y-90607350D01*
X170858961Y-90815792D01*
X170797548Y-91037237D01*
X170773129Y-91265739D01*
X170773426Y-91270892D01*
X170773426Y-91270895D01*
X170777040Y-91333572D01*
X170786357Y-91495161D01*
X170787492Y-91500198D01*
X170787493Y-91500204D01*
X170821679Y-91651899D01*
X170836878Y-91719342D01*
X170923336Y-91932261D01*
X170926033Y-91936662D01*
X170926034Y-91936664D01*
X170967099Y-92003675D01*
X171043408Y-92128200D01*
X171193869Y-92301898D01*
X171370679Y-92448689D01*
X171498203Y-92523208D01*
X171530040Y-92541812D01*
X171578764Y-92593451D01*
X171591835Y-92663234D01*
X171565104Y-92729006D01*
X171555565Y-92739695D01*
X167366902Y-96928358D01*
X167304590Y-96962384D01*
X167233775Y-96957319D01*
X167176939Y-96914772D01*
X167152128Y-96848252D01*
X167157249Y-96802634D01*
X167194117Y-96681290D01*
X167194118Y-96681287D01*
X167195621Y-96676339D01*
X167217756Y-96508209D01*
X167225179Y-96451823D01*
X167225179Y-96451819D01*
X167225616Y-96448502D01*
X167227290Y-96380000D01*
X167212808Y-96203850D01*
X167208884Y-96156121D01*
X167208883Y-96156115D01*
X167208460Y-96150970D01*
X167152477Y-95928090D01*
X167060843Y-95717347D01*
X167058037Y-95713009D01*
X166938830Y-95528743D01*
X166938828Y-95528740D01*
X166936020Y-95524400D01*
X166926381Y-95513806D01*
X166784837Y-95358252D01*
X166784835Y-95358251D01*
X166781359Y-95354430D01*
X166777308Y-95351231D01*
X166777304Y-95351227D01*
X166605073Y-95215208D01*
X166601015Y-95212003D01*
X166399831Y-95100943D01*
X166259274Y-95051169D01*
X166188084Y-95025959D01*
X166188080Y-95025958D01*
X166183209Y-95024233D01*
X166178116Y-95023326D01*
X166178113Y-95023325D01*
X165962056Y-94984839D01*
X165962050Y-94984838D01*
X165956967Y-94983933D01*
X165883784Y-94983039D01*
X165732351Y-94981189D01*
X165732349Y-94981189D01*
X165727181Y-94981126D01*
X165575610Y-95004319D01*
X165505131Y-95015104D01*
X165505128Y-95015105D01*
X165500022Y-95015886D01*
X165474485Y-95024233D01*
X165286504Y-95085675D01*
X165286502Y-95085676D01*
X165281591Y-95087281D01*
X165077753Y-95193392D01*
X165073620Y-95196495D01*
X165073617Y-95196497D01*
X164919937Y-95311883D01*
X164893983Y-95331370D01*
X164735216Y-95497510D01*
X164732302Y-95501782D01*
X164732301Y-95501783D01*
X164719483Y-95520574D01*
X164605716Y-95687350D01*
X164604742Y-95686686D01*
X164557781Y-95732090D01*
X164499268Y-95746500D01*
X162411263Y-95746500D01*
X162400079Y-95745973D01*
X162392591Y-95744299D01*
X162384668Y-95744548D01*
X162324533Y-95746438D01*
X162320575Y-95746500D01*
X162292644Y-95746500D01*
X162288729Y-95746995D01*
X162288725Y-95746995D01*
X162288667Y-95747003D01*
X162288638Y-95747006D01*
X162276796Y-95747939D01*
X162232610Y-95749327D01*
X162215244Y-95754372D01*
X162213158Y-95754978D01*
X162193806Y-95758986D01*
X162181568Y-95760532D01*
X162181566Y-95760533D01*
X162173703Y-95761526D01*
X162132586Y-95777806D01*
X162121385Y-95781641D01*
X162078906Y-95793982D01*
X162078241Y-95794375D01*
X162010939Y-95802683D01*
X161983141Y-95794758D01*
X161896493Y-95758867D01*
X161896491Y-95758866D01*
X161891920Y-95756973D01*
X161788274Y-95732090D01*
X161643963Y-95697444D01*
X161643957Y-95697443D01*
X161639150Y-95696289D01*
X161380000Y-95675893D01*
X161120850Y-95696289D01*
X161116043Y-95697443D01*
X161116037Y-95697444D01*
X160971726Y-95732090D01*
X160868080Y-95756973D01*
X160863509Y-95758866D01*
X160863507Y-95758867D01*
X160632488Y-95854558D01*
X160632486Y-95854559D01*
X160627916Y-95856452D01*
X160406271Y-95992277D01*
X160402504Y-95995494D01*
X160402503Y-95995495D01*
X160327593Y-96059474D01*
X160208602Y-96161102D01*
X160039777Y-96358771D01*
X159903952Y-96580416D01*
X159902060Y-96584984D01*
X159887302Y-96620613D01*
X159842753Y-96675893D01*
X159774852Y-96698332D01*
X159759651Y-96698810D01*
X159755567Y-96698938D01*
X159751609Y-96699000D01*
X134629358Y-96699000D01*
X134561237Y-96678998D01*
X134512949Y-96621219D01*
X134497940Y-96584984D01*
X134496048Y-96580416D01*
X134360223Y-96358771D01*
X134191398Y-96161102D01*
X134072407Y-96059474D01*
X133997497Y-95995495D01*
X133997496Y-95995494D01*
X133993729Y-95992277D01*
X133772084Y-95856452D01*
X133767514Y-95854559D01*
X133767512Y-95854558D01*
X133536493Y-95758867D01*
X133536491Y-95758866D01*
X133531920Y-95756973D01*
X133428274Y-95732090D01*
X133283963Y-95697444D01*
X133283957Y-95697443D01*
X133279150Y-95696289D01*
X133020000Y-95675893D01*
X132760850Y-95696289D01*
X132756043Y-95697443D01*
X132756037Y-95697444D01*
X132611726Y-95732090D01*
X132508080Y-95756973D01*
X132503509Y-95758866D01*
X132503507Y-95758867D01*
X132272488Y-95854558D01*
X132272486Y-95854559D01*
X132267916Y-95856452D01*
X132046271Y-95992277D01*
X132042504Y-95995494D01*
X132042503Y-95995495D01*
X131967593Y-96059474D01*
X131848602Y-96161102D01*
X131679777Y-96358771D01*
X131543952Y-96580416D01*
X131542060Y-96584984D01*
X131542058Y-96584988D01*
X131446367Y-96816007D01*
X131444473Y-96820580D01*
X131443318Y-96825392D01*
X131393356Y-97033502D01*
X131383789Y-97073350D01*
X131363393Y-97332500D01*
X131383789Y-97591650D01*
X131384943Y-97596457D01*
X131384944Y-97596463D01*
X131396508Y-97644631D01*
X131403428Y-97673451D01*
X131406581Y-97686586D01*
X131403034Y-97757494D01*
X131361714Y-97815228D01*
X131295740Y-97841458D01*
X131284062Y-97842000D01*
X129311034Y-97842000D01*
X129242913Y-97821998D01*
X129196420Y-97768342D01*
X129186316Y-97698068D01*
X129215810Y-97633488D01*
X129255602Y-97602848D01*
X129288392Y-97586785D01*
X129288396Y-97586783D01*
X129293033Y-97584511D01*
X129480119Y-97451064D01*
X129642898Y-97288852D01*
X129776997Y-97102233D01*
X129878816Y-96896217D01*
X129906753Y-96804266D01*
X129944117Y-96681291D01*
X129944118Y-96681285D01*
X129945621Y-96676339D01*
X129967756Y-96508209D01*
X129975179Y-96451823D01*
X129975179Y-96451819D01*
X129975616Y-96448502D01*
X129977290Y-96380000D01*
X129962808Y-96203850D01*
X129958884Y-96156121D01*
X129958883Y-96156115D01*
X129958460Y-96150970D01*
X129902477Y-95928090D01*
X129810843Y-95717347D01*
X129808037Y-95713009D01*
X129688830Y-95528743D01*
X129688828Y-95528740D01*
X129686020Y-95524400D01*
X129676381Y-95513806D01*
X129534837Y-95358252D01*
X129534835Y-95358251D01*
X129531359Y-95354430D01*
X129527308Y-95351231D01*
X129527304Y-95351227D01*
X129355073Y-95215208D01*
X129351015Y-95212003D01*
X129149831Y-95100943D01*
X129009274Y-95051169D01*
X128938084Y-95025959D01*
X128938080Y-95025958D01*
X128933209Y-95024233D01*
X128928116Y-95023326D01*
X128928113Y-95023325D01*
X128712056Y-94984839D01*
X128712050Y-94984838D01*
X128706967Y-94983933D01*
X128633784Y-94983039D01*
X128482351Y-94981189D01*
X128482349Y-94981189D01*
X128477181Y-94981126D01*
X128325610Y-95004319D01*
X128255131Y-95015104D01*
X128255128Y-95015105D01*
X128250022Y-95015886D01*
X128224485Y-95024233D01*
X128036504Y-95085675D01*
X128036502Y-95085676D01*
X128031591Y-95087281D01*
X127827753Y-95193392D01*
X127823620Y-95196495D01*
X127823617Y-95196497D01*
X127669937Y-95311883D01*
X127643983Y-95331370D01*
X127485216Y-95497510D01*
X127482302Y-95501782D01*
X127482301Y-95501783D01*
X127469483Y-95520574D01*
X127355716Y-95687350D01*
X127323398Y-95756973D01*
X127276021Y-95859040D01*
X127258961Y-95895792D01*
X127197548Y-96117237D01*
X127173129Y-96345739D01*
X127186357Y-96575161D01*
X127187492Y-96580198D01*
X127187493Y-96580204D01*
X127214193Y-96698679D01*
X127236878Y-96799342D01*
X127323336Y-97012261D01*
X127326033Y-97016662D01*
X127326034Y-97016664D01*
X127363795Y-97078284D01*
X127443408Y-97208200D01*
X127593869Y-97381898D01*
X127597844Y-97385198D01*
X127597847Y-97385201D01*
X127656635Y-97434007D01*
X127770679Y-97528689D01*
X127878424Y-97591650D01*
X127905055Y-97607212D01*
X127953779Y-97658851D01*
X127966850Y-97728634D01*
X127940119Y-97794406D01*
X127882072Y-97835284D01*
X127841485Y-97842000D01*
X124635094Y-97842000D01*
X124566973Y-97821998D01*
X124545999Y-97805095D01*
X123607482Y-96866578D01*
X123573456Y-96804266D01*
X123576019Y-96740856D01*
X123595621Y-96676339D01*
X123617756Y-96508209D01*
X123625179Y-96451823D01*
X123625179Y-96451819D01*
X123625616Y-96448502D01*
X123627290Y-96380000D01*
X123612808Y-96203850D01*
X123608884Y-96156121D01*
X123608883Y-96156115D01*
X123608460Y-96150970D01*
X123552477Y-95928090D01*
X123460843Y-95717347D01*
X123458037Y-95713009D01*
X123338830Y-95528743D01*
X123338828Y-95528740D01*
X123336020Y-95524400D01*
X123326381Y-95513806D01*
X123184837Y-95358252D01*
X123184835Y-95358251D01*
X123181359Y-95354430D01*
X123177308Y-95351231D01*
X123177304Y-95351227D01*
X123005073Y-95215208D01*
X123001015Y-95212003D01*
X122799831Y-95100943D01*
X122659274Y-95051169D01*
X122588084Y-95025959D01*
X122588080Y-95025958D01*
X122583209Y-95024233D01*
X122578116Y-95023326D01*
X122578113Y-95023325D01*
X122362056Y-94984839D01*
X122362050Y-94984838D01*
X122356967Y-94983933D01*
X122283784Y-94983039D01*
X122132351Y-94981189D01*
X122132349Y-94981189D01*
X122127181Y-94981126D01*
X121900022Y-95015886D01*
X121865609Y-95027134D01*
X121794646Y-95029285D01*
X121737369Y-94996464D01*
X121619039Y-94878134D01*
X142674500Y-94878134D01*
X142681255Y-94940316D01*
X142732385Y-95076705D01*
X142819739Y-95193261D01*
X142936295Y-95280615D01*
X143072684Y-95331745D01*
X143134866Y-95338500D01*
X144931134Y-95338500D01*
X144993316Y-95331745D01*
X145129705Y-95280615D01*
X145246261Y-95193261D01*
X145333615Y-95076705D01*
X145351392Y-95029285D01*
X145377598Y-94959382D01*
X145420240Y-94902618D01*
X145486802Y-94877918D01*
X145556150Y-94893126D01*
X145590817Y-94921114D01*
X145619250Y-94953938D01*
X145791126Y-95096632D01*
X145984000Y-95209338D01*
X146192692Y-95289030D01*
X146197760Y-95290061D01*
X146197763Y-95290062D01*
X146272936Y-95305356D01*
X146411597Y-95333567D01*
X146416772Y-95333757D01*
X146416774Y-95333757D01*
X146629673Y-95341564D01*
X146629677Y-95341564D01*
X146634837Y-95341753D01*
X146639957Y-95341097D01*
X146639959Y-95341097D01*
X146851288Y-95314025D01*
X146851289Y-95314025D01*
X146856416Y-95313368D01*
X146863939Y-95311111D01*
X147065429Y-95250661D01*
X147065434Y-95250659D01*
X147070384Y-95249174D01*
X147270994Y-95150896D01*
X147452860Y-95021173D01*
X147477656Y-94996464D01*
X147596616Y-94877918D01*
X147611096Y-94863489D01*
X147741453Y-94682077D01*
X147742776Y-94683028D01*
X147789645Y-94639857D01*
X147859580Y-94627625D01*
X147925026Y-94655144D01*
X147952875Y-94686994D01*
X148012987Y-94785088D01*
X148159250Y-94953938D01*
X148331126Y-95096632D01*
X148524000Y-95209338D01*
X148732692Y-95289030D01*
X148737760Y-95290061D01*
X148737763Y-95290062D01*
X148812936Y-95305356D01*
X148951597Y-95333567D01*
X148956772Y-95333757D01*
X148956774Y-95333757D01*
X149169673Y-95341564D01*
X149169677Y-95341564D01*
X149174837Y-95341753D01*
X149179957Y-95341097D01*
X149179959Y-95341097D01*
X149391288Y-95314025D01*
X149391289Y-95314025D01*
X149396416Y-95313368D01*
X149403939Y-95311111D01*
X149605429Y-95250661D01*
X149605434Y-95250659D01*
X149610384Y-95249174D01*
X149810994Y-95150896D01*
X149992860Y-95021173D01*
X150017656Y-94996464D01*
X150136616Y-94877918D01*
X150151096Y-94863489D01*
X150281453Y-94682077D01*
X150302320Y-94639857D01*
X150378136Y-94486453D01*
X150378137Y-94486451D01*
X150380430Y-94481811D01*
X150445370Y-94268069D01*
X150474529Y-94046590D01*
X150474940Y-94029760D01*
X150476074Y-93983365D01*
X150476074Y-93983361D01*
X150476156Y-93980000D01*
X150457852Y-93757361D01*
X150403431Y-93540702D01*
X150314354Y-93335840D01*
X150223600Y-93195555D01*
X150195822Y-93152617D01*
X150195820Y-93152614D01*
X150193014Y-93148277D01*
X150042670Y-92983051D01*
X150038619Y-92979852D01*
X150038615Y-92979848D01*
X149871414Y-92847800D01*
X149871410Y-92847798D01*
X149867359Y-92844598D01*
X149671789Y-92736638D01*
X149666920Y-92734914D01*
X149666916Y-92734912D01*
X149466087Y-92663795D01*
X149466083Y-92663794D01*
X149461212Y-92662069D01*
X149456119Y-92661162D01*
X149456116Y-92661161D01*
X149246373Y-92623800D01*
X149246367Y-92623799D01*
X149241284Y-92622894D01*
X149167452Y-92621992D01*
X149023081Y-92620228D01*
X149023079Y-92620228D01*
X149017911Y-92620165D01*
X148797091Y-92653955D01*
X148584756Y-92723357D01*
X148386607Y-92826507D01*
X148382474Y-92829610D01*
X148382471Y-92829612D01*
X148222502Y-92949720D01*
X148207965Y-92960635D01*
X148192145Y-92977190D01*
X148064019Y-93111266D01*
X148053629Y-93122138D01*
X147946201Y-93279621D01*
X147891293Y-93324621D01*
X147820768Y-93332792D01*
X147757021Y-93301538D01*
X147736324Y-93277054D01*
X147655822Y-93152617D01*
X147655820Y-93152614D01*
X147653014Y-93148277D01*
X147502670Y-92983051D01*
X147498619Y-92979852D01*
X147498615Y-92979848D01*
X147331414Y-92847800D01*
X147331410Y-92847798D01*
X147327359Y-92844598D01*
X147131789Y-92736638D01*
X147126920Y-92734914D01*
X147126916Y-92734912D01*
X146926087Y-92663795D01*
X146926083Y-92663794D01*
X146921212Y-92662069D01*
X146916119Y-92661162D01*
X146916116Y-92661161D01*
X146706373Y-92623800D01*
X146706367Y-92623799D01*
X146701284Y-92622894D01*
X146627452Y-92621992D01*
X146483081Y-92620228D01*
X146483079Y-92620228D01*
X146477911Y-92620165D01*
X146257091Y-92653955D01*
X146044756Y-92723357D01*
X145846607Y-92826507D01*
X145842474Y-92829610D01*
X145842471Y-92829612D01*
X145682502Y-92949720D01*
X145667965Y-92960635D01*
X145609169Y-93022162D01*
X145587283Y-93045064D01*
X145525759Y-93080494D01*
X145454846Y-93077037D01*
X145397060Y-93035791D01*
X145378207Y-93002243D01*
X145336767Y-92891703D01*
X145333615Y-92883295D01*
X145246261Y-92766739D01*
X145129705Y-92679385D01*
X144993316Y-92628255D01*
X144931134Y-92621500D01*
X143134866Y-92621500D01*
X143072684Y-92628255D01*
X142936295Y-92679385D01*
X142819739Y-92766739D01*
X142732385Y-92883295D01*
X142681255Y-93019684D01*
X142674500Y-93081866D01*
X142674500Y-94878134D01*
X121619039Y-94878134D01*
X121515925Y-94775020D01*
X121481899Y-94712708D01*
X121479020Y-94685925D01*
X121479020Y-92694132D01*
X121499022Y-92626011D01*
X121552678Y-92579518D01*
X121622952Y-92569414D01*
X121649966Y-92576421D01*
X121833774Y-92646610D01*
X121838842Y-92647641D01*
X121838845Y-92647642D01*
X121949534Y-92670162D01*
X122058963Y-92692426D01*
X122064136Y-92692616D01*
X122064139Y-92692616D01*
X122283448Y-92700657D01*
X122283452Y-92700657D01*
X122288612Y-92700846D01*
X122293732Y-92700190D01*
X122293734Y-92700190D01*
X122511425Y-92672304D01*
X122511428Y-92672303D01*
X122516552Y-92671647D01*
X122551504Y-92661161D01*
X122731710Y-92607096D01*
X122736663Y-92605610D01*
X122943033Y-92504511D01*
X122973498Y-92482781D01*
X123125916Y-92374062D01*
X123130119Y-92371064D01*
X123292898Y-92208852D01*
X123426997Y-92022233D01*
X123461426Y-91952572D01*
X123486323Y-91902196D01*
X123528816Y-91816217D01*
X123556548Y-91724941D01*
X123594117Y-91601291D01*
X123594118Y-91601285D01*
X123595621Y-91596339D01*
X123625616Y-91368502D01*
X123627290Y-91300000D01*
X123624473Y-91265739D01*
X127173129Y-91265739D01*
X127173426Y-91270892D01*
X127173426Y-91270895D01*
X127177040Y-91333572D01*
X127186357Y-91495161D01*
X127187492Y-91500198D01*
X127187493Y-91500204D01*
X127221679Y-91651899D01*
X127236878Y-91719342D01*
X127323336Y-91932261D01*
X127326033Y-91936662D01*
X127326034Y-91936664D01*
X127367099Y-92003675D01*
X127443408Y-92128200D01*
X127593869Y-92301898D01*
X127770679Y-92448689D01*
X127969090Y-92564631D01*
X127973910Y-92566471D01*
X127973915Y-92566474D01*
X128080296Y-92607096D01*
X128183774Y-92646610D01*
X128188842Y-92647641D01*
X128188845Y-92647642D01*
X128299534Y-92670162D01*
X128408963Y-92692426D01*
X128414136Y-92692616D01*
X128414139Y-92692616D01*
X128633448Y-92700657D01*
X128633452Y-92700657D01*
X128638612Y-92700846D01*
X128643732Y-92700190D01*
X128643734Y-92700190D01*
X128861425Y-92672304D01*
X128861428Y-92672303D01*
X128866552Y-92671647D01*
X128901504Y-92661161D01*
X129081710Y-92607096D01*
X129086663Y-92605610D01*
X129293033Y-92504511D01*
X129323498Y-92482781D01*
X129475916Y-92374062D01*
X129480119Y-92371064D01*
X129642898Y-92208852D01*
X129776997Y-92022233D01*
X129811426Y-91952572D01*
X129836323Y-91902196D01*
X129878816Y-91816217D01*
X129906548Y-91724941D01*
X129944117Y-91601291D01*
X129944118Y-91601285D01*
X129945621Y-91596339D01*
X129975616Y-91368502D01*
X129977290Y-91300000D01*
X129966685Y-91171006D01*
X129958884Y-91076121D01*
X129958883Y-91076115D01*
X129958460Y-91070970D01*
X129902477Y-90848090D01*
X129810843Y-90637347D01*
X129805828Y-90629595D01*
X129688830Y-90448743D01*
X129688828Y-90448740D01*
X129686020Y-90444400D01*
X129531359Y-90274430D01*
X129527308Y-90271231D01*
X129527304Y-90271227D01*
X129355073Y-90135208D01*
X129351015Y-90132003D01*
X129149831Y-90020943D01*
X129008280Y-89970817D01*
X128938084Y-89945959D01*
X128938080Y-89945958D01*
X128933209Y-89944233D01*
X128928116Y-89943326D01*
X128928113Y-89943325D01*
X128712056Y-89904839D01*
X128712050Y-89904838D01*
X128706967Y-89903933D01*
X128633784Y-89903039D01*
X128482351Y-89901189D01*
X128482349Y-89901189D01*
X128477181Y-89901126D01*
X128325610Y-89924319D01*
X128255131Y-89935104D01*
X128255128Y-89935105D01*
X128250022Y-89935886D01*
X128198403Y-89952758D01*
X128036504Y-90005675D01*
X128036502Y-90005676D01*
X128031591Y-90007281D01*
X127827753Y-90113392D01*
X127823620Y-90116495D01*
X127823617Y-90116497D01*
X127731804Y-90185432D01*
X127643983Y-90251370D01*
X127485216Y-90417510D01*
X127482302Y-90421782D01*
X127482301Y-90421783D01*
X127459333Y-90455453D01*
X127355716Y-90607350D01*
X127258961Y-90815792D01*
X127197548Y-91037237D01*
X127173129Y-91265739D01*
X123624473Y-91265739D01*
X123616685Y-91171006D01*
X123608884Y-91076121D01*
X123608883Y-91076115D01*
X123608460Y-91070970D01*
X123590291Y-90998636D01*
X123573962Y-90933624D01*
X123576767Y-90862683D01*
X123607071Y-90813834D01*
X124873753Y-89547152D01*
X124882039Y-89539612D01*
X124888518Y-89535500D01*
X124935144Y-89485848D01*
X124937898Y-89483007D01*
X124957635Y-89463270D01*
X124960115Y-89460073D01*
X124967820Y-89451051D01*
X124992659Y-89424600D01*
X124998086Y-89418821D01*
X125001905Y-89411875D01*
X125001907Y-89411872D01*
X125007848Y-89401066D01*
X125018699Y-89384547D01*
X125026258Y-89374801D01*
X125031114Y-89368541D01*
X125034259Y-89361272D01*
X125034262Y-89361268D01*
X125048674Y-89327963D01*
X125053891Y-89317313D01*
X125075195Y-89278560D01*
X125080233Y-89258937D01*
X125086637Y-89240234D01*
X125091533Y-89228920D01*
X125091533Y-89228919D01*
X125094681Y-89221645D01*
X125095920Y-89213822D01*
X125095923Y-89213812D01*
X125101599Y-89177976D01*
X125104005Y-89166356D01*
X125113028Y-89131211D01*
X125113028Y-89131210D01*
X125115000Y-89123530D01*
X125115000Y-89103276D01*
X125116551Y-89083565D01*
X125118480Y-89071386D01*
X125119720Y-89063557D01*
X125115559Y-89019538D01*
X125115000Y-89007681D01*
X125115000Y-86344046D01*
X125135002Y-86275925D01*
X125174697Y-86236902D01*
X125287120Y-86167332D01*
X125293348Y-86163478D01*
X125343604Y-86113134D01*
X128916500Y-86113134D01*
X128923255Y-86175316D01*
X128974385Y-86311705D01*
X129061739Y-86428261D01*
X129178295Y-86515615D01*
X129314684Y-86566745D01*
X129376866Y-86573500D01*
X131173134Y-86573500D01*
X131235316Y-86566745D01*
X131371705Y-86515615D01*
X131488261Y-86428261D01*
X131575615Y-86311705D01*
X131582497Y-86293348D01*
X131619798Y-86193848D01*
X131662440Y-86137084D01*
X131729001Y-86112384D01*
X131798350Y-86127592D01*
X131833017Y-86155580D01*
X131858218Y-86184673D01*
X131865580Y-86191883D01*
X132029434Y-86327916D01*
X132037881Y-86333831D01*
X132221756Y-86441279D01*
X132231042Y-86445729D01*
X132430001Y-86521703D01*
X132439899Y-86524579D01*
X132543250Y-86545606D01*
X132557299Y-86544410D01*
X132561000Y-86534065D01*
X132561000Y-83898102D01*
X132557082Y-83884758D01*
X132542806Y-83882771D01*
X132504324Y-83888660D01*
X132494288Y-83891051D01*
X132291868Y-83957212D01*
X132282359Y-83961209D01*
X132093463Y-84059542D01*
X132084738Y-84065036D01*
X131914433Y-84192905D01*
X131906726Y-84199748D01*
X131829478Y-84280584D01*
X131767954Y-84316014D01*
X131697042Y-84312557D01*
X131639255Y-84271311D01*
X131620402Y-84237763D01*
X131578767Y-84126703D01*
X131575615Y-84118295D01*
X131488261Y-84001739D01*
X131371705Y-83914385D01*
X131235316Y-83863255D01*
X131173134Y-83856500D01*
X129376866Y-83856500D01*
X129314684Y-83863255D01*
X129178295Y-83914385D01*
X129061739Y-84001739D01*
X128974385Y-84118295D01*
X128923255Y-84254684D01*
X128916500Y-84316866D01*
X128916500Y-86113134D01*
X125343604Y-86113134D01*
X125418305Y-86038303D01*
X125422146Y-86032072D01*
X125507275Y-85893968D01*
X125507276Y-85893966D01*
X125511115Y-85887738D01*
X125566797Y-85719861D01*
X125568501Y-85703236D01*
X125576758Y-85622639D01*
X125577500Y-85615400D01*
X125577500Y-84564600D01*
X125577030Y-84560069D01*
X125567238Y-84465692D01*
X125567237Y-84465688D01*
X125566526Y-84458834D01*
X125554950Y-84424135D01*
X125512868Y-84298002D01*
X125510550Y-84291054D01*
X125417478Y-84140652D01*
X125401105Y-84124307D01*
X125297483Y-84020866D01*
X125292303Y-84015695D01*
X125281311Y-84008919D01*
X125245862Y-83987068D01*
X125174883Y-83943316D01*
X125127391Y-83890545D01*
X125115000Y-83836057D01*
X125115000Y-83684193D01*
X125135002Y-83616072D01*
X125188658Y-83569579D01*
X125250727Y-83558569D01*
X125251758Y-83558649D01*
X125256196Y-83559312D01*
X125332554Y-83559779D01*
X125394945Y-83560160D01*
X125394950Y-83560160D01*
X125399417Y-83560187D01*
X125401861Y-83559852D01*
X125405656Y-83559729D01*
X125834000Y-83559729D01*
X125865986Y-83557441D01*
X125900373Y-83554982D01*
X125900374Y-83554982D01*
X125907111Y-83554500D01*
X125943440Y-83543833D01*
X125996868Y-83540012D01*
X126134000Y-83559729D01*
X126624008Y-83559729D01*
X126624778Y-83559731D01*
X126694931Y-83560160D01*
X126694937Y-83560160D01*
X126699417Y-83560187D01*
X126783507Y-83548669D01*
X126839276Y-83541030D01*
X126839280Y-83541029D01*
X126843727Y-83540420D01*
X126981436Y-83501063D01*
X127114398Y-83441586D01*
X127118180Y-83439200D01*
X127118187Y-83439196D01*
X127231736Y-83367551D01*
X127235526Y-83365160D01*
X127346452Y-83270754D01*
X127441260Y-83163403D01*
X127443717Y-83159663D01*
X127518767Y-83045410D01*
X127518769Y-83045407D01*
X127521226Y-83041666D01*
X127539873Y-83001950D01*
X127586930Y-82948789D01*
X127653928Y-82929500D01*
X137201406Y-82929500D01*
X137269527Y-82949502D01*
X137290501Y-82966405D01*
X137965086Y-83640990D01*
X137999112Y-83703302D01*
X137994047Y-83774117D01*
X137951500Y-83830953D01*
X137884980Y-83855764D01*
X137874459Y-83856076D01*
X137826962Y-83855495D01*
X137805080Y-83855228D01*
X137805078Y-83855228D01*
X137799911Y-83855165D01*
X137579091Y-83888955D01*
X137366756Y-83958357D01*
X137316536Y-83984500D01*
X137246678Y-84020866D01*
X137168607Y-84061507D01*
X137164474Y-84064610D01*
X137164471Y-84064612D01*
X137014185Y-84177450D01*
X136989965Y-84195635D01*
X136972567Y-84213841D01*
X136903580Y-84286032D01*
X136835629Y-84357138D01*
X136728201Y-84514621D01*
X136673293Y-84559621D01*
X136602768Y-84567792D01*
X136539021Y-84536538D01*
X136518324Y-84512054D01*
X136437822Y-84387617D01*
X136437820Y-84387614D01*
X136435014Y-84383277D01*
X136284670Y-84218051D01*
X136280619Y-84214852D01*
X136280615Y-84214848D01*
X136113414Y-84082800D01*
X136113410Y-84082798D01*
X136109359Y-84079598D01*
X136073028Y-84059542D01*
X136008058Y-84023677D01*
X135913789Y-83971638D01*
X135908920Y-83969914D01*
X135908916Y-83969912D01*
X135708087Y-83898795D01*
X135708083Y-83898794D01*
X135703212Y-83897069D01*
X135698119Y-83896162D01*
X135698116Y-83896161D01*
X135488373Y-83858800D01*
X135488367Y-83858799D01*
X135483284Y-83857894D01*
X135409452Y-83856992D01*
X135265081Y-83855228D01*
X135265079Y-83855228D01*
X135259911Y-83855165D01*
X135039091Y-83888955D01*
X134826756Y-83958357D01*
X134776536Y-83984500D01*
X134706678Y-84020866D01*
X134628607Y-84061507D01*
X134624474Y-84064610D01*
X134624471Y-84064612D01*
X134474185Y-84177450D01*
X134449965Y-84195635D01*
X134432567Y-84213841D01*
X134363580Y-84286032D01*
X134295629Y-84357138D01*
X134292720Y-84361403D01*
X134292714Y-84361411D01*
X134272238Y-84391428D01*
X134188204Y-84514618D01*
X134187898Y-84515066D01*
X134132987Y-84560069D01*
X134062462Y-84568240D01*
X133998715Y-84536986D01*
X133978018Y-84512502D01*
X133897426Y-84387926D01*
X133891136Y-84379757D01*
X133747806Y-84222240D01*
X133740273Y-84215215D01*
X133573139Y-84083222D01*
X133564552Y-84077517D01*
X133378117Y-83974599D01*
X133368705Y-83970369D01*
X133167959Y-83899280D01*
X133157988Y-83896646D01*
X133086837Y-83883972D01*
X133073540Y-83885432D01*
X133069000Y-83899989D01*
X133069000Y-86533517D01*
X133073064Y-86547359D01*
X133086478Y-86549393D01*
X133093184Y-86548534D01*
X133103262Y-86546392D01*
X133307255Y-86485191D01*
X133316842Y-86481433D01*
X133508095Y-86387739D01*
X133516945Y-86382464D01*
X133690328Y-86258792D01*
X133698200Y-86252139D01*
X133849052Y-86101812D01*
X133855730Y-86093965D01*
X133983022Y-85916819D01*
X133984279Y-85917722D01*
X134031373Y-85874362D01*
X134101311Y-85862145D01*
X134166751Y-85889678D01*
X134194579Y-85921511D01*
X134205688Y-85939639D01*
X134254987Y-86020088D01*
X134401250Y-86188938D01*
X134573126Y-86331632D01*
X134766000Y-86444338D01*
X134974692Y-86524030D01*
X134979760Y-86525061D01*
X134979763Y-86525062D01*
X135070168Y-86543455D01*
X135193597Y-86568567D01*
X135198772Y-86568757D01*
X135198774Y-86568757D01*
X135411673Y-86576564D01*
X135411677Y-86576564D01*
X135416837Y-86576753D01*
X135421957Y-86576097D01*
X135421959Y-86576097D01*
X135633288Y-86549025D01*
X135633289Y-86549025D01*
X135638416Y-86548368D01*
X135643366Y-86546883D01*
X135847429Y-86485661D01*
X135847434Y-86485659D01*
X135852384Y-86484174D01*
X136052994Y-86385896D01*
X136234860Y-86256173D01*
X136246724Y-86244351D01*
X136348483Y-86142946D01*
X136393096Y-86098489D01*
X136443387Y-86028502D01*
X136523453Y-85917077D01*
X136524776Y-85918028D01*
X136571645Y-85874857D01*
X136641580Y-85862625D01*
X136707026Y-85890144D01*
X136734875Y-85921994D01*
X136794987Y-86020088D01*
X136941250Y-86188938D01*
X137113126Y-86331632D01*
X137306000Y-86444338D01*
X137514692Y-86524030D01*
X137519760Y-86525061D01*
X137519763Y-86525062D01*
X137610168Y-86543455D01*
X137733597Y-86568567D01*
X137738772Y-86568757D01*
X137738774Y-86568757D01*
X137951673Y-86576564D01*
X137951677Y-86576564D01*
X137956837Y-86576753D01*
X137961957Y-86576097D01*
X137961959Y-86576097D01*
X138173288Y-86549025D01*
X138173289Y-86549025D01*
X138178416Y-86548368D01*
X138183366Y-86546883D01*
X138387429Y-86485661D01*
X138387434Y-86485659D01*
X138392384Y-86484174D01*
X138592994Y-86385896D01*
X138774860Y-86256173D01*
X138786724Y-86244351D01*
X138888483Y-86142946D01*
X138933096Y-86098489D01*
X138983387Y-86028502D01*
X139063453Y-85917077D01*
X139064776Y-85918028D01*
X139111645Y-85874857D01*
X139181580Y-85862625D01*
X139247026Y-85890144D01*
X139274875Y-85921994D01*
X139334987Y-86020088D01*
X139481250Y-86188938D01*
X139653126Y-86331632D01*
X139846000Y-86444338D01*
X140054692Y-86524030D01*
X140059760Y-86525061D01*
X140059763Y-86525062D01*
X140150168Y-86543455D01*
X140273597Y-86568567D01*
X140278772Y-86568757D01*
X140278774Y-86568757D01*
X140491673Y-86576564D01*
X140491677Y-86576564D01*
X140496837Y-86576753D01*
X140501957Y-86576097D01*
X140501959Y-86576097D01*
X140713288Y-86549025D01*
X140713289Y-86549025D01*
X140718416Y-86548368D01*
X140723366Y-86546883D01*
X140927429Y-86485661D01*
X140927434Y-86485659D01*
X140932384Y-86484174D01*
X141132994Y-86385896D01*
X141314860Y-86256173D01*
X141326724Y-86244351D01*
X141428483Y-86142946D01*
X141473096Y-86098489D01*
X141523387Y-86028502D01*
X141603453Y-85917077D01*
X141604776Y-85918028D01*
X141651645Y-85874857D01*
X141721580Y-85862625D01*
X141787026Y-85890144D01*
X141814875Y-85921994D01*
X141874987Y-86020088D01*
X142021250Y-86188938D01*
X142193126Y-86331632D01*
X142386000Y-86444338D01*
X142594692Y-86524030D01*
X142599760Y-86525061D01*
X142599763Y-86525062D01*
X142690168Y-86543455D01*
X142813597Y-86568567D01*
X142818772Y-86568757D01*
X142818774Y-86568757D01*
X143031673Y-86576564D01*
X143031677Y-86576564D01*
X143036837Y-86576753D01*
X143041957Y-86576097D01*
X143041959Y-86576097D01*
X143253288Y-86549025D01*
X143253289Y-86549025D01*
X143258416Y-86548368D01*
X143263366Y-86546883D01*
X143467429Y-86485661D01*
X143467434Y-86485659D01*
X143472384Y-86484174D01*
X143672994Y-86385896D01*
X143854860Y-86256173D01*
X143866724Y-86244351D01*
X143968483Y-86142946D01*
X144013096Y-86098489D01*
X144063387Y-86028502D01*
X144143453Y-85917077D01*
X144144776Y-85918028D01*
X144191645Y-85874857D01*
X144261580Y-85862625D01*
X144327026Y-85890144D01*
X144354875Y-85921994D01*
X144414987Y-86020088D01*
X144561250Y-86188938D01*
X144733126Y-86331632D01*
X144926000Y-86444338D01*
X145134692Y-86524030D01*
X145139760Y-86525061D01*
X145139763Y-86525062D01*
X145230168Y-86543455D01*
X145353597Y-86568567D01*
X145358772Y-86568757D01*
X145358774Y-86568757D01*
X145571673Y-86576564D01*
X145571677Y-86576564D01*
X145576837Y-86576753D01*
X145581957Y-86576097D01*
X145581959Y-86576097D01*
X145793288Y-86549025D01*
X145793289Y-86549025D01*
X145798416Y-86548368D01*
X145803366Y-86546883D01*
X146007429Y-86485661D01*
X146007434Y-86485659D01*
X146012384Y-86484174D01*
X146212994Y-86385896D01*
X146394860Y-86256173D01*
X146406724Y-86244351D01*
X146508483Y-86142946D01*
X146553096Y-86098489D01*
X146603387Y-86028502D01*
X146683453Y-85917077D01*
X146684776Y-85918028D01*
X146731645Y-85874857D01*
X146801580Y-85862625D01*
X146867026Y-85890144D01*
X146894875Y-85921994D01*
X146954987Y-86020088D01*
X147101250Y-86188938D01*
X147273126Y-86331632D01*
X147466000Y-86444338D01*
X147674692Y-86524030D01*
X147679760Y-86525061D01*
X147679763Y-86525062D01*
X147770168Y-86543455D01*
X147893597Y-86568567D01*
X147898772Y-86568757D01*
X147898774Y-86568757D01*
X148111673Y-86576564D01*
X148111677Y-86576564D01*
X148116837Y-86576753D01*
X148121957Y-86576097D01*
X148121959Y-86576097D01*
X148333288Y-86549025D01*
X148333289Y-86549025D01*
X148338416Y-86548368D01*
X148343366Y-86546883D01*
X148547429Y-86485661D01*
X148547434Y-86485659D01*
X148552384Y-86484174D01*
X148752994Y-86385896D01*
X148934860Y-86256173D01*
X148946724Y-86244351D01*
X149048483Y-86142946D01*
X149093096Y-86098489D01*
X149143387Y-86028502D01*
X149223453Y-85917077D01*
X149224776Y-85918028D01*
X149271645Y-85874857D01*
X149341580Y-85862625D01*
X149407026Y-85890144D01*
X149434875Y-85921994D01*
X149494987Y-86020088D01*
X149641250Y-86188938D01*
X149813126Y-86331632D01*
X150006000Y-86444338D01*
X150214692Y-86524030D01*
X150219760Y-86525061D01*
X150219763Y-86525062D01*
X150310168Y-86543455D01*
X150433597Y-86568567D01*
X150438772Y-86568757D01*
X150438774Y-86568757D01*
X150651673Y-86576564D01*
X150651677Y-86576564D01*
X150656837Y-86576753D01*
X150661957Y-86576097D01*
X150661959Y-86576097D01*
X150873288Y-86549025D01*
X150873289Y-86549025D01*
X150878416Y-86548368D01*
X150883366Y-86546883D01*
X151087429Y-86485661D01*
X151087434Y-86485659D01*
X151092384Y-86484174D01*
X151292994Y-86385896D01*
X151474860Y-86256173D01*
X151486724Y-86244351D01*
X151588483Y-86142946D01*
X151633096Y-86098489D01*
X151683387Y-86028502D01*
X151763453Y-85917077D01*
X151764640Y-85917930D01*
X151811960Y-85874362D01*
X151881897Y-85862145D01*
X151947338Y-85889678D01*
X151975166Y-85921511D01*
X152032694Y-86015388D01*
X152038777Y-86023699D01*
X152178213Y-86184667D01*
X152185580Y-86191883D01*
X152349434Y-86327916D01*
X152357881Y-86333831D01*
X152541756Y-86441279D01*
X152551042Y-86445729D01*
X152750001Y-86521703D01*
X152759899Y-86524579D01*
X152863250Y-86545606D01*
X152877299Y-86544410D01*
X152881000Y-86534065D01*
X152881000Y-83898102D01*
X152877082Y-83884758D01*
X152862806Y-83882771D01*
X152824324Y-83888660D01*
X152814288Y-83891051D01*
X152611868Y-83957212D01*
X152602359Y-83961209D01*
X152413463Y-84059542D01*
X152404738Y-84065036D01*
X152234433Y-84192905D01*
X152226726Y-84199748D01*
X152079590Y-84353717D01*
X152073109Y-84361722D01*
X151968498Y-84515074D01*
X151913587Y-84560076D01*
X151843062Y-84568247D01*
X151779315Y-84536993D01*
X151758618Y-84512509D01*
X151677822Y-84387617D01*
X151677820Y-84387614D01*
X151675014Y-84383277D01*
X151524670Y-84218051D01*
X151520619Y-84214852D01*
X151520615Y-84214848D01*
X151353414Y-84082800D01*
X151353410Y-84082798D01*
X151349359Y-84079598D01*
X151313028Y-84059542D01*
X151248058Y-84023677D01*
X151153789Y-83971638D01*
X151148920Y-83969914D01*
X151148916Y-83969912D01*
X150948087Y-83898795D01*
X150948083Y-83898794D01*
X150943212Y-83897069D01*
X150938119Y-83896162D01*
X150938116Y-83896161D01*
X150728373Y-83858800D01*
X150728367Y-83858799D01*
X150723284Y-83857894D01*
X150649452Y-83856992D01*
X150505081Y-83855228D01*
X150505079Y-83855228D01*
X150499911Y-83855165D01*
X150279091Y-83888955D01*
X150066756Y-83958357D01*
X150016536Y-83984500D01*
X149946678Y-84020866D01*
X149868607Y-84061507D01*
X149864474Y-84064610D01*
X149864471Y-84064612D01*
X149714185Y-84177450D01*
X149689965Y-84195635D01*
X149672567Y-84213841D01*
X149603580Y-84286032D01*
X149535629Y-84357138D01*
X149428201Y-84514621D01*
X149373293Y-84559621D01*
X149302768Y-84567792D01*
X149239021Y-84536538D01*
X149218324Y-84512054D01*
X149137822Y-84387617D01*
X149137820Y-84387614D01*
X149135014Y-84383277D01*
X148984670Y-84218051D01*
X148980619Y-84214852D01*
X148980615Y-84214848D01*
X148813414Y-84082800D01*
X148813410Y-84082798D01*
X148809359Y-84079598D01*
X148773028Y-84059542D01*
X148708058Y-84023677D01*
X148613789Y-83971638D01*
X148608920Y-83969914D01*
X148608916Y-83969912D01*
X148408087Y-83898795D01*
X148408083Y-83898794D01*
X148403212Y-83897069D01*
X148398119Y-83896162D01*
X148398116Y-83896161D01*
X148188373Y-83858800D01*
X148188367Y-83858799D01*
X148183284Y-83857894D01*
X148109452Y-83856992D01*
X147965081Y-83855228D01*
X147965079Y-83855228D01*
X147959911Y-83855165D01*
X147739091Y-83888955D01*
X147526756Y-83958357D01*
X147476536Y-83984500D01*
X147406678Y-84020866D01*
X147328607Y-84061507D01*
X147324474Y-84064610D01*
X147324471Y-84064612D01*
X147174185Y-84177450D01*
X147149965Y-84195635D01*
X147132567Y-84213841D01*
X147063580Y-84286032D01*
X146995629Y-84357138D01*
X146888201Y-84514621D01*
X146833293Y-84559621D01*
X146762768Y-84567792D01*
X146699021Y-84536538D01*
X146678324Y-84512054D01*
X146597822Y-84387617D01*
X146597820Y-84387614D01*
X146595014Y-84383277D01*
X146444670Y-84218051D01*
X146440619Y-84214852D01*
X146440615Y-84214848D01*
X146273414Y-84082800D01*
X146273410Y-84082798D01*
X146269359Y-84079598D01*
X146233028Y-84059542D01*
X146168058Y-84023677D01*
X146073789Y-83971638D01*
X146068920Y-83969914D01*
X146068916Y-83969912D01*
X145868087Y-83898795D01*
X145868083Y-83898794D01*
X145863212Y-83897069D01*
X145858119Y-83896162D01*
X145858116Y-83896161D01*
X145648373Y-83858800D01*
X145648367Y-83858799D01*
X145643284Y-83857894D01*
X145569452Y-83856992D01*
X145425081Y-83855228D01*
X145425079Y-83855228D01*
X145419911Y-83855165D01*
X145199091Y-83888955D01*
X144986756Y-83958357D01*
X144936536Y-83984500D01*
X144866678Y-84020866D01*
X144788607Y-84061507D01*
X144784474Y-84064610D01*
X144784471Y-84064612D01*
X144634185Y-84177450D01*
X144609965Y-84195635D01*
X144592567Y-84213841D01*
X144523580Y-84286032D01*
X144455629Y-84357138D01*
X144348201Y-84514621D01*
X144293293Y-84559621D01*
X144222768Y-84567792D01*
X144159021Y-84536538D01*
X144138324Y-84512054D01*
X144057822Y-84387617D01*
X144057820Y-84387614D01*
X144055014Y-84383277D01*
X143904670Y-84218051D01*
X143900619Y-84214852D01*
X143900615Y-84214848D01*
X143733414Y-84082800D01*
X143733410Y-84082798D01*
X143729359Y-84079598D01*
X143693028Y-84059542D01*
X143628058Y-84023677D01*
X143533789Y-83971638D01*
X143528920Y-83969914D01*
X143528916Y-83969912D01*
X143328087Y-83898795D01*
X143328083Y-83898794D01*
X143323212Y-83897069D01*
X143318119Y-83896162D01*
X143318116Y-83896161D01*
X143108373Y-83858800D01*
X143108367Y-83858799D01*
X143103284Y-83857894D01*
X143029452Y-83856992D01*
X142885081Y-83855228D01*
X142885079Y-83855228D01*
X142879911Y-83855165D01*
X142659091Y-83888955D01*
X142446756Y-83958357D01*
X142396536Y-83984500D01*
X142326678Y-84020866D01*
X142248607Y-84061507D01*
X142244474Y-84064610D01*
X142244471Y-84064612D01*
X142094185Y-84177450D01*
X142069965Y-84195635D01*
X142052567Y-84213841D01*
X141983580Y-84286032D01*
X141915629Y-84357138D01*
X141808201Y-84514621D01*
X141753293Y-84559621D01*
X141682768Y-84567792D01*
X141619021Y-84536538D01*
X141598324Y-84512054D01*
X141517822Y-84387617D01*
X141517820Y-84387614D01*
X141515014Y-84383277D01*
X141364670Y-84218051D01*
X141360619Y-84214852D01*
X141360615Y-84214848D01*
X141193414Y-84082800D01*
X141193410Y-84082798D01*
X141189359Y-84079598D01*
X141153028Y-84059542D01*
X141088058Y-84023677D01*
X140993789Y-83971638D01*
X140988920Y-83969914D01*
X140988916Y-83969912D01*
X140788087Y-83898795D01*
X140788083Y-83898794D01*
X140783212Y-83897069D01*
X140778119Y-83896162D01*
X140778116Y-83896161D01*
X140568373Y-83858800D01*
X140568367Y-83858799D01*
X140563284Y-83857894D01*
X140489452Y-83856992D01*
X140345081Y-83855228D01*
X140345079Y-83855228D01*
X140339911Y-83855165D01*
X140119091Y-83888955D01*
X140108377Y-83892457D01*
X140106532Y-83893060D01*
X140035568Y-83895210D01*
X139978294Y-83862389D01*
X138019652Y-81903747D01*
X138012112Y-81895461D01*
X138008000Y-81888982D01*
X137958348Y-81842356D01*
X137955507Y-81839602D01*
X137935770Y-81819865D01*
X137932573Y-81817385D01*
X137923551Y-81809680D01*
X137897100Y-81784841D01*
X137891321Y-81779414D01*
X137884375Y-81775595D01*
X137884372Y-81775593D01*
X137873566Y-81769652D01*
X137857047Y-81758801D01*
X137856583Y-81758441D01*
X137841041Y-81746386D01*
X137833772Y-81743241D01*
X137833768Y-81743238D01*
X137800463Y-81728826D01*
X137789813Y-81723609D01*
X137751060Y-81702305D01*
X137731437Y-81697267D01*
X137712734Y-81690863D01*
X137701420Y-81685967D01*
X137701419Y-81685967D01*
X137694145Y-81682819D01*
X137686322Y-81681580D01*
X137686312Y-81681577D01*
X137650476Y-81675901D01*
X137638856Y-81673495D01*
X137603711Y-81664472D01*
X137603710Y-81664472D01*
X137596030Y-81662500D01*
X137575776Y-81662500D01*
X137556065Y-81660949D01*
X137543886Y-81659020D01*
X137536057Y-81657780D01*
X137528165Y-81658526D01*
X137492039Y-81661941D01*
X137480181Y-81662500D01*
X127655039Y-81662500D01*
X127586918Y-81642498D01*
X127539709Y-81587243D01*
X127534878Y-81576264D01*
X127533072Y-81572159D01*
X127492087Y-81506314D01*
X127458470Y-81452306D01*
X127458467Y-81452302D01*
X127456103Y-81448504D01*
X127450871Y-81442279D01*
X127366831Y-81342301D01*
X127366830Y-81342300D01*
X127363946Y-81338869D01*
X127255361Y-81241782D01*
X127251628Y-81239297D01*
X127251624Y-81239294D01*
X127139865Y-81164901D01*
X127139863Y-81164900D01*
X127136136Y-81162419D01*
X127004667Y-81099711D01*
X127000388Y-81098374D01*
X127000385Y-81098373D01*
X126872240Y-81058338D01*
X126872242Y-81058338D01*
X126867961Y-81057001D01*
X126863537Y-81056284D01*
X126863535Y-81056284D01*
X126813419Y-81048167D01*
X126724179Y-81033713D01*
X126653807Y-81032423D01*
X126585461Y-81031170D01*
X126585459Y-81031170D01*
X126580980Y-81031088D01*
X126576535Y-81031641D01*
X126572056Y-81031878D01*
X126572049Y-81031751D01*
X126563661Y-81032271D01*
X126134000Y-81032271D01*
X126103813Y-81034430D01*
X126067627Y-81037018D01*
X126067626Y-81037018D01*
X126060889Y-81037500D01*
X126024560Y-81048167D01*
X125971132Y-81051988D01*
X125834000Y-81032271D01*
X125346678Y-81032271D01*
X125344369Y-81032250D01*
X125285453Y-81031170D01*
X125280980Y-81031088D01*
X125254150Y-81034430D01*
X125140872Y-81048540D01*
X125140868Y-81048541D01*
X125136435Y-81049093D01*
X124998255Y-81086766D01*
X124994138Y-81088548D01*
X124994134Y-81088549D01*
X124868704Y-81142827D01*
X124868699Y-81142829D01*
X124864580Y-81144612D01*
X124742528Y-81219552D01*
X124739080Y-81222415D01*
X124739078Y-81222416D01*
X124712148Y-81244774D01*
X124630460Y-81312592D01*
X124534346Y-81418776D01*
X124531839Y-81422492D01*
X124531838Y-81422494D01*
X124527722Y-81428597D01*
X124452893Y-81539536D01*
X124442371Y-81561253D01*
X124394671Y-81613835D01*
X124326113Y-81632281D01*
X124258465Y-81610734D01*
X124213205Y-81556035D01*
X124202980Y-81506314D01*
X124202980Y-78854305D01*
X124222982Y-78786184D01*
X124273545Y-78741156D01*
X124467994Y-78645896D01*
X124649860Y-78516173D01*
X124808096Y-78358489D01*
X124938453Y-78177077D01*
X124959320Y-78134857D01*
X125035136Y-77981453D01*
X125035137Y-77981451D01*
X125037430Y-77976811D01*
X125102370Y-77763069D01*
X125131529Y-77541590D01*
X125133156Y-77475000D01*
X125114852Y-77252361D01*
X125074242Y-77090684D01*
X125077046Y-77019743D01*
X125117759Y-76961580D01*
X125183455Y-76934661D01*
X125196446Y-76933989D01*
X146445895Y-76933989D01*
X146514016Y-76953991D01*
G37*
%TD.AperFunction*%
%TA.AperFunction,Conductor*%
G36*
X169339082Y-82949502D02*
G01*
X169386291Y-83004757D01*
X169392928Y-83019841D01*
X169395296Y-83023645D01*
X169444588Y-83102835D01*
X169469897Y-83143496D01*
X169472779Y-83146924D01*
X169472780Y-83146926D01*
X169491760Y-83169506D01*
X169562054Y-83253131D01*
X169670639Y-83350218D01*
X169674372Y-83352703D01*
X169674376Y-83352706D01*
X169740487Y-83396713D01*
X169789864Y-83429581D01*
X169921333Y-83492289D01*
X169925612Y-83493626D01*
X169925615Y-83493627D01*
X170001078Y-83517203D01*
X170058039Y-83534999D01*
X170062463Y-83535716D01*
X170062465Y-83535716D01*
X170095275Y-83541030D01*
X170201821Y-83558287D01*
X170268782Y-83559514D01*
X170340539Y-83560830D01*
X170340541Y-83560830D01*
X170345020Y-83560912D01*
X170349465Y-83560359D01*
X170353944Y-83560122D01*
X170353951Y-83560249D01*
X170362339Y-83559729D01*
X170792000Y-83559729D01*
X170823511Y-83557475D01*
X170892884Y-83572566D01*
X170943087Y-83622768D01*
X170958500Y-83683154D01*
X170958500Y-84208652D01*
X170938498Y-84276773D01*
X170884842Y-84323266D01*
X170814568Y-84333370D01*
X170749988Y-84303876D01*
X170743482Y-84297825D01*
X170731669Y-84286032D01*
X170715303Y-84269695D01*
X170709072Y-84265854D01*
X170570968Y-84180725D01*
X170570966Y-84180724D01*
X170564738Y-84176885D01*
X170458649Y-84141697D01*
X170403389Y-84123368D01*
X170403387Y-84123368D01*
X170396861Y-84121203D01*
X170390025Y-84120503D01*
X170390022Y-84120502D01*
X170346969Y-84116091D01*
X170292400Y-84110500D01*
X169516600Y-84110500D01*
X169513354Y-84110837D01*
X169513350Y-84110837D01*
X169417692Y-84120762D01*
X169417688Y-84120763D01*
X169410834Y-84121474D01*
X169404298Y-84123655D01*
X169404296Y-84123655D01*
X169350218Y-84141697D01*
X169243054Y-84177450D01*
X169092652Y-84270522D01*
X168967695Y-84395697D01*
X168963855Y-84401927D01*
X168963854Y-84401928D01*
X168880599Y-84536993D01*
X168874885Y-84546262D01*
X168861014Y-84588083D01*
X168832623Y-84673680D01*
X168819203Y-84714139D01*
X168818503Y-84720975D01*
X168818502Y-84720978D01*
X168816112Y-84744305D01*
X168808500Y-84818600D01*
X168808500Y-85491906D01*
X168788498Y-85560027D01*
X168771595Y-85581001D01*
X165615000Y-88737595D01*
X165552688Y-88771621D01*
X165525905Y-88774500D01*
X163475594Y-88774500D01*
X163407473Y-88754498D01*
X163360980Y-88700842D01*
X163350876Y-88630568D01*
X163380370Y-88565988D01*
X163386499Y-88559405D01*
X165379549Y-86566355D01*
X165441861Y-86532329D01*
X165493762Y-86531979D01*
X165673597Y-86568567D01*
X165678772Y-86568757D01*
X165678774Y-86568757D01*
X165891673Y-86576564D01*
X165891677Y-86576564D01*
X165896837Y-86576753D01*
X165901957Y-86576097D01*
X165901959Y-86576097D01*
X166113288Y-86549025D01*
X166113289Y-86549025D01*
X166118416Y-86548368D01*
X166123366Y-86546883D01*
X166327429Y-86485661D01*
X166327434Y-86485659D01*
X166332384Y-86484174D01*
X166532994Y-86385896D01*
X166714860Y-86256173D01*
X166726724Y-86244351D01*
X166828483Y-86142946D01*
X166873096Y-86098489D01*
X166923387Y-86028502D01*
X167000435Y-85921277D01*
X167003453Y-85917077D01*
X167016995Y-85889678D01*
X167100136Y-85721453D01*
X167100137Y-85721451D01*
X167102430Y-85716811D01*
X167167370Y-85503069D01*
X167196529Y-85281590D01*
X167197554Y-85239633D01*
X167198074Y-85218365D01*
X167198074Y-85218361D01*
X167198156Y-85215000D01*
X167179852Y-84992361D01*
X167125431Y-84775702D01*
X167036354Y-84570840D01*
X166960515Y-84453611D01*
X166917822Y-84387617D01*
X166917820Y-84387614D01*
X166915014Y-84383277D01*
X166764670Y-84218051D01*
X166760619Y-84214852D01*
X166760615Y-84214848D01*
X166593414Y-84082800D01*
X166593410Y-84082798D01*
X166589359Y-84079598D01*
X166553028Y-84059542D01*
X166488058Y-84023677D01*
X166393789Y-83971638D01*
X166388920Y-83969914D01*
X166388916Y-83969912D01*
X166188087Y-83898795D01*
X166188083Y-83898794D01*
X166183212Y-83897069D01*
X166178119Y-83896162D01*
X166178116Y-83896161D01*
X165968373Y-83858800D01*
X165968367Y-83858799D01*
X165963284Y-83857894D01*
X165889452Y-83856992D01*
X165745081Y-83855228D01*
X165745079Y-83855228D01*
X165739911Y-83855165D01*
X165519091Y-83888955D01*
X165306756Y-83958357D01*
X165256536Y-83984500D01*
X165186678Y-84020866D01*
X165108607Y-84061507D01*
X165104474Y-84064610D01*
X165104471Y-84064612D01*
X164954185Y-84177450D01*
X164929965Y-84195635D01*
X164912567Y-84213841D01*
X164843580Y-84286032D01*
X164775629Y-84357138D01*
X164772720Y-84361403D01*
X164772714Y-84361411D01*
X164752238Y-84391428D01*
X164668204Y-84514618D01*
X164667898Y-84515066D01*
X164612987Y-84560069D01*
X164542462Y-84568240D01*
X164478715Y-84536986D01*
X164458018Y-84512502D01*
X164377426Y-84387926D01*
X164371136Y-84379757D01*
X164227806Y-84222240D01*
X164220273Y-84215215D01*
X164053139Y-84083222D01*
X164044552Y-84077517D01*
X163858117Y-83974599D01*
X163848705Y-83970369D01*
X163647959Y-83899280D01*
X163637988Y-83896646D01*
X163566837Y-83883972D01*
X163553540Y-83885432D01*
X163549000Y-83899989D01*
X163549000Y-86551632D01*
X163544185Y-86551632D01*
X163544187Y-86588106D01*
X163512384Y-86641711D01*
X162686500Y-87467595D01*
X162624188Y-87501621D01*
X162597405Y-87504500D01*
X157680200Y-87504500D01*
X157612079Y-87484498D01*
X157592853Y-87468157D01*
X157592580Y-87468460D01*
X157587668Y-87464037D01*
X157583253Y-87459134D01*
X157503262Y-87401017D01*
X157434094Y-87350763D01*
X157434093Y-87350762D01*
X157428752Y-87346882D01*
X157422724Y-87344198D01*
X157422722Y-87344197D01*
X157260319Y-87271891D01*
X157260318Y-87271891D01*
X157254288Y-87269206D01*
X157139731Y-87244856D01*
X157073944Y-87230872D01*
X157073939Y-87230872D01*
X157067487Y-87229500D01*
X156876513Y-87229500D01*
X156870061Y-87230872D01*
X156870056Y-87230872D01*
X156804269Y-87244856D01*
X156689712Y-87269206D01*
X156683682Y-87271891D01*
X156683681Y-87271891D01*
X156521278Y-87344197D01*
X156521276Y-87344198D01*
X156515248Y-87346882D01*
X156509905Y-87350764D01*
X156508557Y-87351743D01*
X156507646Y-87352068D01*
X156504189Y-87354064D01*
X156503824Y-87353432D01*
X156441688Y-87375599D01*
X156372537Y-87359516D01*
X156323059Y-87308600D01*
X156308500Y-87249804D01*
X156308500Y-86495427D01*
X156328502Y-86427306D01*
X156369618Y-86387550D01*
X156372994Y-86385896D01*
X156554860Y-86256173D01*
X156566724Y-86244351D01*
X156668483Y-86142946D01*
X156713096Y-86098489D01*
X156763387Y-86028502D01*
X156843453Y-85917077D01*
X156844776Y-85918028D01*
X156891645Y-85874857D01*
X156961580Y-85862625D01*
X157027026Y-85890144D01*
X157054875Y-85921994D01*
X157114987Y-86020088D01*
X157261250Y-86188938D01*
X157433126Y-86331632D01*
X157626000Y-86444338D01*
X157834692Y-86524030D01*
X157839760Y-86525061D01*
X157839763Y-86525062D01*
X157930168Y-86543455D01*
X158053597Y-86568567D01*
X158058772Y-86568757D01*
X158058774Y-86568757D01*
X158271673Y-86576564D01*
X158271677Y-86576564D01*
X158276837Y-86576753D01*
X158281957Y-86576097D01*
X158281959Y-86576097D01*
X158493288Y-86549025D01*
X158493289Y-86549025D01*
X158498416Y-86548368D01*
X158503366Y-86546883D01*
X158707429Y-86485661D01*
X158707434Y-86485659D01*
X158712384Y-86484174D01*
X158912994Y-86385896D01*
X159094860Y-86256173D01*
X159106724Y-86244351D01*
X159208483Y-86142946D01*
X159253096Y-86098489D01*
X159303387Y-86028502D01*
X159383453Y-85917077D01*
X159384776Y-85918028D01*
X159431645Y-85874857D01*
X159501580Y-85862625D01*
X159567026Y-85890144D01*
X159594875Y-85921994D01*
X159654987Y-86020088D01*
X159801250Y-86188938D01*
X159973126Y-86331632D01*
X160166000Y-86444338D01*
X160374692Y-86524030D01*
X160379760Y-86525061D01*
X160379763Y-86525062D01*
X160470168Y-86543455D01*
X160593597Y-86568567D01*
X160598772Y-86568757D01*
X160598774Y-86568757D01*
X160811673Y-86576564D01*
X160811677Y-86576564D01*
X160816837Y-86576753D01*
X160821957Y-86576097D01*
X160821959Y-86576097D01*
X161033288Y-86549025D01*
X161033289Y-86549025D01*
X161038416Y-86548368D01*
X161043366Y-86546883D01*
X161247429Y-86485661D01*
X161247434Y-86485659D01*
X161252384Y-86484174D01*
X161452994Y-86385896D01*
X161634860Y-86256173D01*
X161646724Y-86244351D01*
X161748483Y-86142946D01*
X161793096Y-86098489D01*
X161843387Y-86028502D01*
X161923453Y-85917077D01*
X161924640Y-85917930D01*
X161971960Y-85874362D01*
X162041897Y-85862145D01*
X162107338Y-85889678D01*
X162135166Y-85921511D01*
X162192694Y-86015388D01*
X162198777Y-86023699D01*
X162338213Y-86184667D01*
X162345580Y-86191883D01*
X162509434Y-86327916D01*
X162517881Y-86333831D01*
X162701756Y-86441279D01*
X162711042Y-86445729D01*
X162910001Y-86521703D01*
X162919899Y-86524579D01*
X163023250Y-86545606D01*
X163037299Y-86544410D01*
X163041000Y-86534065D01*
X163041000Y-83898102D01*
X163037082Y-83884758D01*
X163022806Y-83882771D01*
X162984324Y-83888660D01*
X162974288Y-83891051D01*
X162771868Y-83957212D01*
X162762359Y-83961209D01*
X162573463Y-84059542D01*
X162564738Y-84065036D01*
X162394433Y-84192905D01*
X162386726Y-84199748D01*
X162239590Y-84353717D01*
X162233109Y-84361722D01*
X162128498Y-84515074D01*
X162073587Y-84560076D01*
X162003062Y-84568247D01*
X161939315Y-84536993D01*
X161918618Y-84512509D01*
X161837822Y-84387617D01*
X161837820Y-84387614D01*
X161835014Y-84383277D01*
X161684670Y-84218051D01*
X161680619Y-84214852D01*
X161680615Y-84214848D01*
X161513414Y-84082800D01*
X161513410Y-84082798D01*
X161509359Y-84079598D01*
X161473028Y-84059542D01*
X161408058Y-84023677D01*
X161313789Y-83971638D01*
X161308920Y-83969914D01*
X161308916Y-83969912D01*
X161108087Y-83898795D01*
X161108083Y-83898794D01*
X161103212Y-83897069D01*
X161098119Y-83896162D01*
X161098116Y-83896161D01*
X160888373Y-83858800D01*
X160888367Y-83858799D01*
X160883284Y-83857894D01*
X160809452Y-83856992D01*
X160665081Y-83855228D01*
X160665079Y-83855228D01*
X160659911Y-83855165D01*
X160439091Y-83888955D01*
X160226756Y-83958357D01*
X160176536Y-83984500D01*
X160106678Y-84020866D01*
X160028607Y-84061507D01*
X160024474Y-84064610D01*
X160024471Y-84064612D01*
X159874185Y-84177450D01*
X159849965Y-84195635D01*
X159832567Y-84213841D01*
X159763580Y-84286032D01*
X159695629Y-84357138D01*
X159588201Y-84514621D01*
X159533293Y-84559621D01*
X159462768Y-84567792D01*
X159399021Y-84536538D01*
X159378324Y-84512054D01*
X159297822Y-84387617D01*
X159297820Y-84387614D01*
X159295014Y-84383277D01*
X159144670Y-84218051D01*
X159140619Y-84214852D01*
X159140615Y-84214848D01*
X158973414Y-84082800D01*
X158973410Y-84082798D01*
X158969359Y-84079598D01*
X158933028Y-84059542D01*
X158868058Y-84023677D01*
X158773789Y-83971638D01*
X158768920Y-83969914D01*
X158768916Y-83969912D01*
X158568087Y-83898795D01*
X158568083Y-83898794D01*
X158563212Y-83897069D01*
X158558119Y-83896162D01*
X158558116Y-83896161D01*
X158348373Y-83858800D01*
X158348367Y-83858799D01*
X158343284Y-83857894D01*
X158269452Y-83856992D01*
X158125081Y-83855228D01*
X158125079Y-83855228D01*
X158119911Y-83855165D01*
X157899091Y-83888955D01*
X157686756Y-83958357D01*
X157636536Y-83984500D01*
X157566678Y-84020866D01*
X157488607Y-84061507D01*
X157484474Y-84064610D01*
X157484471Y-84064612D01*
X157334185Y-84177450D01*
X157309965Y-84195635D01*
X157292567Y-84213841D01*
X157223580Y-84286032D01*
X157155629Y-84357138D01*
X157048201Y-84514621D01*
X156993293Y-84559621D01*
X156922768Y-84567792D01*
X156859021Y-84536538D01*
X156838324Y-84512054D01*
X156757822Y-84387617D01*
X156757820Y-84387614D01*
X156755014Y-84383277D01*
X156604670Y-84218051D01*
X156600619Y-84214852D01*
X156600615Y-84214848D01*
X156433414Y-84082800D01*
X156433410Y-84082798D01*
X156429359Y-84079598D01*
X156393028Y-84059542D01*
X156328058Y-84023677D01*
X156233789Y-83971638D01*
X156228920Y-83969914D01*
X156228916Y-83969912D01*
X156028087Y-83898795D01*
X156028083Y-83898794D01*
X156023212Y-83897069D01*
X156018119Y-83896162D01*
X156018116Y-83896161D01*
X155808373Y-83858800D01*
X155808367Y-83858799D01*
X155803284Y-83857894D01*
X155729452Y-83856992D01*
X155585081Y-83855228D01*
X155585079Y-83855228D01*
X155579911Y-83855165D01*
X155359091Y-83888955D01*
X155348377Y-83892457D01*
X155346532Y-83893060D01*
X155275568Y-83895210D01*
X155218294Y-83862389D01*
X154521052Y-83165147D01*
X154487026Y-83102835D01*
X154492091Y-83032020D01*
X154525838Y-82982415D01*
X154529914Y-82978745D01*
X154535253Y-82974866D01*
X154539668Y-82969963D01*
X154544580Y-82965540D01*
X154545705Y-82966789D01*
X154599014Y-82933949D01*
X154632200Y-82929500D01*
X169270961Y-82929500D01*
X169339082Y-82949502D01*
G37*
%TD.AperFunction*%
%TA.AperFunction,Conductor*%
G36*
X174050026Y-56753991D02*
G01*
X174071000Y-56770894D01*
X176376511Y-59076405D01*
X176410537Y-59138717D01*
X176405472Y-59209532D01*
X176362925Y-59266368D01*
X176296405Y-59291179D01*
X176287416Y-59291500D01*
X156099594Y-59291500D01*
X156031473Y-59271498D01*
X156010499Y-59254595D01*
X155606317Y-58850413D01*
X155572291Y-58788101D01*
X155577356Y-58717286D01*
X155619903Y-58660450D01*
X155686423Y-58635639D01*
X155700024Y-58635403D01*
X155715845Y-58635983D01*
X155731674Y-58636564D01*
X155731678Y-58636564D01*
X155736837Y-58636753D01*
X155741957Y-58636097D01*
X155741959Y-58636097D01*
X155953288Y-58609025D01*
X155953289Y-58609025D01*
X155958416Y-58608368D01*
X155963369Y-58606882D01*
X156167429Y-58545661D01*
X156167434Y-58545659D01*
X156172384Y-58544174D01*
X156372994Y-58445896D01*
X156554860Y-58316173D01*
X156713096Y-58158489D01*
X156742583Y-58117454D01*
X156843453Y-57977077D01*
X156844776Y-57978028D01*
X156891645Y-57934857D01*
X156961580Y-57922625D01*
X157027026Y-57950144D01*
X157054875Y-57981994D01*
X157055314Y-57982711D01*
X157114987Y-58080088D01*
X157261250Y-58248938D01*
X157433126Y-58391632D01*
X157626000Y-58504338D01*
X157834692Y-58584030D01*
X157839760Y-58585061D01*
X157839763Y-58585062D01*
X157934862Y-58604410D01*
X158053597Y-58628567D01*
X158058772Y-58628757D01*
X158058774Y-58628757D01*
X158271673Y-58636564D01*
X158271677Y-58636564D01*
X158276837Y-58636753D01*
X158281957Y-58636097D01*
X158281959Y-58636097D01*
X158493288Y-58609025D01*
X158493289Y-58609025D01*
X158498416Y-58608368D01*
X158503369Y-58606882D01*
X158707429Y-58545661D01*
X158707434Y-58545659D01*
X158712384Y-58544174D01*
X158912994Y-58445896D01*
X159094860Y-58316173D01*
X159253096Y-58158489D01*
X159282583Y-58117454D01*
X159383453Y-57977077D01*
X159384776Y-57978028D01*
X159431645Y-57934857D01*
X159501580Y-57922625D01*
X159567026Y-57950144D01*
X159594875Y-57981994D01*
X159595314Y-57982711D01*
X159654987Y-58080088D01*
X159801250Y-58248938D01*
X159973126Y-58391632D01*
X160166000Y-58504338D01*
X160374692Y-58584030D01*
X160379760Y-58585061D01*
X160379763Y-58585062D01*
X160474862Y-58604410D01*
X160593597Y-58628567D01*
X160598772Y-58628757D01*
X160598774Y-58628757D01*
X160811673Y-58636564D01*
X160811677Y-58636564D01*
X160816837Y-58636753D01*
X160821957Y-58636097D01*
X160821959Y-58636097D01*
X161033288Y-58609025D01*
X161033289Y-58609025D01*
X161038416Y-58608368D01*
X161043369Y-58606882D01*
X161247429Y-58545661D01*
X161247434Y-58545659D01*
X161252384Y-58544174D01*
X161452994Y-58445896D01*
X161634860Y-58316173D01*
X161793096Y-58158489D01*
X161822583Y-58117454D01*
X161923453Y-57977077D01*
X161924640Y-57977930D01*
X161971960Y-57934362D01*
X162041897Y-57922145D01*
X162107338Y-57949678D01*
X162135166Y-57981511D01*
X162192694Y-58075388D01*
X162198777Y-58083699D01*
X162338213Y-58244667D01*
X162345580Y-58251883D01*
X162509434Y-58387916D01*
X162517881Y-58393831D01*
X162701756Y-58501279D01*
X162711042Y-58505729D01*
X162910001Y-58581703D01*
X162919899Y-58584579D01*
X163023250Y-58605606D01*
X163037299Y-58604410D01*
X163041000Y-58594065D01*
X163041000Y-57147000D01*
X163061002Y-57078879D01*
X163114658Y-57032386D01*
X163167000Y-57021000D01*
X163423000Y-57021000D01*
X163491121Y-57041002D01*
X163537614Y-57094658D01*
X163549000Y-57147000D01*
X163549000Y-58593517D01*
X163553064Y-58607359D01*
X163566478Y-58609393D01*
X163573184Y-58608534D01*
X163583262Y-58606392D01*
X163787255Y-58545191D01*
X163796842Y-58541433D01*
X163988095Y-58447739D01*
X163996945Y-58442464D01*
X164170328Y-58318792D01*
X164178200Y-58312139D01*
X164329052Y-58161812D01*
X164335730Y-58153965D01*
X164463022Y-57976819D01*
X164464279Y-57977722D01*
X164511373Y-57934362D01*
X164581311Y-57922145D01*
X164646751Y-57949678D01*
X164674579Y-57981511D01*
X164680427Y-57991054D01*
X164734987Y-58080088D01*
X164881250Y-58248938D01*
X165053126Y-58391632D01*
X165246000Y-58504338D01*
X165454692Y-58584030D01*
X165459760Y-58585061D01*
X165459763Y-58585062D01*
X165554862Y-58604410D01*
X165673597Y-58628567D01*
X165678772Y-58628757D01*
X165678774Y-58628757D01*
X165891673Y-58636564D01*
X165891677Y-58636564D01*
X165896837Y-58636753D01*
X165901957Y-58636097D01*
X165901959Y-58636097D01*
X166113288Y-58609025D01*
X166113289Y-58609025D01*
X166118416Y-58608368D01*
X166123369Y-58606882D01*
X166327429Y-58545661D01*
X166327434Y-58545659D01*
X166332384Y-58544174D01*
X166532994Y-58445896D01*
X166714860Y-58316173D01*
X166873096Y-58158489D01*
X166902583Y-58117454D01*
X167000435Y-57981277D01*
X167003453Y-57977077D01*
X167012238Y-57959303D01*
X167100136Y-57781453D01*
X167100137Y-57781451D01*
X167102430Y-57776811D01*
X167149025Y-57623450D01*
X167165865Y-57568023D01*
X167165865Y-57568021D01*
X167167370Y-57563069D01*
X167196529Y-57341590D01*
X167196611Y-57338240D01*
X167198074Y-57278365D01*
X167198074Y-57278361D01*
X167198156Y-57275000D01*
X167179852Y-57052361D01*
X167171975Y-57021000D01*
X167139242Y-56890684D01*
X167142046Y-56819743D01*
X167182759Y-56761580D01*
X167248455Y-56734661D01*
X167261446Y-56733989D01*
X173981905Y-56733989D01*
X174050026Y-56753991D01*
G37*
%TD.AperFunction*%
%TA.AperFunction,Conductor*%
G36*
X147543414Y-55009502D02*
G01*
X147589907Y-55063158D01*
X147600011Y-55133432D01*
X147572378Y-55195815D01*
X147552733Y-55219562D01*
X147544743Y-55228342D01*
X146551696Y-56221389D01*
X146489384Y-56255415D01*
X146418569Y-56250350D01*
X146384509Y-56231176D01*
X146273139Y-56143222D01*
X146264552Y-56137517D01*
X146078117Y-56034599D01*
X146068705Y-56030369D01*
X145867959Y-55959280D01*
X145857988Y-55956646D01*
X145786837Y-55943972D01*
X145773540Y-55945432D01*
X145769000Y-55959989D01*
X145769000Y-57403000D01*
X145748998Y-57471121D01*
X145695342Y-57517614D01*
X145643000Y-57529000D01*
X145387000Y-57529000D01*
X145318879Y-57508998D01*
X145272386Y-57455342D01*
X145261000Y-57403000D01*
X145261000Y-55958102D01*
X145257082Y-55944758D01*
X145242806Y-55942771D01*
X145204324Y-55948660D01*
X145194288Y-55951051D01*
X144991868Y-56017212D01*
X144982359Y-56021209D01*
X144793463Y-56119542D01*
X144784738Y-56125036D01*
X144614433Y-56252905D01*
X144606726Y-56259748D01*
X144459590Y-56413717D01*
X144453109Y-56421722D01*
X144348498Y-56575074D01*
X144293587Y-56620076D01*
X144223062Y-56628247D01*
X144159315Y-56596993D01*
X144138618Y-56572509D01*
X144057822Y-56447617D01*
X144057820Y-56447614D01*
X144055014Y-56443277D01*
X143904670Y-56278051D01*
X143900619Y-56274852D01*
X143900615Y-56274848D01*
X143733414Y-56142800D01*
X143733410Y-56142798D01*
X143729359Y-56139598D01*
X143693028Y-56119542D01*
X143587710Y-56061404D01*
X143533789Y-56031638D01*
X143528920Y-56029914D01*
X143528916Y-56029912D01*
X143328087Y-55958795D01*
X143328083Y-55958794D01*
X143323212Y-55957069D01*
X143318119Y-55956162D01*
X143318116Y-55956161D01*
X143108373Y-55918800D01*
X143108367Y-55918799D01*
X143103284Y-55917894D01*
X143029452Y-55916992D01*
X142885081Y-55915228D01*
X142885079Y-55915228D01*
X142879911Y-55915165D01*
X142659091Y-55948955D01*
X142446756Y-56018357D01*
X142248607Y-56121507D01*
X142101760Y-56231763D01*
X142035275Y-56256668D01*
X141965879Y-56241675D01*
X141937012Y-56220097D01*
X140975631Y-55258716D01*
X140968091Y-55250430D01*
X140963979Y-55243951D01*
X140925003Y-55207350D01*
X140889037Y-55146137D01*
X140891876Y-55075197D01*
X140932616Y-55017053D01*
X140998324Y-54990165D01*
X141011256Y-54989500D01*
X147475293Y-54989500D01*
X147543414Y-55009502D01*
G37*
%TD.AperFunction*%
%TD*%
M02*
