%TF.GenerationSoftware,KiCad,Pcbnew,(6.0.1)*%
%TF.CreationDate,2022-11-16T17:15:53-05:00*%
%TF.ProjectId,Projet_Final_GI_Equipe2,50726f6a-6574-45f4-9669-6e616c5f4749,rev?*%
%TF.SameCoordinates,Original*%
%TF.FileFunction,Soldermask,Bot*%
%TF.FilePolarity,Negative*%
%FSLAX46Y46*%
G04 Gerber Fmt 4.6, Leading zero omitted, Abs format (unit mm)*
G04 Created by KiCad (PCBNEW (6.0.1)) date 2022-11-16 17:15:53*
%MOMM*%
%LPD*%
G01*
G04 APERTURE LIST*
G04 Aperture macros list*
%AMRoundRect*
0 Rectangle with rounded corners*
0 $1 Rounding radius*
0 $2 $3 $4 $5 $6 $7 $8 $9 X,Y pos of 4 corners*
0 Add a 4 corners polygon primitive as box body*
4,1,4,$2,$3,$4,$5,$6,$7,$8,$9,$2,$3,0*
0 Add four circle primitives for the rounded corners*
1,1,$1+$1,$2,$3*
1,1,$1+$1,$4,$5*
1,1,$1+$1,$6,$7*
1,1,$1+$1,$8,$9*
0 Add four rect primitives between the rounded corners*
20,1,$1+$1,$2,$3,$4,$5,0*
20,1,$1+$1,$4,$5,$6,$7,0*
20,1,$1+$1,$6,$7,$8,$9,0*
20,1,$1+$1,$8,$9,$2,$3,0*%
G04 Aperture macros list end*
%ADD10R,1.700000X1.700000*%
%ADD11O,1.700000X1.700000*%
%ADD12R,2.000000X1.500000*%
%ADD13R,2.000000X3.800000*%
%ADD14RoundRect,0.250000X-0.475000X0.337500X-0.475000X-0.337500X0.475000X-0.337500X0.475000X0.337500X0*%
%ADD15C,1.778000*%
%ADD16C,2.286000*%
%ADD17O,3.048000X1.850000*%
G04 APERTURE END LIST*
D10*
%TO.C,J1*%
X130275000Y-85215000D03*
D11*
X132815000Y-85215000D03*
X135355000Y-85215000D03*
X137895000Y-85215000D03*
X140435000Y-85215000D03*
X142975000Y-85215000D03*
X145515000Y-85215000D03*
X148055000Y-85215000D03*
X150595000Y-85215000D03*
X153135000Y-85215000D03*
X155675000Y-85215000D03*
X158215000Y-85215000D03*
X160755000Y-85215000D03*
X163295000Y-85215000D03*
X165835000Y-85215000D03*
%TD*%
D10*
%TO.C,J8*%
X146045000Y-119380000D03*
D11*
X148585000Y-119380000D03*
%TD*%
D12*
%TO.C,U3*%
X149962000Y-102094000D03*
X149962000Y-104394000D03*
X149962000Y-106694000D03*
D13*
X143662000Y-104394000D03*
%TD*%
D10*
%TO.C,J7*%
X144033000Y-93980000D03*
D11*
X146573000Y-93980000D03*
X149113000Y-93980000D03*
%TD*%
D14*
%TO.C,C4*%
X153416000Y-102086500D03*
X153416000Y-104161500D03*
%TD*%
%TO.C,C2*%
X153416000Y-106658500D03*
X153416000Y-108733500D03*
%TD*%
D15*
%TO.C,U2*%
X158840000Y-106540000D03*
X158840000Y-104000000D03*
X158840000Y-101460000D03*
D16*
X176620000Y-97332500D03*
X176620000Y-110667500D03*
X161380000Y-110667500D03*
X161380000Y-97332500D03*
D15*
X171540000Y-114160000D03*
X169000000Y-114160000D03*
X166460000Y-114160000D03*
X172175000Y-96380000D03*
X165825000Y-96380000D03*
X172175000Y-91300000D03*
X165825000Y-91300000D03*
%TD*%
%TO.C,U1*%
X122225000Y-91300000D03*
X128575000Y-91300000D03*
X122225000Y-96380000D03*
X128575000Y-96380000D03*
X122860000Y-114160000D03*
X125400000Y-114160000D03*
X127940000Y-114160000D03*
D16*
X117780000Y-97332500D03*
X117780000Y-110667500D03*
X133020000Y-110667500D03*
X133020000Y-97332500D03*
D15*
X115240000Y-101460000D03*
X115240000Y-104000000D03*
X115240000Y-106540000D03*
%TD*%
D11*
%TO.C,J2*%
X165835000Y-57275000D03*
X163295000Y-57275000D03*
X160755000Y-57275000D03*
X158215000Y-57275000D03*
X155675000Y-57275000D03*
X153135000Y-57275000D03*
X150595000Y-57275000D03*
X148055000Y-57275000D03*
X145515000Y-57275000D03*
X142975000Y-57275000D03*
X140435000Y-57275000D03*
X137895000Y-57275000D03*
X135355000Y-57275000D03*
X132815000Y-57275000D03*
D10*
X130275000Y-57275000D03*
%TD*%
%TO.C,J3*%
X171150000Y-77475000D03*
D11*
X173690000Y-77475000D03*
X176230000Y-77475000D03*
X178770000Y-77475000D03*
%TD*%
D17*
%TO.C,SW2*%
X197235000Y-85350000D03*
X184735000Y-85350000D03*
X197235000Y-90350000D03*
X184735000Y-90350000D03*
%TD*%
D10*
%TO.C,J4*%
X116150000Y-77475000D03*
D11*
X118690000Y-77475000D03*
X121230000Y-77475000D03*
X123770000Y-77475000D03*
%TD*%
D10*
%TO.C,J6*%
X171150000Y-62235000D03*
D11*
X173690000Y-62235000D03*
X176230000Y-62235000D03*
X178770000Y-62235000D03*
%TD*%
D10*
%TO.C,J5*%
X116150000Y-62235000D03*
D11*
X118690000Y-62235000D03*
X121230000Y-62235000D03*
X123770000Y-62235000D03*
%TD*%
D17*
%TO.C,SW1*%
X111410000Y-85375000D03*
X98910000Y-85375000D03*
X111410000Y-90375000D03*
X98910000Y-90375000D03*
%TD*%
M02*
