M48
; DRILL file {KiCad (6.0.1)} date Wed Nov 16 17:16:01 2022
; FORMAT={-:-/ absolute / inch / decimal}
; #@! TF.CreationDate,2022-11-16T17:16:01-05:00
; #@! TF.GenerationSoftware,Kicad,Pcbnew,(6.0.1)
; #@! TF.FileFunction,MixedPlating,1,2
FMAT,2
INCH
; #@! TA.AperFunction,Plated,PTH,ViaDrill
T1C0.0157
; #@! TA.AperFunction,Plated,PTH,ComponentDrill
T2C0.0350
; #@! TA.AperFunction,Plated,PTH,ComponentDrill
T3C0.0354
; #@! TA.AperFunction,Plated,PTH,ComponentDrill
T4C0.0394
; #@! TA.AperFunction,Plated,PTH,ComponentDrill
T5C0.0512
; #@! TA.AperFunction,Plated,PTH,ComponentDrill
T6C0.0550
%
G90
G05
T1
X6.06Y-3.24
X6.18Y-3.47
T2
X4.537Y-3.9945
X4.537Y-4.0945
X4.537Y-4.1945
X4.837Y-4.4945
X4.937Y-4.4945
X5.037Y-4.4945
X6.2535Y-3.9945
X6.2535Y-4.0945
X6.2535Y-4.1945
X6.5535Y-4.4945
X6.6535Y-4.4945
X6.7535Y-4.4945
T3
X4.812Y-3.5945
X4.812Y-3.7945
X5.062Y-3.5945
X5.062Y-3.7945
X6.5285Y-3.5945
X6.5285Y-3.7945
X6.7785Y-3.5945
X6.7785Y-3.7945
T4
X4.5728Y-2.4502
X4.5728Y-3.0502
X4.6728Y-2.4502
X4.6728Y-3.0502
X4.7728Y-2.4502
X4.7728Y-3.0502
X4.8728Y-2.4502
X4.8728Y-3.0502
X5.1289Y-2.2549
X5.1289Y-3.3549
X5.2289Y-2.2549
X5.2289Y-3.3549
X5.3289Y-2.2549
X5.3289Y-3.3549
X5.4289Y-2.2549
X5.4289Y-3.3549
X5.5289Y-2.2549
X5.5289Y-3.3549
X5.6289Y-2.2549
X5.6289Y-3.3549
X5.6706Y-3.7
X5.7289Y-2.2549
X5.7289Y-3.3549
X5.7498Y-4.7
X5.7706Y-3.7
X5.8289Y-2.2549
X5.8289Y-3.3549
X5.8498Y-4.7
X5.8706Y-3.7
X5.9289Y-2.2549
X5.9289Y-3.3549
X6.0289Y-2.2549
X6.0289Y-3.3549
X6.1289Y-2.2549
X6.1289Y-3.3549
X6.2289Y-2.2549
X6.2289Y-3.3549
X6.3289Y-2.2549
X6.3289Y-3.3549
X6.4289Y-2.2549
X6.4289Y-3.3549
X6.5289Y-2.2549
X6.5289Y-3.3549
X6.7382Y-2.4502
X6.7382Y-3.0502
X6.8382Y-2.4502
X6.8382Y-3.0502
X6.9382Y-2.4502
X6.9382Y-3.0502
X7.0382Y-2.4502
X7.0382Y-3.0502
T5
X3.8941Y-3.3612
X3.8941Y-3.5581
X4.3862Y-3.3612
X4.3862Y-3.5581
X7.273Y-3.3602
X7.273Y-3.5571
X7.7652Y-3.3602
X7.7652Y-3.5571
T6
X4.637Y-3.832
X4.637Y-4.357
X5.237Y-3.832
X5.237Y-4.357
X6.3535Y-3.832
X6.3535Y-4.357
X6.9535Y-3.832
X6.9535Y-4.357
T0
M30
