%TF.GenerationSoftware,KiCad,Pcbnew,(6.0.1)*%
%TF.CreationDate,2022-11-16T17:15:53-05:00*%
%TF.ProjectId,Projet_Final_GI_Equipe2,50726f6a-6574-45f4-9669-6e616c5f4749,rev?*%
%TF.SameCoordinates,Original*%
%TF.FileFunction,Copper,L2,Bot*%
%TF.FilePolarity,Positive*%
%FSLAX46Y46*%
G04 Gerber Fmt 4.6, Leading zero omitted, Abs format (unit mm)*
G04 Created by KiCad (PCBNEW (6.0.1)) date 2022-11-16 17:15:53*
%MOMM*%
%LPD*%
G01*
G04 APERTURE LIST*
G04 Aperture macros list*
%AMRoundRect*
0 Rectangle with rounded corners*
0 $1 Rounding radius*
0 $2 $3 $4 $5 $6 $7 $8 $9 X,Y pos of 4 corners*
0 Add a 4 corners polygon primitive as box body*
4,1,4,$2,$3,$4,$5,$6,$7,$8,$9,$2,$3,0*
0 Add four circle primitives for the rounded corners*
1,1,$1+$1,$2,$3*
1,1,$1+$1,$4,$5*
1,1,$1+$1,$6,$7*
1,1,$1+$1,$8,$9*
0 Add four rect primitives between the rounded corners*
20,1,$1+$1,$2,$3,$4,$5,0*
20,1,$1+$1,$4,$5,$6,$7,0*
20,1,$1+$1,$6,$7,$8,$9,0*
20,1,$1+$1,$8,$9,$2,$3,0*%
G04 Aperture macros list end*
%TA.AperFunction,ComponentPad*%
%ADD10R,1.700000X1.700000*%
%TD*%
%TA.AperFunction,ComponentPad*%
%ADD11O,1.700000X1.700000*%
%TD*%
%TA.AperFunction,SMDPad,CuDef*%
%ADD12R,2.000000X1.500000*%
%TD*%
%TA.AperFunction,SMDPad,CuDef*%
%ADD13R,2.000000X3.800000*%
%TD*%
%TA.AperFunction,SMDPad,CuDef*%
%ADD14RoundRect,0.250000X-0.475000X0.337500X-0.475000X-0.337500X0.475000X-0.337500X0.475000X0.337500X0*%
%TD*%
%TA.AperFunction,ComponentPad*%
%ADD15C,1.778000*%
%TD*%
%TA.AperFunction,ComponentPad*%
%ADD16C,2.286000*%
%TD*%
%TA.AperFunction,ComponentPad*%
%ADD17O,3.048000X1.850000*%
%TD*%
%TA.AperFunction,ViaPad*%
%ADD18C,0.800000*%
%TD*%
%TA.AperFunction,Conductor*%
%ADD19C,0.250000*%
%TD*%
G04 APERTURE END LIST*
D10*
%TO.P,J1,1,Pin_1*%
%TO.N,/A0*%
X130275000Y-85215000D03*
D11*
%TO.P,J1,2,Pin_2*%
%TO.N,/G*%
X132815000Y-85215000D03*
%TO.P,J1,3,Pin_3*%
%TO.N,/VV*%
X135355000Y-85215000D03*
%TO.P,J1,4,Pin_4*%
%TO.N,/S3{slash}R3*%
X137895000Y-85215000D03*
%TO.P,J1,5,Pin_5*%
%TO.N,/S2{slash}L3*%
X140435000Y-85215000D03*
%TO.P,J1,6,Pin_6*%
%TO.N,/S1*%
X142975000Y-85215000D03*
%TO.P,J1,7,Pin_7*%
%TO.N,/SC*%
X145515000Y-85215000D03*
%TO.P,J1,8,Pin_8*%
%TO.N,/SO*%
X148055000Y-85215000D03*
%TO.P,J1,9,Pin_9*%
%TO.N,/SK*%
X150595000Y-85215000D03*
%TO.P,J1,10,Pin_10*%
%TO.N,/G*%
X153135000Y-85215000D03*
%TO.P,J1,11,Pin_11*%
%TO.N,/3V3*%
X155675000Y-85215000D03*
%TO.P,J1,12,Pin_12*%
%TO.N,/EN*%
X158215000Y-85215000D03*
%TO.P,J1,13,Pin_13*%
%TO.N,/RST*%
X160755000Y-85215000D03*
%TO.P,J1,14,Pin_14*%
%TO.N,/G*%
X163295000Y-85215000D03*
%TO.P,J1,15,Pin_15*%
%TO.N,/VIN*%
X165835000Y-85215000D03*
%TD*%
D10*
%TO.P,J8,1,Pin_1*%
%TO.N,/G*%
X146045000Y-119380000D03*
D11*
%TO.P,J8,2,Pin_2*%
%TO.N,/PLUS*%
X148585000Y-119380000D03*
%TD*%
D12*
%TO.P,U3,1,GND*%
%TO.N,GND*%
X149962000Y-102094000D03*
%TO.P,U3,2,VO*%
%TO.N,Net-(C4-Pad2)*%
X149962000Y-104394000D03*
%TO.P,U3,3,VI*%
%TO.N,/PLUS*%
X149962000Y-106694000D03*
D13*
%TO.P,U3,4*%
%TO.N,N/C*%
X143662000Y-104394000D03*
%TD*%
D10*
%TO.P,J7,1,Pin_1*%
%TO.N,/PLUS*%
X144033000Y-93980000D03*
D11*
%TO.P,J7,2,Pin_2*%
%TO.N,/VIN*%
X146573000Y-93980000D03*
%TO.P,J7,3,Pin_3*%
%TO.N,Net-(C4-Pad2)*%
X149113000Y-93980000D03*
%TD*%
D14*
%TO.P,C4,1*%
%TO.N,GND*%
X153416000Y-102086500D03*
%TO.P,C4,2*%
%TO.N,Net-(C4-Pad2)*%
X153416000Y-104161500D03*
%TD*%
%TO.P,C2,1*%
%TO.N,GND*%
X153416000Y-106658500D03*
%TO.P,C2,2*%
%TO.N,/PLUS*%
X153416000Y-108733500D03*
%TD*%
D15*
%TO.P,U2,V3,V-*%
%TO.N,GND*%
X158840000Y-106540000D03*
%TO.P,U2,V2,V*%
%TO.N,/RIGHTV*%
X158840000Y-104000000D03*
%TO.P,U2,V1,V+*%
%TO.N,/3V3*%
X158840000Y-101460000D03*
D16*
%TO.P,U2,S4,SHIELD*%
%TO.N,GND*%
X176620000Y-97332500D03*
%TO.P,U2,S3,SHIELD*%
X176620000Y-110667500D03*
%TO.P,U2,S2,SHIELD*%
X161380000Y-110667500D03*
%TO.P,U2,S1,SHIELD*%
X161380000Y-97332500D03*
D15*
%TO.P,U2,H3,H-*%
X171540000Y-114160000D03*
%TO.P,U2,H2,H*%
%TO.N,/RIGHTH*%
X169000000Y-114160000D03*
%TO.P,U2,H1,H+*%
%TO.N,/3V3*%
X166460000Y-114160000D03*
%TO.P,U2,B2B*%
%TO.N,N/C*%
X172175000Y-96380000D03*
%TO.P,U2,B2A,SEL-*%
%TO.N,GND*%
X165825000Y-96380000D03*
%TO.P,U2,B1B*%
%TO.N,N/C*%
X172175000Y-91300000D03*
%TO.P,U2,B1A,SEL+*%
%TO.N,Net-(R7-Pad2)*%
X165825000Y-91300000D03*
%TD*%
%TO.P,U1,B1A,SEL+*%
%TO.N,Net-(R6-Pad2)*%
X122225000Y-91300000D03*
%TO.P,U1,B1B*%
%TO.N,N/C*%
X128575000Y-91300000D03*
%TO.P,U1,B2A,SEL-*%
%TO.N,GND*%
X122225000Y-96380000D03*
%TO.P,U1,B2B*%
%TO.N,N/C*%
X128575000Y-96380000D03*
%TO.P,U1,H1,H+*%
%TO.N,/3V3*%
X122860000Y-114160000D03*
%TO.P,U1,H2,H*%
%TO.N,/LEFTH*%
X125400000Y-114160000D03*
%TO.P,U1,H3,H-*%
%TO.N,GND*%
X127940000Y-114160000D03*
D16*
%TO.P,U1,S1,SHIELD*%
X117780000Y-97332500D03*
%TO.P,U1,S2,SHIELD*%
X117780000Y-110667500D03*
%TO.P,U1,S3,SHIELD*%
X133020000Y-110667500D03*
%TO.P,U1,S4,SHIELD*%
X133020000Y-97332500D03*
D15*
%TO.P,U1,V1,V+*%
%TO.N,/3V3*%
X115240000Y-101460000D03*
%TO.P,U1,V2,V*%
%TO.N,/LEFTV*%
X115240000Y-104000000D03*
%TO.P,U1,V3,V-*%
%TO.N,GND*%
X115240000Y-106540000D03*
%TD*%
D11*
%TO.P,J2,15,Pin_15*%
%TO.N,/3V3*%
X165835000Y-57275000D03*
%TO.P,J2,14,Pin_14*%
%TO.N,/G*%
X163295000Y-57275000D03*
%TO.P,J2,13,Pin_13*%
%TO.N,/TX*%
X160755000Y-57275000D03*
%TO.P,J2,12,Pin_12*%
%TO.N,/RX*%
X158215000Y-57275000D03*
%TO.P,J2,11,Pin_11*%
%TO.N,/D8{slash}CSR*%
X155675000Y-57275000D03*
%TO.P,J2,10,Pin_10*%
%TO.N,/D7{slash}DIN*%
X153135000Y-57275000D03*
%TO.P,J2,9,Pin_9*%
%TO.N,/D6{slash}DOUT*%
X150595000Y-57275000D03*
%TO.P,J2,8,Pin_8*%
%TO.N,/D5{slash}CLK*%
X148055000Y-57275000D03*
%TO.P,J2,7,Pin_7*%
%TO.N,/G*%
X145515000Y-57275000D03*
%TO.P,J2,6,Pin_6*%
%TO.N,/3V3*%
X142975000Y-57275000D03*
%TO.P,J2,5,Pin_5*%
%TO.N,/D4{slash}CSL*%
X140435000Y-57275000D03*
%TO.P,J2,4,Pin_4*%
%TO.N,/D3*%
X137895000Y-57275000D03*
%TO.P,J2,3,Pin_3*%
%TO.N,/D2{slash}SPECIAL*%
X135355000Y-57275000D03*
%TO.P,J2,2,Pin_2*%
%TO.N,/D1{slash}ATTACK*%
X132815000Y-57275000D03*
D10*
%TO.P,J2,1,Pin_1*%
%TO.N,/D0{slash}RGB*%
X130275000Y-57275000D03*
%TD*%
%TO.P,J3,1,Pin_1*%
%TO.N,/D8{slash}CSR*%
X171150000Y-77475000D03*
D11*
%TO.P,J3,2,Pin_2*%
%TO.N,/RIGHTV*%
X173690000Y-77475000D03*
%TO.P,J3,3,Pin_3*%
%TO.N,/RIGHTH*%
X176230000Y-77475000D03*
%TO.P,J3,4,Pin_4*%
%TO.N,GND*%
X178770000Y-77475000D03*
%TD*%
D17*
%TO.P,SW2,1,1*%
%TO.N,/3.3V*%
X197235000Y-85350000D03*
X184735000Y-85350000D03*
%TO.P,SW2,2,2*%
%TO.N,/D2{slash}SPECIAL*%
X197235000Y-90350000D03*
X184735000Y-90350000D03*
%TD*%
D10*
%TO.P,J4,1,Pin_1*%
%TO.N,/D4{slash}CSL*%
X116150000Y-77475000D03*
D11*
%TO.P,J4,2,Pin_2*%
%TO.N,/LEFTV*%
X118690000Y-77475000D03*
%TO.P,J4,3,Pin_3*%
%TO.N,/LEFTH*%
X121230000Y-77475000D03*
%TO.P,J4,4,Pin_4*%
%TO.N,GND*%
X123770000Y-77475000D03*
%TD*%
D10*
%TO.P,J6,1,Pin_1*%
%TO.N,/3.3V*%
X171150000Y-62235000D03*
D11*
%TO.P,J6,2,Pin_2*%
%TO.N,/D5{slash}CLK*%
X173690000Y-62235000D03*
%TO.P,J6,3,Pin_3*%
%TO.N,/D6{slash}DOUT*%
X176230000Y-62235000D03*
%TO.P,J6,4,Pin_4*%
%TO.N,/D7{slash}DIN*%
X178770000Y-62235000D03*
%TD*%
D10*
%TO.P,J5,1,Pin_1*%
%TO.N,/3.3V*%
X116150000Y-62235000D03*
D11*
%TO.P,J5,2,Pin_2*%
%TO.N,/D5{slash}CLK*%
X118690000Y-62235000D03*
%TO.P,J5,3,Pin_3*%
%TO.N,/D6{slash}DOUT*%
X121230000Y-62235000D03*
%TO.P,J5,4,Pin_4*%
%TO.N,/D7{slash}DIN*%
X123770000Y-62235000D03*
%TD*%
D17*
%TO.P,SW1,1,1*%
%TO.N,/3.3V*%
X111410000Y-85375000D03*
X98910000Y-85375000D03*
%TO.P,SW1,2,2*%
%TO.N,/D1{slash}ATTACK*%
X111410000Y-90375000D03*
X98910000Y-90375000D03*
%TD*%
D18*
%TO.N,/S3{slash}R3*%
X153924000Y-82296000D03*
%TO.N,/VIN*%
X156972000Y-88138000D03*
%TD*%
D19*
%TO.N,/S3{slash}R3*%
X153924000Y-82296000D02*
X138176000Y-82296000D01*
X138176000Y-82296000D02*
X137895000Y-82577000D01*
X137895000Y-82577000D02*
X137895000Y-85215000D01*
%TO.N,/G*%
X134868501Y-87268501D02*
X132815000Y-85215000D01*
X134868501Y-108203501D02*
X134868501Y-87268501D01*
X146045000Y-119380000D02*
X134868501Y-108203501D01*
%TO.N,/VIN*%
X152415000Y-88138000D02*
X156972000Y-88138000D01*
X146573000Y-93980000D02*
X152415000Y-88138000D01*
%TO.N,/3V3*%
X155675000Y-85266000D02*
X155675000Y-85215000D01*
X158840000Y-88431000D02*
X155675000Y-85266000D01*
X158840000Y-101460000D02*
X158840000Y-88431000D01*
%TO.N,Net-(C4-Pad2)*%
X147747511Y-95345489D02*
X149113000Y-93980000D01*
X147747511Y-102179511D02*
X147747511Y-95345489D01*
X149962000Y-104394000D02*
X147747511Y-102179511D01*
%TO.N,/PLUS*%
X144033000Y-100765000D02*
X144033000Y-93980000D01*
X149962000Y-106694000D02*
X144033000Y-100765000D01*
%TO.N,GND*%
X153408500Y-102094000D02*
X153416000Y-102086500D01*
X149962000Y-102094000D02*
X153408500Y-102094000D01*
%TO.N,Net-(C4-Pad2)*%
X153416000Y-104161500D02*
X153183500Y-104394000D01*
X153183500Y-104394000D02*
X149962000Y-104394000D01*
%TO.N,GND*%
X155842000Y-104512500D02*
X155842000Y-106540000D01*
X155842000Y-106540000D02*
X158840000Y-106540000D01*
X153534500Y-106540000D02*
X155842000Y-106540000D01*
X153416000Y-102086500D02*
X155842000Y-104512500D01*
X153416000Y-106658500D02*
X153534500Y-106540000D01*
%TO.N,/PLUS*%
X148585000Y-113564500D02*
X153416000Y-108733500D01*
X148585000Y-119380000D02*
X148585000Y-113564500D01*
X151376500Y-106694000D02*
X153416000Y-108733500D01*
X149962000Y-106694000D02*
X151376500Y-106694000D01*
%TO.N,GND*%
X117780000Y-97332500D02*
X121272500Y-97332500D01*
X121272500Y-97332500D02*
X122225000Y-96380000D01*
%TO.N,/G*%
X162120489Y-56100489D02*
X146689511Y-56100489D01*
X134868501Y-56100489D02*
X141112477Y-56100489D01*
X161900000Y-83820000D02*
X160238990Y-83820000D01*
X141112477Y-56100489D02*
X141800489Y-56788501D01*
X132815000Y-85215000D02*
X133989511Y-86389511D01*
X161900000Y-83820000D02*
X154530000Y-83820000D01*
X134180489Y-56788501D02*
X134868501Y-56100489D01*
X133989511Y-86389511D02*
X151960489Y-86389511D01*
X146689511Y-56100489D02*
X145515000Y-57275000D01*
X163295000Y-85215000D02*
X161900000Y-83820000D01*
X163295000Y-57275000D02*
X162120489Y-56100489D01*
X141800489Y-57761499D02*
X142712990Y-58674000D01*
X144116000Y-58674000D02*
X145515000Y-57275000D01*
X134180489Y-57761499D02*
X134180489Y-56788501D01*
X141800489Y-56788501D02*
X141800489Y-57761499D01*
X142712990Y-58674000D02*
X144116000Y-58674000D01*
X154530000Y-83820000D02*
X153135000Y-85215000D01*
X160238990Y-83820000D02*
X134180489Y-57761499D01*
X151960489Y-86389511D02*
X153135000Y-85215000D01*
%TO.N,/3V3*%
X163424000Y-54864000D02*
X145386000Y-54864000D01*
X158840000Y-101460000D02*
X166460000Y-109080000D01*
X122595489Y-79056559D02*
X120362353Y-79056559D01*
X122595489Y-76988501D02*
X122595489Y-79056559D01*
X109561480Y-95781480D02*
X115240000Y-101460000D01*
X109561480Y-89857432D02*
X109561480Y-95781480D01*
X120362353Y-79056559D02*
X109561480Y-89857432D01*
X166460000Y-109080000D02*
X166460000Y-114160000D01*
X131640489Y-56788501D02*
X131640489Y-67943501D01*
X142975000Y-57275000D02*
X141350969Y-55650969D01*
X122860000Y-109080000D02*
X122860000Y-114160000D01*
X132778021Y-55650969D02*
X131640489Y-56788501D01*
X115240000Y-101460000D02*
X122860000Y-109080000D01*
X141350969Y-55650969D02*
X132778021Y-55650969D01*
X165835000Y-57275000D02*
X163424000Y-54864000D01*
X131640489Y-67943501D02*
X122595489Y-76988501D01*
X145386000Y-54864000D02*
X142975000Y-57275000D01*
%TO.N,/D1{slash}ATTACK*%
X132815000Y-57275000D02*
X132815000Y-70091010D01*
X132815000Y-70091010D02*
X112531010Y-90375000D01*
X112531010Y-90375000D02*
X111410000Y-90375000D01*
%TO.N,/D2{slash}SPECIAL*%
X135355000Y-57885000D02*
X135355000Y-57275000D01*
X164469511Y-85701499D02*
X164469511Y-84728501D01*
X184735000Y-90350000D02*
X172941165Y-90350000D01*
X168854501Y-90086489D02*
X164469511Y-85701499D01*
X161783010Y-82042000D02*
X159512000Y-82042000D01*
X159512000Y-82042000D02*
X135355000Y-57885000D01*
X172941165Y-90350000D02*
X172677654Y-90086489D01*
X172677654Y-90086489D02*
X168854501Y-90086489D01*
X164469511Y-84728501D02*
X161783010Y-82042000D01*
%TO.N,/3.3V*%
X184735000Y-75820000D02*
X184735000Y-85350000D01*
X171150000Y-62235000D02*
X184735000Y-75820000D01*
X111410000Y-66975000D02*
X116150000Y-62235000D01*
X111410000Y-85375000D02*
X111410000Y-66975000D01*
%TD*%
%TA.AperFunction,Conductor*%
%TO.N,/G*%
G36*
X194969983Y-53384617D02*
G01*
X194981340Y-53386414D01*
X194983554Y-53386765D01*
X194983555Y-53386765D01*
X194992417Y-53388168D01*
X195013344Y-53385486D01*
X195034882Y-53384585D01*
X195406196Y-53400869D01*
X195416546Y-53401753D01*
X195816006Y-53452502D01*
X195826249Y-53454234D01*
X196220186Y-53537748D01*
X196230257Y-53540322D01*
X196615952Y-53656026D01*
X196625778Y-53659421D01*
X197000622Y-53806529D01*
X197010135Y-53810724D01*
X197371565Y-53988231D01*
X197380701Y-53993195D01*
X197726285Y-54199907D01*
X197734967Y-54205599D01*
X198062333Y-54440100D01*
X198070521Y-54446494D01*
X198377426Y-54707175D01*
X198385066Y-54714227D01*
X198669428Y-54999318D01*
X198676461Y-55006975D01*
X198784120Y-55134383D01*
X198877355Y-55244720D01*
X198936369Y-55314560D01*
X198942741Y-55322765D01*
X199069285Y-55500379D01*
X199176399Y-55650722D01*
X199182077Y-55659431D01*
X199387897Y-56005531D01*
X199392838Y-56014679D01*
X199569423Y-56376568D01*
X199573593Y-56386092D01*
X199584230Y-56413401D01*
X199673268Y-56641993D01*
X199719741Y-56761307D01*
X199723109Y-56771133D01*
X199808223Y-57057522D01*
X199837828Y-57157134D01*
X199840375Y-57167211D01*
X199877573Y-57344908D01*
X199922878Y-57561341D01*
X199924587Y-57571594D01*
X199971698Y-57950165D01*
X199974315Y-57971197D01*
X199975172Y-57981553D01*
X199988839Y-58312529D01*
X199990198Y-58345449D01*
X199988805Y-58370026D01*
X199986814Y-58382817D01*
X199989274Y-58401626D01*
X199990818Y-58413434D01*
X199991881Y-58430133D01*
X199736936Y-147694920D01*
X199735437Y-147713943D01*
X199735022Y-147716612D01*
X199731610Y-147738526D01*
X199734070Y-147757335D01*
X199734137Y-147757846D01*
X199735049Y-147780366D01*
X199719081Y-148105393D01*
X199719081Y-148105394D01*
X199717869Y-148117699D01*
X199665804Y-148468697D01*
X199663392Y-148480825D01*
X199577171Y-148825035D01*
X199573582Y-148836867D01*
X199454038Y-149170970D01*
X199449306Y-149182394D01*
X199297592Y-149503169D01*
X199291763Y-149514074D01*
X199109336Y-149818434D01*
X199102466Y-149828715D01*
X198891088Y-150113724D01*
X198883244Y-150123282D01*
X198644947Y-150386203D01*
X198636203Y-150394947D01*
X198373282Y-150633244D01*
X198363724Y-150641088D01*
X198078715Y-150852466D01*
X198068434Y-150859336D01*
X197764074Y-151041763D01*
X197753173Y-151047590D01*
X197616109Y-151112416D01*
X197432394Y-151199306D01*
X197420970Y-151204038D01*
X197086867Y-151323582D01*
X197075035Y-151327171D01*
X196831306Y-151388222D01*
X196730822Y-151413393D01*
X196718700Y-151415803D01*
X196367694Y-151467869D01*
X196355398Y-151469081D01*
X196259320Y-151473801D01*
X196037734Y-151484686D01*
X196012172Y-151483339D01*
X196009939Y-151482991D01*
X196009935Y-151482991D01*
X196001066Y-151481610D01*
X195992164Y-151482774D01*
X195992161Y-151482774D01*
X195972879Y-151485296D01*
X195970524Y-151485604D01*
X195969545Y-151485732D01*
X195953207Y-151486796D01*
X179554532Y-151486796D01*
X179535147Y-151485296D01*
X179520346Y-151482991D01*
X179520343Y-151482991D01*
X179511474Y-151481610D01*
X179492150Y-151484137D01*
X179469634Y-151485049D01*
X179144600Y-151469080D01*
X179132306Y-151467869D01*
X178781300Y-151415803D01*
X178769178Y-151413393D01*
X178668694Y-151388222D01*
X178424965Y-151327171D01*
X178413133Y-151323582D01*
X178079030Y-151204038D01*
X178067606Y-151199306D01*
X177883891Y-151112416D01*
X177746827Y-151047590D01*
X177735926Y-151041763D01*
X177431566Y-150859336D01*
X177421285Y-150852466D01*
X177136276Y-150641088D01*
X177126718Y-150633244D01*
X176863797Y-150394947D01*
X176855053Y-150386203D01*
X176616756Y-150123282D01*
X176608912Y-150113724D01*
X176397534Y-149828715D01*
X176390664Y-149818434D01*
X176208237Y-149514074D01*
X176202408Y-149503169D01*
X176050694Y-149182394D01*
X176045962Y-149170970D01*
X175926418Y-148836867D01*
X175922829Y-148825035D01*
X175836608Y-148480825D01*
X175834196Y-148468697D01*
X175782131Y-148117699D01*
X175780919Y-148105393D01*
X175765314Y-147787734D01*
X175766661Y-147762172D01*
X175767009Y-147759939D01*
X175767009Y-147759935D01*
X175768390Y-147751066D01*
X175767226Y-147742165D01*
X175767226Y-147742161D01*
X175759912Y-147686233D01*
X175759505Y-147682747D01*
X173513582Y-125778460D01*
X173513479Y-125762544D01*
X173513071Y-125762539D01*
X173513165Y-125754864D01*
X173513165Y-125754859D01*
X173513224Y-125750000D01*
X173512535Y-125745187D01*
X173512218Y-125740324D01*
X173512282Y-125740320D01*
X173511959Y-125736842D01*
X173494531Y-125337678D01*
X173494530Y-125337667D01*
X173494410Y-125334918D01*
X173440180Y-124922995D01*
X173350254Y-124517366D01*
X173289034Y-124323202D01*
X173226146Y-124123746D01*
X173226143Y-124123738D01*
X173225317Y-124121118D01*
X173087981Y-123789558D01*
X173067374Y-123739808D01*
X173067373Y-123739807D01*
X173066321Y-123737266D01*
X172874475Y-123368733D01*
X172651239Y-123018323D01*
X172649575Y-123016155D01*
X172649567Y-123016143D01*
X172399994Y-122690895D01*
X172398312Y-122688703D01*
X172396454Y-122686675D01*
X172396447Y-122686667D01*
X172119471Y-122384400D01*
X172117620Y-122382380D01*
X172019907Y-122292843D01*
X171813333Y-122103553D01*
X171813325Y-122103546D01*
X171811297Y-122101688D01*
X171782904Y-122079901D01*
X171483857Y-121850433D01*
X171483845Y-121850425D01*
X171481677Y-121848761D01*
X171131267Y-121625525D01*
X170762734Y-121433679D01*
X170378882Y-121274683D01*
X170376262Y-121273857D01*
X170376254Y-121273854D01*
X169985264Y-121150575D01*
X169985259Y-121150574D01*
X169982634Y-121149746D01*
X169577005Y-121059820D01*
X169574286Y-121059462D01*
X169574280Y-121059461D01*
X169419365Y-121039067D01*
X169165082Y-121005590D01*
X169162333Y-121005470D01*
X169162322Y-121005469D01*
X168779004Y-120988733D01*
X168772198Y-120988016D01*
X168772184Y-120988172D01*
X168767349Y-120987738D01*
X168762539Y-120986929D01*
X168756158Y-120986851D01*
X168754865Y-120986835D01*
X168754860Y-120986835D01*
X168750000Y-120986776D01*
X168729309Y-120989739D01*
X168722367Y-120990733D01*
X168704522Y-120992005D01*
X157486764Y-120993395D01*
X126808386Y-120997198D01*
X126787474Y-120995452D01*
X126767743Y-120992133D01*
X126761553Y-120992057D01*
X126760068Y-120992039D01*
X126760063Y-120992039D01*
X126755204Y-120991980D01*
X126750391Y-120992669D01*
X126745528Y-120992986D01*
X126745524Y-120992922D01*
X126742046Y-120993245D01*
X126342882Y-121010673D01*
X126342871Y-121010674D01*
X126340122Y-121010794D01*
X126085839Y-121044271D01*
X125930924Y-121064665D01*
X125930918Y-121064666D01*
X125928199Y-121065024D01*
X125522570Y-121154950D01*
X125519945Y-121155778D01*
X125519940Y-121155779D01*
X125128950Y-121279058D01*
X125128942Y-121279061D01*
X125126322Y-121279887D01*
X124794762Y-121417223D01*
X124755034Y-121433679D01*
X124742470Y-121438883D01*
X124373937Y-121630729D01*
X124125432Y-121789044D01*
X124031696Y-121848761D01*
X124023527Y-121853965D01*
X124021359Y-121855629D01*
X124021347Y-121855637D01*
X123799302Y-122026019D01*
X123693907Y-122106892D01*
X123691879Y-122108750D01*
X123691871Y-122108757D01*
X123490976Y-122292843D01*
X123387584Y-122387584D01*
X123385733Y-122389604D01*
X123108757Y-122691871D01*
X123108750Y-122691879D01*
X123106892Y-122693907D01*
X123105210Y-122696099D01*
X122855637Y-123021347D01*
X122855629Y-123021359D01*
X122853965Y-123023527D01*
X122630729Y-123373937D01*
X122438883Y-123742470D01*
X122279887Y-124126322D01*
X122279061Y-124128942D01*
X122279058Y-124128950D01*
X122157420Y-124514736D01*
X122154950Y-124522570D01*
X122065024Y-124928199D01*
X122010794Y-125340122D01*
X122010674Y-125342871D01*
X122010673Y-125342882D01*
X121993937Y-125726200D01*
X121993220Y-125733006D01*
X121993376Y-125733020D01*
X121992942Y-125737855D01*
X121992133Y-125742665D01*
X121991980Y-125755204D01*
X121992669Y-125760017D01*
X121992670Y-125760027D01*
X121992812Y-125761019D01*
X121992913Y-125763754D01*
X121992986Y-125764878D01*
X121992954Y-125764880D01*
X121993788Y-125787508D01*
X120489890Y-147682329D01*
X120488686Y-147693079D01*
X120482992Y-147729651D01*
X120481610Y-147738526D01*
X120484070Y-147757335D01*
X120484137Y-147757846D01*
X120485049Y-147780366D01*
X120469081Y-148105393D01*
X120469081Y-148105394D01*
X120467869Y-148117699D01*
X120415804Y-148468697D01*
X120413392Y-148480825D01*
X120327171Y-148825035D01*
X120323582Y-148836867D01*
X120204038Y-149170970D01*
X120199306Y-149182394D01*
X120047592Y-149503169D01*
X120041763Y-149514074D01*
X119859336Y-149818434D01*
X119852466Y-149828715D01*
X119641088Y-150113724D01*
X119633244Y-150123282D01*
X119394947Y-150386203D01*
X119386203Y-150394947D01*
X119123282Y-150633244D01*
X119113724Y-150641088D01*
X118828715Y-150852466D01*
X118818434Y-150859336D01*
X118514074Y-151041763D01*
X118503173Y-151047590D01*
X118366109Y-151112416D01*
X118182394Y-151199306D01*
X118170970Y-151204038D01*
X117836867Y-151323582D01*
X117825035Y-151327171D01*
X117581306Y-151388222D01*
X117480822Y-151413393D01*
X117468700Y-151415803D01*
X117117694Y-151467869D01*
X117105398Y-151469081D01*
X117009320Y-151473801D01*
X116787734Y-151484686D01*
X116762172Y-151483339D01*
X116759939Y-151482991D01*
X116759935Y-151482991D01*
X116751066Y-151481610D01*
X116719436Y-151485747D01*
X116703150Y-151486810D01*
X100049265Y-151491984D01*
X100029842Y-151490484D01*
X100015143Y-151488195D01*
X100015140Y-151488195D01*
X100006270Y-151486814D01*
X99986946Y-151489341D01*
X99964430Y-151490253D01*
X99639396Y-151474284D01*
X99627102Y-151473073D01*
X99276096Y-151421007D01*
X99263974Y-151418597D01*
X99162218Y-151393108D01*
X98919761Y-151332375D01*
X98907929Y-151328786D01*
X98573826Y-151209242D01*
X98562402Y-151204510D01*
X98367684Y-151112416D01*
X98241623Y-151052794D01*
X98230722Y-151046967D01*
X98227351Y-151044946D01*
X97926362Y-150864540D01*
X97916081Y-150857670D01*
X97631072Y-150646292D01*
X97621514Y-150638448D01*
X97358593Y-150400151D01*
X97349849Y-150391407D01*
X97111552Y-150128486D01*
X97103708Y-150118928D01*
X96892330Y-149833919D01*
X96885460Y-149823638D01*
X96703033Y-149519278D01*
X96697204Y-149508373D01*
X96545490Y-149187598D01*
X96540758Y-149176174D01*
X96421214Y-148842071D01*
X96417625Y-148830239D01*
X96331404Y-148486029D01*
X96328992Y-148473901D01*
X96276927Y-148122903D01*
X96275715Y-148110597D01*
X96275460Y-148105394D01*
X96270995Y-148014524D01*
X96260110Y-147792938D01*
X96261457Y-147767376D01*
X96261805Y-147765143D01*
X96261805Y-147765139D01*
X96263186Y-147756270D01*
X96260727Y-147737461D01*
X96259064Y-147724749D01*
X96258000Y-147708411D01*
X96258000Y-120274669D01*
X144687001Y-120274669D01*
X144687371Y-120281490D01*
X144692895Y-120332352D01*
X144696521Y-120347604D01*
X144741676Y-120468054D01*
X144750214Y-120483649D01*
X144826715Y-120585724D01*
X144839276Y-120598285D01*
X144941351Y-120674786D01*
X144956946Y-120683324D01*
X145077394Y-120728478D01*
X145092649Y-120732105D01*
X145143514Y-120737631D01*
X145150328Y-120738000D01*
X145772885Y-120738000D01*
X145788124Y-120733525D01*
X145789329Y-120732135D01*
X145791000Y-120724452D01*
X145791000Y-119652115D01*
X145786525Y-119636876D01*
X145785135Y-119635671D01*
X145777452Y-119634000D01*
X144705116Y-119634000D01*
X144689877Y-119638475D01*
X144688672Y-119639865D01*
X144687001Y-119647548D01*
X144687001Y-120274669D01*
X96258000Y-120274669D01*
X96258000Y-119107885D01*
X144687000Y-119107885D01*
X144691475Y-119123124D01*
X144692865Y-119124329D01*
X144700548Y-119126000D01*
X145772885Y-119126000D01*
X145788124Y-119121525D01*
X145789329Y-119120135D01*
X145791000Y-119112452D01*
X145791000Y-118040116D01*
X145786525Y-118024877D01*
X145785135Y-118023672D01*
X145777452Y-118022001D01*
X145150331Y-118022001D01*
X145143510Y-118022371D01*
X145092648Y-118027895D01*
X145077396Y-118031521D01*
X144956946Y-118076676D01*
X144941351Y-118085214D01*
X144839276Y-118161715D01*
X144826715Y-118174276D01*
X144750214Y-118276351D01*
X144741676Y-118291946D01*
X144696522Y-118412394D01*
X144692895Y-118427649D01*
X144687369Y-118478514D01*
X144687000Y-118485328D01*
X144687000Y-119107885D01*
X96258000Y-119107885D01*
X96258000Y-110667500D01*
X116123393Y-110667500D01*
X116143789Y-110926650D01*
X116204473Y-111179420D01*
X116303952Y-111419584D01*
X116439777Y-111641229D01*
X116608602Y-111838898D01*
X116806271Y-112007723D01*
X117027916Y-112143548D01*
X117032486Y-112145441D01*
X117032488Y-112145442D01*
X117263507Y-112241133D01*
X117268080Y-112243027D01*
X117354543Y-112263785D01*
X117516037Y-112302556D01*
X117516043Y-112302557D01*
X117520850Y-112303711D01*
X117780000Y-112324107D01*
X118039150Y-112303711D01*
X118043957Y-112302557D01*
X118043963Y-112302556D01*
X118205457Y-112263785D01*
X118291920Y-112243027D01*
X118296493Y-112241133D01*
X118527512Y-112145442D01*
X118527514Y-112145441D01*
X118532084Y-112143548D01*
X118753729Y-112007723D01*
X118951398Y-111838898D01*
X119120223Y-111641229D01*
X119256048Y-111419584D01*
X119355527Y-111179420D01*
X119416211Y-110926650D01*
X119436607Y-110667500D01*
X119416211Y-110408350D01*
X119355527Y-110155580D01*
X119256048Y-109915416D01*
X119120223Y-109693771D01*
X119102767Y-109673332D01*
X118954611Y-109499864D01*
X118951398Y-109496102D01*
X118801188Y-109367811D01*
X118757497Y-109330495D01*
X118757496Y-109330494D01*
X118753729Y-109327277D01*
X118532084Y-109191452D01*
X118527514Y-109189559D01*
X118527512Y-109189558D01*
X118296493Y-109093867D01*
X118296491Y-109093866D01*
X118291920Y-109091973D01*
X118192377Y-109068075D01*
X118043963Y-109032444D01*
X118043957Y-109032443D01*
X118039150Y-109031289D01*
X117780000Y-109010893D01*
X117520850Y-109031289D01*
X117516043Y-109032443D01*
X117516037Y-109032444D01*
X117367623Y-109068075D01*
X117268080Y-109091973D01*
X117263509Y-109093866D01*
X117263507Y-109093867D01*
X117032488Y-109189558D01*
X117032486Y-109189559D01*
X117027916Y-109191452D01*
X116806271Y-109327277D01*
X116802504Y-109330494D01*
X116802503Y-109330495D01*
X116758812Y-109367811D01*
X116608602Y-109496102D01*
X116605389Y-109499864D01*
X116457234Y-109673332D01*
X116439777Y-109693771D01*
X116303952Y-109915416D01*
X116204473Y-110155580D01*
X116143789Y-110408350D01*
X116123393Y-110667500D01*
X96258000Y-110667500D01*
X96258000Y-90475339D01*
X96876091Y-90475339D01*
X96911747Y-90708349D01*
X96984980Y-90932407D01*
X97093825Y-91141496D01*
X97096928Y-91145629D01*
X97096930Y-91145632D01*
X97216587Y-91305000D01*
X97235358Y-91330000D01*
X97405777Y-91492857D01*
X97600508Y-91625693D01*
X97605192Y-91627867D01*
X97605195Y-91627869D01*
X97809628Y-91722764D01*
X97809633Y-91722766D01*
X97814319Y-91724941D01*
X98041468Y-91787935D01*
X98046605Y-91788484D01*
X98230563Y-91808144D01*
X98230571Y-91808144D01*
X98233898Y-91808500D01*
X99568757Y-91808500D01*
X99571330Y-91808288D01*
X99571341Y-91808288D01*
X99738779Y-91794522D01*
X99738785Y-91794521D01*
X99743930Y-91794098D01*
X99972551Y-91736673D01*
X100188723Y-91642678D01*
X100386641Y-91514640D01*
X100410581Y-91492857D01*
X100557167Y-91359473D01*
X100557168Y-91359471D01*
X100560989Y-91355995D01*
X100564188Y-91351944D01*
X100564192Y-91351940D01*
X100703883Y-91175061D01*
X100703885Y-91175057D01*
X100707085Y-91171006D01*
X100723383Y-91141483D01*
X100783679Y-91032255D01*
X100821005Y-90964639D01*
X100828256Y-90944165D01*
X100897965Y-90747311D01*
X100897966Y-90747307D01*
X100899691Y-90742436D01*
X100903590Y-90720548D01*
X100940123Y-90515456D01*
X100940124Y-90515450D01*
X100941029Y-90510367D01*
X100943909Y-90274661D01*
X100908253Y-90041651D01*
X100841486Y-89837375D01*
X108923260Y-89837375D01*
X108924006Y-89845267D01*
X108927421Y-89881393D01*
X108927980Y-89893251D01*
X108927980Y-95702713D01*
X108927453Y-95713896D01*
X108925778Y-95721389D01*
X108926027Y-95729315D01*
X108926027Y-95729316D01*
X108927918Y-95789466D01*
X108927980Y-95793425D01*
X108927980Y-95821336D01*
X108928477Y-95825270D01*
X108928477Y-95825271D01*
X108928485Y-95825336D01*
X108929418Y-95837173D01*
X108930807Y-95881369D01*
X108936458Y-95900819D01*
X108940467Y-95920180D01*
X108943006Y-95940277D01*
X108945925Y-95947648D01*
X108945925Y-95947650D01*
X108959284Y-95981392D01*
X108963129Y-95992622D01*
X108975462Y-96035073D01*
X108979495Y-96041892D01*
X108979497Y-96041897D01*
X108985773Y-96052508D01*
X108994468Y-96070256D01*
X109001928Y-96089097D01*
X109006590Y-96095513D01*
X109006590Y-96095514D01*
X109027916Y-96124867D01*
X109034432Y-96134787D01*
X109052220Y-96164864D01*
X109056938Y-96172842D01*
X109071259Y-96187163D01*
X109084099Y-96202196D01*
X109096008Y-96218587D01*
X109102114Y-96223638D01*
X109130085Y-96246778D01*
X109138864Y-96254768D01*
X113858091Y-100973995D01*
X113892117Y-101036307D01*
X113890413Y-101096761D01*
X113862548Y-101197237D01*
X113862000Y-101202367D01*
X113861999Y-101202371D01*
X113854828Y-101269479D01*
X113838129Y-101425739D01*
X113851357Y-101655161D01*
X113901878Y-101879342D01*
X113988336Y-102092261D01*
X113991033Y-102096662D01*
X113991034Y-102096664D01*
X114103015Y-102279400D01*
X114108408Y-102288200D01*
X114258869Y-102461898D01*
X114262844Y-102465198D01*
X114262847Y-102465201D01*
X114296988Y-102493545D01*
X114435679Y-102608689D01*
X114440143Y-102611297D01*
X114440145Y-102611299D01*
X114457352Y-102621354D01*
X114506075Y-102672994D01*
X114519145Y-102742777D01*
X114492412Y-102808548D01*
X114469433Y-102830901D01*
X114315523Y-102946460D01*
X114308983Y-102951370D01*
X114150216Y-103117510D01*
X114147302Y-103121782D01*
X114147301Y-103121783D01*
X114125356Y-103153953D01*
X114020716Y-103307350D01*
X114018537Y-103312045D01*
X113930706Y-103501262D01*
X113923961Y-103515792D01*
X113862548Y-103737237D01*
X113838129Y-103965739D01*
X113838426Y-103970892D01*
X113838426Y-103970895D01*
X113839263Y-103985405D01*
X113851357Y-104195161D01*
X113852492Y-104200198D01*
X113852493Y-104200204D01*
X113895977Y-104393158D01*
X113901878Y-104419342D01*
X113988336Y-104632261D01*
X113991033Y-104636662D01*
X113991034Y-104636664D01*
X114005573Y-104660389D01*
X114108408Y-104828200D01*
X114258869Y-105001898D01*
X114262844Y-105005198D01*
X114262847Y-105005201D01*
X114303421Y-105038886D01*
X114435679Y-105148689D01*
X114440143Y-105151297D01*
X114440145Y-105151299D01*
X114457352Y-105161354D01*
X114506075Y-105212994D01*
X114519145Y-105282777D01*
X114492412Y-105348548D01*
X114469433Y-105370901D01*
X114339530Y-105468435D01*
X114308983Y-105491370D01*
X114150216Y-105657510D01*
X114147302Y-105661782D01*
X114147301Y-105661783D01*
X114102333Y-105727704D01*
X114020716Y-105847350D01*
X114002544Y-105886498D01*
X113928698Y-106045588D01*
X113923961Y-106055792D01*
X113862548Y-106277237D01*
X113861999Y-106282371D01*
X113861999Y-106282373D01*
X113859929Y-106301747D01*
X113838129Y-106505739D01*
X113851357Y-106735161D01*
X113852492Y-106740198D01*
X113852493Y-106740204D01*
X113864385Y-106792971D01*
X113901878Y-106959342D01*
X113988336Y-107172261D01*
X113991033Y-107176662D01*
X113991034Y-107176664D01*
X114081915Y-107324968D01*
X114108408Y-107368200D01*
X114258869Y-107541898D01*
X114262844Y-107545198D01*
X114262847Y-107545201D01*
X114315960Y-107589296D01*
X114435679Y-107688689D01*
X114634090Y-107804631D01*
X114638910Y-107806471D01*
X114638915Y-107806474D01*
X114745296Y-107847096D01*
X114848774Y-107886610D01*
X114853842Y-107887641D01*
X114853845Y-107887642D01*
X114903611Y-107897767D01*
X115073963Y-107932426D01*
X115079136Y-107932616D01*
X115079139Y-107932616D01*
X115298448Y-107940657D01*
X115298452Y-107940657D01*
X115303612Y-107940846D01*
X115308732Y-107940190D01*
X115308734Y-107940190D01*
X115526425Y-107912304D01*
X115526428Y-107912303D01*
X115531552Y-107911647D01*
X115606275Y-107889229D01*
X115746710Y-107847096D01*
X115751663Y-107845610D01*
X115958033Y-107744511D01*
X116037890Y-107687550D01*
X116140916Y-107614062D01*
X116145119Y-107611064D01*
X116151571Y-107604635D01*
X116282177Y-107474483D01*
X116307898Y-107448852D01*
X116441997Y-107262233D01*
X116543816Y-107056217D01*
X116559739Y-107003808D01*
X116609117Y-106841291D01*
X116609118Y-106841285D01*
X116610621Y-106836339D01*
X116626544Y-106715389D01*
X116640179Y-106611823D01*
X116640179Y-106611819D01*
X116640616Y-106608502D01*
X116642290Y-106540000D01*
X116632804Y-106424623D01*
X116623884Y-106316121D01*
X116623883Y-106316115D01*
X116623460Y-106310970D01*
X116567477Y-106088090D01*
X116475843Y-105877347D01*
X116460693Y-105853928D01*
X116353830Y-105688743D01*
X116353828Y-105688740D01*
X116351020Y-105684400D01*
X116304000Y-105632725D01*
X116199837Y-105518252D01*
X116199835Y-105518251D01*
X116196359Y-105514430D01*
X116192308Y-105511231D01*
X116192304Y-105511227D01*
X116020069Y-105375204D01*
X116020064Y-105375201D01*
X116016015Y-105372003D01*
X116015590Y-105371768D01*
X115970796Y-105318452D01*
X115961766Y-105248032D01*
X115992240Y-105183908D01*
X116013026Y-105165285D01*
X116140916Y-105074062D01*
X116145119Y-105071064D01*
X116168764Y-105047502D01*
X116304237Y-104912500D01*
X116307898Y-104908852D01*
X116441997Y-104722233D01*
X116479169Y-104647022D01*
X116541522Y-104520858D01*
X116543816Y-104516217D01*
X116569707Y-104431000D01*
X116609117Y-104301291D01*
X116609118Y-104301285D01*
X116610621Y-104296339D01*
X116632788Y-104127965D01*
X116640179Y-104071823D01*
X116640179Y-104071819D01*
X116640616Y-104068502D01*
X116640876Y-104057855D01*
X116662534Y-103990244D01*
X116717309Y-103945075D01*
X116787809Y-103936689D01*
X116855933Y-103971837D01*
X122189595Y-109305499D01*
X122223621Y-109367811D01*
X122226500Y-109394594D01*
X122226500Y-112837721D01*
X122206498Y-112905842D01*
X122158680Y-112949484D01*
X122112753Y-112973392D01*
X122108620Y-112976495D01*
X122108617Y-112976497D01*
X121933118Y-113108265D01*
X121928983Y-113111370D01*
X121894116Y-113147856D01*
X121812561Y-113233199D01*
X121770216Y-113277510D01*
X121767307Y-113281775D01*
X121767301Y-113281783D01*
X121714855Y-113358666D01*
X121640716Y-113467350D01*
X121543961Y-113675792D01*
X121482548Y-113897237D01*
X121458129Y-114125739D01*
X121471357Y-114355161D01*
X121521878Y-114579342D01*
X121608336Y-114792261D01*
X121728408Y-114988200D01*
X121878869Y-115161898D01*
X122055679Y-115308689D01*
X122254090Y-115424631D01*
X122258910Y-115426471D01*
X122258915Y-115426474D01*
X122365296Y-115467096D01*
X122468774Y-115506610D01*
X122473842Y-115507641D01*
X122473845Y-115507642D01*
X122584534Y-115530162D01*
X122693963Y-115552426D01*
X122699136Y-115552616D01*
X122699139Y-115552616D01*
X122918448Y-115560657D01*
X122918452Y-115560657D01*
X122923612Y-115560846D01*
X122928732Y-115560190D01*
X122928734Y-115560190D01*
X123146425Y-115532304D01*
X123146428Y-115532303D01*
X123151552Y-115531647D01*
X123371663Y-115465610D01*
X123578033Y-115364511D01*
X123765119Y-115231064D01*
X123927898Y-115068852D01*
X123930914Y-115064655D01*
X123930921Y-115064647D01*
X124027689Y-114929980D01*
X124083683Y-114886332D01*
X124154387Y-114879886D01*
X124217351Y-114912689D01*
X124237444Y-114937672D01*
X124265707Y-114983794D01*
X124265711Y-114983799D01*
X124268408Y-114988200D01*
X124418869Y-115161898D01*
X124595679Y-115308689D01*
X124794090Y-115424631D01*
X124798910Y-115426471D01*
X124798915Y-115426474D01*
X124905296Y-115467096D01*
X125008774Y-115506610D01*
X125013842Y-115507641D01*
X125013845Y-115507642D01*
X125124534Y-115530162D01*
X125233963Y-115552426D01*
X125239136Y-115552616D01*
X125239139Y-115552616D01*
X125458448Y-115560657D01*
X125458452Y-115560657D01*
X125463612Y-115560846D01*
X125468732Y-115560190D01*
X125468734Y-115560190D01*
X125686425Y-115532304D01*
X125686428Y-115532303D01*
X125691552Y-115531647D01*
X125911663Y-115465610D01*
X126118033Y-115364511D01*
X126305119Y-115231064D01*
X126467898Y-115068852D01*
X126470914Y-115064655D01*
X126470921Y-115064647D01*
X126567689Y-114929980D01*
X126623683Y-114886332D01*
X126694387Y-114879886D01*
X126757351Y-114912689D01*
X126777444Y-114937672D01*
X126805707Y-114983794D01*
X126805711Y-114983799D01*
X126808408Y-114988200D01*
X126958869Y-115161898D01*
X127135679Y-115308689D01*
X127334090Y-115424631D01*
X127338910Y-115426471D01*
X127338915Y-115426474D01*
X127445296Y-115467096D01*
X127548774Y-115506610D01*
X127553842Y-115507641D01*
X127553845Y-115507642D01*
X127664534Y-115530162D01*
X127773963Y-115552426D01*
X127779136Y-115552616D01*
X127779139Y-115552616D01*
X127998448Y-115560657D01*
X127998452Y-115560657D01*
X128003612Y-115560846D01*
X128008732Y-115560190D01*
X128008734Y-115560190D01*
X128226425Y-115532304D01*
X128226428Y-115532303D01*
X128231552Y-115531647D01*
X128451663Y-115465610D01*
X128658033Y-115364511D01*
X128845119Y-115231064D01*
X129007898Y-115068852D01*
X129141997Y-114882233D01*
X129243816Y-114676217D01*
X129259739Y-114623808D01*
X129309117Y-114461291D01*
X129309118Y-114461285D01*
X129310621Y-114456339D01*
X129340616Y-114228502D01*
X129342290Y-114160000D01*
X129336058Y-114084194D01*
X129323884Y-113936121D01*
X129323883Y-113936115D01*
X129323460Y-113930970D01*
X129267477Y-113708090D01*
X129175843Y-113497347D01*
X129172642Y-113492399D01*
X129053830Y-113308743D01*
X129053828Y-113308740D01*
X129051020Y-113304400D01*
X129038553Y-113290698D01*
X128899837Y-113138252D01*
X128899835Y-113138251D01*
X128896359Y-113134430D01*
X128892308Y-113131231D01*
X128892304Y-113131227D01*
X128720073Y-112995208D01*
X128716015Y-112992003D01*
X128514831Y-112880943D01*
X128392776Y-112837721D01*
X128303084Y-112805959D01*
X128303080Y-112805958D01*
X128298209Y-112804233D01*
X128293116Y-112803326D01*
X128293113Y-112803325D01*
X128077056Y-112764839D01*
X128077050Y-112764838D01*
X128071967Y-112763933D01*
X127998784Y-112763039D01*
X127847351Y-112761189D01*
X127847349Y-112761189D01*
X127842181Y-112761126D01*
X127690610Y-112784319D01*
X127620131Y-112795104D01*
X127620128Y-112795105D01*
X127615022Y-112795886D01*
X127610110Y-112797491D01*
X127610112Y-112797491D01*
X127401504Y-112865675D01*
X127401502Y-112865676D01*
X127396591Y-112867281D01*
X127192753Y-112973392D01*
X127188620Y-112976495D01*
X127188617Y-112976497D01*
X127013118Y-113108265D01*
X127008983Y-113111370D01*
X126974116Y-113147856D01*
X126892561Y-113233199D01*
X126850216Y-113277510D01*
X126774063Y-113389147D01*
X126719154Y-113434147D01*
X126648630Y-113442318D01*
X126584882Y-113411064D01*
X126564185Y-113386580D01*
X126513830Y-113308743D01*
X126513828Y-113308740D01*
X126511020Y-113304400D01*
X126498553Y-113290698D01*
X126359837Y-113138252D01*
X126359835Y-113138251D01*
X126356359Y-113134430D01*
X126352308Y-113131231D01*
X126352304Y-113131227D01*
X126180073Y-112995208D01*
X126176015Y-112992003D01*
X125974831Y-112880943D01*
X125852776Y-112837721D01*
X125763084Y-112805959D01*
X125763080Y-112805958D01*
X125758209Y-112804233D01*
X125753116Y-112803326D01*
X125753113Y-112803325D01*
X125537056Y-112764839D01*
X125537050Y-112764838D01*
X125531967Y-112763933D01*
X125458784Y-112763039D01*
X125307351Y-112761189D01*
X125307349Y-112761189D01*
X125302181Y-112761126D01*
X125150610Y-112784319D01*
X125080131Y-112795104D01*
X125080128Y-112795105D01*
X125075022Y-112795886D01*
X125070110Y-112797491D01*
X125070112Y-112797491D01*
X124861504Y-112865675D01*
X124861502Y-112865676D01*
X124856591Y-112867281D01*
X124652753Y-112973392D01*
X124648620Y-112976495D01*
X124648617Y-112976497D01*
X124473118Y-113108265D01*
X124468983Y-113111370D01*
X124434116Y-113147856D01*
X124352561Y-113233199D01*
X124310216Y-113277510D01*
X124234063Y-113389147D01*
X124179154Y-113434147D01*
X124108630Y-113442318D01*
X124044882Y-113411064D01*
X124024185Y-113386580D01*
X123973830Y-113308743D01*
X123973828Y-113308740D01*
X123971020Y-113304400D01*
X123958553Y-113290698D01*
X123819837Y-113138252D01*
X123819835Y-113138251D01*
X123816359Y-113134430D01*
X123812308Y-113131231D01*
X123812304Y-113131227D01*
X123640073Y-112995208D01*
X123636015Y-112992003D01*
X123558603Y-112949269D01*
X123508636Y-112898839D01*
X123493500Y-112838963D01*
X123493500Y-110667500D01*
X131363393Y-110667500D01*
X131383789Y-110926650D01*
X131444473Y-111179420D01*
X131543952Y-111419584D01*
X131679777Y-111641229D01*
X131848602Y-111838898D01*
X132046271Y-112007723D01*
X132267916Y-112143548D01*
X132272486Y-112145441D01*
X132272488Y-112145442D01*
X132503507Y-112241133D01*
X132508080Y-112243027D01*
X132594543Y-112263785D01*
X132756037Y-112302556D01*
X132756043Y-112302557D01*
X132760850Y-112303711D01*
X133020000Y-112324107D01*
X133279150Y-112303711D01*
X133283957Y-112302557D01*
X133283963Y-112302556D01*
X133445457Y-112263785D01*
X133531920Y-112243027D01*
X133536493Y-112241133D01*
X133767512Y-112145442D01*
X133767514Y-112145441D01*
X133772084Y-112143548D01*
X133993729Y-112007723D01*
X134191398Y-111838898D01*
X134360223Y-111641229D01*
X134496048Y-111419584D01*
X134595527Y-111179420D01*
X134656211Y-110926650D01*
X134676607Y-110667500D01*
X134656211Y-110408350D01*
X134595527Y-110155580D01*
X134496048Y-109915416D01*
X134360223Y-109693771D01*
X134342767Y-109673332D01*
X134194611Y-109499864D01*
X134191398Y-109496102D01*
X134041188Y-109367811D01*
X133997497Y-109330495D01*
X133997496Y-109330494D01*
X133993729Y-109327277D01*
X133772084Y-109191452D01*
X133767514Y-109189559D01*
X133767512Y-109189558D01*
X133536493Y-109093867D01*
X133536491Y-109093866D01*
X133531920Y-109091973D01*
X133432377Y-109068075D01*
X133283963Y-109032444D01*
X133283957Y-109032443D01*
X133279150Y-109031289D01*
X133020000Y-109010893D01*
X132760850Y-109031289D01*
X132756043Y-109032443D01*
X132756037Y-109032444D01*
X132607623Y-109068075D01*
X132508080Y-109091973D01*
X132503509Y-109093866D01*
X132503507Y-109093867D01*
X132272488Y-109189558D01*
X132272486Y-109189559D01*
X132267916Y-109191452D01*
X132046271Y-109327277D01*
X132042504Y-109330494D01*
X132042503Y-109330495D01*
X131998812Y-109367811D01*
X131848602Y-109496102D01*
X131845389Y-109499864D01*
X131697234Y-109673332D01*
X131679777Y-109693771D01*
X131543952Y-109915416D01*
X131444473Y-110155580D01*
X131383789Y-110408350D01*
X131363393Y-110667500D01*
X123493500Y-110667500D01*
X123493500Y-109158763D01*
X123494027Y-109147579D01*
X123495701Y-109140091D01*
X123493562Y-109072032D01*
X123493500Y-109068075D01*
X123493500Y-109040144D01*
X123492994Y-109036138D01*
X123492061Y-109024292D01*
X123490922Y-108988037D01*
X123490673Y-108980110D01*
X123485022Y-108960658D01*
X123481014Y-108941306D01*
X123479467Y-108929063D01*
X123478474Y-108921203D01*
X123475556Y-108913832D01*
X123462200Y-108880097D01*
X123458355Y-108868870D01*
X123457721Y-108866687D01*
X123446018Y-108826407D01*
X123441984Y-108819585D01*
X123441981Y-108819579D01*
X123435706Y-108808968D01*
X123427010Y-108791218D01*
X123422472Y-108779756D01*
X123422469Y-108779751D01*
X123419552Y-108772383D01*
X123393573Y-108736625D01*
X123387057Y-108726707D01*
X123368575Y-108695457D01*
X123364542Y-108688637D01*
X123350218Y-108674313D01*
X123337376Y-108659278D01*
X123325472Y-108642893D01*
X123291406Y-108614711D01*
X123282627Y-108606722D01*
X116622483Y-101946578D01*
X116588457Y-101884266D01*
X116591019Y-101820855D01*
X116606347Y-101770405D01*
X116610621Y-101756339D01*
X116640616Y-101528502D01*
X116642290Y-101460000D01*
X116631972Y-101334500D01*
X116623884Y-101236121D01*
X116623883Y-101236115D01*
X116623460Y-101230970D01*
X116567477Y-101008090D01*
X116475843Y-100797347D01*
X116473037Y-100793009D01*
X116353830Y-100608743D01*
X116353828Y-100608740D01*
X116351020Y-100604400D01*
X116291966Y-100539500D01*
X116199837Y-100438252D01*
X116199835Y-100438251D01*
X116196359Y-100434430D01*
X116192308Y-100431231D01*
X116192304Y-100431227D01*
X116020073Y-100295208D01*
X116016015Y-100292003D01*
X115814831Y-100180943D01*
X115674274Y-100131169D01*
X115603084Y-100105959D01*
X115603080Y-100105958D01*
X115598209Y-100104233D01*
X115593116Y-100103326D01*
X115593113Y-100103325D01*
X115377056Y-100064839D01*
X115377050Y-100064838D01*
X115371967Y-100063933D01*
X115298784Y-100063039D01*
X115147351Y-100061189D01*
X115147349Y-100061189D01*
X115142181Y-100061126D01*
X114915022Y-100095886D01*
X114880609Y-100107134D01*
X114809646Y-100109285D01*
X114752369Y-100076464D01*
X112008405Y-97332500D01*
X116123393Y-97332500D01*
X116143789Y-97591650D01*
X116144943Y-97596457D01*
X116144944Y-97596463D01*
X116181844Y-97750162D01*
X116204473Y-97844420D01*
X116206366Y-97848991D01*
X116206367Y-97848993D01*
X116255065Y-97966559D01*
X116303952Y-98084584D01*
X116439777Y-98306229D01*
X116608602Y-98503898D01*
X116806271Y-98672723D01*
X117027916Y-98808548D01*
X117032486Y-98810441D01*
X117032488Y-98810442D01*
X117263507Y-98906133D01*
X117268080Y-98908027D01*
X117354543Y-98928785D01*
X117516037Y-98967556D01*
X117516043Y-98967557D01*
X117520850Y-98968711D01*
X117780000Y-98989107D01*
X118039150Y-98968711D01*
X118043957Y-98967557D01*
X118043963Y-98967556D01*
X118205457Y-98928785D01*
X118291920Y-98908027D01*
X118296493Y-98906133D01*
X118527512Y-98810442D01*
X118527514Y-98810441D01*
X118532084Y-98808548D01*
X118753729Y-98672723D01*
X118951398Y-98503898D01*
X119120223Y-98306229D01*
X119256048Y-98084584D01*
X119272949Y-98043781D01*
X119317498Y-97988501D01*
X119389358Y-97966000D01*
X121193733Y-97966000D01*
X121204916Y-97966527D01*
X121212409Y-97968202D01*
X121220335Y-97967953D01*
X121220336Y-97967953D01*
X121280486Y-97966062D01*
X121284445Y-97966000D01*
X121312356Y-97966000D01*
X121316291Y-97965503D01*
X121316356Y-97965495D01*
X121328193Y-97964562D01*
X121360451Y-97963548D01*
X121364470Y-97963422D01*
X121372389Y-97963173D01*
X121391843Y-97957521D01*
X121411200Y-97953513D01*
X121423430Y-97951968D01*
X121423431Y-97951968D01*
X121431297Y-97950974D01*
X121438668Y-97948055D01*
X121438670Y-97948055D01*
X121472412Y-97934696D01*
X121483642Y-97930851D01*
X121518483Y-97920729D01*
X121518484Y-97920729D01*
X121526093Y-97918518D01*
X121532912Y-97914485D01*
X121532917Y-97914483D01*
X121543528Y-97908207D01*
X121561276Y-97899512D01*
X121580117Y-97892052D01*
X121615887Y-97866064D01*
X121625807Y-97859548D01*
X121657035Y-97841080D01*
X121657038Y-97841078D01*
X121663862Y-97837042D01*
X121678183Y-97822721D01*
X121693217Y-97809880D01*
X121703194Y-97802631D01*
X121709607Y-97797972D01*
X121729862Y-97773488D01*
X121788695Y-97733749D01*
X121852068Y-97730332D01*
X122058963Y-97772426D01*
X122064136Y-97772616D01*
X122064139Y-97772616D01*
X122283448Y-97780657D01*
X122283452Y-97780657D01*
X122288612Y-97780846D01*
X122293732Y-97780190D01*
X122293734Y-97780190D01*
X122511425Y-97752304D01*
X122511428Y-97752303D01*
X122516552Y-97751647D01*
X122736663Y-97685610D01*
X122943033Y-97584511D01*
X123130119Y-97451064D01*
X123292898Y-97288852D01*
X123426997Y-97102233D01*
X123528816Y-96896217D01*
X123553186Y-96816007D01*
X123594117Y-96681291D01*
X123594118Y-96681285D01*
X123595621Y-96676339D01*
X123625616Y-96448502D01*
X123627290Y-96380000D01*
X123624473Y-96345739D01*
X127173129Y-96345739D01*
X127186357Y-96575161D01*
X127187492Y-96580198D01*
X127187493Y-96580204D01*
X127210274Y-96681291D01*
X127236878Y-96799342D01*
X127323336Y-97012261D01*
X127326033Y-97016662D01*
X127326034Y-97016664D01*
X127363795Y-97078284D01*
X127443408Y-97208200D01*
X127593869Y-97381898D01*
X127770679Y-97528689D01*
X127969090Y-97644631D01*
X127973910Y-97646471D01*
X127973915Y-97646474D01*
X128080296Y-97687096D01*
X128183774Y-97726610D01*
X128188842Y-97727641D01*
X128188845Y-97727642D01*
X128299534Y-97750162D01*
X128408963Y-97772426D01*
X128414136Y-97772616D01*
X128414139Y-97772616D01*
X128633448Y-97780657D01*
X128633452Y-97780657D01*
X128638612Y-97780846D01*
X128643732Y-97780190D01*
X128643734Y-97780190D01*
X128861425Y-97752304D01*
X128861428Y-97752303D01*
X128866552Y-97751647D01*
X129086663Y-97685610D01*
X129293033Y-97584511D01*
X129480119Y-97451064D01*
X129599097Y-97332500D01*
X131363393Y-97332500D01*
X131383789Y-97591650D01*
X131384943Y-97596457D01*
X131384944Y-97596463D01*
X131421844Y-97750162D01*
X131444473Y-97844420D01*
X131446366Y-97848991D01*
X131446367Y-97848993D01*
X131495065Y-97966559D01*
X131543952Y-98084584D01*
X131679777Y-98306229D01*
X131848602Y-98503898D01*
X132046271Y-98672723D01*
X132267916Y-98808548D01*
X132272486Y-98810441D01*
X132272488Y-98810442D01*
X132503507Y-98906133D01*
X132508080Y-98908027D01*
X132594543Y-98928785D01*
X132756037Y-98967556D01*
X132756043Y-98967557D01*
X132760850Y-98968711D01*
X133020000Y-98989107D01*
X133279150Y-98968711D01*
X133283957Y-98967557D01*
X133283963Y-98967556D01*
X133445457Y-98928785D01*
X133531920Y-98908027D01*
X133536493Y-98906133D01*
X133767512Y-98810442D01*
X133767514Y-98810441D01*
X133772084Y-98808548D01*
X133993729Y-98672723D01*
X134191398Y-98503898D01*
X134360223Y-98306229D01*
X134496048Y-98084584D01*
X134544936Y-97966559D01*
X134593633Y-97848993D01*
X134593634Y-97848991D01*
X134595527Y-97844420D01*
X134618156Y-97750162D01*
X134655056Y-97596463D01*
X134655057Y-97596457D01*
X134656211Y-97591650D01*
X134676607Y-97332500D01*
X134656211Y-97073350D01*
X134595527Y-96820580D01*
X134533656Y-96671210D01*
X134497942Y-96584988D01*
X134497940Y-96584984D01*
X134496048Y-96580416D01*
X134360223Y-96358771D01*
X134191398Y-96161102D01*
X134107091Y-96089097D01*
X133997497Y-95995495D01*
X133997496Y-95995494D01*
X133993729Y-95992277D01*
X133772084Y-95856452D01*
X133767514Y-95854559D01*
X133767512Y-95854558D01*
X133536493Y-95758867D01*
X133536491Y-95758866D01*
X133531920Y-95756973D01*
X133386583Y-95722081D01*
X133283963Y-95697444D01*
X133283957Y-95697443D01*
X133279150Y-95696289D01*
X133020000Y-95675893D01*
X132760850Y-95696289D01*
X132756043Y-95697443D01*
X132756037Y-95697444D01*
X132653417Y-95722081D01*
X132508080Y-95756973D01*
X132503509Y-95758866D01*
X132503507Y-95758867D01*
X132272488Y-95854558D01*
X132272486Y-95854559D01*
X132267916Y-95856452D01*
X132046271Y-95992277D01*
X132042504Y-95995494D01*
X132042503Y-95995495D01*
X131932909Y-96089097D01*
X131848602Y-96161102D01*
X131679777Y-96358771D01*
X131543952Y-96580416D01*
X131542060Y-96584984D01*
X131542058Y-96584988D01*
X131506344Y-96671210D01*
X131444473Y-96820580D01*
X131383789Y-97073350D01*
X131363393Y-97332500D01*
X129599097Y-97332500D01*
X129642898Y-97288852D01*
X129776997Y-97102233D01*
X129878816Y-96896217D01*
X129903186Y-96816007D01*
X129944117Y-96681291D01*
X129944118Y-96681285D01*
X129945621Y-96676339D01*
X129975616Y-96448502D01*
X129977290Y-96380000D01*
X129966337Y-96246778D01*
X129958884Y-96156121D01*
X129958883Y-96156115D01*
X129958460Y-96150970D01*
X129902477Y-95928090D01*
X129810843Y-95717347D01*
X129801376Y-95702713D01*
X129688830Y-95528743D01*
X129688828Y-95528740D01*
X129686020Y-95524400D01*
X129633686Y-95466885D01*
X129534837Y-95358252D01*
X129534835Y-95358251D01*
X129531359Y-95354430D01*
X129527308Y-95351231D01*
X129527304Y-95351227D01*
X129355073Y-95215208D01*
X129351015Y-95212003D01*
X129149831Y-95100943D01*
X129032611Y-95059433D01*
X128938084Y-95025959D01*
X128938080Y-95025958D01*
X128933209Y-95024233D01*
X128928116Y-95023326D01*
X128928113Y-95023325D01*
X128712056Y-94984839D01*
X128712050Y-94984838D01*
X128706967Y-94983933D01*
X128633784Y-94983039D01*
X128482351Y-94981189D01*
X128482349Y-94981189D01*
X128477181Y-94981126D01*
X128325610Y-95004319D01*
X128255131Y-95015104D01*
X128255128Y-95015105D01*
X128250022Y-95015886D01*
X128224485Y-95024233D01*
X128036504Y-95085675D01*
X128036502Y-95085676D01*
X128031591Y-95087281D01*
X127827753Y-95193392D01*
X127823620Y-95196495D01*
X127823617Y-95196497D01*
X127648118Y-95328265D01*
X127643983Y-95331370D01*
X127485216Y-95497510D01*
X127355716Y-95687350D01*
X127323398Y-95756973D01*
X127269332Y-95873450D01*
X127258961Y-95895792D01*
X127197548Y-96117237D01*
X127196999Y-96122371D01*
X127196999Y-96122373D01*
X127194479Y-96145959D01*
X127173129Y-96345739D01*
X123624473Y-96345739D01*
X123616337Y-96246778D01*
X123608884Y-96156121D01*
X123608883Y-96156115D01*
X123608460Y-96150970D01*
X123552477Y-95928090D01*
X123460843Y-95717347D01*
X123451376Y-95702713D01*
X123338830Y-95528743D01*
X123338828Y-95528740D01*
X123336020Y-95524400D01*
X123283686Y-95466885D01*
X123184837Y-95358252D01*
X123184835Y-95358251D01*
X123181359Y-95354430D01*
X123177308Y-95351231D01*
X123177304Y-95351227D01*
X123005073Y-95215208D01*
X123001015Y-95212003D01*
X122799831Y-95100943D01*
X122682611Y-95059433D01*
X122588084Y-95025959D01*
X122588080Y-95025958D01*
X122583209Y-95024233D01*
X122578116Y-95023326D01*
X122578113Y-95023325D01*
X122362056Y-94984839D01*
X122362050Y-94984838D01*
X122356967Y-94983933D01*
X122283784Y-94983039D01*
X122132351Y-94981189D01*
X122132349Y-94981189D01*
X122127181Y-94981126D01*
X121975610Y-95004319D01*
X121905131Y-95015104D01*
X121905128Y-95015105D01*
X121900022Y-95015886D01*
X121874485Y-95024233D01*
X121686504Y-95085675D01*
X121686502Y-95085676D01*
X121681591Y-95087281D01*
X121477753Y-95193392D01*
X121473620Y-95196495D01*
X121473617Y-95196497D01*
X121298118Y-95328265D01*
X121293983Y-95331370D01*
X121135216Y-95497510D01*
X121005716Y-95687350D01*
X120973398Y-95756973D01*
X120919332Y-95873450D01*
X120908961Y-95895792D01*
X120847548Y-96117237D01*
X120846999Y-96122371D01*
X120846999Y-96122373D01*
X120844479Y-96145959D01*
X120823129Y-96345739D01*
X120823426Y-96350892D01*
X120823426Y-96350895D01*
X120835814Y-96565747D01*
X120819766Y-96634906D01*
X120768876Y-96684411D01*
X120710023Y-96699000D01*
X119389358Y-96699000D01*
X119321237Y-96678998D01*
X119272949Y-96621219D01*
X119257940Y-96584984D01*
X119256048Y-96580416D01*
X119120223Y-96358771D01*
X118951398Y-96161102D01*
X118867091Y-96089097D01*
X118757497Y-95995495D01*
X118757496Y-95995494D01*
X118753729Y-95992277D01*
X118532084Y-95856452D01*
X118527514Y-95854559D01*
X118527512Y-95854558D01*
X118296493Y-95758867D01*
X118296491Y-95758866D01*
X118291920Y-95756973D01*
X118146583Y-95722081D01*
X118043963Y-95697444D01*
X118043957Y-95697443D01*
X118039150Y-95696289D01*
X117780000Y-95675893D01*
X117520850Y-95696289D01*
X117516043Y-95697443D01*
X117516037Y-95697444D01*
X117413417Y-95722081D01*
X117268080Y-95756973D01*
X117263509Y-95758866D01*
X117263507Y-95758867D01*
X117032488Y-95854558D01*
X117032486Y-95854559D01*
X117027916Y-95856452D01*
X116806271Y-95992277D01*
X116802504Y-95995494D01*
X116802503Y-95995495D01*
X116692909Y-96089097D01*
X116608602Y-96161102D01*
X116439777Y-96358771D01*
X116303952Y-96580416D01*
X116302060Y-96584984D01*
X116302058Y-96584988D01*
X116266344Y-96671210D01*
X116204473Y-96820580D01*
X116143789Y-97073350D01*
X116123393Y-97332500D01*
X112008405Y-97332500D01*
X110231885Y-95555980D01*
X110197859Y-95493668D01*
X110194980Y-95466885D01*
X110194980Y-91857543D01*
X110214982Y-91789422D01*
X110268638Y-91742929D01*
X110338912Y-91732825D01*
X110354647Y-91736125D01*
X110541468Y-91787935D01*
X110546605Y-91788484D01*
X110730563Y-91808144D01*
X110730571Y-91808144D01*
X110733898Y-91808500D01*
X112068757Y-91808500D01*
X112071330Y-91808288D01*
X112071341Y-91808288D01*
X112238779Y-91794522D01*
X112238785Y-91794521D01*
X112243930Y-91794098D01*
X112472551Y-91736673D01*
X112688723Y-91642678D01*
X112886641Y-91514640D01*
X112910581Y-91492857D01*
X113057167Y-91359473D01*
X113057168Y-91359471D01*
X113060989Y-91355995D01*
X113064188Y-91351944D01*
X113064192Y-91351940D01*
X113132270Y-91265739D01*
X120823129Y-91265739D01*
X120823426Y-91270892D01*
X120823426Y-91270895D01*
X120827040Y-91333572D01*
X120836357Y-91495161D01*
X120837492Y-91500198D01*
X120837493Y-91500204D01*
X120875656Y-91669546D01*
X120886878Y-91719342D01*
X120973336Y-91932261D01*
X121093408Y-92128200D01*
X121243869Y-92301898D01*
X121420679Y-92448689D01*
X121619090Y-92564631D01*
X121623910Y-92566471D01*
X121623915Y-92566474D01*
X121730296Y-92607096D01*
X121833774Y-92646610D01*
X121838842Y-92647641D01*
X121838845Y-92647642D01*
X121949534Y-92670162D01*
X122058963Y-92692426D01*
X122064136Y-92692616D01*
X122064139Y-92692616D01*
X122283448Y-92700657D01*
X122283452Y-92700657D01*
X122288612Y-92700846D01*
X122293732Y-92700190D01*
X122293734Y-92700190D01*
X122511425Y-92672304D01*
X122511428Y-92672303D01*
X122516552Y-92671647D01*
X122551504Y-92661161D01*
X122731710Y-92607096D01*
X122736663Y-92605610D01*
X122943033Y-92504511D01*
X122982877Y-92476091D01*
X123125916Y-92374062D01*
X123130119Y-92371064D01*
X123292898Y-92208852D01*
X123426997Y-92022233D01*
X123528816Y-91816217D01*
X123556548Y-91724941D01*
X123594117Y-91601291D01*
X123594118Y-91601285D01*
X123595621Y-91596339D01*
X123625616Y-91368502D01*
X123627290Y-91300000D01*
X123624473Y-91265739D01*
X127173129Y-91265739D01*
X127173426Y-91270892D01*
X127173426Y-91270895D01*
X127177040Y-91333572D01*
X127186357Y-91495161D01*
X127187492Y-91500198D01*
X127187493Y-91500204D01*
X127225656Y-91669546D01*
X127236878Y-91719342D01*
X127323336Y-91932261D01*
X127443408Y-92128200D01*
X127593869Y-92301898D01*
X127770679Y-92448689D01*
X127969090Y-92564631D01*
X127973910Y-92566471D01*
X127973915Y-92566474D01*
X128080296Y-92607096D01*
X128183774Y-92646610D01*
X128188842Y-92647641D01*
X128188845Y-92647642D01*
X128299534Y-92670162D01*
X128408963Y-92692426D01*
X128414136Y-92692616D01*
X128414139Y-92692616D01*
X128633448Y-92700657D01*
X128633452Y-92700657D01*
X128638612Y-92700846D01*
X128643732Y-92700190D01*
X128643734Y-92700190D01*
X128861425Y-92672304D01*
X128861428Y-92672303D01*
X128866552Y-92671647D01*
X128901504Y-92661161D01*
X129081710Y-92607096D01*
X129086663Y-92605610D01*
X129293033Y-92504511D01*
X129332877Y-92476091D01*
X129475916Y-92374062D01*
X129480119Y-92371064D01*
X129642898Y-92208852D01*
X129776997Y-92022233D01*
X129878816Y-91816217D01*
X129906548Y-91724941D01*
X129944117Y-91601291D01*
X129944118Y-91601285D01*
X129945621Y-91596339D01*
X129975616Y-91368502D01*
X129977290Y-91300000D01*
X129964629Y-91146006D01*
X129958884Y-91076121D01*
X129958883Y-91076115D01*
X129958460Y-91070970D01*
X129902477Y-90848090D01*
X129810843Y-90637347D01*
X129808037Y-90633009D01*
X129688830Y-90448743D01*
X129688828Y-90448740D01*
X129686020Y-90444400D01*
X129655013Y-90410323D01*
X129534837Y-90278252D01*
X129534835Y-90278251D01*
X129531359Y-90274430D01*
X129527308Y-90271231D01*
X129527304Y-90271227D01*
X129355073Y-90135208D01*
X129351015Y-90132003D01*
X129149831Y-90020943D01*
X129027686Y-89977689D01*
X128938084Y-89945959D01*
X128938080Y-89945958D01*
X128933209Y-89944233D01*
X128928116Y-89943326D01*
X128928113Y-89943325D01*
X128712056Y-89904839D01*
X128712050Y-89904838D01*
X128706967Y-89903933D01*
X128633784Y-89903039D01*
X128482351Y-89901189D01*
X128482349Y-89901189D01*
X128477181Y-89901126D01*
X128325610Y-89924319D01*
X128255131Y-89935104D01*
X128255128Y-89935105D01*
X128250022Y-89935886D01*
X128245110Y-89937491D01*
X128245112Y-89937491D01*
X128036504Y-90005675D01*
X128036502Y-90005676D01*
X128031591Y-90007281D01*
X127827753Y-90113392D01*
X127823620Y-90116495D01*
X127823617Y-90116497D01*
X127699690Y-90209544D01*
X127643983Y-90251370D01*
X127485216Y-90417510D01*
X127482302Y-90421782D01*
X127482301Y-90421783D01*
X127459333Y-90455453D01*
X127355716Y-90607350D01*
X127322812Y-90678236D01*
X127293012Y-90742436D01*
X127258961Y-90815792D01*
X127197548Y-91037237D01*
X127173129Y-91265739D01*
X123624473Y-91265739D01*
X123614629Y-91146006D01*
X123608884Y-91076121D01*
X123608883Y-91076115D01*
X123608460Y-91070970D01*
X123552477Y-90848090D01*
X123460843Y-90637347D01*
X123458037Y-90633009D01*
X123338830Y-90448743D01*
X123338828Y-90448740D01*
X123336020Y-90444400D01*
X123305013Y-90410323D01*
X123184837Y-90278252D01*
X123184835Y-90278251D01*
X123181359Y-90274430D01*
X123177308Y-90271231D01*
X123177304Y-90271227D01*
X123005073Y-90135208D01*
X123001015Y-90132003D01*
X122799831Y-90020943D01*
X122677686Y-89977689D01*
X122588084Y-89945959D01*
X122588080Y-89945958D01*
X122583209Y-89944233D01*
X122578116Y-89943326D01*
X122578113Y-89943325D01*
X122362056Y-89904839D01*
X122362050Y-89904838D01*
X122356967Y-89903933D01*
X122283784Y-89903039D01*
X122132351Y-89901189D01*
X122132349Y-89901189D01*
X122127181Y-89901126D01*
X121975610Y-89924319D01*
X121905131Y-89935104D01*
X121905128Y-89935105D01*
X121900022Y-89935886D01*
X121895110Y-89937491D01*
X121895112Y-89937491D01*
X121686504Y-90005675D01*
X121686502Y-90005676D01*
X121681591Y-90007281D01*
X121477753Y-90113392D01*
X121473620Y-90116495D01*
X121473617Y-90116497D01*
X121349690Y-90209544D01*
X121293983Y-90251370D01*
X121135216Y-90417510D01*
X121132302Y-90421782D01*
X121132301Y-90421783D01*
X121109333Y-90455453D01*
X121005716Y-90607350D01*
X120972812Y-90678236D01*
X120943012Y-90742436D01*
X120908961Y-90815792D01*
X120847548Y-91037237D01*
X120823129Y-91265739D01*
X113132270Y-91265739D01*
X113203883Y-91175061D01*
X113203885Y-91175057D01*
X113207085Y-91171006D01*
X113223383Y-91141483D01*
X113283679Y-91032255D01*
X113321005Y-90964639D01*
X113328256Y-90944165D01*
X113397965Y-90747311D01*
X113397966Y-90747307D01*
X113399691Y-90742436D01*
X113403590Y-90720548D01*
X113440123Y-90515456D01*
X113440124Y-90515450D01*
X113441029Y-90510367D01*
X113442251Y-90410322D01*
X113463084Y-90342452D01*
X113479147Y-90322767D01*
X117688780Y-86113134D01*
X128916500Y-86113134D01*
X128923255Y-86175316D01*
X128974385Y-86311705D01*
X129061739Y-86428261D01*
X129178295Y-86515615D01*
X129314684Y-86566745D01*
X129376866Y-86573500D01*
X131173134Y-86573500D01*
X131235316Y-86566745D01*
X131371705Y-86515615D01*
X131488261Y-86428261D01*
X131575615Y-86311705D01*
X131619798Y-86193848D01*
X131662440Y-86137084D01*
X131729001Y-86112384D01*
X131798350Y-86127592D01*
X131833017Y-86155580D01*
X131858218Y-86184673D01*
X131865580Y-86191883D01*
X132029434Y-86327916D01*
X132037881Y-86333831D01*
X132221756Y-86441279D01*
X132231042Y-86445729D01*
X132430001Y-86521703D01*
X132439899Y-86524579D01*
X132543250Y-86545606D01*
X132557299Y-86544410D01*
X132561000Y-86534065D01*
X132561000Y-86533517D01*
X133069000Y-86533517D01*
X133073064Y-86547359D01*
X133086478Y-86549393D01*
X133093184Y-86548534D01*
X133103262Y-86546392D01*
X133307255Y-86485191D01*
X133316842Y-86481433D01*
X133508095Y-86387739D01*
X133516945Y-86382464D01*
X133690328Y-86258792D01*
X133698200Y-86252139D01*
X133849052Y-86101812D01*
X133855730Y-86093965D01*
X133983022Y-85916819D01*
X133984279Y-85917722D01*
X134031373Y-85874362D01*
X134101311Y-85862145D01*
X134166751Y-85889678D01*
X134194579Y-85921511D01*
X134205688Y-85939639D01*
X134254987Y-86020088D01*
X134401250Y-86188938D01*
X134573126Y-86331632D01*
X134766000Y-86444338D01*
X134974692Y-86524030D01*
X134979760Y-86525061D01*
X134979763Y-86525062D01*
X135074862Y-86544410D01*
X135193597Y-86568567D01*
X135198772Y-86568757D01*
X135198774Y-86568757D01*
X135411673Y-86576564D01*
X135411677Y-86576564D01*
X135416837Y-86576753D01*
X135421957Y-86576097D01*
X135421959Y-86576097D01*
X135633288Y-86549025D01*
X135633289Y-86549025D01*
X135638416Y-86548368D01*
X135643366Y-86546883D01*
X135847429Y-86485661D01*
X135847434Y-86485659D01*
X135852384Y-86484174D01*
X136052994Y-86385896D01*
X136234860Y-86256173D01*
X136393096Y-86098489D01*
X136523453Y-85917077D01*
X136524776Y-85918028D01*
X136571645Y-85874857D01*
X136641580Y-85862625D01*
X136707026Y-85890144D01*
X136734875Y-85921994D01*
X136794987Y-86020088D01*
X136941250Y-86188938D01*
X137113126Y-86331632D01*
X137306000Y-86444338D01*
X137514692Y-86524030D01*
X137519760Y-86525061D01*
X137519763Y-86525062D01*
X137614862Y-86544410D01*
X137733597Y-86568567D01*
X137738772Y-86568757D01*
X137738774Y-86568757D01*
X137951673Y-86576564D01*
X137951677Y-86576564D01*
X137956837Y-86576753D01*
X137961957Y-86576097D01*
X137961959Y-86576097D01*
X138173288Y-86549025D01*
X138173289Y-86549025D01*
X138178416Y-86548368D01*
X138183366Y-86546883D01*
X138387429Y-86485661D01*
X138387434Y-86485659D01*
X138392384Y-86484174D01*
X138592994Y-86385896D01*
X138774860Y-86256173D01*
X138933096Y-86098489D01*
X139063453Y-85917077D01*
X139064776Y-85918028D01*
X139111645Y-85874857D01*
X139181580Y-85862625D01*
X139247026Y-85890144D01*
X139274875Y-85921994D01*
X139334987Y-86020088D01*
X139481250Y-86188938D01*
X139653126Y-86331632D01*
X139846000Y-86444338D01*
X140054692Y-86524030D01*
X140059760Y-86525061D01*
X140059763Y-86525062D01*
X140154862Y-86544410D01*
X140273597Y-86568567D01*
X140278772Y-86568757D01*
X140278774Y-86568757D01*
X140491673Y-86576564D01*
X140491677Y-86576564D01*
X140496837Y-86576753D01*
X140501957Y-86576097D01*
X140501959Y-86576097D01*
X140713288Y-86549025D01*
X140713289Y-86549025D01*
X140718416Y-86548368D01*
X140723366Y-86546883D01*
X140927429Y-86485661D01*
X140927434Y-86485659D01*
X140932384Y-86484174D01*
X141132994Y-86385896D01*
X141314860Y-86256173D01*
X141473096Y-86098489D01*
X141603453Y-85917077D01*
X141604776Y-85918028D01*
X141651645Y-85874857D01*
X141721580Y-85862625D01*
X141787026Y-85890144D01*
X141814875Y-85921994D01*
X141874987Y-86020088D01*
X142021250Y-86188938D01*
X142193126Y-86331632D01*
X142386000Y-86444338D01*
X142594692Y-86524030D01*
X142599760Y-86525061D01*
X142599763Y-86525062D01*
X142694862Y-86544410D01*
X142813597Y-86568567D01*
X142818772Y-86568757D01*
X142818774Y-86568757D01*
X143031673Y-86576564D01*
X143031677Y-86576564D01*
X143036837Y-86576753D01*
X143041957Y-86576097D01*
X143041959Y-86576097D01*
X143253288Y-86549025D01*
X143253289Y-86549025D01*
X143258416Y-86548368D01*
X143263366Y-86546883D01*
X143467429Y-86485661D01*
X143467434Y-86485659D01*
X143472384Y-86484174D01*
X143672994Y-86385896D01*
X143854860Y-86256173D01*
X144013096Y-86098489D01*
X144143453Y-85917077D01*
X144144776Y-85918028D01*
X144191645Y-85874857D01*
X144261580Y-85862625D01*
X144327026Y-85890144D01*
X144354875Y-85921994D01*
X144414987Y-86020088D01*
X144561250Y-86188938D01*
X144733126Y-86331632D01*
X144926000Y-86444338D01*
X145134692Y-86524030D01*
X145139760Y-86525061D01*
X145139763Y-86525062D01*
X145234862Y-86544410D01*
X145353597Y-86568567D01*
X145358772Y-86568757D01*
X145358774Y-86568757D01*
X145571673Y-86576564D01*
X145571677Y-86576564D01*
X145576837Y-86576753D01*
X145581957Y-86576097D01*
X145581959Y-86576097D01*
X145793288Y-86549025D01*
X145793289Y-86549025D01*
X145798416Y-86548368D01*
X145803366Y-86546883D01*
X146007429Y-86485661D01*
X146007434Y-86485659D01*
X146012384Y-86484174D01*
X146212994Y-86385896D01*
X146394860Y-86256173D01*
X146553096Y-86098489D01*
X146683453Y-85917077D01*
X146684776Y-85918028D01*
X146731645Y-85874857D01*
X146801580Y-85862625D01*
X146867026Y-85890144D01*
X146894875Y-85921994D01*
X146954987Y-86020088D01*
X147101250Y-86188938D01*
X147273126Y-86331632D01*
X147466000Y-86444338D01*
X147674692Y-86524030D01*
X147679760Y-86525061D01*
X147679763Y-86525062D01*
X147774862Y-86544410D01*
X147893597Y-86568567D01*
X147898772Y-86568757D01*
X147898774Y-86568757D01*
X148111673Y-86576564D01*
X148111677Y-86576564D01*
X148116837Y-86576753D01*
X148121957Y-86576097D01*
X148121959Y-86576097D01*
X148333288Y-86549025D01*
X148333289Y-86549025D01*
X148338416Y-86548368D01*
X148343366Y-86546883D01*
X148547429Y-86485661D01*
X148547434Y-86485659D01*
X148552384Y-86484174D01*
X148752994Y-86385896D01*
X148934860Y-86256173D01*
X149093096Y-86098489D01*
X149223453Y-85917077D01*
X149224776Y-85918028D01*
X149271645Y-85874857D01*
X149341580Y-85862625D01*
X149407026Y-85890144D01*
X149434875Y-85921994D01*
X149494987Y-86020088D01*
X149641250Y-86188938D01*
X149813126Y-86331632D01*
X150006000Y-86444338D01*
X150214692Y-86524030D01*
X150219760Y-86525061D01*
X150219763Y-86525062D01*
X150314862Y-86544410D01*
X150433597Y-86568567D01*
X150438772Y-86568757D01*
X150438774Y-86568757D01*
X150651673Y-86576564D01*
X150651677Y-86576564D01*
X150656837Y-86576753D01*
X150661957Y-86576097D01*
X150661959Y-86576097D01*
X150873288Y-86549025D01*
X150873289Y-86549025D01*
X150878416Y-86548368D01*
X150883366Y-86546883D01*
X151087429Y-86485661D01*
X151087434Y-86485659D01*
X151092384Y-86484174D01*
X151292994Y-86385896D01*
X151474860Y-86256173D01*
X151633096Y-86098489D01*
X151763453Y-85917077D01*
X151764640Y-85917930D01*
X151811960Y-85874362D01*
X151881897Y-85862145D01*
X151947338Y-85889678D01*
X151975166Y-85921511D01*
X152032694Y-86015388D01*
X152038777Y-86023699D01*
X152178213Y-86184667D01*
X152185580Y-86191883D01*
X152349434Y-86327916D01*
X152357881Y-86333831D01*
X152541756Y-86441279D01*
X152551042Y-86445729D01*
X152750001Y-86521703D01*
X152759899Y-86524579D01*
X152863250Y-86545606D01*
X152877299Y-86544410D01*
X152881000Y-86534065D01*
X152881000Y-83898102D01*
X152877082Y-83884758D01*
X152862806Y-83882771D01*
X152824324Y-83888660D01*
X152814288Y-83891051D01*
X152611868Y-83957212D01*
X152602359Y-83961209D01*
X152413463Y-84059542D01*
X152404738Y-84065036D01*
X152234433Y-84192905D01*
X152226726Y-84199748D01*
X152079590Y-84353717D01*
X152073109Y-84361722D01*
X151968498Y-84515074D01*
X151913587Y-84560076D01*
X151843062Y-84568247D01*
X151779315Y-84536993D01*
X151758618Y-84512509D01*
X151677822Y-84387617D01*
X151677820Y-84387614D01*
X151675014Y-84383277D01*
X151524670Y-84218051D01*
X151520619Y-84214852D01*
X151520615Y-84214848D01*
X151353414Y-84082800D01*
X151353410Y-84082798D01*
X151349359Y-84079598D01*
X151344831Y-84077098D01*
X151254505Y-84027236D01*
X151153789Y-83971638D01*
X151148920Y-83969914D01*
X151148916Y-83969912D01*
X150948087Y-83898795D01*
X150948083Y-83898794D01*
X150943212Y-83897069D01*
X150938119Y-83896162D01*
X150938116Y-83896161D01*
X150728373Y-83858800D01*
X150728367Y-83858799D01*
X150723284Y-83857894D01*
X150649452Y-83856992D01*
X150505081Y-83855228D01*
X150505079Y-83855228D01*
X150499911Y-83855165D01*
X150279091Y-83888955D01*
X150066756Y-83958357D01*
X150011603Y-83987068D01*
X149892975Y-84048822D01*
X149868607Y-84061507D01*
X149864474Y-84064610D01*
X149864471Y-84064612D01*
X149708555Y-84181677D01*
X149689965Y-84195635D01*
X149535629Y-84357138D01*
X149428201Y-84514621D01*
X149373293Y-84559621D01*
X149302768Y-84567792D01*
X149239021Y-84536538D01*
X149218324Y-84512054D01*
X149137822Y-84387617D01*
X149137820Y-84387614D01*
X149135014Y-84383277D01*
X148984670Y-84218051D01*
X148980619Y-84214852D01*
X148980615Y-84214848D01*
X148813414Y-84082800D01*
X148813410Y-84082798D01*
X148809359Y-84079598D01*
X148804831Y-84077098D01*
X148714505Y-84027236D01*
X148613789Y-83971638D01*
X148608920Y-83969914D01*
X148608916Y-83969912D01*
X148408087Y-83898795D01*
X148408083Y-83898794D01*
X148403212Y-83897069D01*
X148398119Y-83896162D01*
X148398116Y-83896161D01*
X148188373Y-83858800D01*
X148188367Y-83858799D01*
X148183284Y-83857894D01*
X148109452Y-83856992D01*
X147965081Y-83855228D01*
X147965079Y-83855228D01*
X147959911Y-83855165D01*
X147739091Y-83888955D01*
X147526756Y-83958357D01*
X147471603Y-83987068D01*
X147352975Y-84048822D01*
X147328607Y-84061507D01*
X147324474Y-84064610D01*
X147324471Y-84064612D01*
X147168555Y-84181677D01*
X147149965Y-84195635D01*
X146995629Y-84357138D01*
X146888201Y-84514621D01*
X146833293Y-84559621D01*
X146762768Y-84567792D01*
X146699021Y-84536538D01*
X146678324Y-84512054D01*
X146597822Y-84387617D01*
X146597820Y-84387614D01*
X146595014Y-84383277D01*
X146444670Y-84218051D01*
X146440619Y-84214852D01*
X146440615Y-84214848D01*
X146273414Y-84082800D01*
X146273410Y-84082798D01*
X146269359Y-84079598D01*
X146264831Y-84077098D01*
X146174505Y-84027236D01*
X146073789Y-83971638D01*
X146068920Y-83969914D01*
X146068916Y-83969912D01*
X145868087Y-83898795D01*
X145868083Y-83898794D01*
X145863212Y-83897069D01*
X145858119Y-83896162D01*
X145858116Y-83896161D01*
X145648373Y-83858800D01*
X145648367Y-83858799D01*
X145643284Y-83857894D01*
X145569452Y-83856992D01*
X145425081Y-83855228D01*
X145425079Y-83855228D01*
X145419911Y-83855165D01*
X145199091Y-83888955D01*
X144986756Y-83958357D01*
X144931603Y-83987068D01*
X144812975Y-84048822D01*
X144788607Y-84061507D01*
X144784474Y-84064610D01*
X144784471Y-84064612D01*
X144628555Y-84181677D01*
X144609965Y-84195635D01*
X144455629Y-84357138D01*
X144348201Y-84514621D01*
X144293293Y-84559621D01*
X144222768Y-84567792D01*
X144159021Y-84536538D01*
X144138324Y-84512054D01*
X144057822Y-84387617D01*
X144057820Y-84387614D01*
X144055014Y-84383277D01*
X143904670Y-84218051D01*
X143900619Y-84214852D01*
X143900615Y-84214848D01*
X143733414Y-84082800D01*
X143733410Y-84082798D01*
X143729359Y-84079598D01*
X143724831Y-84077098D01*
X143634505Y-84027236D01*
X143533789Y-83971638D01*
X143528920Y-83969914D01*
X143528916Y-83969912D01*
X143328087Y-83898795D01*
X143328083Y-83898794D01*
X143323212Y-83897069D01*
X143318119Y-83896162D01*
X143318116Y-83896161D01*
X143108373Y-83858800D01*
X143108367Y-83858799D01*
X143103284Y-83857894D01*
X143029452Y-83856992D01*
X142885081Y-83855228D01*
X142885079Y-83855228D01*
X142879911Y-83855165D01*
X142659091Y-83888955D01*
X142446756Y-83958357D01*
X142391603Y-83987068D01*
X142272975Y-84048822D01*
X142248607Y-84061507D01*
X142244474Y-84064610D01*
X142244471Y-84064612D01*
X142088555Y-84181677D01*
X142069965Y-84195635D01*
X141915629Y-84357138D01*
X141808201Y-84514621D01*
X141753293Y-84559621D01*
X141682768Y-84567792D01*
X141619021Y-84536538D01*
X141598324Y-84512054D01*
X141517822Y-84387617D01*
X141517820Y-84387614D01*
X141515014Y-84383277D01*
X141364670Y-84218051D01*
X141360619Y-84214852D01*
X141360615Y-84214848D01*
X141193414Y-84082800D01*
X141193410Y-84082798D01*
X141189359Y-84079598D01*
X141184831Y-84077098D01*
X141094505Y-84027236D01*
X140993789Y-83971638D01*
X140988920Y-83969914D01*
X140988916Y-83969912D01*
X140788087Y-83898795D01*
X140788083Y-83898794D01*
X140783212Y-83897069D01*
X140778119Y-83896162D01*
X140778116Y-83896161D01*
X140568373Y-83858800D01*
X140568367Y-83858799D01*
X140563284Y-83857894D01*
X140489452Y-83856992D01*
X140345081Y-83855228D01*
X140345079Y-83855228D01*
X140339911Y-83855165D01*
X140119091Y-83888955D01*
X139906756Y-83958357D01*
X139851603Y-83987068D01*
X139732975Y-84048822D01*
X139708607Y-84061507D01*
X139704474Y-84064610D01*
X139704471Y-84064612D01*
X139548555Y-84181677D01*
X139529965Y-84195635D01*
X139375629Y-84357138D01*
X139268201Y-84514621D01*
X139213293Y-84559621D01*
X139142768Y-84567792D01*
X139079021Y-84536538D01*
X139058324Y-84512054D01*
X138977822Y-84387617D01*
X138977820Y-84387614D01*
X138975014Y-84383277D01*
X138824670Y-84218051D01*
X138820619Y-84214852D01*
X138820615Y-84214848D01*
X138653414Y-84082800D01*
X138653410Y-84082798D01*
X138649359Y-84079598D01*
X138644835Y-84077101D01*
X138644831Y-84077098D01*
X138593608Y-84048822D01*
X138543636Y-83998390D01*
X138528500Y-83938513D01*
X138528500Y-83055500D01*
X138548502Y-82987379D01*
X138602158Y-82940886D01*
X138654500Y-82929500D01*
X153215800Y-82929500D01*
X153283921Y-82949502D01*
X153303147Y-82965843D01*
X153303420Y-82965540D01*
X153308332Y-82969963D01*
X153312747Y-82974866D01*
X153467248Y-83087118D01*
X153473276Y-83089802D01*
X153473278Y-83089803D01*
X153635681Y-83162109D01*
X153641712Y-83164794D01*
X153735113Y-83184647D01*
X153822056Y-83203128D01*
X153822061Y-83203128D01*
X153828513Y-83204500D01*
X154019487Y-83204500D01*
X154025939Y-83203128D01*
X154025944Y-83203128D01*
X154112888Y-83184647D01*
X154206288Y-83164794D01*
X154212319Y-83162109D01*
X154374722Y-83089803D01*
X154374724Y-83089802D01*
X154380752Y-83087118D01*
X154535253Y-82974866D01*
X154663040Y-82832944D01*
X154742392Y-82695502D01*
X154755223Y-82673279D01*
X154755224Y-82673278D01*
X154758527Y-82667556D01*
X154817542Y-82485928D01*
X154821422Y-82449018D01*
X154836814Y-82302565D01*
X154837504Y-82296000D01*
X154823254Y-82160419D01*
X154818232Y-82112635D01*
X154818232Y-82112633D01*
X154817542Y-82106072D01*
X154758527Y-81924444D01*
X154663040Y-81759056D01*
X154646882Y-81741110D01*
X154539675Y-81622045D01*
X154539674Y-81622044D01*
X154535253Y-81617134D01*
X154380752Y-81504882D01*
X154374724Y-81502198D01*
X154374722Y-81502197D01*
X154212319Y-81429891D01*
X154212318Y-81429891D01*
X154206288Y-81427206D01*
X154096078Y-81403780D01*
X154025944Y-81388872D01*
X154025939Y-81388872D01*
X154019487Y-81387500D01*
X153828513Y-81387500D01*
X153822061Y-81388872D01*
X153822056Y-81388872D01*
X153751922Y-81403780D01*
X153641712Y-81427206D01*
X153635682Y-81429891D01*
X153635681Y-81429891D01*
X153473278Y-81502197D01*
X153473276Y-81502198D01*
X153467248Y-81504882D01*
X153461907Y-81508762D01*
X153461906Y-81508763D01*
X153397331Y-81555680D01*
X153312747Y-81617134D01*
X153308332Y-81622037D01*
X153303420Y-81626460D01*
X153302295Y-81625211D01*
X153248986Y-81658051D01*
X153215800Y-81662500D01*
X138254767Y-81662500D01*
X138243584Y-81661973D01*
X138236091Y-81660298D01*
X138228165Y-81660547D01*
X138228164Y-81660547D01*
X138168014Y-81662438D01*
X138164055Y-81662500D01*
X138136144Y-81662500D01*
X138132210Y-81662997D01*
X138132209Y-81662997D01*
X138132144Y-81663005D01*
X138120307Y-81663938D01*
X138088049Y-81664952D01*
X138084030Y-81665078D01*
X138076111Y-81665327D01*
X138056657Y-81670979D01*
X138037300Y-81674987D01*
X138025070Y-81676532D01*
X138025069Y-81676532D01*
X138017203Y-81677526D01*
X138009832Y-81680445D01*
X138009830Y-81680445D01*
X137976088Y-81693804D01*
X137964858Y-81697649D01*
X137930017Y-81707771D01*
X137930016Y-81707771D01*
X137922407Y-81709982D01*
X137915588Y-81714015D01*
X137915583Y-81714017D01*
X137904972Y-81720293D01*
X137887224Y-81728988D01*
X137868383Y-81736448D01*
X137861967Y-81741110D01*
X137861966Y-81741110D01*
X137832613Y-81762436D01*
X137822693Y-81768952D01*
X137791465Y-81787420D01*
X137791462Y-81787422D01*
X137784638Y-81791458D01*
X137770314Y-81805782D01*
X137755287Y-81818617D01*
X137738893Y-81830528D01*
X137733840Y-81836636D01*
X137710711Y-81864594D01*
X137702722Y-81873372D01*
X137502742Y-82073352D01*
X137494462Y-82080887D01*
X137487982Y-82085000D01*
X137441356Y-82134652D01*
X137438601Y-82137494D01*
X137418865Y-82157230D01*
X137416385Y-82160427D01*
X137408682Y-82169447D01*
X137378414Y-82201679D01*
X137374595Y-82208625D01*
X137374593Y-82208628D01*
X137368652Y-82219434D01*
X137357801Y-82235953D01*
X137345386Y-82251959D01*
X137342241Y-82259228D01*
X137342238Y-82259232D01*
X137327826Y-82292537D01*
X137322609Y-82303187D01*
X137301305Y-82341940D01*
X137299334Y-82349615D01*
X137299334Y-82349616D01*
X137296267Y-82361562D01*
X137289863Y-82380266D01*
X137281819Y-82398855D01*
X137280580Y-82406678D01*
X137280577Y-82406688D01*
X137274901Y-82442524D01*
X137272495Y-82454144D01*
X137266020Y-82479365D01*
X137261500Y-82496970D01*
X137261500Y-82517224D01*
X137259949Y-82536934D01*
X137256780Y-82556943D01*
X137257526Y-82564835D01*
X137260941Y-82600961D01*
X137261500Y-82612819D01*
X137261500Y-83936692D01*
X137241498Y-84004813D01*
X137193683Y-84048453D01*
X137168607Y-84061507D01*
X137164474Y-84064610D01*
X137164471Y-84064612D01*
X137008555Y-84181677D01*
X136989965Y-84195635D01*
X136835629Y-84357138D01*
X136728201Y-84514621D01*
X136673293Y-84559621D01*
X136602768Y-84567792D01*
X136539021Y-84536538D01*
X136518324Y-84512054D01*
X136437822Y-84387617D01*
X136437820Y-84387614D01*
X136435014Y-84383277D01*
X136284670Y-84218051D01*
X136280619Y-84214852D01*
X136280615Y-84214848D01*
X136113414Y-84082800D01*
X136113410Y-84082798D01*
X136109359Y-84079598D01*
X136104831Y-84077098D01*
X136014505Y-84027236D01*
X135913789Y-83971638D01*
X135908920Y-83969914D01*
X135908916Y-83969912D01*
X135708087Y-83898795D01*
X135708083Y-83898794D01*
X135703212Y-83897069D01*
X135698119Y-83896162D01*
X135698116Y-83896161D01*
X135488373Y-83858800D01*
X135488367Y-83858799D01*
X135483284Y-83857894D01*
X135409452Y-83856992D01*
X135265081Y-83855228D01*
X135265079Y-83855228D01*
X135259911Y-83855165D01*
X135039091Y-83888955D01*
X134826756Y-83958357D01*
X134771603Y-83987068D01*
X134652975Y-84048822D01*
X134628607Y-84061507D01*
X134624474Y-84064610D01*
X134624471Y-84064612D01*
X134468555Y-84181677D01*
X134449965Y-84195635D01*
X134295629Y-84357138D01*
X134292720Y-84361403D01*
X134292714Y-84361411D01*
X134272238Y-84391428D01*
X134188204Y-84514618D01*
X134187898Y-84515066D01*
X134132987Y-84560069D01*
X134062462Y-84568240D01*
X133998715Y-84536986D01*
X133978018Y-84512502D01*
X133897426Y-84387926D01*
X133891136Y-84379757D01*
X133747806Y-84222240D01*
X133740273Y-84215215D01*
X133573139Y-84083222D01*
X133564552Y-84077517D01*
X133378117Y-83974599D01*
X133368705Y-83970369D01*
X133167959Y-83899280D01*
X133157988Y-83896646D01*
X133086837Y-83883972D01*
X133073540Y-83885432D01*
X133069000Y-83899989D01*
X133069000Y-86533517D01*
X132561000Y-86533517D01*
X132561000Y-83898102D01*
X132557082Y-83884758D01*
X132542806Y-83882771D01*
X132504324Y-83888660D01*
X132494288Y-83891051D01*
X132291868Y-83957212D01*
X132282359Y-83961209D01*
X132093463Y-84059542D01*
X132084738Y-84065036D01*
X131914433Y-84192905D01*
X131906726Y-84199748D01*
X131829478Y-84280584D01*
X131767954Y-84316014D01*
X131697042Y-84312557D01*
X131639255Y-84271311D01*
X131620402Y-84237763D01*
X131578767Y-84126703D01*
X131575615Y-84118295D01*
X131488261Y-84001739D01*
X131371705Y-83914385D01*
X131235316Y-83863255D01*
X131173134Y-83856500D01*
X129376866Y-83856500D01*
X129314684Y-83863255D01*
X129178295Y-83914385D01*
X129061739Y-84001739D01*
X128974385Y-84118295D01*
X128923255Y-84254684D01*
X128916500Y-84316866D01*
X128916500Y-86113134D01*
X117688780Y-86113134D01*
X133207253Y-70594662D01*
X133215539Y-70587122D01*
X133222018Y-70583010D01*
X133268644Y-70533358D01*
X133271398Y-70530517D01*
X133291135Y-70510780D01*
X133293615Y-70507583D01*
X133301320Y-70498561D01*
X133326159Y-70472110D01*
X133331586Y-70466331D01*
X133335405Y-70459385D01*
X133335407Y-70459382D01*
X133341348Y-70448576D01*
X133352199Y-70432057D01*
X133359758Y-70422311D01*
X133364614Y-70416051D01*
X133367759Y-70408782D01*
X133367762Y-70408778D01*
X133382174Y-70375473D01*
X133387391Y-70364823D01*
X133408695Y-70326070D01*
X133413733Y-70306447D01*
X133420137Y-70287744D01*
X133425033Y-70276430D01*
X133425033Y-70276429D01*
X133428181Y-70269155D01*
X133429420Y-70261332D01*
X133429423Y-70261322D01*
X133435099Y-70225486D01*
X133437505Y-70213866D01*
X133446528Y-70178721D01*
X133446528Y-70178720D01*
X133448500Y-70171040D01*
X133448500Y-70150786D01*
X133450051Y-70131075D01*
X133451980Y-70118896D01*
X133453220Y-70111067D01*
X133449059Y-70067048D01*
X133448500Y-70055191D01*
X133448500Y-58555427D01*
X133468502Y-58487306D01*
X133509618Y-58447550D01*
X133512994Y-58445896D01*
X133694860Y-58316173D01*
X133853096Y-58158489D01*
X133900175Y-58092972D01*
X133983453Y-57977077D01*
X133984776Y-57978028D01*
X134031645Y-57934857D01*
X134101580Y-57922625D01*
X134167026Y-57950144D01*
X134194875Y-57981994D01*
X134254987Y-58080088D01*
X134401250Y-58248938D01*
X134573126Y-58391632D01*
X134766000Y-58504338D01*
X134974692Y-58584030D01*
X135167822Y-58623323D01*
X135231793Y-58657697D01*
X159008348Y-82434253D01*
X159015888Y-82442539D01*
X159020000Y-82449018D01*
X159025777Y-82454443D01*
X159069651Y-82495643D01*
X159072493Y-82498398D01*
X159092230Y-82518135D01*
X159095427Y-82520615D01*
X159104447Y-82528318D01*
X159136679Y-82558586D01*
X159143625Y-82562405D01*
X159143628Y-82562407D01*
X159154434Y-82568348D01*
X159170953Y-82579199D01*
X159186959Y-82591614D01*
X159194228Y-82594759D01*
X159194232Y-82594762D01*
X159227537Y-82609174D01*
X159238187Y-82614391D01*
X159276940Y-82635695D01*
X159284615Y-82637666D01*
X159284616Y-82637666D01*
X159296562Y-82640733D01*
X159315267Y-82647137D01*
X159333855Y-82655181D01*
X159341678Y-82656420D01*
X159341688Y-82656423D01*
X159377524Y-82662099D01*
X159389144Y-82664505D01*
X159423319Y-82673279D01*
X159431970Y-82675500D01*
X159452224Y-82675500D01*
X159471934Y-82677051D01*
X159491943Y-82680220D01*
X159499835Y-82679474D01*
X159535961Y-82676059D01*
X159547819Y-82675500D01*
X161468416Y-82675500D01*
X161536537Y-82695502D01*
X161557511Y-82712405D01*
X162669756Y-83824650D01*
X162703782Y-83886962D01*
X162698717Y-83957777D01*
X162656170Y-84014613D01*
X162638842Y-84025508D01*
X162573458Y-84059545D01*
X162564738Y-84065036D01*
X162394433Y-84192905D01*
X162386726Y-84199748D01*
X162239590Y-84353717D01*
X162233109Y-84361722D01*
X162128498Y-84515074D01*
X162073587Y-84560076D01*
X162003062Y-84568247D01*
X161939315Y-84536993D01*
X161918618Y-84512509D01*
X161837822Y-84387617D01*
X161837820Y-84387614D01*
X161835014Y-84383277D01*
X161684670Y-84218051D01*
X161680619Y-84214852D01*
X161680615Y-84214848D01*
X161513414Y-84082800D01*
X161513410Y-84082798D01*
X161509359Y-84079598D01*
X161504831Y-84077098D01*
X161414505Y-84027236D01*
X161313789Y-83971638D01*
X161308920Y-83969914D01*
X161308916Y-83969912D01*
X161108087Y-83898795D01*
X161108083Y-83898794D01*
X161103212Y-83897069D01*
X161098119Y-83896162D01*
X161098116Y-83896161D01*
X160888373Y-83858800D01*
X160888367Y-83858799D01*
X160883284Y-83857894D01*
X160809452Y-83856992D01*
X160665081Y-83855228D01*
X160665079Y-83855228D01*
X160659911Y-83855165D01*
X160439091Y-83888955D01*
X160226756Y-83958357D01*
X160171603Y-83987068D01*
X160052975Y-84048822D01*
X160028607Y-84061507D01*
X160024474Y-84064610D01*
X160024471Y-84064612D01*
X159868555Y-84181677D01*
X159849965Y-84195635D01*
X159695629Y-84357138D01*
X159588201Y-84514621D01*
X159533293Y-84559621D01*
X159462768Y-84567792D01*
X159399021Y-84536538D01*
X159378324Y-84512054D01*
X159297822Y-84387617D01*
X159297820Y-84387614D01*
X159295014Y-84383277D01*
X159144670Y-84218051D01*
X159140619Y-84214852D01*
X159140615Y-84214848D01*
X158973414Y-84082800D01*
X158973410Y-84082798D01*
X158969359Y-84079598D01*
X158964831Y-84077098D01*
X158874505Y-84027236D01*
X158773789Y-83971638D01*
X158768920Y-83969914D01*
X158768916Y-83969912D01*
X158568087Y-83898795D01*
X158568083Y-83898794D01*
X158563212Y-83897069D01*
X158558119Y-83896162D01*
X158558116Y-83896161D01*
X158348373Y-83858800D01*
X158348367Y-83858799D01*
X158343284Y-83857894D01*
X158269452Y-83856992D01*
X158125081Y-83855228D01*
X158125079Y-83855228D01*
X158119911Y-83855165D01*
X157899091Y-83888955D01*
X157686756Y-83958357D01*
X157631603Y-83987068D01*
X157512975Y-84048822D01*
X157488607Y-84061507D01*
X157484474Y-84064610D01*
X157484471Y-84064612D01*
X157328555Y-84181677D01*
X157309965Y-84195635D01*
X157155629Y-84357138D01*
X157048201Y-84514621D01*
X156993293Y-84559621D01*
X156922768Y-84567792D01*
X156859021Y-84536538D01*
X156838324Y-84512054D01*
X156757822Y-84387617D01*
X156757820Y-84387614D01*
X156755014Y-84383277D01*
X156604670Y-84218051D01*
X156600619Y-84214852D01*
X156600615Y-84214848D01*
X156433414Y-84082800D01*
X156433410Y-84082798D01*
X156429359Y-84079598D01*
X156424831Y-84077098D01*
X156334505Y-84027236D01*
X156233789Y-83971638D01*
X156228920Y-83969914D01*
X156228916Y-83969912D01*
X156028087Y-83898795D01*
X156028083Y-83898794D01*
X156023212Y-83897069D01*
X156018119Y-83896162D01*
X156018116Y-83896161D01*
X155808373Y-83858800D01*
X155808367Y-83858799D01*
X155803284Y-83857894D01*
X155729452Y-83856992D01*
X155585081Y-83855228D01*
X155585079Y-83855228D01*
X155579911Y-83855165D01*
X155359091Y-83888955D01*
X155146756Y-83958357D01*
X155091603Y-83987068D01*
X154972975Y-84048822D01*
X154948607Y-84061507D01*
X154944474Y-84064610D01*
X154944471Y-84064612D01*
X154788555Y-84181677D01*
X154769965Y-84195635D01*
X154615629Y-84357138D01*
X154612720Y-84361403D01*
X154612714Y-84361411D01*
X154592238Y-84391428D01*
X154508204Y-84514618D01*
X154507898Y-84515066D01*
X154452987Y-84560069D01*
X154382462Y-84568240D01*
X154318715Y-84536986D01*
X154298018Y-84512502D01*
X154217426Y-84387926D01*
X154211136Y-84379757D01*
X154067806Y-84222240D01*
X154060273Y-84215215D01*
X153893139Y-84083222D01*
X153884552Y-84077517D01*
X153698117Y-83974599D01*
X153688705Y-83970369D01*
X153487959Y-83899280D01*
X153477988Y-83896646D01*
X153406837Y-83883972D01*
X153393540Y-83885432D01*
X153389000Y-83899989D01*
X153389000Y-86533517D01*
X153393064Y-86547359D01*
X153406478Y-86549393D01*
X153413184Y-86548534D01*
X153423262Y-86546392D01*
X153627255Y-86485191D01*
X153636842Y-86481433D01*
X153828095Y-86387739D01*
X153836945Y-86382464D01*
X154010328Y-86258792D01*
X154018200Y-86252139D01*
X154169052Y-86101812D01*
X154175730Y-86093965D01*
X154303022Y-85916819D01*
X154304279Y-85917722D01*
X154351373Y-85874362D01*
X154421311Y-85862145D01*
X154486751Y-85889678D01*
X154514579Y-85921511D01*
X154525688Y-85939639D01*
X154574987Y-86020088D01*
X154721250Y-86188938D01*
X154893126Y-86331632D01*
X155086000Y-86444338D01*
X155294692Y-86524030D01*
X155299760Y-86525061D01*
X155299763Y-86525062D01*
X155394862Y-86544410D01*
X155513597Y-86568567D01*
X155518772Y-86568757D01*
X155518774Y-86568757D01*
X155731673Y-86576564D01*
X155731677Y-86576564D01*
X155736837Y-86576753D01*
X155741957Y-86576097D01*
X155741959Y-86576097D01*
X155953288Y-86549025D01*
X155953289Y-86549025D01*
X155958416Y-86548368D01*
X155963369Y-86546882D01*
X155963374Y-86546881D01*
X155965598Y-86546214D01*
X155966539Y-86546208D01*
X155968428Y-86545807D01*
X155968511Y-86546197D01*
X156036594Y-86545798D01*
X156090899Y-86577804D01*
X156395254Y-86882158D01*
X156624142Y-87111046D01*
X156658167Y-87173359D01*
X156653103Y-87244174D01*
X156610556Y-87301010D01*
X156586296Y-87315248D01*
X156521286Y-87344193D01*
X156521281Y-87344196D01*
X156515248Y-87346882D01*
X156360747Y-87459134D01*
X156356332Y-87464037D01*
X156351420Y-87468460D01*
X156350295Y-87467211D01*
X156296986Y-87500051D01*
X156263800Y-87504500D01*
X152493768Y-87504500D01*
X152482585Y-87503973D01*
X152475092Y-87502298D01*
X152467166Y-87502547D01*
X152467165Y-87502547D01*
X152407002Y-87504438D01*
X152403044Y-87504500D01*
X152375144Y-87504500D01*
X152371154Y-87505004D01*
X152359320Y-87505936D01*
X152315111Y-87507326D01*
X152307495Y-87509539D01*
X152307493Y-87509539D01*
X152295652Y-87512979D01*
X152276293Y-87516988D01*
X152274983Y-87517154D01*
X152256203Y-87519526D01*
X152248837Y-87522442D01*
X152248831Y-87522444D01*
X152215098Y-87535800D01*
X152203868Y-87539645D01*
X152169017Y-87549770D01*
X152161407Y-87551981D01*
X152154584Y-87556016D01*
X152143966Y-87562295D01*
X152126213Y-87570992D01*
X152118568Y-87574019D01*
X152107383Y-87578448D01*
X152100968Y-87583109D01*
X152071612Y-87604437D01*
X152061695Y-87610951D01*
X152023638Y-87633458D01*
X152009317Y-87647779D01*
X151994284Y-87660619D01*
X151977893Y-87672528D01*
X151972842Y-87678634D01*
X151949702Y-87706605D01*
X151941712Y-87715384D01*
X147030345Y-92626750D01*
X146968033Y-92660776D01*
X146919154Y-92661702D01*
X146706373Y-92623800D01*
X146706367Y-92623799D01*
X146701284Y-92622894D01*
X146627452Y-92621992D01*
X146483081Y-92620228D01*
X146483079Y-92620228D01*
X146477911Y-92620165D01*
X146257091Y-92653955D01*
X146044756Y-92723357D01*
X145846607Y-92826507D01*
X145842474Y-92829610D01*
X145842471Y-92829612D01*
X145672100Y-92957530D01*
X145667965Y-92960635D01*
X145611537Y-93019684D01*
X145587283Y-93045064D01*
X145525759Y-93080494D01*
X145454846Y-93077037D01*
X145397060Y-93035791D01*
X145378207Y-93002243D01*
X145336767Y-92891703D01*
X145333615Y-92883295D01*
X145246261Y-92766739D01*
X145129705Y-92679385D01*
X144993316Y-92628255D01*
X144931134Y-92621500D01*
X143134866Y-92621500D01*
X143072684Y-92628255D01*
X142936295Y-92679385D01*
X142819739Y-92766739D01*
X142732385Y-92883295D01*
X142681255Y-93019684D01*
X142674500Y-93081866D01*
X142674500Y-94878134D01*
X142681255Y-94940316D01*
X142732385Y-95076705D01*
X142819739Y-95193261D01*
X142936295Y-95280615D01*
X143072684Y-95331745D01*
X143134866Y-95338500D01*
X143273500Y-95338500D01*
X143341621Y-95358502D01*
X143388114Y-95412158D01*
X143399500Y-95464500D01*
X143399500Y-100686233D01*
X143398973Y-100697416D01*
X143397298Y-100704909D01*
X143397547Y-100712835D01*
X143397547Y-100712836D01*
X143399438Y-100772986D01*
X143399500Y-100776945D01*
X143399500Y-100804856D01*
X143399997Y-100808790D01*
X143399997Y-100808791D01*
X143400005Y-100808856D01*
X143400938Y-100820693D01*
X143402327Y-100864889D01*
X143407978Y-100884339D01*
X143411987Y-100903700D01*
X143414526Y-100923797D01*
X143417445Y-100931168D01*
X143417445Y-100931170D01*
X143430804Y-100964912D01*
X143434649Y-100976142D01*
X143442554Y-101003353D01*
X143446982Y-101018593D01*
X143451015Y-101025412D01*
X143451017Y-101025417D01*
X143457293Y-101036028D01*
X143465988Y-101053776D01*
X143473448Y-101072617D01*
X143478110Y-101079033D01*
X143478110Y-101079034D01*
X143499436Y-101108387D01*
X143505952Y-101118307D01*
X143522725Y-101146668D01*
X143528458Y-101156362D01*
X143542779Y-101170683D01*
X143555619Y-101185716D01*
X143567528Y-101202107D01*
X143573634Y-101207158D01*
X143601605Y-101230298D01*
X143610384Y-101238288D01*
X144142501Y-101770405D01*
X144176527Y-101832717D01*
X144171462Y-101903532D01*
X144128915Y-101960368D01*
X144062395Y-101985179D01*
X144053406Y-101985500D01*
X142613866Y-101985500D01*
X142551684Y-101992255D01*
X142415295Y-102043385D01*
X142298739Y-102130739D01*
X142211385Y-102247295D01*
X142160255Y-102383684D01*
X142153500Y-102445866D01*
X142153500Y-106342134D01*
X142160255Y-106404316D01*
X142211385Y-106540705D01*
X142298739Y-106657261D01*
X142415295Y-106744615D01*
X142551684Y-106795745D01*
X142613866Y-106802500D01*
X144710134Y-106802500D01*
X144772316Y-106795745D01*
X144908705Y-106744615D01*
X145025261Y-106657261D01*
X145112615Y-106540705D01*
X145163745Y-106404316D01*
X145170500Y-106342134D01*
X145170500Y-103102594D01*
X145190502Y-103034473D01*
X145244158Y-102987980D01*
X145314432Y-102977876D01*
X145379012Y-103007370D01*
X145385595Y-103013499D01*
X148416595Y-106044499D01*
X148450621Y-106106811D01*
X148453500Y-106133594D01*
X148453500Y-107492134D01*
X148460255Y-107554316D01*
X148511385Y-107690705D01*
X148598739Y-107807261D01*
X148715295Y-107894615D01*
X148851684Y-107945745D01*
X148913866Y-107952500D01*
X151010134Y-107952500D01*
X151072316Y-107945745D01*
X151208705Y-107894615D01*
X151325261Y-107807261D01*
X151353170Y-107770022D01*
X151410029Y-107727509D01*
X151480848Y-107722484D01*
X151543090Y-107756494D01*
X152145595Y-108358999D01*
X152179621Y-108421311D01*
X152182500Y-108448094D01*
X152182500Y-109018906D01*
X152162498Y-109087027D01*
X152145595Y-109108001D01*
X148192747Y-113060848D01*
X148184461Y-113068388D01*
X148177982Y-113072500D01*
X148172557Y-113078277D01*
X148131357Y-113122151D01*
X148128602Y-113124993D01*
X148108865Y-113144730D01*
X148106385Y-113147927D01*
X148098682Y-113156947D01*
X148068414Y-113189179D01*
X148064595Y-113196125D01*
X148064593Y-113196128D01*
X148058652Y-113206934D01*
X148047801Y-113223453D01*
X148035386Y-113239459D01*
X148032241Y-113246728D01*
X148032238Y-113246732D01*
X148017826Y-113280037D01*
X148012609Y-113290687D01*
X147991305Y-113329440D01*
X147989334Y-113337115D01*
X147989334Y-113337116D01*
X147986267Y-113349062D01*
X147979863Y-113367766D01*
X147971819Y-113386355D01*
X147970580Y-113394178D01*
X147970577Y-113394188D01*
X147964901Y-113430024D01*
X147962495Y-113441644D01*
X147951500Y-113484470D01*
X147951500Y-113504724D01*
X147949949Y-113524434D01*
X147946780Y-113544443D01*
X147947526Y-113552335D01*
X147950941Y-113588461D01*
X147951500Y-113600319D01*
X147951500Y-118101692D01*
X147931498Y-118169813D01*
X147883683Y-118213453D01*
X147858607Y-118226507D01*
X147854474Y-118229610D01*
X147854471Y-118229612D01*
X147771450Y-118291946D01*
X147679965Y-118360635D01*
X147676393Y-118364373D01*
X147598898Y-118445466D01*
X147537374Y-118480895D01*
X147466462Y-118477438D01*
X147408676Y-118436192D01*
X147389823Y-118402644D01*
X147348324Y-118291946D01*
X147339786Y-118276351D01*
X147263285Y-118174276D01*
X147250724Y-118161715D01*
X147148649Y-118085214D01*
X147133054Y-118076676D01*
X147012606Y-118031522D01*
X146997351Y-118027895D01*
X146946486Y-118022369D01*
X146939672Y-118022000D01*
X146317115Y-118022000D01*
X146301876Y-118026475D01*
X146300671Y-118027865D01*
X146299000Y-118035548D01*
X146299000Y-120719884D01*
X146303475Y-120735123D01*
X146304865Y-120736328D01*
X146312548Y-120737999D01*
X146939669Y-120737999D01*
X146946490Y-120737629D01*
X146997352Y-120732105D01*
X147012604Y-120728479D01*
X147133054Y-120683324D01*
X147148649Y-120674786D01*
X147250724Y-120598285D01*
X147263285Y-120585724D01*
X147339786Y-120483649D01*
X147348324Y-120468054D01*
X147389225Y-120358952D01*
X147431867Y-120302188D01*
X147498428Y-120277488D01*
X147567777Y-120292696D01*
X147602444Y-120320684D01*
X147627865Y-120350031D01*
X147627869Y-120350035D01*
X147631250Y-120353938D01*
X147803126Y-120496632D01*
X147996000Y-120609338D01*
X148204692Y-120689030D01*
X148209760Y-120690061D01*
X148209763Y-120690062D01*
X148317017Y-120711883D01*
X148423597Y-120733567D01*
X148428772Y-120733757D01*
X148428774Y-120733757D01*
X148641673Y-120741564D01*
X148641677Y-120741564D01*
X148646837Y-120741753D01*
X148651957Y-120741097D01*
X148651959Y-120741097D01*
X148863288Y-120714025D01*
X148863289Y-120714025D01*
X148868416Y-120713368D01*
X148873366Y-120711883D01*
X149077429Y-120650661D01*
X149077434Y-120650659D01*
X149082384Y-120649174D01*
X149282994Y-120550896D01*
X149464860Y-120421173D01*
X149623096Y-120263489D01*
X149753453Y-120082077D01*
X149852430Y-119881811D01*
X149917370Y-119668069D01*
X149946529Y-119446590D01*
X149948156Y-119380000D01*
X149929852Y-119157361D01*
X149875431Y-118940702D01*
X149786354Y-118735840D01*
X149665014Y-118548277D01*
X149514670Y-118383051D01*
X149510619Y-118379852D01*
X149510615Y-118379848D01*
X149343414Y-118247800D01*
X149343410Y-118247798D01*
X149339359Y-118244598D01*
X149334835Y-118242101D01*
X149334831Y-118242098D01*
X149283608Y-118213822D01*
X149233636Y-118163390D01*
X149218500Y-118103513D01*
X149218500Y-113879094D01*
X149238502Y-113810973D01*
X149255405Y-113789999D01*
X152377904Y-110667500D01*
X159723393Y-110667500D01*
X159743789Y-110926650D01*
X159804473Y-111179420D01*
X159903952Y-111419584D01*
X160039777Y-111641229D01*
X160208602Y-111838898D01*
X160406271Y-112007723D01*
X160627916Y-112143548D01*
X160632486Y-112145441D01*
X160632488Y-112145442D01*
X160863507Y-112241133D01*
X160868080Y-112243027D01*
X160954543Y-112263785D01*
X161116037Y-112302556D01*
X161116043Y-112302557D01*
X161120850Y-112303711D01*
X161380000Y-112324107D01*
X161639150Y-112303711D01*
X161643957Y-112302557D01*
X161643963Y-112302556D01*
X161805457Y-112263785D01*
X161891920Y-112243027D01*
X161896493Y-112241133D01*
X162127512Y-112145442D01*
X162127514Y-112145441D01*
X162132084Y-112143548D01*
X162353729Y-112007723D01*
X162551398Y-111838898D01*
X162720223Y-111641229D01*
X162856048Y-111419584D01*
X162955527Y-111179420D01*
X163016211Y-110926650D01*
X163036607Y-110667500D01*
X163016211Y-110408350D01*
X162955527Y-110155580D01*
X162856048Y-109915416D01*
X162720223Y-109693771D01*
X162702767Y-109673332D01*
X162554611Y-109499864D01*
X162551398Y-109496102D01*
X162401188Y-109367811D01*
X162357497Y-109330495D01*
X162357496Y-109330494D01*
X162353729Y-109327277D01*
X162132084Y-109191452D01*
X162127514Y-109189559D01*
X162127512Y-109189558D01*
X161896493Y-109093867D01*
X161896491Y-109093866D01*
X161891920Y-109091973D01*
X161792377Y-109068075D01*
X161643963Y-109032444D01*
X161643957Y-109032443D01*
X161639150Y-109031289D01*
X161380000Y-109010893D01*
X161120850Y-109031289D01*
X161116043Y-109032443D01*
X161116037Y-109032444D01*
X160967623Y-109068075D01*
X160868080Y-109091973D01*
X160863509Y-109093866D01*
X160863507Y-109093867D01*
X160632488Y-109189558D01*
X160632486Y-109189559D01*
X160627916Y-109191452D01*
X160406271Y-109327277D01*
X160402504Y-109330494D01*
X160402503Y-109330495D01*
X160358812Y-109367811D01*
X160208602Y-109496102D01*
X160205389Y-109499864D01*
X160057234Y-109673332D01*
X160039777Y-109693771D01*
X159903952Y-109915416D01*
X159804473Y-110155580D01*
X159743789Y-110408350D01*
X159723393Y-110667500D01*
X152377904Y-110667500D01*
X153178999Y-109866405D01*
X153241311Y-109832379D01*
X153268094Y-109829500D01*
X153941400Y-109829500D01*
X153944646Y-109829163D01*
X153944650Y-109829163D01*
X154040308Y-109819238D01*
X154040312Y-109819237D01*
X154047166Y-109818526D01*
X154053702Y-109816345D01*
X154053704Y-109816345D01*
X154207998Y-109764868D01*
X154214946Y-109762550D01*
X154365348Y-109669478D01*
X154490305Y-109544303D01*
X154583115Y-109393738D01*
X154638797Y-109225861D01*
X154649500Y-109121400D01*
X154649500Y-108345600D01*
X154638526Y-108239834D01*
X154582550Y-108072054D01*
X154489478Y-107921652D01*
X154364303Y-107796695D01*
X154360084Y-107794094D01*
X154319583Y-107736970D01*
X154316351Y-107666047D01*
X154351976Y-107604635D01*
X154359530Y-107598078D01*
X154365348Y-107594478D01*
X154490305Y-107469303D01*
X154583115Y-107318738D01*
X154602653Y-107259833D01*
X154643084Y-107201473D01*
X154708648Y-107174236D01*
X154722246Y-107173500D01*
X155770207Y-107173500D01*
X155793816Y-107175732D01*
X155794119Y-107175790D01*
X155794123Y-107175790D01*
X155801906Y-107177275D01*
X155857951Y-107173749D01*
X155865862Y-107173500D01*
X157518532Y-107173500D01*
X157586653Y-107193502D01*
X157625964Y-107233665D01*
X157708408Y-107368200D01*
X157858869Y-107541898D01*
X157862844Y-107545198D01*
X157862847Y-107545201D01*
X157915960Y-107589296D01*
X158035679Y-107688689D01*
X158234090Y-107804631D01*
X158238910Y-107806471D01*
X158238915Y-107806474D01*
X158345296Y-107847096D01*
X158448774Y-107886610D01*
X158453842Y-107887641D01*
X158453845Y-107887642D01*
X158503611Y-107897767D01*
X158673963Y-107932426D01*
X158679136Y-107932616D01*
X158679139Y-107932616D01*
X158898448Y-107940657D01*
X158898452Y-107940657D01*
X158903612Y-107940846D01*
X158908732Y-107940190D01*
X158908734Y-107940190D01*
X159126425Y-107912304D01*
X159126428Y-107912303D01*
X159131552Y-107911647D01*
X159206275Y-107889229D01*
X159346710Y-107847096D01*
X159351663Y-107845610D01*
X159558033Y-107744511D01*
X159637890Y-107687550D01*
X159740916Y-107614062D01*
X159745119Y-107611064D01*
X159751571Y-107604635D01*
X159882177Y-107474483D01*
X159907898Y-107448852D01*
X160041997Y-107262233D01*
X160143816Y-107056217D01*
X160159739Y-107003808D01*
X160209117Y-106841291D01*
X160209118Y-106841285D01*
X160210621Y-106836339D01*
X160226544Y-106715389D01*
X160240179Y-106611823D01*
X160240179Y-106611819D01*
X160240616Y-106608502D01*
X160242290Y-106540000D01*
X160232804Y-106424623D01*
X160223884Y-106316121D01*
X160223883Y-106316115D01*
X160223460Y-106310970D01*
X160167477Y-106088090D01*
X160075843Y-105877347D01*
X160060693Y-105853928D01*
X159953830Y-105688743D01*
X159953828Y-105688740D01*
X159951020Y-105684400D01*
X159904000Y-105632725D01*
X159799837Y-105518252D01*
X159799835Y-105518251D01*
X159796359Y-105514430D01*
X159792308Y-105511231D01*
X159792304Y-105511227D01*
X159620069Y-105375204D01*
X159620064Y-105375201D01*
X159616015Y-105372003D01*
X159615590Y-105371768D01*
X159570796Y-105318452D01*
X159561766Y-105248032D01*
X159592240Y-105183908D01*
X159613026Y-105165285D01*
X159740916Y-105074062D01*
X159745119Y-105071064D01*
X159768764Y-105047502D01*
X159904237Y-104912500D01*
X159907898Y-104908852D01*
X160041997Y-104722233D01*
X160079169Y-104647022D01*
X160141522Y-104520858D01*
X160143816Y-104516217D01*
X160169707Y-104431000D01*
X160209117Y-104301291D01*
X160209118Y-104301285D01*
X160210621Y-104296339D01*
X160232788Y-104127965D01*
X160240179Y-104071823D01*
X160240179Y-104071819D01*
X160240616Y-104068502D01*
X160240876Y-104057855D01*
X160262534Y-103990244D01*
X160317309Y-103945075D01*
X160387809Y-103936689D01*
X160455933Y-103971837D01*
X165789595Y-109305499D01*
X165823621Y-109367811D01*
X165826500Y-109394594D01*
X165826500Y-112837721D01*
X165806498Y-112905842D01*
X165758680Y-112949484D01*
X165712753Y-112973392D01*
X165708620Y-112976495D01*
X165708617Y-112976497D01*
X165533118Y-113108265D01*
X165528983Y-113111370D01*
X165494116Y-113147856D01*
X165412561Y-113233199D01*
X165370216Y-113277510D01*
X165367307Y-113281775D01*
X165367301Y-113281783D01*
X165314855Y-113358666D01*
X165240716Y-113467350D01*
X165143961Y-113675792D01*
X165082548Y-113897237D01*
X165058129Y-114125739D01*
X165071357Y-114355161D01*
X165121878Y-114579342D01*
X165208336Y-114792261D01*
X165328408Y-114988200D01*
X165478869Y-115161898D01*
X165655679Y-115308689D01*
X165854090Y-115424631D01*
X165858910Y-115426471D01*
X165858915Y-115426474D01*
X165965296Y-115467096D01*
X166068774Y-115506610D01*
X166073842Y-115507641D01*
X166073845Y-115507642D01*
X166184534Y-115530162D01*
X166293963Y-115552426D01*
X166299136Y-115552616D01*
X166299139Y-115552616D01*
X166518448Y-115560657D01*
X166518452Y-115560657D01*
X166523612Y-115560846D01*
X166528732Y-115560190D01*
X166528734Y-115560190D01*
X166746425Y-115532304D01*
X166746428Y-115532303D01*
X166751552Y-115531647D01*
X166971663Y-115465610D01*
X167178033Y-115364511D01*
X167365119Y-115231064D01*
X167527898Y-115068852D01*
X167530914Y-115064655D01*
X167530921Y-115064647D01*
X167627689Y-114929980D01*
X167683683Y-114886332D01*
X167754387Y-114879886D01*
X167817351Y-114912689D01*
X167837444Y-114937672D01*
X167865707Y-114983794D01*
X167865711Y-114983799D01*
X167868408Y-114988200D01*
X168018869Y-115161898D01*
X168195679Y-115308689D01*
X168394090Y-115424631D01*
X168398910Y-115426471D01*
X168398915Y-115426474D01*
X168505296Y-115467096D01*
X168608774Y-115506610D01*
X168613842Y-115507641D01*
X168613845Y-115507642D01*
X168724534Y-115530162D01*
X168833963Y-115552426D01*
X168839136Y-115552616D01*
X168839139Y-115552616D01*
X169058448Y-115560657D01*
X169058452Y-115560657D01*
X169063612Y-115560846D01*
X169068732Y-115560190D01*
X169068734Y-115560190D01*
X169286425Y-115532304D01*
X169286428Y-115532303D01*
X169291552Y-115531647D01*
X169511663Y-115465610D01*
X169718033Y-115364511D01*
X169905119Y-115231064D01*
X170067898Y-115068852D01*
X170070914Y-115064655D01*
X170070921Y-115064647D01*
X170167689Y-114929980D01*
X170223683Y-114886332D01*
X170294387Y-114879886D01*
X170357351Y-114912689D01*
X170377444Y-114937672D01*
X170405707Y-114983794D01*
X170405711Y-114983799D01*
X170408408Y-114988200D01*
X170558869Y-115161898D01*
X170735679Y-115308689D01*
X170934090Y-115424631D01*
X170938910Y-115426471D01*
X170938915Y-115426474D01*
X171045296Y-115467096D01*
X171148774Y-115506610D01*
X171153842Y-115507641D01*
X171153845Y-115507642D01*
X171264534Y-115530162D01*
X171373963Y-115552426D01*
X171379136Y-115552616D01*
X171379139Y-115552616D01*
X171598448Y-115560657D01*
X171598452Y-115560657D01*
X171603612Y-115560846D01*
X171608732Y-115560190D01*
X171608734Y-115560190D01*
X171826425Y-115532304D01*
X171826428Y-115532303D01*
X171831552Y-115531647D01*
X172051663Y-115465610D01*
X172258033Y-115364511D01*
X172445119Y-115231064D01*
X172607898Y-115068852D01*
X172741997Y-114882233D01*
X172843816Y-114676217D01*
X172859739Y-114623808D01*
X172909117Y-114461291D01*
X172909118Y-114461285D01*
X172910621Y-114456339D01*
X172940616Y-114228502D01*
X172942290Y-114160000D01*
X172936058Y-114084194D01*
X172923884Y-113936121D01*
X172923883Y-113936115D01*
X172923460Y-113930970D01*
X172867477Y-113708090D01*
X172775843Y-113497347D01*
X172772642Y-113492399D01*
X172653830Y-113308743D01*
X172653828Y-113308740D01*
X172651020Y-113304400D01*
X172638553Y-113290698D01*
X172499837Y-113138252D01*
X172499835Y-113138251D01*
X172496359Y-113134430D01*
X172492308Y-113131231D01*
X172492304Y-113131227D01*
X172320073Y-112995208D01*
X172316015Y-112992003D01*
X172114831Y-112880943D01*
X171992776Y-112837721D01*
X171903084Y-112805959D01*
X171903080Y-112805958D01*
X171898209Y-112804233D01*
X171893116Y-112803326D01*
X171893113Y-112803325D01*
X171677056Y-112764839D01*
X171677050Y-112764838D01*
X171671967Y-112763933D01*
X171598784Y-112763039D01*
X171447351Y-112761189D01*
X171447349Y-112761189D01*
X171442181Y-112761126D01*
X171290610Y-112784319D01*
X171220131Y-112795104D01*
X171220128Y-112795105D01*
X171215022Y-112795886D01*
X171210110Y-112797491D01*
X171210112Y-112797491D01*
X171001504Y-112865675D01*
X171001502Y-112865676D01*
X170996591Y-112867281D01*
X170792753Y-112973392D01*
X170788620Y-112976495D01*
X170788617Y-112976497D01*
X170613118Y-113108265D01*
X170608983Y-113111370D01*
X170574116Y-113147856D01*
X170492561Y-113233199D01*
X170450216Y-113277510D01*
X170374063Y-113389147D01*
X170319154Y-113434147D01*
X170248630Y-113442318D01*
X170184882Y-113411064D01*
X170164185Y-113386580D01*
X170113830Y-113308743D01*
X170113828Y-113308740D01*
X170111020Y-113304400D01*
X170098553Y-113290698D01*
X169959837Y-113138252D01*
X169959835Y-113138251D01*
X169956359Y-113134430D01*
X169952308Y-113131231D01*
X169952304Y-113131227D01*
X169780073Y-112995208D01*
X169776015Y-112992003D01*
X169574831Y-112880943D01*
X169452776Y-112837721D01*
X169363084Y-112805959D01*
X169363080Y-112805958D01*
X169358209Y-112804233D01*
X169353116Y-112803326D01*
X169353113Y-112803325D01*
X169137056Y-112764839D01*
X169137050Y-112764838D01*
X169131967Y-112763933D01*
X169058784Y-112763039D01*
X168907351Y-112761189D01*
X168907349Y-112761189D01*
X168902181Y-112761126D01*
X168750610Y-112784319D01*
X168680131Y-112795104D01*
X168680128Y-112795105D01*
X168675022Y-112795886D01*
X168670110Y-112797491D01*
X168670112Y-112797491D01*
X168461504Y-112865675D01*
X168461502Y-112865676D01*
X168456591Y-112867281D01*
X168252753Y-112973392D01*
X168248620Y-112976495D01*
X168248617Y-112976497D01*
X168073118Y-113108265D01*
X168068983Y-113111370D01*
X168034116Y-113147856D01*
X167952561Y-113233199D01*
X167910216Y-113277510D01*
X167834063Y-113389147D01*
X167779154Y-113434147D01*
X167708630Y-113442318D01*
X167644882Y-113411064D01*
X167624185Y-113386580D01*
X167573830Y-113308743D01*
X167573828Y-113308740D01*
X167571020Y-113304400D01*
X167558553Y-113290698D01*
X167419837Y-113138252D01*
X167419835Y-113138251D01*
X167416359Y-113134430D01*
X167412308Y-113131231D01*
X167412304Y-113131227D01*
X167240073Y-112995208D01*
X167236015Y-112992003D01*
X167158603Y-112949269D01*
X167108636Y-112898839D01*
X167093500Y-112838963D01*
X167093500Y-110667500D01*
X174963393Y-110667500D01*
X174983789Y-110926650D01*
X175044473Y-111179420D01*
X175143952Y-111419584D01*
X175279777Y-111641229D01*
X175448602Y-111838898D01*
X175646271Y-112007723D01*
X175867916Y-112143548D01*
X175872486Y-112145441D01*
X175872488Y-112145442D01*
X176103507Y-112241133D01*
X176108080Y-112243027D01*
X176194543Y-112263785D01*
X176356037Y-112302556D01*
X176356043Y-112302557D01*
X176360850Y-112303711D01*
X176620000Y-112324107D01*
X176879150Y-112303711D01*
X176883957Y-112302557D01*
X176883963Y-112302556D01*
X177045457Y-112263785D01*
X177131920Y-112243027D01*
X177136493Y-112241133D01*
X177367512Y-112145442D01*
X177367514Y-112145441D01*
X177372084Y-112143548D01*
X177593729Y-112007723D01*
X177791398Y-111838898D01*
X177960223Y-111641229D01*
X178096048Y-111419584D01*
X178195527Y-111179420D01*
X178256211Y-110926650D01*
X178276607Y-110667500D01*
X178256211Y-110408350D01*
X178195527Y-110155580D01*
X178096048Y-109915416D01*
X177960223Y-109693771D01*
X177942767Y-109673332D01*
X177794611Y-109499864D01*
X177791398Y-109496102D01*
X177641188Y-109367811D01*
X177597497Y-109330495D01*
X177597496Y-109330494D01*
X177593729Y-109327277D01*
X177372084Y-109191452D01*
X177367514Y-109189559D01*
X177367512Y-109189558D01*
X177136493Y-109093867D01*
X177136491Y-109093866D01*
X177131920Y-109091973D01*
X177032377Y-109068075D01*
X176883963Y-109032444D01*
X176883957Y-109032443D01*
X176879150Y-109031289D01*
X176620000Y-109010893D01*
X176360850Y-109031289D01*
X176356043Y-109032443D01*
X176356037Y-109032444D01*
X176207623Y-109068075D01*
X176108080Y-109091973D01*
X176103509Y-109093866D01*
X176103507Y-109093867D01*
X175872488Y-109189558D01*
X175872486Y-109189559D01*
X175867916Y-109191452D01*
X175646271Y-109327277D01*
X175642504Y-109330494D01*
X175642503Y-109330495D01*
X175598812Y-109367811D01*
X175448602Y-109496102D01*
X175445389Y-109499864D01*
X175297234Y-109673332D01*
X175279777Y-109693771D01*
X175143952Y-109915416D01*
X175044473Y-110155580D01*
X174983789Y-110408350D01*
X174963393Y-110667500D01*
X167093500Y-110667500D01*
X167093500Y-109158763D01*
X167094027Y-109147579D01*
X167095701Y-109140091D01*
X167093562Y-109072032D01*
X167093500Y-109068075D01*
X167093500Y-109040144D01*
X167092994Y-109036138D01*
X167092061Y-109024292D01*
X167090922Y-108988037D01*
X167090673Y-108980110D01*
X167085022Y-108960658D01*
X167081014Y-108941306D01*
X167079467Y-108929063D01*
X167078474Y-108921203D01*
X167075556Y-108913832D01*
X167062200Y-108880097D01*
X167058355Y-108868870D01*
X167057721Y-108866687D01*
X167046018Y-108826407D01*
X167041984Y-108819585D01*
X167041981Y-108819579D01*
X167035706Y-108808968D01*
X167027010Y-108791218D01*
X167022472Y-108779756D01*
X167022469Y-108779751D01*
X167019552Y-108772383D01*
X166993573Y-108736625D01*
X166987057Y-108726707D01*
X166968575Y-108695457D01*
X166964542Y-108688637D01*
X166950218Y-108674313D01*
X166937376Y-108659278D01*
X166925472Y-108642893D01*
X166891406Y-108614711D01*
X166882627Y-108606722D01*
X160222483Y-101946578D01*
X160188457Y-101884266D01*
X160191019Y-101820855D01*
X160206347Y-101770405D01*
X160210621Y-101756339D01*
X160240616Y-101528502D01*
X160242290Y-101460000D01*
X160231972Y-101334500D01*
X160223884Y-101236121D01*
X160223883Y-101236115D01*
X160223460Y-101230970D01*
X160167477Y-101008090D01*
X160075843Y-100797347D01*
X160073037Y-100793009D01*
X159953830Y-100608743D01*
X159953828Y-100608740D01*
X159951020Y-100604400D01*
X159891966Y-100539500D01*
X159799837Y-100438252D01*
X159799835Y-100438251D01*
X159796359Y-100434430D01*
X159792308Y-100431231D01*
X159792304Y-100431227D01*
X159620073Y-100295208D01*
X159616015Y-100292003D01*
X159538603Y-100249269D01*
X159488636Y-100198839D01*
X159473500Y-100138963D01*
X159473500Y-97364227D01*
X159481579Y-97336713D01*
X159476191Y-97326676D01*
X159476184Y-97326608D01*
X159719033Y-97326608D01*
X159720396Y-97328729D01*
X159725112Y-97354341D01*
X159743789Y-97591650D01*
X159744943Y-97596457D01*
X159744944Y-97596463D01*
X159781844Y-97750162D01*
X159804473Y-97844420D01*
X159806366Y-97848991D01*
X159806367Y-97848993D01*
X159855065Y-97966559D01*
X159903952Y-98084584D01*
X160039777Y-98306229D01*
X160208602Y-98503898D01*
X160406271Y-98672723D01*
X160627916Y-98808548D01*
X160632486Y-98810441D01*
X160632488Y-98810442D01*
X160863507Y-98906133D01*
X160868080Y-98908027D01*
X160954543Y-98928785D01*
X161116037Y-98967556D01*
X161116043Y-98967557D01*
X161120850Y-98968711D01*
X161380000Y-98989107D01*
X161639150Y-98968711D01*
X161643957Y-98967557D01*
X161643963Y-98967556D01*
X161805457Y-98928785D01*
X161891920Y-98908027D01*
X161896493Y-98906133D01*
X162127512Y-98810442D01*
X162127514Y-98810441D01*
X162132084Y-98808548D01*
X162353729Y-98672723D01*
X162551398Y-98503898D01*
X162720223Y-98306229D01*
X162856048Y-98084584D01*
X162904936Y-97966559D01*
X162953633Y-97848993D01*
X162953634Y-97848991D01*
X162955527Y-97844420D01*
X162978156Y-97750162D01*
X163015056Y-97596463D01*
X163015057Y-97596457D01*
X163016211Y-97591650D01*
X163036607Y-97332500D01*
X163016211Y-97073350D01*
X162955527Y-96820580D01*
X162893656Y-96671210D01*
X162857942Y-96584988D01*
X162857940Y-96584984D01*
X162856048Y-96580416D01*
X162720223Y-96358771D01*
X162709093Y-96345739D01*
X164423129Y-96345739D01*
X164436357Y-96575161D01*
X164437492Y-96580198D01*
X164437493Y-96580204D01*
X164460274Y-96681291D01*
X164486878Y-96799342D01*
X164573336Y-97012261D01*
X164576033Y-97016662D01*
X164576034Y-97016664D01*
X164613795Y-97078284D01*
X164693408Y-97208200D01*
X164843869Y-97381898D01*
X165020679Y-97528689D01*
X165219090Y-97644631D01*
X165223910Y-97646471D01*
X165223915Y-97646474D01*
X165330296Y-97687096D01*
X165433774Y-97726610D01*
X165438842Y-97727641D01*
X165438845Y-97727642D01*
X165549534Y-97750162D01*
X165658963Y-97772426D01*
X165664136Y-97772616D01*
X165664139Y-97772616D01*
X165883448Y-97780657D01*
X165883452Y-97780657D01*
X165888612Y-97780846D01*
X165893732Y-97780190D01*
X165893734Y-97780190D01*
X166111425Y-97752304D01*
X166111428Y-97752303D01*
X166116552Y-97751647D01*
X166336663Y-97685610D01*
X166543033Y-97584511D01*
X166730119Y-97451064D01*
X166892898Y-97288852D01*
X167026997Y-97102233D01*
X167128816Y-96896217D01*
X167153186Y-96816007D01*
X167194117Y-96681291D01*
X167194118Y-96681285D01*
X167195621Y-96676339D01*
X167225616Y-96448502D01*
X167227290Y-96380000D01*
X167224473Y-96345739D01*
X170773129Y-96345739D01*
X170786357Y-96575161D01*
X170787492Y-96580198D01*
X170787493Y-96580204D01*
X170810274Y-96681291D01*
X170836878Y-96799342D01*
X170923336Y-97012261D01*
X170926033Y-97016662D01*
X170926034Y-97016664D01*
X170963795Y-97078284D01*
X171043408Y-97208200D01*
X171193869Y-97381898D01*
X171370679Y-97528689D01*
X171569090Y-97644631D01*
X171573910Y-97646471D01*
X171573915Y-97646474D01*
X171680296Y-97687096D01*
X171783774Y-97726610D01*
X171788842Y-97727641D01*
X171788845Y-97727642D01*
X171899534Y-97750162D01*
X172008963Y-97772426D01*
X172014136Y-97772616D01*
X172014139Y-97772616D01*
X172233448Y-97780657D01*
X172233452Y-97780657D01*
X172238612Y-97780846D01*
X172243732Y-97780190D01*
X172243734Y-97780190D01*
X172461425Y-97752304D01*
X172461428Y-97752303D01*
X172466552Y-97751647D01*
X172686663Y-97685610D01*
X172893033Y-97584511D01*
X173080119Y-97451064D01*
X173199097Y-97332500D01*
X174963393Y-97332500D01*
X174983789Y-97591650D01*
X174984943Y-97596457D01*
X174984944Y-97596463D01*
X175021844Y-97750162D01*
X175044473Y-97844420D01*
X175046366Y-97848991D01*
X175046367Y-97848993D01*
X175095065Y-97966559D01*
X175143952Y-98084584D01*
X175279777Y-98306229D01*
X175448602Y-98503898D01*
X175646271Y-98672723D01*
X175867916Y-98808548D01*
X175872486Y-98810441D01*
X175872488Y-98810442D01*
X176103507Y-98906133D01*
X176108080Y-98908027D01*
X176194543Y-98928785D01*
X176356037Y-98967556D01*
X176356043Y-98967557D01*
X176360850Y-98968711D01*
X176620000Y-98989107D01*
X176879150Y-98968711D01*
X176883957Y-98967557D01*
X176883963Y-98967556D01*
X177045457Y-98928785D01*
X177131920Y-98908027D01*
X177136493Y-98906133D01*
X177367512Y-98810442D01*
X177367514Y-98810441D01*
X177372084Y-98808548D01*
X177593729Y-98672723D01*
X177791398Y-98503898D01*
X177960223Y-98306229D01*
X178096048Y-98084584D01*
X178144936Y-97966559D01*
X178193633Y-97848993D01*
X178193634Y-97848991D01*
X178195527Y-97844420D01*
X178218156Y-97750162D01*
X178255056Y-97596463D01*
X178255057Y-97596457D01*
X178256211Y-97591650D01*
X178276607Y-97332500D01*
X178256211Y-97073350D01*
X178195527Y-96820580D01*
X178133656Y-96671210D01*
X178097942Y-96584988D01*
X178097940Y-96584984D01*
X178096048Y-96580416D01*
X177960223Y-96358771D01*
X177791398Y-96161102D01*
X177707091Y-96089097D01*
X177597497Y-95995495D01*
X177597496Y-95995494D01*
X177593729Y-95992277D01*
X177372084Y-95856452D01*
X177367514Y-95854559D01*
X177367512Y-95854558D01*
X177136493Y-95758867D01*
X177136491Y-95758866D01*
X177131920Y-95756973D01*
X176986583Y-95722081D01*
X176883963Y-95697444D01*
X176883957Y-95697443D01*
X176879150Y-95696289D01*
X176620000Y-95675893D01*
X176360850Y-95696289D01*
X176356043Y-95697443D01*
X176356037Y-95697444D01*
X176253417Y-95722081D01*
X176108080Y-95756973D01*
X176103509Y-95758866D01*
X176103507Y-95758867D01*
X175872488Y-95854558D01*
X175872486Y-95854559D01*
X175867916Y-95856452D01*
X175646271Y-95992277D01*
X175642504Y-95995494D01*
X175642503Y-95995495D01*
X175532909Y-96089097D01*
X175448602Y-96161102D01*
X175279777Y-96358771D01*
X175143952Y-96580416D01*
X175142060Y-96584984D01*
X175142058Y-96584988D01*
X175106344Y-96671210D01*
X175044473Y-96820580D01*
X174983789Y-97073350D01*
X174963393Y-97332500D01*
X173199097Y-97332500D01*
X173242898Y-97288852D01*
X173376997Y-97102233D01*
X173478816Y-96896217D01*
X173503186Y-96816007D01*
X173544117Y-96681291D01*
X173544118Y-96681285D01*
X173545621Y-96676339D01*
X173575616Y-96448502D01*
X173577290Y-96380000D01*
X173566337Y-96246778D01*
X173558884Y-96156121D01*
X173558883Y-96156115D01*
X173558460Y-96150970D01*
X173502477Y-95928090D01*
X173410843Y-95717347D01*
X173401376Y-95702713D01*
X173288830Y-95528743D01*
X173288828Y-95528740D01*
X173286020Y-95524400D01*
X173233686Y-95466885D01*
X173134837Y-95358252D01*
X173134835Y-95358251D01*
X173131359Y-95354430D01*
X173127308Y-95351231D01*
X173127304Y-95351227D01*
X172955073Y-95215208D01*
X172951015Y-95212003D01*
X172749831Y-95100943D01*
X172632611Y-95059433D01*
X172538084Y-95025959D01*
X172538080Y-95025958D01*
X172533209Y-95024233D01*
X172528116Y-95023326D01*
X172528113Y-95023325D01*
X172312056Y-94984839D01*
X172312050Y-94984838D01*
X172306967Y-94983933D01*
X172233784Y-94983039D01*
X172082351Y-94981189D01*
X172082349Y-94981189D01*
X172077181Y-94981126D01*
X171925610Y-95004319D01*
X171855131Y-95015104D01*
X171855128Y-95015105D01*
X171850022Y-95015886D01*
X171824485Y-95024233D01*
X171636504Y-95085675D01*
X171636502Y-95085676D01*
X171631591Y-95087281D01*
X171427753Y-95193392D01*
X171423620Y-95196495D01*
X171423617Y-95196497D01*
X171248118Y-95328265D01*
X171243983Y-95331370D01*
X171085216Y-95497510D01*
X170955716Y-95687350D01*
X170923398Y-95756973D01*
X170869332Y-95873450D01*
X170858961Y-95895792D01*
X170797548Y-96117237D01*
X170796999Y-96122371D01*
X170796999Y-96122373D01*
X170794479Y-96145959D01*
X170773129Y-96345739D01*
X167224473Y-96345739D01*
X167216337Y-96246778D01*
X167208884Y-96156121D01*
X167208883Y-96156115D01*
X167208460Y-96150970D01*
X167152477Y-95928090D01*
X167060843Y-95717347D01*
X167051376Y-95702713D01*
X166938830Y-95528743D01*
X166938828Y-95528740D01*
X166936020Y-95524400D01*
X166883686Y-95466885D01*
X166784837Y-95358252D01*
X166784835Y-95358251D01*
X166781359Y-95354430D01*
X166777308Y-95351231D01*
X166777304Y-95351227D01*
X166605073Y-95215208D01*
X166601015Y-95212003D01*
X166399831Y-95100943D01*
X166282611Y-95059433D01*
X166188084Y-95025959D01*
X166188080Y-95025958D01*
X166183209Y-95024233D01*
X166178116Y-95023326D01*
X166178113Y-95023325D01*
X165962056Y-94984839D01*
X165962050Y-94984838D01*
X165956967Y-94983933D01*
X165883784Y-94983039D01*
X165732351Y-94981189D01*
X165732349Y-94981189D01*
X165727181Y-94981126D01*
X165575610Y-95004319D01*
X165505131Y-95015104D01*
X165505128Y-95015105D01*
X165500022Y-95015886D01*
X165474485Y-95024233D01*
X165286504Y-95085675D01*
X165286502Y-95085676D01*
X165281591Y-95087281D01*
X165077753Y-95193392D01*
X165073620Y-95196495D01*
X165073617Y-95196497D01*
X164898118Y-95328265D01*
X164893983Y-95331370D01*
X164735216Y-95497510D01*
X164605716Y-95687350D01*
X164573398Y-95756973D01*
X164519332Y-95873450D01*
X164508961Y-95895792D01*
X164447548Y-96117237D01*
X164446999Y-96122371D01*
X164446999Y-96122373D01*
X164444479Y-96145959D01*
X164423129Y-96345739D01*
X162709093Y-96345739D01*
X162551398Y-96161102D01*
X162467091Y-96089097D01*
X162357497Y-95995495D01*
X162357496Y-95995494D01*
X162353729Y-95992277D01*
X162132084Y-95856452D01*
X162127514Y-95854559D01*
X162127512Y-95854558D01*
X161896493Y-95758867D01*
X161896491Y-95758866D01*
X161891920Y-95756973D01*
X161746583Y-95722081D01*
X161643963Y-95697444D01*
X161643957Y-95697443D01*
X161639150Y-95696289D01*
X161380000Y-95675893D01*
X161120850Y-95696289D01*
X161116043Y-95697443D01*
X161116037Y-95697444D01*
X161013417Y-95722081D01*
X160868080Y-95756973D01*
X160863509Y-95758866D01*
X160863507Y-95758867D01*
X160632488Y-95854558D01*
X160632486Y-95854559D01*
X160627916Y-95856452D01*
X160406271Y-95992277D01*
X160402504Y-95995494D01*
X160402503Y-95995495D01*
X160292909Y-96089097D01*
X160208602Y-96161102D01*
X160039777Y-96358771D01*
X159903952Y-96580416D01*
X159902060Y-96584984D01*
X159902058Y-96584988D01*
X159866344Y-96671210D01*
X159804473Y-96820580D01*
X159743789Y-97073350D01*
X159733522Y-97203799D01*
X159725112Y-97310659D01*
X159719033Y-97326608D01*
X159476184Y-97326608D01*
X159473500Y-97300773D01*
X159473500Y-91265739D01*
X164423129Y-91265739D01*
X164423426Y-91270892D01*
X164423426Y-91270895D01*
X164427040Y-91333572D01*
X164436357Y-91495161D01*
X164437492Y-91500198D01*
X164437493Y-91500204D01*
X164475656Y-91669546D01*
X164486878Y-91719342D01*
X164573336Y-91932261D01*
X164693408Y-92128200D01*
X164843869Y-92301898D01*
X165020679Y-92448689D01*
X165219090Y-92564631D01*
X165223910Y-92566471D01*
X165223915Y-92566474D01*
X165330296Y-92607096D01*
X165433774Y-92646610D01*
X165438842Y-92647641D01*
X165438845Y-92647642D01*
X165549534Y-92670162D01*
X165658963Y-92692426D01*
X165664136Y-92692616D01*
X165664139Y-92692616D01*
X165883448Y-92700657D01*
X165883452Y-92700657D01*
X165888612Y-92700846D01*
X165893732Y-92700190D01*
X165893734Y-92700190D01*
X166111425Y-92672304D01*
X166111428Y-92672303D01*
X166116552Y-92671647D01*
X166151504Y-92661161D01*
X166331710Y-92607096D01*
X166336663Y-92605610D01*
X166543033Y-92504511D01*
X166582877Y-92476091D01*
X166725916Y-92374062D01*
X166730119Y-92371064D01*
X166892898Y-92208852D01*
X167026997Y-92022233D01*
X167128816Y-91816217D01*
X167156548Y-91724941D01*
X167194117Y-91601291D01*
X167194118Y-91601285D01*
X167195621Y-91596339D01*
X167225616Y-91368502D01*
X167227290Y-91300000D01*
X167214629Y-91146006D01*
X167208884Y-91076121D01*
X167208883Y-91076115D01*
X167208460Y-91070970D01*
X167152477Y-90848090D01*
X167060843Y-90637347D01*
X167058037Y-90633009D01*
X166938830Y-90448743D01*
X166938828Y-90448740D01*
X166936020Y-90444400D01*
X166905013Y-90410323D01*
X166784837Y-90278252D01*
X166784835Y-90278251D01*
X166781359Y-90274430D01*
X166777308Y-90271231D01*
X166777304Y-90271227D01*
X166605073Y-90135208D01*
X166601015Y-90132003D01*
X166399831Y-90020943D01*
X166277686Y-89977689D01*
X166188084Y-89945959D01*
X166188080Y-89945958D01*
X166183209Y-89944233D01*
X166178116Y-89943326D01*
X166178113Y-89943325D01*
X165962056Y-89904839D01*
X165962050Y-89904838D01*
X165956967Y-89903933D01*
X165883784Y-89903039D01*
X165732351Y-89901189D01*
X165732349Y-89901189D01*
X165727181Y-89901126D01*
X165575610Y-89924319D01*
X165505131Y-89935104D01*
X165505128Y-89935105D01*
X165500022Y-89935886D01*
X165495110Y-89937491D01*
X165495112Y-89937491D01*
X165286504Y-90005675D01*
X165286502Y-90005676D01*
X165281591Y-90007281D01*
X165077753Y-90113392D01*
X165073620Y-90116495D01*
X165073617Y-90116497D01*
X164949690Y-90209544D01*
X164893983Y-90251370D01*
X164735216Y-90417510D01*
X164732302Y-90421782D01*
X164732301Y-90421783D01*
X164709333Y-90455453D01*
X164605716Y-90607350D01*
X164572812Y-90678236D01*
X164543012Y-90742436D01*
X164508961Y-90815792D01*
X164447548Y-91037237D01*
X164423129Y-91265739D01*
X159473500Y-91265739D01*
X159473500Y-88509767D01*
X159474027Y-88498584D01*
X159475702Y-88491091D01*
X159473562Y-88423000D01*
X159473500Y-88419043D01*
X159473500Y-88391144D01*
X159472996Y-88387153D01*
X159472063Y-88375311D01*
X159471156Y-88346434D01*
X159470674Y-88331111D01*
X159468462Y-88323497D01*
X159468461Y-88323492D01*
X159465023Y-88311659D01*
X159461012Y-88292295D01*
X159459467Y-88280064D01*
X159458474Y-88272203D01*
X159455557Y-88264836D01*
X159455556Y-88264831D01*
X159442198Y-88231092D01*
X159438354Y-88219865D01*
X159428230Y-88185022D01*
X159426018Y-88177407D01*
X159415707Y-88159972D01*
X159407012Y-88142224D01*
X159399552Y-88123383D01*
X159373564Y-88087613D01*
X159367048Y-88077693D01*
X159348580Y-88046465D01*
X159348578Y-88046462D01*
X159344542Y-88039638D01*
X159330221Y-88025317D01*
X159317380Y-88010283D01*
X159310131Y-88000306D01*
X159305472Y-87993893D01*
X159271395Y-87965702D01*
X159262616Y-87957712D01*
X158093377Y-86788472D01*
X158059351Y-86726160D01*
X158064416Y-86655344D01*
X158106963Y-86598509D01*
X158173483Y-86573698D01*
X158187089Y-86573462D01*
X158188125Y-86573500D01*
X158271673Y-86576564D01*
X158271677Y-86576564D01*
X158276837Y-86576753D01*
X158281957Y-86576097D01*
X158281959Y-86576097D01*
X158493288Y-86549025D01*
X158493289Y-86549025D01*
X158498416Y-86548368D01*
X158503366Y-86546883D01*
X158707429Y-86485661D01*
X158707434Y-86485659D01*
X158712384Y-86484174D01*
X158912994Y-86385896D01*
X159094860Y-86256173D01*
X159253096Y-86098489D01*
X159383453Y-85917077D01*
X159384776Y-85918028D01*
X159431645Y-85874857D01*
X159501580Y-85862625D01*
X159567026Y-85890144D01*
X159594875Y-85921994D01*
X159654987Y-86020088D01*
X159801250Y-86188938D01*
X159973126Y-86331632D01*
X160166000Y-86444338D01*
X160374692Y-86524030D01*
X160379760Y-86525061D01*
X160379763Y-86525062D01*
X160474862Y-86544410D01*
X160593597Y-86568567D01*
X160598772Y-86568757D01*
X160598774Y-86568757D01*
X160811673Y-86576564D01*
X160811677Y-86576564D01*
X160816837Y-86576753D01*
X160821957Y-86576097D01*
X160821959Y-86576097D01*
X161033288Y-86549025D01*
X161033289Y-86549025D01*
X161038416Y-86548368D01*
X161043366Y-86546883D01*
X161247429Y-86485661D01*
X161247434Y-86485659D01*
X161252384Y-86484174D01*
X161452994Y-86385896D01*
X161634860Y-86256173D01*
X161793096Y-86098489D01*
X161923453Y-85917077D01*
X161924640Y-85917930D01*
X161971960Y-85874362D01*
X162041897Y-85862145D01*
X162107338Y-85889678D01*
X162135166Y-85921511D01*
X162192694Y-86015388D01*
X162198777Y-86023699D01*
X162338213Y-86184667D01*
X162345580Y-86191883D01*
X162509434Y-86327916D01*
X162517881Y-86333831D01*
X162701756Y-86441279D01*
X162711042Y-86445729D01*
X162910001Y-86521703D01*
X162919899Y-86524579D01*
X163023250Y-86545606D01*
X163037299Y-86544410D01*
X163041000Y-86534065D01*
X163041000Y-85087000D01*
X163061002Y-85018879D01*
X163114658Y-84972386D01*
X163167000Y-84961000D01*
X163423000Y-84961000D01*
X163491121Y-84981002D01*
X163537614Y-85034658D01*
X163549000Y-85087000D01*
X163549000Y-86533517D01*
X163553064Y-86547359D01*
X163566478Y-86549393D01*
X163573184Y-86548534D01*
X163583262Y-86546392D01*
X163787255Y-86485191D01*
X163796842Y-86481433D01*
X163988095Y-86387739D01*
X163996943Y-86382465D01*
X164060478Y-86337147D01*
X164127552Y-86313874D01*
X164196560Y-86330559D01*
X164222740Y-86350632D01*
X168350844Y-90478736D01*
X168358388Y-90487026D01*
X168362501Y-90493507D01*
X168368278Y-90498932D01*
X168412168Y-90540147D01*
X168415010Y-90542902D01*
X168434731Y-90562623D01*
X168437926Y-90565101D01*
X168446948Y-90572807D01*
X168479180Y-90603075D01*
X168490359Y-90609221D01*
X168496933Y-90612835D01*
X168513457Y-90623688D01*
X168529460Y-90636102D01*
X168570044Y-90653665D01*
X168580674Y-90658872D01*
X168619441Y-90680184D01*
X168627118Y-90682155D01*
X168627123Y-90682157D01*
X168639059Y-90685221D01*
X168657767Y-90691626D01*
X168676356Y-90699670D01*
X168684181Y-90700909D01*
X168684183Y-90700910D01*
X168720020Y-90706586D01*
X168731641Y-90708993D01*
X168766790Y-90718017D01*
X168774471Y-90719989D01*
X168794732Y-90719989D01*
X168814441Y-90721540D01*
X168834444Y-90724708D01*
X168842336Y-90723962D01*
X168847563Y-90723468D01*
X168878455Y-90720548D01*
X168890312Y-90719989D01*
X170719831Y-90719989D01*
X170787952Y-90739991D01*
X170834445Y-90793647D01*
X170844549Y-90863921D01*
X170841248Y-90879661D01*
X170819033Y-90959766D01*
X170797548Y-91037237D01*
X170773129Y-91265739D01*
X170773426Y-91270892D01*
X170773426Y-91270895D01*
X170777040Y-91333572D01*
X170786357Y-91495161D01*
X170787492Y-91500198D01*
X170787493Y-91500204D01*
X170825656Y-91669546D01*
X170836878Y-91719342D01*
X170923336Y-91932261D01*
X171043408Y-92128200D01*
X171193869Y-92301898D01*
X171370679Y-92448689D01*
X171569090Y-92564631D01*
X171573910Y-92566471D01*
X171573915Y-92566474D01*
X171680296Y-92607096D01*
X171783774Y-92646610D01*
X171788842Y-92647641D01*
X171788845Y-92647642D01*
X171899534Y-92670162D01*
X172008963Y-92692426D01*
X172014136Y-92692616D01*
X172014139Y-92692616D01*
X172233448Y-92700657D01*
X172233452Y-92700657D01*
X172238612Y-92700846D01*
X172243732Y-92700190D01*
X172243734Y-92700190D01*
X172461425Y-92672304D01*
X172461428Y-92672303D01*
X172466552Y-92671647D01*
X172501504Y-92661161D01*
X172681710Y-92607096D01*
X172686663Y-92605610D01*
X172893033Y-92504511D01*
X172932877Y-92476091D01*
X173075916Y-92374062D01*
X173080119Y-92371064D01*
X173242898Y-92208852D01*
X173376997Y-92022233D01*
X173478816Y-91816217D01*
X173506548Y-91724941D01*
X173544117Y-91601291D01*
X173544118Y-91601285D01*
X173545621Y-91596339D01*
X173575616Y-91368502D01*
X173577290Y-91300000D01*
X173564629Y-91146006D01*
X173562477Y-91119824D01*
X173576830Y-91050294D01*
X173626496Y-90999561D01*
X173688053Y-90983500D01*
X182773134Y-90983500D01*
X182841255Y-91003502D01*
X182884895Y-91051317D01*
X182918825Y-91116496D01*
X182921928Y-91120629D01*
X182921930Y-91120632D01*
X183056604Y-91300000D01*
X183060358Y-91305000D01*
X183230777Y-91467857D01*
X183425508Y-91600693D01*
X183430192Y-91602867D01*
X183430195Y-91602869D01*
X183634628Y-91697764D01*
X183634633Y-91697766D01*
X183639319Y-91699941D01*
X183866468Y-91762935D01*
X183871605Y-91763484D01*
X184055563Y-91783144D01*
X184055571Y-91783144D01*
X184058898Y-91783500D01*
X185393757Y-91783500D01*
X185396330Y-91783288D01*
X185396341Y-91783288D01*
X185563779Y-91769522D01*
X185563785Y-91769521D01*
X185568930Y-91769098D01*
X185797551Y-91711673D01*
X186013723Y-91617678D01*
X186211641Y-91489640D01*
X186235581Y-91467857D01*
X186382167Y-91334473D01*
X186382168Y-91334471D01*
X186385989Y-91330995D01*
X186389188Y-91326944D01*
X186389192Y-91326940D01*
X186528883Y-91150061D01*
X186528885Y-91150057D01*
X186532085Y-91146006D01*
X186646005Y-90939639D01*
X186655794Y-90911998D01*
X186722965Y-90722311D01*
X186722966Y-90722307D01*
X186724691Y-90717436D01*
X186726624Y-90706586D01*
X186765123Y-90490456D01*
X186765124Y-90490450D01*
X186766029Y-90485367D01*
X186766457Y-90450339D01*
X195201091Y-90450339D01*
X195236747Y-90683349D01*
X195309980Y-90907407D01*
X195418825Y-91116496D01*
X195421928Y-91120629D01*
X195421930Y-91120632D01*
X195556604Y-91300000D01*
X195560358Y-91305000D01*
X195730777Y-91467857D01*
X195925508Y-91600693D01*
X195930192Y-91602867D01*
X195930195Y-91602869D01*
X196134628Y-91697764D01*
X196134633Y-91697766D01*
X196139319Y-91699941D01*
X196366468Y-91762935D01*
X196371605Y-91763484D01*
X196555563Y-91783144D01*
X196555571Y-91783144D01*
X196558898Y-91783500D01*
X197893757Y-91783500D01*
X197896330Y-91783288D01*
X197896341Y-91783288D01*
X198063779Y-91769522D01*
X198063785Y-91769521D01*
X198068930Y-91769098D01*
X198297551Y-91711673D01*
X198513723Y-91617678D01*
X198711641Y-91489640D01*
X198735581Y-91467857D01*
X198882167Y-91334473D01*
X198882168Y-91334471D01*
X198885989Y-91330995D01*
X198889188Y-91326944D01*
X198889192Y-91326940D01*
X199028883Y-91150061D01*
X199028885Y-91150057D01*
X199032085Y-91146006D01*
X199146005Y-90939639D01*
X199155794Y-90911998D01*
X199222965Y-90722311D01*
X199222966Y-90722307D01*
X199224691Y-90717436D01*
X199226624Y-90706586D01*
X199265123Y-90490456D01*
X199265124Y-90490450D01*
X199266029Y-90485367D01*
X199268016Y-90322767D01*
X199268846Y-90254830D01*
X199268846Y-90254828D01*
X199268909Y-90249661D01*
X199233253Y-90016651D01*
X199160020Y-89792593D01*
X199075404Y-89630048D01*
X199053564Y-89588093D01*
X199053563Y-89588092D01*
X199051175Y-89583504D01*
X199044745Y-89574939D01*
X198912747Y-89399135D01*
X198912745Y-89399132D01*
X198909642Y-89395000D01*
X198739223Y-89232143D01*
X198544492Y-89099307D01*
X198539808Y-89097133D01*
X198539805Y-89097131D01*
X198335372Y-89002236D01*
X198335367Y-89002234D01*
X198330681Y-89000059D01*
X198103532Y-88937065D01*
X198098395Y-88936516D01*
X197914437Y-88916856D01*
X197914429Y-88916856D01*
X197911102Y-88916500D01*
X196576243Y-88916500D01*
X196573670Y-88916712D01*
X196573659Y-88916712D01*
X196406221Y-88930478D01*
X196406215Y-88930479D01*
X196401070Y-88930902D01*
X196172449Y-88988327D01*
X195956277Y-89082322D01*
X195758359Y-89210360D01*
X195754536Y-89213839D01*
X195754533Y-89213841D01*
X195587833Y-89365527D01*
X195584011Y-89369005D01*
X195580812Y-89373056D01*
X195580808Y-89373060D01*
X195441630Y-89549290D01*
X195437915Y-89553994D01*
X195435419Y-89558515D01*
X195435418Y-89558517D01*
X195421555Y-89583630D01*
X195323995Y-89760361D01*
X195322271Y-89765230D01*
X195322269Y-89765234D01*
X195258271Y-89945959D01*
X195245309Y-89982564D01*
X195244402Y-89987657D01*
X195244401Y-89987660D01*
X195218119Y-90135208D01*
X195203971Y-90214633D01*
X195203240Y-90274430D01*
X195201164Y-90444400D01*
X195201091Y-90450339D01*
X186766457Y-90450339D01*
X186768016Y-90322767D01*
X186768846Y-90254830D01*
X186768846Y-90254828D01*
X186768909Y-90249661D01*
X186733253Y-90016651D01*
X186660020Y-89792593D01*
X186575404Y-89630048D01*
X186553564Y-89588093D01*
X186553563Y-89588092D01*
X186551175Y-89583504D01*
X186544745Y-89574939D01*
X186412747Y-89399135D01*
X186412745Y-89399132D01*
X186409642Y-89395000D01*
X186239223Y-89232143D01*
X186044492Y-89099307D01*
X186039808Y-89097133D01*
X186039805Y-89097131D01*
X185835372Y-89002236D01*
X185835367Y-89002234D01*
X185830681Y-89000059D01*
X185603532Y-88937065D01*
X185598395Y-88936516D01*
X185414437Y-88916856D01*
X185414429Y-88916856D01*
X185411102Y-88916500D01*
X184076243Y-88916500D01*
X184073670Y-88916712D01*
X184073659Y-88916712D01*
X183906221Y-88930478D01*
X183906215Y-88930479D01*
X183901070Y-88930902D01*
X183672449Y-88988327D01*
X183456277Y-89082322D01*
X183258359Y-89210360D01*
X183254536Y-89213839D01*
X183254533Y-89213841D01*
X183087833Y-89365527D01*
X183084011Y-89369005D01*
X183080812Y-89373056D01*
X183080808Y-89373060D01*
X183007101Y-89466390D01*
X182937915Y-89553994D01*
X182935422Y-89558509D01*
X182935414Y-89558522D01*
X182884146Y-89651394D01*
X182833714Y-89701364D01*
X182773838Y-89716500D01*
X173258289Y-89716500D01*
X173190168Y-89696498D01*
X173170249Y-89678837D01*
X173169654Y-89679471D01*
X173120002Y-89632845D01*
X173117160Y-89630090D01*
X173097424Y-89610354D01*
X173094227Y-89607874D01*
X173085205Y-89600169D01*
X173067593Y-89583630D01*
X173052975Y-89569903D01*
X173046029Y-89566084D01*
X173046026Y-89566082D01*
X173035220Y-89560141D01*
X173018701Y-89549290D01*
X173018237Y-89548930D01*
X173002695Y-89536875D01*
X172995426Y-89533730D01*
X172995422Y-89533727D01*
X172962117Y-89519315D01*
X172951467Y-89514098D01*
X172912714Y-89492794D01*
X172893091Y-89487756D01*
X172874388Y-89481352D01*
X172863074Y-89476456D01*
X172863073Y-89476456D01*
X172855799Y-89473308D01*
X172847976Y-89472069D01*
X172847966Y-89472066D01*
X172812130Y-89466390D01*
X172800510Y-89463984D01*
X172765365Y-89454961D01*
X172765364Y-89454961D01*
X172757684Y-89452989D01*
X172737430Y-89452989D01*
X172717719Y-89451438D01*
X172705540Y-89449509D01*
X172697711Y-89448269D01*
X172689819Y-89449015D01*
X172653693Y-89452430D01*
X172641835Y-89452989D01*
X169169096Y-89452989D01*
X169100975Y-89432987D01*
X169080001Y-89416084D01*
X166333365Y-86669448D01*
X166299339Y-86607136D01*
X166304404Y-86536321D01*
X166346951Y-86479485D01*
X166367028Y-86467202D01*
X166528346Y-86388173D01*
X166532994Y-86385896D01*
X166714860Y-86256173D01*
X166873096Y-86098489D01*
X167003453Y-85917077D01*
X167016995Y-85889678D01*
X167100136Y-85721453D01*
X167100137Y-85721451D01*
X167102430Y-85716811D01*
X167167370Y-85503069D01*
X167196529Y-85281590D01*
X167197554Y-85239633D01*
X167198074Y-85218365D01*
X167198074Y-85218361D01*
X167198156Y-85215000D01*
X167179852Y-84992361D01*
X167125431Y-84775702D01*
X167036354Y-84570840D01*
X166938771Y-84420000D01*
X166917822Y-84387617D01*
X166917820Y-84387614D01*
X166915014Y-84383277D01*
X166764670Y-84218051D01*
X166760619Y-84214852D01*
X166760615Y-84214848D01*
X166593414Y-84082800D01*
X166593410Y-84082798D01*
X166589359Y-84079598D01*
X166584831Y-84077098D01*
X166494505Y-84027236D01*
X166393789Y-83971638D01*
X166388920Y-83969914D01*
X166388916Y-83969912D01*
X166188087Y-83898795D01*
X166188083Y-83898794D01*
X166183212Y-83897069D01*
X166178119Y-83896162D01*
X166178116Y-83896161D01*
X165968373Y-83858800D01*
X165968367Y-83858799D01*
X165963284Y-83857894D01*
X165889452Y-83856992D01*
X165745081Y-83855228D01*
X165745079Y-83855228D01*
X165739911Y-83855165D01*
X165519091Y-83888955D01*
X165306756Y-83958357D01*
X165251603Y-83987068D01*
X165132975Y-84048822D01*
X165108607Y-84061507D01*
X165104474Y-84064610D01*
X165104471Y-84064612D01*
X164961760Y-84171763D01*
X164895275Y-84196669D01*
X164825880Y-84181677D01*
X164797012Y-84160098D01*
X163577801Y-82940886D01*
X162286662Y-81649747D01*
X162279122Y-81641461D01*
X162275010Y-81634982D01*
X162225358Y-81588356D01*
X162222517Y-81585602D01*
X162202780Y-81565865D01*
X162199583Y-81563385D01*
X162190561Y-81555680D01*
X162164110Y-81530841D01*
X162158331Y-81525414D01*
X162151385Y-81521595D01*
X162151382Y-81521593D01*
X162140576Y-81515652D01*
X162124057Y-81504801D01*
X162120700Y-81502197D01*
X162108051Y-81492386D01*
X162100782Y-81489241D01*
X162100778Y-81489238D01*
X162067473Y-81474826D01*
X162056823Y-81469609D01*
X162018070Y-81448305D01*
X161998447Y-81443267D01*
X161979744Y-81436863D01*
X161968430Y-81431967D01*
X161968429Y-81431967D01*
X161961155Y-81428819D01*
X161953332Y-81427580D01*
X161953322Y-81427577D01*
X161917486Y-81421901D01*
X161905866Y-81419495D01*
X161870721Y-81410472D01*
X161870720Y-81410472D01*
X161863040Y-81408500D01*
X161842786Y-81408500D01*
X161823075Y-81406949D01*
X161810896Y-81405020D01*
X161803067Y-81403780D01*
X161795175Y-81404526D01*
X161759049Y-81407941D01*
X161747191Y-81408500D01*
X159826594Y-81408500D01*
X159758473Y-81388498D01*
X159737499Y-81371595D01*
X156739038Y-78373134D01*
X169791500Y-78373134D01*
X169798255Y-78435316D01*
X169849385Y-78571705D01*
X169936739Y-78688261D01*
X170053295Y-78775615D01*
X170189684Y-78826745D01*
X170251866Y-78833500D01*
X172048134Y-78833500D01*
X172110316Y-78826745D01*
X172246705Y-78775615D01*
X172363261Y-78688261D01*
X172450615Y-78571705D01*
X172457996Y-78552017D01*
X172494598Y-78454382D01*
X172537240Y-78397618D01*
X172603802Y-78372918D01*
X172673150Y-78388126D01*
X172707817Y-78416114D01*
X172736250Y-78448938D01*
X172908126Y-78591632D01*
X173101000Y-78704338D01*
X173309692Y-78784030D01*
X173314760Y-78785061D01*
X173314763Y-78785062D01*
X173422017Y-78806883D01*
X173528597Y-78828567D01*
X173533772Y-78828757D01*
X173533774Y-78828757D01*
X173746673Y-78836564D01*
X173746677Y-78836564D01*
X173751837Y-78836753D01*
X173756957Y-78836097D01*
X173756959Y-78836097D01*
X173968288Y-78809025D01*
X173968289Y-78809025D01*
X173973416Y-78808368D01*
X173978366Y-78806883D01*
X174182429Y-78745661D01*
X174182434Y-78745659D01*
X174187384Y-78744174D01*
X174387994Y-78645896D01*
X174569860Y-78516173D01*
X174728096Y-78358489D01*
X174735477Y-78348218D01*
X174858453Y-78177077D01*
X174859776Y-78178028D01*
X174906645Y-78134857D01*
X174976580Y-78122625D01*
X175042026Y-78150144D01*
X175069875Y-78181994D01*
X175129987Y-78280088D01*
X175276250Y-78448938D01*
X175448126Y-78591632D01*
X175641000Y-78704338D01*
X175849692Y-78784030D01*
X175854760Y-78785061D01*
X175854763Y-78785062D01*
X175962017Y-78806883D01*
X176068597Y-78828567D01*
X176073772Y-78828757D01*
X176073774Y-78828757D01*
X176286673Y-78836564D01*
X176286677Y-78836564D01*
X176291837Y-78836753D01*
X176296957Y-78836097D01*
X176296959Y-78836097D01*
X176508288Y-78809025D01*
X176508289Y-78809025D01*
X176513416Y-78808368D01*
X176518366Y-78806883D01*
X176722429Y-78745661D01*
X176722434Y-78745659D01*
X176727384Y-78744174D01*
X176927994Y-78645896D01*
X177109860Y-78516173D01*
X177268096Y-78358489D01*
X177275477Y-78348218D01*
X177398453Y-78177077D01*
X177399776Y-78178028D01*
X177446645Y-78134857D01*
X177516580Y-78122625D01*
X177582026Y-78150144D01*
X177609875Y-78181994D01*
X177669987Y-78280088D01*
X177816250Y-78448938D01*
X177988126Y-78591632D01*
X178181000Y-78704338D01*
X178389692Y-78784030D01*
X178394760Y-78785061D01*
X178394763Y-78785062D01*
X178502017Y-78806883D01*
X178608597Y-78828567D01*
X178613772Y-78828757D01*
X178613774Y-78828757D01*
X178826673Y-78836564D01*
X178826677Y-78836564D01*
X178831837Y-78836753D01*
X178836957Y-78836097D01*
X178836959Y-78836097D01*
X179048288Y-78809025D01*
X179048289Y-78809025D01*
X179053416Y-78808368D01*
X179058366Y-78806883D01*
X179262429Y-78745661D01*
X179262434Y-78745659D01*
X179267384Y-78744174D01*
X179467994Y-78645896D01*
X179649860Y-78516173D01*
X179808096Y-78358489D01*
X179815477Y-78348218D01*
X179935435Y-78181277D01*
X179938453Y-78177077D01*
X179959320Y-78134857D01*
X180035136Y-77981453D01*
X180035137Y-77981451D01*
X180037430Y-77976811D01*
X180102370Y-77763069D01*
X180131529Y-77541590D01*
X180133156Y-77475000D01*
X180114852Y-77252361D01*
X180060431Y-77035702D01*
X179971354Y-76830840D01*
X179850014Y-76643277D01*
X179699670Y-76478051D01*
X179695619Y-76474852D01*
X179695615Y-76474848D01*
X179528414Y-76342800D01*
X179528410Y-76342798D01*
X179524359Y-76339598D01*
X179328789Y-76231638D01*
X179323920Y-76229914D01*
X179323916Y-76229912D01*
X179123087Y-76158795D01*
X179123083Y-76158794D01*
X179118212Y-76157069D01*
X179113119Y-76156162D01*
X179113116Y-76156161D01*
X178903373Y-76118800D01*
X178903367Y-76118799D01*
X178898284Y-76117894D01*
X178824452Y-76116992D01*
X178680081Y-76115228D01*
X178680079Y-76115228D01*
X178674911Y-76115165D01*
X178454091Y-76148955D01*
X178241756Y-76218357D01*
X178043607Y-76321507D01*
X178039474Y-76324610D01*
X178039471Y-76324612D01*
X177872478Y-76449994D01*
X177864965Y-76455635D01*
X177861393Y-76459373D01*
X177753729Y-76572037D01*
X177710629Y-76617138D01*
X177603201Y-76774621D01*
X177548293Y-76819621D01*
X177477768Y-76827792D01*
X177414021Y-76796538D01*
X177393324Y-76772054D01*
X177312822Y-76647617D01*
X177312820Y-76647614D01*
X177310014Y-76643277D01*
X177159670Y-76478051D01*
X177155619Y-76474852D01*
X177155615Y-76474848D01*
X176988414Y-76342800D01*
X176988410Y-76342798D01*
X176984359Y-76339598D01*
X176788789Y-76231638D01*
X176783920Y-76229914D01*
X176783916Y-76229912D01*
X176583087Y-76158795D01*
X176583083Y-76158794D01*
X176578212Y-76157069D01*
X176573119Y-76156162D01*
X176573116Y-76156161D01*
X176363373Y-76118800D01*
X176363367Y-76118799D01*
X176358284Y-76117894D01*
X176284452Y-76116992D01*
X176140081Y-76115228D01*
X176140079Y-76115228D01*
X176134911Y-76115165D01*
X175914091Y-76148955D01*
X175701756Y-76218357D01*
X175503607Y-76321507D01*
X175499474Y-76324610D01*
X175499471Y-76324612D01*
X175332478Y-76449994D01*
X175324965Y-76455635D01*
X175321393Y-76459373D01*
X175213729Y-76572037D01*
X175170629Y-76617138D01*
X175063201Y-76774621D01*
X175008293Y-76819621D01*
X174937768Y-76827792D01*
X174874021Y-76796538D01*
X174853324Y-76772054D01*
X174772822Y-76647617D01*
X174772820Y-76647614D01*
X174770014Y-76643277D01*
X174619670Y-76478051D01*
X174615619Y-76474852D01*
X174615615Y-76474848D01*
X174448414Y-76342800D01*
X174448410Y-76342798D01*
X174444359Y-76339598D01*
X174248789Y-76231638D01*
X174243920Y-76229914D01*
X174243916Y-76229912D01*
X174043087Y-76158795D01*
X174043083Y-76158794D01*
X174038212Y-76157069D01*
X174033119Y-76156162D01*
X174033116Y-76156161D01*
X173823373Y-76118800D01*
X173823367Y-76118799D01*
X173818284Y-76117894D01*
X173744452Y-76116992D01*
X173600081Y-76115228D01*
X173600079Y-76115228D01*
X173594911Y-76115165D01*
X173374091Y-76148955D01*
X173161756Y-76218357D01*
X172963607Y-76321507D01*
X172959474Y-76324610D01*
X172959471Y-76324612D01*
X172792478Y-76449994D01*
X172784965Y-76455635D01*
X172728537Y-76514684D01*
X172704283Y-76540064D01*
X172642759Y-76575494D01*
X172571846Y-76572037D01*
X172514060Y-76530791D01*
X172495207Y-76497243D01*
X172453767Y-76386703D01*
X172450615Y-76378295D01*
X172363261Y-76261739D01*
X172246705Y-76174385D01*
X172110316Y-76123255D01*
X172048134Y-76116500D01*
X170251866Y-76116500D01*
X170189684Y-76123255D01*
X170053295Y-76174385D01*
X169936739Y-76261739D01*
X169849385Y-76378295D01*
X169798255Y-76514684D01*
X169791500Y-76576866D01*
X169791500Y-78373134D01*
X156739038Y-78373134D01*
X141499039Y-63133134D01*
X169791500Y-63133134D01*
X169798255Y-63195316D01*
X169849385Y-63331705D01*
X169936739Y-63448261D01*
X170053295Y-63535615D01*
X170189684Y-63586745D01*
X170251866Y-63593500D01*
X171560406Y-63593500D01*
X171628527Y-63613502D01*
X171649501Y-63630405D01*
X184064595Y-76045499D01*
X184098621Y-76107811D01*
X184101500Y-76134594D01*
X184101500Y-83798358D01*
X184081498Y-83866479D01*
X184027842Y-83912972D01*
X183985825Y-83923934D01*
X183970203Y-83925218D01*
X183906221Y-83930478D01*
X183906215Y-83930479D01*
X183901070Y-83930902D01*
X183672449Y-83988327D01*
X183456277Y-84082322D01*
X183258359Y-84210360D01*
X183254536Y-84213839D01*
X183254533Y-84213841D01*
X183092015Y-84361722D01*
X183084011Y-84369005D01*
X183080812Y-84373056D01*
X183080808Y-84373060D01*
X182947640Y-84541680D01*
X182937915Y-84553994D01*
X182935419Y-84558515D01*
X182935418Y-84558517D01*
X182919091Y-84588093D01*
X182823995Y-84760361D01*
X182822271Y-84765230D01*
X182822269Y-84765234D01*
X182752945Y-84961000D01*
X182745309Y-84982564D01*
X182744402Y-84987657D01*
X182744401Y-84987660D01*
X182736030Y-85034658D01*
X182703971Y-85214633D01*
X182701091Y-85450339D01*
X182736747Y-85683349D01*
X182809980Y-85907407D01*
X182918825Y-86116496D01*
X182921928Y-86120629D01*
X182921930Y-86120632D01*
X183057253Y-86300865D01*
X183060358Y-86305000D01*
X183064096Y-86308572D01*
X183208095Y-86446181D01*
X183230777Y-86467857D01*
X183425508Y-86600693D01*
X183430192Y-86602867D01*
X183430195Y-86602869D01*
X183634628Y-86697764D01*
X183634633Y-86697766D01*
X183639319Y-86699941D01*
X183866468Y-86762935D01*
X183871605Y-86763484D01*
X184055563Y-86783144D01*
X184055571Y-86783144D01*
X184058898Y-86783500D01*
X185393757Y-86783500D01*
X185396330Y-86783288D01*
X185396341Y-86783288D01*
X185563779Y-86769522D01*
X185563785Y-86769521D01*
X185568930Y-86769098D01*
X185797551Y-86711673D01*
X186013723Y-86617678D01*
X186211641Y-86489640D01*
X186216531Y-86485191D01*
X186382167Y-86334473D01*
X186382168Y-86334471D01*
X186385989Y-86330995D01*
X186389188Y-86326944D01*
X186389192Y-86326940D01*
X186528883Y-86150061D01*
X186528885Y-86150057D01*
X186532085Y-86146006D01*
X186552118Y-86109717D01*
X186599441Y-86023990D01*
X186646005Y-85939639D01*
X186652254Y-85921994D01*
X186722965Y-85722311D01*
X186722966Y-85722307D01*
X186724691Y-85717436D01*
X186726310Y-85708349D01*
X186765123Y-85490456D01*
X186765124Y-85490450D01*
X186766029Y-85485367D01*
X186766457Y-85450339D01*
X195201091Y-85450339D01*
X195236747Y-85683349D01*
X195309980Y-85907407D01*
X195418825Y-86116496D01*
X195421928Y-86120629D01*
X195421930Y-86120632D01*
X195557253Y-86300865D01*
X195560358Y-86305000D01*
X195564096Y-86308572D01*
X195708095Y-86446181D01*
X195730777Y-86467857D01*
X195925508Y-86600693D01*
X195930192Y-86602867D01*
X195930195Y-86602869D01*
X196134628Y-86697764D01*
X196134633Y-86697766D01*
X196139319Y-86699941D01*
X196366468Y-86762935D01*
X196371605Y-86763484D01*
X196555563Y-86783144D01*
X196555571Y-86783144D01*
X196558898Y-86783500D01*
X197893757Y-86783500D01*
X197896330Y-86783288D01*
X197896341Y-86783288D01*
X198063779Y-86769522D01*
X198063785Y-86769521D01*
X198068930Y-86769098D01*
X198297551Y-86711673D01*
X198513723Y-86617678D01*
X198711641Y-86489640D01*
X198716531Y-86485191D01*
X198882167Y-86334473D01*
X198882168Y-86334471D01*
X198885989Y-86330995D01*
X198889188Y-86326944D01*
X198889192Y-86326940D01*
X199028883Y-86150061D01*
X199028885Y-86150057D01*
X199032085Y-86146006D01*
X199052118Y-86109717D01*
X199099441Y-86023990D01*
X199146005Y-85939639D01*
X199152254Y-85921994D01*
X199222965Y-85722311D01*
X199222966Y-85722307D01*
X199224691Y-85717436D01*
X199226310Y-85708349D01*
X199265123Y-85490456D01*
X199265124Y-85490450D01*
X199266029Y-85485367D01*
X199268519Y-85281590D01*
X199268846Y-85254830D01*
X199268846Y-85254828D01*
X199268909Y-85249661D01*
X199233253Y-85016651D01*
X199160020Y-84792593D01*
X199051175Y-84583504D01*
X199044745Y-84574939D01*
X198912747Y-84399135D01*
X198912745Y-84399132D01*
X198909642Y-84395000D01*
X198780210Y-84271311D01*
X198742960Y-84235714D01*
X198742959Y-84235713D01*
X198739223Y-84232143D01*
X198544492Y-84099307D01*
X198539808Y-84097133D01*
X198539805Y-84097131D01*
X198335372Y-84002236D01*
X198335367Y-84002234D01*
X198330681Y-84000059D01*
X198103532Y-83937065D01*
X198098395Y-83936516D01*
X197914437Y-83916856D01*
X197914429Y-83916856D01*
X197911102Y-83916500D01*
X196576243Y-83916500D01*
X196573670Y-83916712D01*
X196573659Y-83916712D01*
X196406221Y-83930478D01*
X196406215Y-83930479D01*
X196401070Y-83930902D01*
X196172449Y-83988327D01*
X195956277Y-84082322D01*
X195758359Y-84210360D01*
X195754536Y-84213839D01*
X195754533Y-84213841D01*
X195592015Y-84361722D01*
X195584011Y-84369005D01*
X195580812Y-84373056D01*
X195580808Y-84373060D01*
X195447640Y-84541680D01*
X195437915Y-84553994D01*
X195435419Y-84558515D01*
X195435418Y-84558517D01*
X195419091Y-84588093D01*
X195323995Y-84760361D01*
X195322271Y-84765230D01*
X195322269Y-84765234D01*
X195252945Y-84961000D01*
X195245309Y-84982564D01*
X195244402Y-84987657D01*
X195244401Y-84987660D01*
X195236030Y-85034658D01*
X195203971Y-85214633D01*
X195201091Y-85450339D01*
X186766457Y-85450339D01*
X186768519Y-85281590D01*
X186768846Y-85254830D01*
X186768846Y-85254828D01*
X186768909Y-85249661D01*
X186733253Y-85016651D01*
X186660020Y-84792593D01*
X186551175Y-84583504D01*
X186544745Y-84574939D01*
X186412747Y-84399135D01*
X186412745Y-84399132D01*
X186409642Y-84395000D01*
X186280210Y-84271311D01*
X186242960Y-84235714D01*
X186242959Y-84235713D01*
X186239223Y-84232143D01*
X186044492Y-84099307D01*
X186039808Y-84097133D01*
X186039805Y-84097131D01*
X185835372Y-84002236D01*
X185835367Y-84002234D01*
X185830681Y-84000059D01*
X185603532Y-83937065D01*
X185481111Y-83923982D01*
X185415501Y-83896854D01*
X185374973Y-83838562D01*
X185368500Y-83798695D01*
X185368500Y-75898767D01*
X185369027Y-75887584D01*
X185370702Y-75880091D01*
X185368562Y-75812014D01*
X185368500Y-75808055D01*
X185368500Y-75780144D01*
X185367995Y-75776144D01*
X185367062Y-75764301D01*
X185365922Y-75728029D01*
X185365673Y-75720110D01*
X185360022Y-75700658D01*
X185356014Y-75681306D01*
X185354467Y-75669063D01*
X185353474Y-75661203D01*
X185350556Y-75653832D01*
X185337200Y-75620097D01*
X185333355Y-75608870D01*
X185332721Y-75606687D01*
X185321018Y-75566407D01*
X185316984Y-75559585D01*
X185316981Y-75559579D01*
X185310706Y-75548968D01*
X185302010Y-75531218D01*
X185297472Y-75519756D01*
X185297469Y-75519751D01*
X185294552Y-75512383D01*
X185268573Y-75476625D01*
X185262057Y-75466707D01*
X185243575Y-75435457D01*
X185239542Y-75428637D01*
X185225218Y-75414313D01*
X185212376Y-75399278D01*
X185200472Y-75382893D01*
X185166406Y-75354711D01*
X185157627Y-75346722D01*
X173621318Y-63810413D01*
X173587292Y-63748101D01*
X173592357Y-63677286D01*
X173634904Y-63620450D01*
X173701424Y-63595639D01*
X173715024Y-63595403D01*
X173731698Y-63596015D01*
X173746674Y-63596564D01*
X173746678Y-63596564D01*
X173751837Y-63596753D01*
X173756957Y-63596097D01*
X173756959Y-63596097D01*
X173968288Y-63569025D01*
X173968289Y-63569025D01*
X173973416Y-63568368D01*
X173978366Y-63566883D01*
X174182429Y-63505661D01*
X174182434Y-63505659D01*
X174187384Y-63504174D01*
X174387994Y-63405896D01*
X174569860Y-63276173D01*
X174728096Y-63118489D01*
X174858453Y-62937077D01*
X174859776Y-62938028D01*
X174906645Y-62894857D01*
X174976580Y-62882625D01*
X175042026Y-62910144D01*
X175069875Y-62941994D01*
X175129987Y-63040088D01*
X175276250Y-63208938D01*
X175448126Y-63351632D01*
X175641000Y-63464338D01*
X175849692Y-63544030D01*
X175854760Y-63545061D01*
X175854763Y-63545062D01*
X175962017Y-63566883D01*
X176068597Y-63588567D01*
X176073772Y-63588757D01*
X176073774Y-63588757D01*
X176286673Y-63596564D01*
X176286677Y-63596564D01*
X176291837Y-63596753D01*
X176296957Y-63596097D01*
X176296959Y-63596097D01*
X176508288Y-63569025D01*
X176508289Y-63569025D01*
X176513416Y-63568368D01*
X176518366Y-63566883D01*
X176722429Y-63505661D01*
X176722434Y-63505659D01*
X176727384Y-63504174D01*
X176927994Y-63405896D01*
X177109860Y-63276173D01*
X177268096Y-63118489D01*
X177398453Y-62937077D01*
X177399776Y-62938028D01*
X177446645Y-62894857D01*
X177516580Y-62882625D01*
X177582026Y-62910144D01*
X177609875Y-62941994D01*
X177669987Y-63040088D01*
X177816250Y-63208938D01*
X177988126Y-63351632D01*
X178181000Y-63464338D01*
X178389692Y-63544030D01*
X178394760Y-63545061D01*
X178394763Y-63545062D01*
X178502017Y-63566883D01*
X178608597Y-63588567D01*
X178613772Y-63588757D01*
X178613774Y-63588757D01*
X178826673Y-63596564D01*
X178826677Y-63596564D01*
X178831837Y-63596753D01*
X178836957Y-63596097D01*
X178836959Y-63596097D01*
X179048288Y-63569025D01*
X179048289Y-63569025D01*
X179053416Y-63568368D01*
X179058366Y-63566883D01*
X179262429Y-63505661D01*
X179262434Y-63505659D01*
X179267384Y-63504174D01*
X179467994Y-63405896D01*
X179649860Y-63276173D01*
X179808096Y-63118489D01*
X179938453Y-62937077D01*
X179959320Y-62894857D01*
X180035136Y-62741453D01*
X180035137Y-62741451D01*
X180037430Y-62736811D01*
X180102370Y-62523069D01*
X180131529Y-62301590D01*
X180133156Y-62235000D01*
X180114852Y-62012361D01*
X180060431Y-61795702D01*
X179971354Y-61590840D01*
X179850014Y-61403277D01*
X179699670Y-61238051D01*
X179695619Y-61234852D01*
X179695615Y-61234848D01*
X179528414Y-61102800D01*
X179528410Y-61102798D01*
X179524359Y-61099598D01*
X179328789Y-60991638D01*
X179323920Y-60989914D01*
X179323916Y-60989912D01*
X179123087Y-60918795D01*
X179123083Y-60918794D01*
X179118212Y-60917069D01*
X179113119Y-60916162D01*
X179113116Y-60916161D01*
X178903373Y-60878800D01*
X178903367Y-60878799D01*
X178898284Y-60877894D01*
X178824452Y-60876992D01*
X178680081Y-60875228D01*
X178680079Y-60875228D01*
X178674911Y-60875165D01*
X178454091Y-60908955D01*
X178241756Y-60978357D01*
X178043607Y-61081507D01*
X178039474Y-61084610D01*
X178039471Y-61084612D01*
X177869100Y-61212530D01*
X177864965Y-61215635D01*
X177861393Y-61219373D01*
X177753729Y-61332037D01*
X177710629Y-61377138D01*
X177603201Y-61534621D01*
X177548293Y-61579621D01*
X177477768Y-61587792D01*
X177414021Y-61556538D01*
X177393324Y-61532054D01*
X177312822Y-61407617D01*
X177312820Y-61407614D01*
X177310014Y-61403277D01*
X177159670Y-61238051D01*
X177155619Y-61234852D01*
X177155615Y-61234848D01*
X176988414Y-61102800D01*
X176988410Y-61102798D01*
X176984359Y-61099598D01*
X176788789Y-60991638D01*
X176783920Y-60989914D01*
X176783916Y-60989912D01*
X176583087Y-60918795D01*
X176583083Y-60918794D01*
X176578212Y-60917069D01*
X176573119Y-60916162D01*
X176573116Y-60916161D01*
X176363373Y-60878800D01*
X176363367Y-60878799D01*
X176358284Y-60877894D01*
X176284452Y-60876992D01*
X176140081Y-60875228D01*
X176140079Y-60875228D01*
X176134911Y-60875165D01*
X175914091Y-60908955D01*
X175701756Y-60978357D01*
X175503607Y-61081507D01*
X175499474Y-61084610D01*
X175499471Y-61084612D01*
X175329100Y-61212530D01*
X175324965Y-61215635D01*
X175321393Y-61219373D01*
X175213729Y-61332037D01*
X175170629Y-61377138D01*
X175063201Y-61534621D01*
X175008293Y-61579621D01*
X174937768Y-61587792D01*
X174874021Y-61556538D01*
X174853324Y-61532054D01*
X174772822Y-61407617D01*
X174772820Y-61407614D01*
X174770014Y-61403277D01*
X174619670Y-61238051D01*
X174615619Y-61234852D01*
X174615615Y-61234848D01*
X174448414Y-61102800D01*
X174448410Y-61102798D01*
X174444359Y-61099598D01*
X174248789Y-60991638D01*
X174243920Y-60989914D01*
X174243916Y-60989912D01*
X174043087Y-60918795D01*
X174043083Y-60918794D01*
X174038212Y-60917069D01*
X174033119Y-60916162D01*
X174033116Y-60916161D01*
X173823373Y-60878800D01*
X173823367Y-60878799D01*
X173818284Y-60877894D01*
X173744452Y-60876992D01*
X173600081Y-60875228D01*
X173600079Y-60875228D01*
X173594911Y-60875165D01*
X173374091Y-60908955D01*
X173161756Y-60978357D01*
X172963607Y-61081507D01*
X172959474Y-61084610D01*
X172959471Y-61084612D01*
X172789100Y-61212530D01*
X172784965Y-61215635D01*
X172728537Y-61274684D01*
X172704283Y-61300064D01*
X172642759Y-61335494D01*
X172571846Y-61332037D01*
X172514060Y-61290791D01*
X172495207Y-61257243D01*
X172453767Y-61146703D01*
X172450615Y-61138295D01*
X172363261Y-61021739D01*
X172246705Y-60934385D01*
X172110316Y-60883255D01*
X172048134Y-60876500D01*
X170251866Y-60876500D01*
X170189684Y-60883255D01*
X170053295Y-60934385D01*
X169936739Y-61021739D01*
X169849385Y-61138295D01*
X169798255Y-61274684D01*
X169791500Y-61336866D01*
X169791500Y-63133134D01*
X141499039Y-63133134D01*
X136943646Y-58577741D01*
X136909620Y-58515429D01*
X136914685Y-58444614D01*
X136957232Y-58387778D01*
X137023752Y-58362967D01*
X137093126Y-58378058D01*
X137105012Y-58385433D01*
X137109145Y-58388327D01*
X137113126Y-58391632D01*
X137306000Y-58504338D01*
X137514692Y-58584030D01*
X137519760Y-58585061D01*
X137519763Y-58585062D01*
X137614862Y-58604410D01*
X137733597Y-58628567D01*
X137738772Y-58628757D01*
X137738774Y-58628757D01*
X137951673Y-58636564D01*
X137951677Y-58636564D01*
X137956837Y-58636753D01*
X137961957Y-58636097D01*
X137961959Y-58636097D01*
X138173288Y-58609025D01*
X138173289Y-58609025D01*
X138178416Y-58608368D01*
X138183366Y-58606883D01*
X138387429Y-58545661D01*
X138387434Y-58545659D01*
X138392384Y-58544174D01*
X138592994Y-58445896D01*
X138774860Y-58316173D01*
X138933096Y-58158489D01*
X138980175Y-58092972D01*
X139063453Y-57977077D01*
X139064776Y-57978028D01*
X139111645Y-57934857D01*
X139181580Y-57922625D01*
X139247026Y-57950144D01*
X139274875Y-57981994D01*
X139334987Y-58080088D01*
X139481250Y-58248938D01*
X139653126Y-58391632D01*
X139846000Y-58504338D01*
X140054692Y-58584030D01*
X140059760Y-58585061D01*
X140059763Y-58585062D01*
X140154862Y-58604410D01*
X140273597Y-58628567D01*
X140278772Y-58628757D01*
X140278774Y-58628757D01*
X140491673Y-58636564D01*
X140491677Y-58636564D01*
X140496837Y-58636753D01*
X140501957Y-58636097D01*
X140501959Y-58636097D01*
X140713288Y-58609025D01*
X140713289Y-58609025D01*
X140718416Y-58608368D01*
X140723366Y-58606883D01*
X140927429Y-58545661D01*
X140927434Y-58545659D01*
X140932384Y-58544174D01*
X141132994Y-58445896D01*
X141314860Y-58316173D01*
X141473096Y-58158489D01*
X141520175Y-58092972D01*
X141603453Y-57977077D01*
X141604776Y-57978028D01*
X141651645Y-57934857D01*
X141721580Y-57922625D01*
X141787026Y-57950144D01*
X141814875Y-57981994D01*
X141874987Y-58080088D01*
X142021250Y-58248938D01*
X142193126Y-58391632D01*
X142386000Y-58504338D01*
X142594692Y-58584030D01*
X142599760Y-58585061D01*
X142599763Y-58585062D01*
X142694862Y-58604410D01*
X142813597Y-58628567D01*
X142818772Y-58628757D01*
X142818774Y-58628757D01*
X143031673Y-58636564D01*
X143031677Y-58636564D01*
X143036837Y-58636753D01*
X143041957Y-58636097D01*
X143041959Y-58636097D01*
X143253288Y-58609025D01*
X143253289Y-58609025D01*
X143258416Y-58608368D01*
X143263366Y-58606883D01*
X143467429Y-58545661D01*
X143467434Y-58545659D01*
X143472384Y-58544174D01*
X143672994Y-58445896D01*
X143854860Y-58316173D01*
X144013096Y-58158489D01*
X144060175Y-58092972D01*
X144143453Y-57977077D01*
X144144640Y-57977930D01*
X144191960Y-57934362D01*
X144261897Y-57922145D01*
X144327338Y-57949678D01*
X144355166Y-57981511D01*
X144412694Y-58075388D01*
X144418777Y-58083699D01*
X144558213Y-58244667D01*
X144565580Y-58251883D01*
X144729434Y-58387916D01*
X144737881Y-58393831D01*
X144921756Y-58501279D01*
X144931042Y-58505729D01*
X145130001Y-58581703D01*
X145139899Y-58584579D01*
X145243250Y-58605606D01*
X145257299Y-58604410D01*
X145261000Y-58594065D01*
X145261000Y-58593517D01*
X145769000Y-58593517D01*
X145773064Y-58607359D01*
X145786478Y-58609393D01*
X145793184Y-58608534D01*
X145803262Y-58606392D01*
X146007255Y-58545191D01*
X146016842Y-58541433D01*
X146208095Y-58447739D01*
X146216945Y-58442464D01*
X146390328Y-58318792D01*
X146398200Y-58312139D01*
X146549052Y-58161812D01*
X146555730Y-58153965D01*
X146683022Y-57976819D01*
X146684279Y-57977722D01*
X146731373Y-57934362D01*
X146801311Y-57922145D01*
X146866751Y-57949678D01*
X146894579Y-57981511D01*
X146894875Y-57981994D01*
X146954987Y-58080088D01*
X147101250Y-58248938D01*
X147273126Y-58391632D01*
X147466000Y-58504338D01*
X147674692Y-58584030D01*
X147679760Y-58585061D01*
X147679763Y-58585062D01*
X147774862Y-58604410D01*
X147893597Y-58628567D01*
X147898772Y-58628757D01*
X147898774Y-58628757D01*
X148111673Y-58636564D01*
X148111677Y-58636564D01*
X148116837Y-58636753D01*
X148121957Y-58636097D01*
X148121959Y-58636097D01*
X148333288Y-58609025D01*
X148333289Y-58609025D01*
X148338416Y-58608368D01*
X148343366Y-58606883D01*
X148547429Y-58545661D01*
X148547434Y-58545659D01*
X148552384Y-58544174D01*
X148752994Y-58445896D01*
X148934860Y-58316173D01*
X149093096Y-58158489D01*
X149140175Y-58092972D01*
X149223453Y-57977077D01*
X149224776Y-57978028D01*
X149271645Y-57934857D01*
X149341580Y-57922625D01*
X149407026Y-57950144D01*
X149434875Y-57981994D01*
X149494987Y-58080088D01*
X149641250Y-58248938D01*
X149813126Y-58391632D01*
X150006000Y-58504338D01*
X150214692Y-58584030D01*
X150219760Y-58585061D01*
X150219763Y-58585062D01*
X150314862Y-58604410D01*
X150433597Y-58628567D01*
X150438772Y-58628757D01*
X150438774Y-58628757D01*
X150651673Y-58636564D01*
X150651677Y-58636564D01*
X150656837Y-58636753D01*
X150661957Y-58636097D01*
X150661959Y-58636097D01*
X150873288Y-58609025D01*
X150873289Y-58609025D01*
X150878416Y-58608368D01*
X150883366Y-58606883D01*
X151087429Y-58545661D01*
X151087434Y-58545659D01*
X151092384Y-58544174D01*
X151292994Y-58445896D01*
X151474860Y-58316173D01*
X151633096Y-58158489D01*
X151680175Y-58092972D01*
X151763453Y-57977077D01*
X151764776Y-57978028D01*
X151811645Y-57934857D01*
X151881580Y-57922625D01*
X151947026Y-57950144D01*
X151974875Y-57981994D01*
X152034987Y-58080088D01*
X152181250Y-58248938D01*
X152353126Y-58391632D01*
X152546000Y-58504338D01*
X152754692Y-58584030D01*
X152759760Y-58585061D01*
X152759763Y-58585062D01*
X152854862Y-58604410D01*
X152973597Y-58628567D01*
X152978772Y-58628757D01*
X152978774Y-58628757D01*
X153191673Y-58636564D01*
X153191677Y-58636564D01*
X153196837Y-58636753D01*
X153201957Y-58636097D01*
X153201959Y-58636097D01*
X153413288Y-58609025D01*
X153413289Y-58609025D01*
X153418416Y-58608368D01*
X153423366Y-58606883D01*
X153627429Y-58545661D01*
X153627434Y-58545659D01*
X153632384Y-58544174D01*
X153832994Y-58445896D01*
X154014860Y-58316173D01*
X154173096Y-58158489D01*
X154220175Y-58092972D01*
X154303453Y-57977077D01*
X154304776Y-57978028D01*
X154351645Y-57934857D01*
X154421580Y-57922625D01*
X154487026Y-57950144D01*
X154514875Y-57981994D01*
X154574987Y-58080088D01*
X154721250Y-58248938D01*
X154893126Y-58391632D01*
X155086000Y-58504338D01*
X155294692Y-58584030D01*
X155299760Y-58585061D01*
X155299763Y-58585062D01*
X155394862Y-58604410D01*
X155513597Y-58628567D01*
X155518772Y-58628757D01*
X155518774Y-58628757D01*
X155731673Y-58636564D01*
X155731677Y-58636564D01*
X155736837Y-58636753D01*
X155741957Y-58636097D01*
X155741959Y-58636097D01*
X155953288Y-58609025D01*
X155953289Y-58609025D01*
X155958416Y-58608368D01*
X155963366Y-58606883D01*
X156167429Y-58545661D01*
X156167434Y-58545659D01*
X156172384Y-58544174D01*
X156372994Y-58445896D01*
X156554860Y-58316173D01*
X156713096Y-58158489D01*
X156760175Y-58092972D01*
X156843453Y-57977077D01*
X156844776Y-57978028D01*
X156891645Y-57934857D01*
X156961580Y-57922625D01*
X157027026Y-57950144D01*
X157054875Y-57981994D01*
X157114987Y-58080088D01*
X157261250Y-58248938D01*
X157433126Y-58391632D01*
X157626000Y-58504338D01*
X157834692Y-58584030D01*
X157839760Y-58585061D01*
X157839763Y-58585062D01*
X157934862Y-58604410D01*
X158053597Y-58628567D01*
X158058772Y-58628757D01*
X158058774Y-58628757D01*
X158271673Y-58636564D01*
X158271677Y-58636564D01*
X158276837Y-58636753D01*
X158281957Y-58636097D01*
X158281959Y-58636097D01*
X158493288Y-58609025D01*
X158493289Y-58609025D01*
X158498416Y-58608368D01*
X158503366Y-58606883D01*
X158707429Y-58545661D01*
X158707434Y-58545659D01*
X158712384Y-58544174D01*
X158912994Y-58445896D01*
X159094860Y-58316173D01*
X159253096Y-58158489D01*
X159300175Y-58092972D01*
X159383453Y-57977077D01*
X159384776Y-57978028D01*
X159431645Y-57934857D01*
X159501580Y-57922625D01*
X159567026Y-57950144D01*
X159594875Y-57981994D01*
X159654987Y-58080088D01*
X159801250Y-58248938D01*
X159973126Y-58391632D01*
X160166000Y-58504338D01*
X160374692Y-58584030D01*
X160379760Y-58585061D01*
X160379763Y-58585062D01*
X160474862Y-58604410D01*
X160593597Y-58628567D01*
X160598772Y-58628757D01*
X160598774Y-58628757D01*
X160811673Y-58636564D01*
X160811677Y-58636564D01*
X160816837Y-58636753D01*
X160821957Y-58636097D01*
X160821959Y-58636097D01*
X161033288Y-58609025D01*
X161033289Y-58609025D01*
X161038416Y-58608368D01*
X161043366Y-58606883D01*
X161247429Y-58545661D01*
X161247434Y-58545659D01*
X161252384Y-58544174D01*
X161452994Y-58445896D01*
X161634860Y-58316173D01*
X161793096Y-58158489D01*
X161840175Y-58092972D01*
X161923453Y-57977077D01*
X161924640Y-57977930D01*
X161971960Y-57934362D01*
X162041897Y-57922145D01*
X162107338Y-57949678D01*
X162135166Y-57981511D01*
X162192694Y-58075388D01*
X162198777Y-58083699D01*
X162338213Y-58244667D01*
X162345580Y-58251883D01*
X162509434Y-58387916D01*
X162517881Y-58393831D01*
X162701756Y-58501279D01*
X162711042Y-58505729D01*
X162910001Y-58581703D01*
X162919899Y-58584579D01*
X163023250Y-58605606D01*
X163037299Y-58604410D01*
X163041000Y-58594065D01*
X163041000Y-55958102D01*
X163037082Y-55944758D01*
X163022806Y-55942771D01*
X162984324Y-55948660D01*
X162974288Y-55951051D01*
X162771868Y-56017212D01*
X162762359Y-56021209D01*
X162573463Y-56119542D01*
X162564738Y-56125036D01*
X162394433Y-56252905D01*
X162386726Y-56259748D01*
X162239590Y-56413717D01*
X162233109Y-56421722D01*
X162128498Y-56575074D01*
X162073587Y-56620076D01*
X162003062Y-56628247D01*
X161939315Y-56596993D01*
X161918618Y-56572509D01*
X161837822Y-56447617D01*
X161837820Y-56447614D01*
X161835014Y-56443277D01*
X161684670Y-56278051D01*
X161680619Y-56274852D01*
X161680615Y-56274848D01*
X161513414Y-56142800D01*
X161513410Y-56142798D01*
X161509359Y-56139598D01*
X161473028Y-56119542D01*
X161412829Y-56086311D01*
X161313789Y-56031638D01*
X161308920Y-56029914D01*
X161308916Y-56029912D01*
X161108087Y-55958795D01*
X161108083Y-55958794D01*
X161103212Y-55957069D01*
X161098119Y-55956162D01*
X161098116Y-55956161D01*
X160888373Y-55918800D01*
X160888367Y-55918799D01*
X160883284Y-55917894D01*
X160809452Y-55916992D01*
X160665081Y-55915228D01*
X160665079Y-55915228D01*
X160659911Y-55915165D01*
X160439091Y-55948955D01*
X160226756Y-56018357D01*
X160028607Y-56121507D01*
X160024474Y-56124610D01*
X160024471Y-56124612D01*
X159854100Y-56252530D01*
X159849965Y-56255635D01*
X159695629Y-56417138D01*
X159588201Y-56574621D01*
X159533293Y-56619621D01*
X159462768Y-56627792D01*
X159399021Y-56596538D01*
X159378324Y-56572054D01*
X159297822Y-56447617D01*
X159297820Y-56447614D01*
X159295014Y-56443277D01*
X159144670Y-56278051D01*
X159140619Y-56274852D01*
X159140615Y-56274848D01*
X158973414Y-56142800D01*
X158973410Y-56142798D01*
X158969359Y-56139598D01*
X158933028Y-56119542D01*
X158872829Y-56086311D01*
X158773789Y-56031638D01*
X158768920Y-56029914D01*
X158768916Y-56029912D01*
X158568087Y-55958795D01*
X158568083Y-55958794D01*
X158563212Y-55957069D01*
X158558119Y-55956162D01*
X158558116Y-55956161D01*
X158348373Y-55918800D01*
X158348367Y-55918799D01*
X158343284Y-55917894D01*
X158269452Y-55916992D01*
X158125081Y-55915228D01*
X158125079Y-55915228D01*
X158119911Y-55915165D01*
X157899091Y-55948955D01*
X157686756Y-56018357D01*
X157488607Y-56121507D01*
X157484474Y-56124610D01*
X157484471Y-56124612D01*
X157314100Y-56252530D01*
X157309965Y-56255635D01*
X157155629Y-56417138D01*
X157048201Y-56574621D01*
X156993293Y-56619621D01*
X156922768Y-56627792D01*
X156859021Y-56596538D01*
X156838324Y-56572054D01*
X156757822Y-56447617D01*
X156757820Y-56447614D01*
X156755014Y-56443277D01*
X156604670Y-56278051D01*
X156600619Y-56274852D01*
X156600615Y-56274848D01*
X156433414Y-56142800D01*
X156433410Y-56142798D01*
X156429359Y-56139598D01*
X156393028Y-56119542D01*
X156332829Y-56086311D01*
X156233789Y-56031638D01*
X156228920Y-56029914D01*
X156228916Y-56029912D01*
X156028087Y-55958795D01*
X156028083Y-55958794D01*
X156023212Y-55957069D01*
X156018119Y-55956162D01*
X156018116Y-55956161D01*
X155808373Y-55918800D01*
X155808367Y-55918799D01*
X155803284Y-55917894D01*
X155729452Y-55916992D01*
X155585081Y-55915228D01*
X155585079Y-55915228D01*
X155579911Y-55915165D01*
X155359091Y-55948955D01*
X155146756Y-56018357D01*
X154948607Y-56121507D01*
X154944474Y-56124610D01*
X154944471Y-56124612D01*
X154774100Y-56252530D01*
X154769965Y-56255635D01*
X154615629Y-56417138D01*
X154508201Y-56574621D01*
X154453293Y-56619621D01*
X154382768Y-56627792D01*
X154319021Y-56596538D01*
X154298324Y-56572054D01*
X154217822Y-56447617D01*
X154217820Y-56447614D01*
X154215014Y-56443277D01*
X154064670Y-56278051D01*
X154060619Y-56274852D01*
X154060615Y-56274848D01*
X153893414Y-56142800D01*
X153893410Y-56142798D01*
X153889359Y-56139598D01*
X153853028Y-56119542D01*
X153792829Y-56086311D01*
X153693789Y-56031638D01*
X153688920Y-56029914D01*
X153688916Y-56029912D01*
X153488087Y-55958795D01*
X153488083Y-55958794D01*
X153483212Y-55957069D01*
X153478119Y-55956162D01*
X153478116Y-55956161D01*
X153268373Y-55918800D01*
X153268367Y-55918799D01*
X153263284Y-55917894D01*
X153189452Y-55916992D01*
X153045081Y-55915228D01*
X153045079Y-55915228D01*
X153039911Y-55915165D01*
X152819091Y-55948955D01*
X152606756Y-56018357D01*
X152408607Y-56121507D01*
X152404474Y-56124610D01*
X152404471Y-56124612D01*
X152234100Y-56252530D01*
X152229965Y-56255635D01*
X152075629Y-56417138D01*
X151968201Y-56574621D01*
X151913293Y-56619621D01*
X151842768Y-56627792D01*
X151779021Y-56596538D01*
X151758324Y-56572054D01*
X151677822Y-56447617D01*
X151677820Y-56447614D01*
X151675014Y-56443277D01*
X151524670Y-56278051D01*
X151520619Y-56274852D01*
X151520615Y-56274848D01*
X151353414Y-56142800D01*
X151353410Y-56142798D01*
X151349359Y-56139598D01*
X151313028Y-56119542D01*
X151252829Y-56086311D01*
X151153789Y-56031638D01*
X151148920Y-56029914D01*
X151148916Y-56029912D01*
X150948087Y-55958795D01*
X150948083Y-55958794D01*
X150943212Y-55957069D01*
X150938119Y-55956162D01*
X150938116Y-55956161D01*
X150728373Y-55918800D01*
X150728367Y-55918799D01*
X150723284Y-55917894D01*
X150649452Y-55916992D01*
X150505081Y-55915228D01*
X150505079Y-55915228D01*
X150499911Y-55915165D01*
X150279091Y-55948955D01*
X150066756Y-56018357D01*
X149868607Y-56121507D01*
X149864474Y-56124610D01*
X149864471Y-56124612D01*
X149694100Y-56252530D01*
X149689965Y-56255635D01*
X149535629Y-56417138D01*
X149428201Y-56574621D01*
X149373293Y-56619621D01*
X149302768Y-56627792D01*
X149239021Y-56596538D01*
X149218324Y-56572054D01*
X149137822Y-56447617D01*
X149137820Y-56447614D01*
X149135014Y-56443277D01*
X148984670Y-56278051D01*
X148980619Y-56274852D01*
X148980615Y-56274848D01*
X148813414Y-56142800D01*
X148813410Y-56142798D01*
X148809359Y-56139598D01*
X148773028Y-56119542D01*
X148712829Y-56086311D01*
X148613789Y-56031638D01*
X148608920Y-56029914D01*
X148608916Y-56029912D01*
X148408087Y-55958795D01*
X148408083Y-55958794D01*
X148403212Y-55957069D01*
X148398119Y-55956162D01*
X148398116Y-55956161D01*
X148188373Y-55918800D01*
X148188367Y-55918799D01*
X148183284Y-55917894D01*
X148109452Y-55916992D01*
X147965081Y-55915228D01*
X147965079Y-55915228D01*
X147959911Y-55915165D01*
X147739091Y-55948955D01*
X147526756Y-56018357D01*
X147328607Y-56121507D01*
X147324474Y-56124610D01*
X147324471Y-56124612D01*
X147154100Y-56252530D01*
X147149965Y-56255635D01*
X146995629Y-56417138D01*
X146888204Y-56574618D01*
X146887898Y-56575066D01*
X146832987Y-56620069D01*
X146762462Y-56628240D01*
X146698715Y-56596986D01*
X146678018Y-56572502D01*
X146597426Y-56447926D01*
X146591136Y-56439757D01*
X146447806Y-56282240D01*
X146440273Y-56275215D01*
X146273139Y-56143222D01*
X146264552Y-56137517D01*
X146078117Y-56034599D01*
X146068705Y-56030369D01*
X145867959Y-55959280D01*
X145857988Y-55956646D01*
X145786837Y-55943972D01*
X145773540Y-55945432D01*
X145769000Y-55959989D01*
X145769000Y-58593517D01*
X145261000Y-58593517D01*
X145261000Y-55939987D01*
X145265448Y-55939987D01*
X145265452Y-55902241D01*
X145297249Y-55848657D01*
X145611501Y-55534405D01*
X145673813Y-55500379D01*
X145700596Y-55497500D01*
X163109405Y-55497500D01*
X163177526Y-55517502D01*
X163198501Y-55534405D01*
X163512975Y-55848880D01*
X163547000Y-55911192D01*
X163545697Y-55940795D01*
X163549000Y-55940795D01*
X163549000Y-58593517D01*
X163553064Y-58607359D01*
X163566478Y-58609393D01*
X163573184Y-58608534D01*
X163583262Y-58606392D01*
X163787255Y-58545191D01*
X163796842Y-58541433D01*
X163988095Y-58447739D01*
X163996945Y-58442464D01*
X164170328Y-58318792D01*
X164178200Y-58312139D01*
X164329052Y-58161812D01*
X164335730Y-58153965D01*
X164463022Y-57976819D01*
X164464279Y-57977722D01*
X164511373Y-57934362D01*
X164581311Y-57922145D01*
X164646751Y-57949678D01*
X164674579Y-57981511D01*
X164674875Y-57981994D01*
X164734987Y-58080088D01*
X164881250Y-58248938D01*
X165053126Y-58391632D01*
X165246000Y-58504338D01*
X165454692Y-58584030D01*
X165459760Y-58585061D01*
X165459763Y-58585062D01*
X165554862Y-58604410D01*
X165673597Y-58628567D01*
X165678772Y-58628757D01*
X165678774Y-58628757D01*
X165891673Y-58636564D01*
X165891677Y-58636564D01*
X165896837Y-58636753D01*
X165901957Y-58636097D01*
X165901959Y-58636097D01*
X166113288Y-58609025D01*
X166113289Y-58609025D01*
X166118416Y-58608368D01*
X166123366Y-58606883D01*
X166327429Y-58545661D01*
X166327434Y-58545659D01*
X166332384Y-58544174D01*
X166532994Y-58445896D01*
X166714860Y-58316173D01*
X166873096Y-58158489D01*
X166920175Y-58092972D01*
X167000435Y-57981277D01*
X167003453Y-57977077D01*
X167016995Y-57949678D01*
X167100136Y-57781453D01*
X167100137Y-57781451D01*
X167102430Y-57776811D01*
X167167370Y-57563069D01*
X167196529Y-57341590D01*
X167198156Y-57275000D01*
X167179852Y-57052361D01*
X167125431Y-56835702D01*
X167036354Y-56630840D01*
X166915014Y-56443277D01*
X166764670Y-56278051D01*
X166760619Y-56274852D01*
X166760615Y-56274848D01*
X166593414Y-56142800D01*
X166593410Y-56142798D01*
X166589359Y-56139598D01*
X166553028Y-56119542D01*
X166492829Y-56086311D01*
X166393789Y-56031638D01*
X166388920Y-56029914D01*
X166388916Y-56029912D01*
X166188087Y-55958795D01*
X166188083Y-55958794D01*
X166183212Y-55957069D01*
X166178119Y-55956162D01*
X166178116Y-55956161D01*
X165968373Y-55918800D01*
X165968367Y-55918799D01*
X165963284Y-55917894D01*
X165889452Y-55916992D01*
X165745081Y-55915228D01*
X165745079Y-55915228D01*
X165739911Y-55915165D01*
X165519091Y-55948955D01*
X165506532Y-55953060D01*
X165435568Y-55955210D01*
X165378294Y-55922389D01*
X163927652Y-54471747D01*
X163920112Y-54463461D01*
X163916000Y-54456982D01*
X163866348Y-54410356D01*
X163863507Y-54407602D01*
X163843770Y-54387865D01*
X163840573Y-54385385D01*
X163831551Y-54377680D01*
X163818122Y-54365069D01*
X163799321Y-54347414D01*
X163792375Y-54343595D01*
X163792372Y-54343593D01*
X163781566Y-54337652D01*
X163765047Y-54326801D01*
X163757394Y-54320865D01*
X163749041Y-54314386D01*
X163741772Y-54311241D01*
X163741768Y-54311238D01*
X163708463Y-54296826D01*
X163697813Y-54291609D01*
X163659060Y-54270305D01*
X163639437Y-54265267D01*
X163620734Y-54258863D01*
X163609420Y-54253967D01*
X163609419Y-54253967D01*
X163602145Y-54250819D01*
X163594322Y-54249580D01*
X163594312Y-54249577D01*
X163558476Y-54243901D01*
X163546856Y-54241495D01*
X163511711Y-54232472D01*
X163511710Y-54232472D01*
X163504030Y-54230500D01*
X163483776Y-54230500D01*
X163464065Y-54228949D01*
X163451886Y-54227020D01*
X163444057Y-54225780D01*
X163414786Y-54228547D01*
X163400039Y-54229941D01*
X163388181Y-54230500D01*
X145464767Y-54230500D01*
X145453584Y-54229973D01*
X145446091Y-54228298D01*
X145438165Y-54228547D01*
X145438164Y-54228547D01*
X145378001Y-54230438D01*
X145374043Y-54230500D01*
X145346144Y-54230500D01*
X145342154Y-54231004D01*
X145330320Y-54231936D01*
X145286111Y-54233326D01*
X145278497Y-54235538D01*
X145278492Y-54235539D01*
X145266659Y-54238977D01*
X145247296Y-54242988D01*
X145227203Y-54245526D01*
X145219836Y-54248443D01*
X145219831Y-54248444D01*
X145186092Y-54261802D01*
X145174865Y-54265646D01*
X145132407Y-54277982D01*
X145125581Y-54282019D01*
X145114972Y-54288293D01*
X145097224Y-54296988D01*
X145078383Y-54304448D01*
X145071967Y-54309110D01*
X145071966Y-54309110D01*
X145042613Y-54330436D01*
X145032693Y-54336952D01*
X145001465Y-54355420D01*
X145001462Y-54355422D01*
X144994638Y-54359458D01*
X144980317Y-54373779D01*
X144965284Y-54386619D01*
X144948893Y-54398528D01*
X144940217Y-54409016D01*
X144920702Y-54432605D01*
X144912712Y-54441384D01*
X143432345Y-55921750D01*
X143370033Y-55955776D01*
X143321154Y-55956702D01*
X143108373Y-55918800D01*
X143108367Y-55918799D01*
X143103284Y-55917894D01*
X143029452Y-55916992D01*
X142885081Y-55915228D01*
X142885079Y-55915228D01*
X142879911Y-55915165D01*
X142659091Y-55948955D01*
X142646532Y-55953060D01*
X142575568Y-55955210D01*
X142518294Y-55922389D01*
X141854621Y-55258716D01*
X141847081Y-55250430D01*
X141842969Y-55243951D01*
X141793317Y-55197325D01*
X141790476Y-55194571D01*
X141770739Y-55174834D01*
X141767542Y-55172354D01*
X141758520Y-55164649D01*
X141745085Y-55152033D01*
X141726290Y-55134383D01*
X141719344Y-55130564D01*
X141719341Y-55130562D01*
X141708535Y-55124621D01*
X141692016Y-55113770D01*
X141691552Y-55113410D01*
X141676010Y-55101355D01*
X141668741Y-55098210D01*
X141668737Y-55098207D01*
X141635432Y-55083795D01*
X141624782Y-55078578D01*
X141586029Y-55057274D01*
X141566406Y-55052236D01*
X141547703Y-55045832D01*
X141536389Y-55040936D01*
X141536388Y-55040936D01*
X141529114Y-55037788D01*
X141521291Y-55036549D01*
X141521281Y-55036546D01*
X141485445Y-55030870D01*
X141473825Y-55028464D01*
X141438680Y-55019441D01*
X141438679Y-55019441D01*
X141430999Y-55017469D01*
X141410745Y-55017469D01*
X141391034Y-55015918D01*
X141378855Y-55013989D01*
X141371026Y-55012749D01*
X141341755Y-55015516D01*
X141327008Y-55016910D01*
X141315150Y-55017469D01*
X132856788Y-55017469D01*
X132845605Y-55016942D01*
X132838112Y-55015267D01*
X132830186Y-55015516D01*
X132830185Y-55015516D01*
X132770035Y-55017407D01*
X132766076Y-55017469D01*
X132738165Y-55017469D01*
X132734231Y-55017966D01*
X132734230Y-55017966D01*
X132734165Y-55017974D01*
X132722328Y-55018907D01*
X132690511Y-55019907D01*
X132686050Y-55020047D01*
X132678131Y-55020296D01*
X132660475Y-55025425D01*
X132658679Y-55025947D01*
X132639327Y-55029955D01*
X132632256Y-55030849D01*
X132619224Y-55032495D01*
X132611855Y-55035412D01*
X132611853Y-55035413D01*
X132578118Y-55048769D01*
X132566890Y-55052614D01*
X132524428Y-55064951D01*
X132517606Y-55068985D01*
X132517600Y-55068988D01*
X132506989Y-55075263D01*
X132489239Y-55083959D01*
X132477777Y-55088497D01*
X132477772Y-55088500D01*
X132470404Y-55091417D01*
X132452991Y-55104068D01*
X132434646Y-55117396D01*
X132424728Y-55123912D01*
X132413484Y-55130562D01*
X132386658Y-55146427D01*
X132372334Y-55160751D01*
X132357302Y-55173590D01*
X132340914Y-55185497D01*
X132312733Y-55219562D01*
X132304743Y-55228342D01*
X131555837Y-55977248D01*
X131493525Y-56011274D01*
X131422710Y-56006209D01*
X131391180Y-55988980D01*
X131371705Y-55974385D01*
X131235316Y-55923255D01*
X131173134Y-55916500D01*
X129376866Y-55916500D01*
X129314684Y-55923255D01*
X129178295Y-55974385D01*
X129061739Y-56061739D01*
X128974385Y-56178295D01*
X128923255Y-56314684D01*
X128916500Y-56376866D01*
X128916500Y-58173134D01*
X128923255Y-58235316D01*
X128974385Y-58371705D01*
X129061739Y-58488261D01*
X129178295Y-58575615D01*
X129314684Y-58626745D01*
X129376866Y-58633500D01*
X130880989Y-58633500D01*
X130949110Y-58653502D01*
X130995603Y-58707158D01*
X131006989Y-58759500D01*
X131006989Y-67628907D01*
X130986987Y-67697028D01*
X130970084Y-67718002D01*
X122267052Y-76421033D01*
X122204740Y-76455059D01*
X122133925Y-76449994D01*
X122099864Y-76430819D01*
X121988415Y-76342801D01*
X121988413Y-76342800D01*
X121984359Y-76339598D01*
X121788789Y-76231638D01*
X121783920Y-76229914D01*
X121783916Y-76229912D01*
X121583087Y-76158795D01*
X121583083Y-76158794D01*
X121578212Y-76157069D01*
X121573119Y-76156162D01*
X121573116Y-76156161D01*
X121363373Y-76118800D01*
X121363367Y-76118799D01*
X121358284Y-76117894D01*
X121284452Y-76116992D01*
X121140081Y-76115228D01*
X121140079Y-76115228D01*
X121134911Y-76115165D01*
X120914091Y-76148955D01*
X120701756Y-76218357D01*
X120503607Y-76321507D01*
X120499474Y-76324610D01*
X120499471Y-76324612D01*
X120332478Y-76449994D01*
X120324965Y-76455635D01*
X120321393Y-76459373D01*
X120213729Y-76572037D01*
X120170629Y-76617138D01*
X120063201Y-76774621D01*
X120008293Y-76819621D01*
X119937768Y-76827792D01*
X119874021Y-76796538D01*
X119853324Y-76772054D01*
X119772822Y-76647617D01*
X119772820Y-76647614D01*
X119770014Y-76643277D01*
X119619670Y-76478051D01*
X119615619Y-76474852D01*
X119615615Y-76474848D01*
X119448414Y-76342800D01*
X119448410Y-76342798D01*
X119444359Y-76339598D01*
X119248789Y-76231638D01*
X119243920Y-76229914D01*
X119243916Y-76229912D01*
X119043087Y-76158795D01*
X119043083Y-76158794D01*
X119038212Y-76157069D01*
X119033119Y-76156162D01*
X119033116Y-76156161D01*
X118823373Y-76118800D01*
X118823367Y-76118799D01*
X118818284Y-76117894D01*
X118744452Y-76116992D01*
X118600081Y-76115228D01*
X118600079Y-76115228D01*
X118594911Y-76115165D01*
X118374091Y-76148955D01*
X118161756Y-76218357D01*
X117963607Y-76321507D01*
X117959474Y-76324610D01*
X117959471Y-76324612D01*
X117792478Y-76449994D01*
X117784965Y-76455635D01*
X117728537Y-76514684D01*
X117704283Y-76540064D01*
X117642759Y-76575494D01*
X117571846Y-76572037D01*
X117514060Y-76530791D01*
X117495207Y-76497243D01*
X117453767Y-76386703D01*
X117450615Y-76378295D01*
X117363261Y-76261739D01*
X117246705Y-76174385D01*
X117110316Y-76123255D01*
X117048134Y-76116500D01*
X115251866Y-76116500D01*
X115189684Y-76123255D01*
X115053295Y-76174385D01*
X114936739Y-76261739D01*
X114849385Y-76378295D01*
X114798255Y-76514684D01*
X114791500Y-76576866D01*
X114791500Y-78373134D01*
X114798255Y-78435316D01*
X114849385Y-78571705D01*
X114936739Y-78688261D01*
X115053295Y-78775615D01*
X115189684Y-78826745D01*
X115251866Y-78833500D01*
X117048134Y-78833500D01*
X117110316Y-78826745D01*
X117246705Y-78775615D01*
X117363261Y-78688261D01*
X117450615Y-78571705D01*
X117457996Y-78552017D01*
X117494598Y-78454382D01*
X117537240Y-78397618D01*
X117603802Y-78372918D01*
X117673150Y-78388126D01*
X117707817Y-78416114D01*
X117736250Y-78448938D01*
X117908126Y-78591632D01*
X118101000Y-78704338D01*
X118309692Y-78784030D01*
X118314760Y-78785061D01*
X118314763Y-78785062D01*
X118422017Y-78806883D01*
X118528597Y-78828567D01*
X118533772Y-78828757D01*
X118533774Y-78828757D01*
X118746673Y-78836564D01*
X118746677Y-78836564D01*
X118751837Y-78836753D01*
X118756957Y-78836097D01*
X118756959Y-78836097D01*
X118968288Y-78809025D01*
X118968289Y-78809025D01*
X118973416Y-78808368D01*
X118978366Y-78806883D01*
X119182429Y-78745661D01*
X119182434Y-78745659D01*
X119187384Y-78744174D01*
X119387994Y-78645896D01*
X119569860Y-78516173D01*
X119728096Y-78358489D01*
X119735477Y-78348218D01*
X119858453Y-78177077D01*
X119859776Y-78178028D01*
X119906645Y-78134857D01*
X119976580Y-78122625D01*
X120042026Y-78150144D01*
X120069875Y-78181994D01*
X120129987Y-78280088D01*
X120133367Y-78283990D01*
X120136425Y-78288168D01*
X120135451Y-78288881D01*
X120162530Y-78348218D01*
X120152408Y-78418489D01*
X120101948Y-78474569D01*
X120091318Y-78480857D01*
X120073577Y-78489547D01*
X120054736Y-78497007D01*
X120048320Y-78501669D01*
X120048319Y-78501669D01*
X120018966Y-78522995D01*
X120009046Y-78529511D01*
X119977818Y-78547979D01*
X119977815Y-78547981D01*
X119970991Y-78552017D01*
X119956670Y-78566338D01*
X119941637Y-78579178D01*
X119925246Y-78591087D01*
X119920195Y-78597193D01*
X119897055Y-78625164D01*
X119889065Y-78633943D01*
X113571367Y-84951640D01*
X113509055Y-84985666D01*
X113438240Y-84980601D01*
X113381404Y-84938054D01*
X113362507Y-84901690D01*
X113336627Y-84822511D01*
X113335020Y-84817593D01*
X113226175Y-84608504D01*
X113207415Y-84583517D01*
X113087747Y-84424135D01*
X113087745Y-84424132D01*
X113084642Y-84420000D01*
X112972210Y-84312557D01*
X112917960Y-84260714D01*
X112917959Y-84260713D01*
X112914223Y-84257143D01*
X112719492Y-84124307D01*
X112714808Y-84122133D01*
X112714805Y-84122131D01*
X112510372Y-84027236D01*
X112510367Y-84027234D01*
X112505681Y-84025059D01*
X112278532Y-83962065D01*
X112156111Y-83948982D01*
X112090501Y-83921854D01*
X112049973Y-83863562D01*
X112043500Y-83823695D01*
X112043500Y-67289594D01*
X112063502Y-67221473D01*
X112080405Y-67200499D01*
X115650499Y-63630405D01*
X115712811Y-63596379D01*
X115739594Y-63593500D01*
X117048134Y-63593500D01*
X117110316Y-63586745D01*
X117246705Y-63535615D01*
X117363261Y-63448261D01*
X117450615Y-63331705D01*
X117472799Y-63272529D01*
X117494598Y-63214382D01*
X117537240Y-63157618D01*
X117603802Y-63132918D01*
X117673150Y-63148126D01*
X117707817Y-63176114D01*
X117736250Y-63208938D01*
X117908126Y-63351632D01*
X118101000Y-63464338D01*
X118309692Y-63544030D01*
X118314760Y-63545061D01*
X118314763Y-63545062D01*
X118422017Y-63566883D01*
X118528597Y-63588567D01*
X118533772Y-63588757D01*
X118533774Y-63588757D01*
X118746673Y-63596564D01*
X118746677Y-63596564D01*
X118751837Y-63596753D01*
X118756957Y-63596097D01*
X118756959Y-63596097D01*
X118968288Y-63569025D01*
X118968289Y-63569025D01*
X118973416Y-63568368D01*
X118978366Y-63566883D01*
X119182429Y-63505661D01*
X119182434Y-63505659D01*
X119187384Y-63504174D01*
X119387994Y-63405896D01*
X119569860Y-63276173D01*
X119728096Y-63118489D01*
X119858453Y-62937077D01*
X119859776Y-62938028D01*
X119906645Y-62894857D01*
X119976580Y-62882625D01*
X120042026Y-62910144D01*
X120069875Y-62941994D01*
X120129987Y-63040088D01*
X120276250Y-63208938D01*
X120448126Y-63351632D01*
X120641000Y-63464338D01*
X120849692Y-63544030D01*
X120854760Y-63545061D01*
X120854763Y-63545062D01*
X120962017Y-63566883D01*
X121068597Y-63588567D01*
X121073772Y-63588757D01*
X121073774Y-63588757D01*
X121286673Y-63596564D01*
X121286677Y-63596564D01*
X121291837Y-63596753D01*
X121296957Y-63596097D01*
X121296959Y-63596097D01*
X121508288Y-63569025D01*
X121508289Y-63569025D01*
X121513416Y-63568368D01*
X121518366Y-63566883D01*
X121722429Y-63505661D01*
X121722434Y-63505659D01*
X121727384Y-63504174D01*
X121927994Y-63405896D01*
X122109860Y-63276173D01*
X122268096Y-63118489D01*
X122398453Y-62937077D01*
X122399776Y-62938028D01*
X122446645Y-62894857D01*
X122516580Y-62882625D01*
X122582026Y-62910144D01*
X122609875Y-62941994D01*
X122669987Y-63040088D01*
X122816250Y-63208938D01*
X122988126Y-63351632D01*
X123181000Y-63464338D01*
X123389692Y-63544030D01*
X123394760Y-63545061D01*
X123394763Y-63545062D01*
X123502017Y-63566883D01*
X123608597Y-63588567D01*
X123613772Y-63588757D01*
X123613774Y-63588757D01*
X123826673Y-63596564D01*
X123826677Y-63596564D01*
X123831837Y-63596753D01*
X123836957Y-63596097D01*
X123836959Y-63596097D01*
X124048288Y-63569025D01*
X124048289Y-63569025D01*
X124053416Y-63568368D01*
X124058366Y-63566883D01*
X124262429Y-63505661D01*
X124262434Y-63505659D01*
X124267384Y-63504174D01*
X124467994Y-63405896D01*
X124649860Y-63276173D01*
X124808096Y-63118489D01*
X124938453Y-62937077D01*
X124959320Y-62894857D01*
X125035136Y-62741453D01*
X125035137Y-62741451D01*
X125037430Y-62736811D01*
X125102370Y-62523069D01*
X125131529Y-62301590D01*
X125133156Y-62235000D01*
X125114852Y-62012361D01*
X125060431Y-61795702D01*
X124971354Y-61590840D01*
X124850014Y-61403277D01*
X124699670Y-61238051D01*
X124695619Y-61234852D01*
X124695615Y-61234848D01*
X124528414Y-61102800D01*
X124528410Y-61102798D01*
X124524359Y-61099598D01*
X124328789Y-60991638D01*
X124323920Y-60989914D01*
X124323916Y-60989912D01*
X124123087Y-60918795D01*
X124123083Y-60918794D01*
X124118212Y-60917069D01*
X124113119Y-60916162D01*
X124113116Y-60916161D01*
X123903373Y-60878800D01*
X123903367Y-60878799D01*
X123898284Y-60877894D01*
X123824452Y-60876992D01*
X123680081Y-60875228D01*
X123680079Y-60875228D01*
X123674911Y-60875165D01*
X123454091Y-60908955D01*
X123241756Y-60978357D01*
X123043607Y-61081507D01*
X123039474Y-61084610D01*
X123039471Y-61084612D01*
X122869100Y-61212530D01*
X122864965Y-61215635D01*
X122861393Y-61219373D01*
X122753729Y-61332037D01*
X122710629Y-61377138D01*
X122603201Y-61534621D01*
X122548293Y-61579621D01*
X122477768Y-61587792D01*
X122414021Y-61556538D01*
X122393324Y-61532054D01*
X122312822Y-61407617D01*
X122312820Y-61407614D01*
X122310014Y-61403277D01*
X122159670Y-61238051D01*
X122155619Y-61234852D01*
X122155615Y-61234848D01*
X121988414Y-61102800D01*
X121988410Y-61102798D01*
X121984359Y-61099598D01*
X121788789Y-60991638D01*
X121783920Y-60989914D01*
X121783916Y-60989912D01*
X121583087Y-60918795D01*
X121583083Y-60918794D01*
X121578212Y-60917069D01*
X121573119Y-60916162D01*
X121573116Y-60916161D01*
X121363373Y-60878800D01*
X121363367Y-60878799D01*
X121358284Y-60877894D01*
X121284452Y-60876992D01*
X121140081Y-60875228D01*
X121140079Y-60875228D01*
X121134911Y-60875165D01*
X120914091Y-60908955D01*
X120701756Y-60978357D01*
X120503607Y-61081507D01*
X120499474Y-61084610D01*
X120499471Y-61084612D01*
X120329100Y-61212530D01*
X120324965Y-61215635D01*
X120321393Y-61219373D01*
X120213729Y-61332037D01*
X120170629Y-61377138D01*
X120063201Y-61534621D01*
X120008293Y-61579621D01*
X119937768Y-61587792D01*
X119874021Y-61556538D01*
X119853324Y-61532054D01*
X119772822Y-61407617D01*
X119772820Y-61407614D01*
X119770014Y-61403277D01*
X119619670Y-61238051D01*
X119615619Y-61234852D01*
X119615615Y-61234848D01*
X119448414Y-61102800D01*
X119448410Y-61102798D01*
X119444359Y-61099598D01*
X119248789Y-60991638D01*
X119243920Y-60989914D01*
X119243916Y-60989912D01*
X119043087Y-60918795D01*
X119043083Y-60918794D01*
X119038212Y-60917069D01*
X119033119Y-60916162D01*
X119033116Y-60916161D01*
X118823373Y-60878800D01*
X118823367Y-60878799D01*
X118818284Y-60877894D01*
X118744452Y-60876992D01*
X118600081Y-60875228D01*
X118600079Y-60875228D01*
X118594911Y-60875165D01*
X118374091Y-60908955D01*
X118161756Y-60978357D01*
X117963607Y-61081507D01*
X117959474Y-61084610D01*
X117959471Y-61084612D01*
X117789100Y-61212530D01*
X117784965Y-61215635D01*
X117728537Y-61274684D01*
X117704283Y-61300064D01*
X117642759Y-61335494D01*
X117571846Y-61332037D01*
X117514060Y-61290791D01*
X117495207Y-61257243D01*
X117453767Y-61146703D01*
X117450615Y-61138295D01*
X117363261Y-61021739D01*
X117246705Y-60934385D01*
X117110316Y-60883255D01*
X117048134Y-60876500D01*
X115251866Y-60876500D01*
X115189684Y-60883255D01*
X115053295Y-60934385D01*
X114936739Y-61021739D01*
X114849385Y-61138295D01*
X114798255Y-61274684D01*
X114791500Y-61336866D01*
X114791500Y-62645405D01*
X114771498Y-62713526D01*
X114754595Y-62734500D01*
X111017747Y-66471348D01*
X111009461Y-66478888D01*
X111002982Y-66483000D01*
X110997557Y-66488777D01*
X110956357Y-66532651D01*
X110953602Y-66535493D01*
X110933865Y-66555230D01*
X110931385Y-66558427D01*
X110923682Y-66567447D01*
X110893414Y-66599679D01*
X110889595Y-66606625D01*
X110889593Y-66606628D01*
X110883652Y-66617434D01*
X110872801Y-66633953D01*
X110860386Y-66649959D01*
X110857241Y-66657228D01*
X110857238Y-66657232D01*
X110842826Y-66690537D01*
X110837609Y-66701187D01*
X110816305Y-66739940D01*
X110814334Y-66747615D01*
X110814334Y-66747616D01*
X110811267Y-66759562D01*
X110804863Y-66778266D01*
X110796819Y-66796855D01*
X110795580Y-66804678D01*
X110795577Y-66804688D01*
X110789901Y-66840524D01*
X110787495Y-66852144D01*
X110776500Y-66894970D01*
X110776500Y-66915224D01*
X110774949Y-66934934D01*
X110771780Y-66954943D01*
X110772526Y-66962835D01*
X110775941Y-66998961D01*
X110776500Y-67010819D01*
X110776500Y-83823358D01*
X110756498Y-83891479D01*
X110702842Y-83937972D01*
X110660825Y-83948934D01*
X110645203Y-83950218D01*
X110581221Y-83955478D01*
X110581215Y-83955479D01*
X110576070Y-83955902D01*
X110347449Y-84013327D01*
X110131277Y-84107322D01*
X109933359Y-84235360D01*
X109929536Y-84238839D01*
X109929533Y-84238841D01*
X109762833Y-84390527D01*
X109759011Y-84394005D01*
X109755812Y-84398056D01*
X109755808Y-84398060D01*
X109616117Y-84574939D01*
X109612915Y-84578994D01*
X109498995Y-84785361D01*
X109497271Y-84790230D01*
X109497269Y-84790234D01*
X109423865Y-84997522D01*
X109420309Y-85007564D01*
X109419402Y-85012657D01*
X109419401Y-85012660D01*
X109383359Y-85215000D01*
X109378971Y-85239633D01*
X109378543Y-85274661D01*
X109376460Y-85445170D01*
X109376091Y-85475339D01*
X109411747Y-85708349D01*
X109484980Y-85932407D01*
X109593825Y-86141496D01*
X109596928Y-86145629D01*
X109596930Y-86145632D01*
X109723250Y-86313874D01*
X109735358Y-86330000D01*
X109739096Y-86333572D01*
X109893823Y-86481433D01*
X109905777Y-86492857D01*
X110100508Y-86625693D01*
X110105192Y-86627867D01*
X110105195Y-86627869D01*
X110309628Y-86722764D01*
X110309633Y-86722766D01*
X110314319Y-86724941D01*
X110541468Y-86787935D01*
X110546605Y-86788484D01*
X110730563Y-86808144D01*
X110730571Y-86808144D01*
X110733898Y-86808500D01*
X111410317Y-86808500D01*
X111478438Y-86828502D01*
X111524931Y-86882158D01*
X111535035Y-86952432D01*
X111505541Y-87017012D01*
X111499412Y-87023595D01*
X109169227Y-89353780D01*
X109160941Y-89361320D01*
X109154462Y-89365432D01*
X109149037Y-89371209D01*
X109107837Y-89415083D01*
X109105082Y-89417925D01*
X109085345Y-89437662D01*
X109082865Y-89440859D01*
X109075162Y-89449879D01*
X109044894Y-89482111D01*
X109041075Y-89489057D01*
X109041073Y-89489060D01*
X109035132Y-89499866D01*
X109024281Y-89516385D01*
X109011866Y-89532391D01*
X109008721Y-89539660D01*
X109008718Y-89539664D01*
X108994306Y-89572969D01*
X108989089Y-89583619D01*
X108967785Y-89622372D01*
X108965814Y-89630047D01*
X108965814Y-89630048D01*
X108962747Y-89641994D01*
X108956343Y-89660698D01*
X108948299Y-89679287D01*
X108947060Y-89687110D01*
X108947057Y-89687120D01*
X108941381Y-89722956D01*
X108938975Y-89734576D01*
X108927980Y-89777402D01*
X108927980Y-89797656D01*
X108926429Y-89817366D01*
X108923260Y-89837375D01*
X100841486Y-89837375D01*
X100835020Y-89817593D01*
X100726175Y-89608504D01*
X100707415Y-89583517D01*
X100587747Y-89424135D01*
X100587745Y-89424132D01*
X100584642Y-89420000D01*
X100414223Y-89257143D01*
X100219492Y-89124307D01*
X100214808Y-89122133D01*
X100214805Y-89122131D01*
X100010372Y-89027236D01*
X100010367Y-89027234D01*
X100005681Y-89025059D01*
X99778532Y-88962065D01*
X99773395Y-88961516D01*
X99589437Y-88941856D01*
X99589429Y-88941856D01*
X99586102Y-88941500D01*
X98251243Y-88941500D01*
X98248670Y-88941712D01*
X98248659Y-88941712D01*
X98081221Y-88955478D01*
X98081215Y-88955479D01*
X98076070Y-88955902D01*
X97847449Y-89013327D01*
X97631277Y-89107322D01*
X97433359Y-89235360D01*
X97429536Y-89238839D01*
X97429533Y-89238841D01*
X97284063Y-89371209D01*
X97259011Y-89394005D01*
X97255812Y-89398056D01*
X97255808Y-89398060D01*
X97117673Y-89572969D01*
X97112915Y-89578994D01*
X97110419Y-89583515D01*
X97110418Y-89583517D01*
X97092801Y-89615431D01*
X96998995Y-89785361D01*
X96997271Y-89790230D01*
X96997269Y-89790234D01*
X96942124Y-89945959D01*
X96920309Y-90007564D01*
X96919402Y-90012657D01*
X96919401Y-90012660D01*
X96884331Y-90209544D01*
X96878971Y-90239633D01*
X96878585Y-90271227D01*
X96876460Y-90445170D01*
X96876091Y-90475339D01*
X96258000Y-90475339D01*
X96258000Y-85475339D01*
X96876091Y-85475339D01*
X96911747Y-85708349D01*
X96984980Y-85932407D01*
X97093825Y-86141496D01*
X97096928Y-86145629D01*
X97096930Y-86145632D01*
X97223250Y-86313874D01*
X97235358Y-86330000D01*
X97239096Y-86333572D01*
X97393823Y-86481433D01*
X97405777Y-86492857D01*
X97600508Y-86625693D01*
X97605192Y-86627867D01*
X97605195Y-86627869D01*
X97809628Y-86722764D01*
X97809633Y-86722766D01*
X97814319Y-86724941D01*
X98041468Y-86787935D01*
X98046605Y-86788484D01*
X98230563Y-86808144D01*
X98230571Y-86808144D01*
X98233898Y-86808500D01*
X99568757Y-86808500D01*
X99571330Y-86808288D01*
X99571341Y-86808288D01*
X99738779Y-86794522D01*
X99738785Y-86794521D01*
X99743930Y-86794098D01*
X99972551Y-86736673D01*
X100188723Y-86642678D01*
X100386641Y-86514640D01*
X100410581Y-86492857D01*
X100557167Y-86359473D01*
X100557168Y-86359471D01*
X100560989Y-86355995D01*
X100564188Y-86351944D01*
X100564192Y-86351940D01*
X100703883Y-86175061D01*
X100703885Y-86175057D01*
X100707085Y-86171006D01*
X100723383Y-86141483D01*
X100774054Y-86049691D01*
X100821005Y-85964639D01*
X100828256Y-85944165D01*
X100897965Y-85747311D01*
X100897966Y-85747307D01*
X100899691Y-85742436D01*
X100904256Y-85716811D01*
X100940123Y-85515456D01*
X100940124Y-85515450D01*
X100941029Y-85510367D01*
X100943909Y-85274661D01*
X100908253Y-85041651D01*
X100835020Y-84817593D01*
X100726175Y-84608504D01*
X100707415Y-84583517D01*
X100587747Y-84424135D01*
X100587745Y-84424132D01*
X100584642Y-84420000D01*
X100472210Y-84312557D01*
X100417960Y-84260714D01*
X100417959Y-84260713D01*
X100414223Y-84257143D01*
X100219492Y-84124307D01*
X100214808Y-84122133D01*
X100214805Y-84122131D01*
X100010372Y-84027236D01*
X100010367Y-84027234D01*
X100005681Y-84025059D01*
X99778532Y-83962065D01*
X99743836Y-83958357D01*
X99589437Y-83941856D01*
X99589429Y-83941856D01*
X99586102Y-83941500D01*
X98251243Y-83941500D01*
X98248670Y-83941712D01*
X98248659Y-83941712D01*
X98081221Y-83955478D01*
X98081215Y-83955479D01*
X98076070Y-83955902D01*
X97847449Y-84013327D01*
X97631277Y-84107322D01*
X97433359Y-84235360D01*
X97429536Y-84238839D01*
X97429533Y-84238841D01*
X97262833Y-84390527D01*
X97259011Y-84394005D01*
X97255812Y-84398056D01*
X97255808Y-84398060D01*
X97116117Y-84574939D01*
X97112915Y-84578994D01*
X96998995Y-84785361D01*
X96997271Y-84790230D01*
X96997269Y-84790234D01*
X96923865Y-84997522D01*
X96920309Y-85007564D01*
X96919402Y-85012657D01*
X96919401Y-85012660D01*
X96883359Y-85215000D01*
X96878971Y-85239633D01*
X96878543Y-85274661D01*
X96876460Y-85445170D01*
X96876091Y-85475339D01*
X96258000Y-85475339D01*
X96258000Y-58549328D01*
X96259500Y-58529943D01*
X96261805Y-58515142D01*
X96261805Y-58515139D01*
X96263186Y-58506270D01*
X96260452Y-58485361D01*
X96259496Y-58463821D01*
X96260238Y-58445896D01*
X96265770Y-58312139D01*
X96274835Y-58092972D01*
X96275695Y-58082593D01*
X96325441Y-57683514D01*
X96327155Y-57673243D01*
X96409684Y-57279642D01*
X96412240Y-57269546D01*
X96526996Y-56884089D01*
X96530377Y-56874240D01*
X96531452Y-56871485D01*
X96676576Y-56499566D01*
X96680747Y-56490058D01*
X96705485Y-56439457D01*
X96857377Y-56128755D01*
X96862331Y-56119600D01*
X97068199Y-55774110D01*
X97073895Y-55765393D01*
X97307586Y-55438087D01*
X97313976Y-55429877D01*
X97573902Y-55122984D01*
X97580955Y-55115323D01*
X97865323Y-54830955D01*
X97872984Y-54823902D01*
X98179877Y-54563976D01*
X98188087Y-54557586D01*
X98515393Y-54323895D01*
X98524110Y-54318199D01*
X98869600Y-54112331D01*
X98878759Y-54107375D01*
X99240066Y-53930743D01*
X99249566Y-53926576D01*
X99624248Y-53780374D01*
X99634089Y-53776996D01*
X100019546Y-53662240D01*
X100029642Y-53659684D01*
X100423243Y-53577155D01*
X100433514Y-53575441D01*
X100832593Y-53525695D01*
X100842972Y-53524835D01*
X101206361Y-53509805D01*
X101230951Y-53511197D01*
X101234853Y-53511804D01*
X101234855Y-53511804D01*
X101243730Y-53513186D01*
X101275682Y-53509008D01*
X101291844Y-53507944D01*
X194950122Y-53383067D01*
X194969983Y-53384617D01*
G37*
%TD.AperFunction*%
%TD*%
M02*
