%TF.GenerationSoftware,KiCad,Pcbnew,(6.0.1)*%
%TF.CreationDate,2022-11-16T17:15:53-05:00*%
%TF.ProjectId,Projet_Final_GI_Equipe2,50726f6a-6574-45f4-9669-6e616c5f4749,rev?*%
%TF.SameCoordinates,Original*%
%TF.FileFunction,Soldermask,Top*%
%TF.FilePolarity,Negative*%
%FSLAX46Y46*%
G04 Gerber Fmt 4.6, Leading zero omitted, Abs format (unit mm)*
G04 Created by KiCad (PCBNEW (6.0.1)) date 2022-11-16 17:15:53*
%MOMM*%
%LPD*%
G01*
G04 APERTURE LIST*
G04 Aperture macros list*
%AMRoundRect*
0 Rectangle with rounded corners*
0 $1 Rounding radius*
0 $2 $3 $4 $5 $6 $7 $8 $9 X,Y pos of 4 corners*
0 Add a 4 corners polygon primitive as box body*
4,1,4,$2,$3,$4,$5,$6,$7,$8,$9,$2,$3,0*
0 Add four circle primitives for the rounded corners*
1,1,$1+$1,$2,$3*
1,1,$1+$1,$4,$5*
1,1,$1+$1,$6,$7*
1,1,$1+$1,$8,$9*
0 Add four rect primitives between the rounded corners*
20,1,$1+$1,$2,$3,$4,$5,0*
20,1,$1+$1,$4,$5,$6,$7,0*
20,1,$1+$1,$6,$7,$8,$9,0*
20,1,$1+$1,$8,$9,$2,$3,0*%
%AMFreePoly0*
4,1,22,0.500000,-0.750000,0.000000,-0.750000,0.000000,-0.745033,-0.079941,-0.743568,-0.215256,-0.701293,-0.333266,-0.622738,-0.424486,-0.514219,-0.481581,-0.384460,-0.499164,-0.250000,-0.500000,-0.250000,-0.500000,0.250000,-0.499164,0.250000,-0.499963,0.256109,-0.478152,0.396186,-0.417904,0.524511,-0.324060,0.630769,-0.204165,0.706417,-0.067858,0.745374,0.000000,0.744959,0.000000,0.750000,
0.500000,0.750000,0.500000,-0.750000,0.500000,-0.750000,$1*%
%AMFreePoly1*
4,1,20,0.000000,0.744959,0.073905,0.744508,0.209726,0.703889,0.328688,0.626782,0.421226,0.519385,0.479903,0.390333,0.500000,0.250000,0.500000,-0.250000,0.499851,-0.262216,0.476331,-0.402017,0.414519,-0.529596,0.319384,-0.634700,0.198574,-0.708877,0.061801,-0.746166,0.000000,-0.745033,0.000000,-0.750000,-0.500000,-0.750000,-0.500000,0.750000,0.000000,0.750000,0.000000,0.744959,
0.000000,0.744959,$1*%
G04 Aperture macros list end*
%ADD10R,1.700000X1.700000*%
%ADD11O,1.700000X1.700000*%
%ADD12FreePoly0,0.000000*%
%ADD13FreePoly1,0.000000*%
%ADD14FreePoly0,180.000000*%
%ADD15FreePoly1,180.000000*%
%ADD16C,1.778000*%
%ADD17C,2.286000*%
%ADD18R,1.000000X1.500000*%
%ADD19RoundRect,0.250000X0.337500X0.475000X-0.337500X0.475000X-0.337500X-0.475000X0.337500X-0.475000X0*%
%ADD20RoundRect,0.250000X0.475000X-0.337500X0.475000X0.337500X-0.475000X0.337500X-0.475000X-0.337500X0*%
%ADD21RoundRect,0.250000X-0.337500X-0.475000X0.337500X-0.475000X0.337500X0.475000X-0.337500X0.475000X0*%
%ADD22O,3.048000X1.850000*%
%ADD23RoundRect,0.250000X-0.475000X0.337500X-0.475000X-0.337500X0.475000X-0.337500X0.475000X0.337500X0*%
G04 APERTURE END LIST*
D10*
%TO.C,J1*%
X130275000Y-85215000D03*
D11*
X132815000Y-85215000D03*
X135355000Y-85215000D03*
X137895000Y-85215000D03*
X140435000Y-85215000D03*
X142975000Y-85215000D03*
X145515000Y-85215000D03*
X148055000Y-85215000D03*
X150595000Y-85215000D03*
X153135000Y-85215000D03*
X155675000Y-85215000D03*
X158215000Y-85215000D03*
X160755000Y-85215000D03*
X163295000Y-85215000D03*
X165835000Y-85215000D03*
%TD*%
D12*
%TO.C,JP2*%
X170292000Y-82296000D03*
D13*
X171592000Y-82296000D03*
%TD*%
D14*
%TO.C,JP1*%
X126634000Y-82296000D03*
D15*
X125334000Y-82296000D03*
%TD*%
D10*
%TO.C,J8*%
X146045000Y-119380000D03*
D11*
X148585000Y-119380000D03*
%TD*%
D10*
%TO.C,J7*%
X144033000Y-93980000D03*
D11*
X146573000Y-93980000D03*
X149113000Y-93980000D03*
%TD*%
D16*
%TO.C,U2*%
X158840000Y-106540000D03*
X158840000Y-104000000D03*
X158840000Y-101460000D03*
D17*
X176620000Y-97332500D03*
X176620000Y-110667500D03*
X161380000Y-110667500D03*
X161380000Y-97332500D03*
D16*
X171540000Y-114160000D03*
X169000000Y-114160000D03*
X166460000Y-114160000D03*
X172175000Y-96380000D03*
X165825000Y-96380000D03*
X172175000Y-91300000D03*
X165825000Y-91300000D03*
%TD*%
%TO.C,U1*%
X122225000Y-91300000D03*
X128575000Y-91300000D03*
X122225000Y-96380000D03*
X128575000Y-96380000D03*
X122860000Y-114160000D03*
X125400000Y-114160000D03*
X127940000Y-114160000D03*
D17*
X117780000Y-97332500D03*
X117780000Y-110667500D03*
X133020000Y-110667500D03*
X133020000Y-97332500D03*
D16*
X115240000Y-101460000D03*
X115240000Y-104000000D03*
X115240000Y-106540000D03*
%TD*%
D18*
%TO.C,D7*%
X190286000Y-66732000D03*
X193486000Y-66732000D03*
X193486000Y-71632000D03*
X190286000Y-71632000D03*
%TD*%
D19*
%TO.C,R3*%
X197104000Y-97282000D03*
X195029000Y-97282000D03*
%TD*%
D20*
%TO.C,C1*%
X98044000Y-70125500D03*
X98044000Y-68050500D03*
%TD*%
%TO.C,C3*%
X98044000Y-60727500D03*
X98044000Y-58652500D03*
%TD*%
D19*
%TO.C,R1*%
X114829500Y-68326000D03*
X112754500Y-68326000D03*
%TD*%
D21*
%TO.C,R6*%
X122406500Y-85090000D03*
X124481500Y-85090000D03*
%TD*%
D11*
%TO.C,J2*%
X165835000Y-57275000D03*
X163295000Y-57275000D03*
X160755000Y-57275000D03*
X158215000Y-57275000D03*
X155675000Y-57275000D03*
X153135000Y-57275000D03*
X150595000Y-57275000D03*
X148055000Y-57275000D03*
X145515000Y-57275000D03*
X142975000Y-57275000D03*
X140435000Y-57275000D03*
X137895000Y-57275000D03*
X135355000Y-57275000D03*
X132815000Y-57275000D03*
D10*
X130275000Y-57275000D03*
%TD*%
D18*
%TO.C,D5*%
X190286000Y-56732000D03*
X193486000Y-56732000D03*
X193486000Y-61632000D03*
X190286000Y-61632000D03*
%TD*%
D10*
%TO.C,J3*%
X171150000Y-77475000D03*
D11*
X173690000Y-77475000D03*
X176230000Y-77475000D03*
X178770000Y-77475000D03*
%TD*%
D22*
%TO.C,SW2*%
X197235000Y-85350000D03*
X184735000Y-85350000D03*
X197235000Y-90350000D03*
X184735000Y-90350000D03*
%TD*%
D23*
%TO.C,C7*%
X186436000Y-70125500D03*
X186436000Y-68050500D03*
%TD*%
D21*
%TO.C,R2*%
X98806000Y-97282000D03*
X100881000Y-97282000D03*
%TD*%
D18*
%TO.C,D3*%
X105486000Y-56732000D03*
X102286000Y-56732000D03*
X102286000Y-61632000D03*
X105486000Y-61632000D03*
%TD*%
D23*
%TO.C,C5*%
X186182000Y-60981500D03*
X186182000Y-58906500D03*
%TD*%
D10*
%TO.C,J4*%
X116150000Y-77475000D03*
D11*
X118690000Y-77475000D03*
X121230000Y-77475000D03*
X123770000Y-77475000D03*
%TD*%
D10*
%TO.C,J6*%
X171150000Y-62235000D03*
D11*
X173690000Y-62235000D03*
X176230000Y-62235000D03*
X178770000Y-62235000D03*
%TD*%
D10*
%TO.C,J5*%
X116150000Y-62235000D03*
D11*
X118690000Y-62235000D03*
X121230000Y-62235000D03*
X123770000Y-62235000D03*
%TD*%
D22*
%TO.C,SW1*%
X111410000Y-85375000D03*
X98910000Y-85375000D03*
X111410000Y-90375000D03*
X98910000Y-90375000D03*
%TD*%
D21*
%TO.C,R7*%
X171979500Y-85344000D03*
X169904500Y-85344000D03*
%TD*%
D18*
%TO.C,D1*%
X105486000Y-66732000D03*
X102286000Y-66732000D03*
X102286000Y-71632000D03*
X105486000Y-71632000D03*
%TD*%
M02*
